<?xml version="1.0" standalone="no"?>
<!DOCTYPE svg PUBLIC "-//W3C//DTD SVG 1.1//EN" "http://www.w3.org/Graphics/SVG/1.1/DTD/svg11.dtd">
<svg xmlns="http://www.w3.org/2000/svg">
<defs >
<font id="ComicNeue" horiz-adv-x="493" ><font-face
    font-family="Comic Neue Light"
    units-per-em="1000"
    panose-1="2 0 0 0 0 0 0 0 0 0"
    ascent="900"
    descent="-250"
    alphabetic="0" />
<glyph unicode=" " glyph-name="space" horiz-adv-x="323" />
<glyph unicode="!" glyph-name="exclam" horiz-adv-x="250" d="M121 150T114 157T107 173V669Q107 679 114 685T130 692Q140 692 146 686T153 669V173Q153 164 147 157T130 150Q121 150 114 157ZM110 -6T103 3T95 25Q95 41 105 53T129 65Q141 65 148 57T155 36Q155
19 145 7T121 -6Q110 -6 103 3Z" />
<glyph unicode="&quot;" glyph-name="quotedbl" horiz-adv-x="270" d="M64 508T58 514T52 530V668Q52 677 58 683T74 689Q83 689 89 683T96 668V530Q96 521 89 515T74 508Q64 508 58 514ZM187 508T181 514T174 530V668Q174 677 180 683T196 689Q205 689 211 683T218
668V530Q218 521 212 515T196 508Q187 508 181 514Z" />
<glyph unicode="#" glyph-name="numbersign" horiz-adv-x="728" d="M158 -6T152 0T146 14Q146 21 149 31L202 210H72Q63 210 57 216T50 232Q50 241 56 247T72 253H214L267 435H118Q109 435 103 441T96 457Q96 466 102 472T118 479H281L336 673Q338 680 344 684T357
688Q367 688 372 683T378 668Q378 664 375 653L324 479H497L553 673Q555 680 561 684T574 688Q583 688 589 682T595 669Q595 663 592 654L541 479H655Q664 479 670 473T677 457Q677 448 671 442T655 435H529L475 253H609Q618 253 624 247T631 232Q631 222 625 216T609
210H463L405 10Q400 -6 385 -6Q375 -6 369 0T363 16Q363 22 366 32L419 210H246L188 10Q186 3 181 -1T168 -6Q158 -6 152 0ZM432 253L484 435H312L258 253H432Z" />
<glyph unicode="$" glyph-name="dollar" horiz-adv-x="612" d="M526 137T500 97T427 32T324 3V-60Q324 -69 318 -75T303 -82Q295 -82 289 -76T283 -60V3Q206 7 149 43T70 135Q65 145 65 152Q65 161 72 167T89 174Q106 174 111 157Q128 109 176 78T284 42L286 340Q203
366 153 407T103 513Q103 577 153 619T287 670V731Q287 740 292 746T307 753Q315 753 321 746T327 731V671Q419 670 470 635T525 542V540Q525 532 519 527T505 521Q497 521 492 526T485 538Q480 578 439 605T326 634L324 373H325Q428 343 477 298T526 187Q526 137
500 97ZM147 472T180 442T286 386L287 632Q219 625 183 595T147 517Q147 472 180 442ZM393 47T438 86T483 184Q483 232 446 267T324 328V42Q393 47 438 86Z" />
<glyph unicode="%" glyph-name="percent" horiz-adv-x="697" d="M144 428T114 446T65 494T47 561Q47 597 65 627T113 675T180 693Q216 693 246 676T294 628T312 561Q312 525 294 495T246 446T180 428Q144 428 114 446ZM159 -6T154 -1T149 12Q149 18 153 25L516
680Q520 689 531 689Q539 689 545 684T551 670Q551 667 549 661L185 4Q179 -6 167 -6Q159 -6 154 -1ZM218 469T244 495T271 561Q271 599 245 625T180 652Q142 652 115 625T88 561Q88 522 115 496T180 469Q218 469 244 495ZM480 -14T449 4T400 52T382 119Q382 155
400 185T449 233T515 251Q551 251 581 233T630 185T648 119Q648 83 630 53T582 4T515 -14Q480 -14 449 4ZM553 27T579 53T606 119Q606 156 579 183T515 210Q478 210 451 183T424 119Q424 80 450 54T515 27Q553 27 579 53Z" />
<glyph unicode="&amp;" glyph-name="ampersand" horiz-adv-x="630" d="M204 -10T158 12T82 77T52 173Q52 227 75 265T134 330T224 386Q142 481 142 551Q142 587 162 619T215 670T286 689Q322 689 355 670T408 620T429 554Q429 496 397 457T289 376L450 184Q461
204 468 224T481 265Q487 282 491 287T506 293Q514 293 519 287T525 273Q525 260 508 216T479 150L581 28Q586 21 586 15Q586 6 580 0T565 -6Q554 -6 549 1L456 112Q403 38 348 14T253 -10Q204 -10 158 12ZM321 437T348 462T382 506T389 552Q389 576 375 598T336
634T286 648Q262 648 238 635T199 600T183 551Q183 516 207 476T262 408Q321 437 348 462ZM287 31T335 53T429 145L253 356Q197 327 165 305T113 250T93 173Q93 127 118 95T181 47T253 31Q287 31 335 53Z" />
<glyph unicode="&apos;" glyph-name="quotesingle" horiz-adv-x="183" d="M86 508T80 514T73 530V668Q73 677 79 683T95 689Q104 689 110 683T117 668V530Q117 521 111 515T95 508Q86 508 80 514Z" />
<glyph unicode="(" glyph-name="parenleft" horiz-adv-x="350" d="M253 -117T243 -107Q170 -21 119 92T67 348Q67 470 119 586T258 787Q269 798 277 798Q286 798 292 792T298 776Q298 766 291 760Q218 691 165 583T111 348Q111 221 160 108T277 -80Q284 -86 284
-97Q284 -105 278 -111T263 -117Q253 -117 243 -107Z" />
<glyph unicode=")" glyph-name="parenright" horiz-adv-x="350" d="M79 -117T73 -111T66 -97Q66 -86 73 -80Q138 -11 189 104T240 348Q240 470 190 575T59 760Q52 766 52 776Q52 785 58 791T73 798Q81 798 92 787Q178 702 230 586T283 348Q283 215 235 100T107
-107Q99 -117 87 -117Q79 -117 73 -111Z" />
<glyph unicode="*" glyph-name="asterisk" horiz-adv-x="371" d="M105 443T100 449T94 463Q94 478 115 502Q133 523 168 552Q148 553 129 557T91 568Q55 576 55 596Q55 605 61 610T76 616Q90 616 116 604Q147 590 174 572Q162 613 162 661Q162 676 168 684T185
693Q195 693 201 685T207 661Q207 613 196 572Q264 616 294 616Q303 616 309 611T315 598Q316 587 309 581T281 567Q255 560 239 557T202 552Q220 538 232 524T249 506Q276 477 276 466Q276 457 271 450T256 443Q247 443 239 451T219 477Q214 486 204 503T185 541Q175
513 152 476Q140 458 132 451T114 443Q105 443 100 449Z" />
<glyph unicode="+" glyph-name="plus" horiz-adv-x="447" d="M215 82T209 88T203 102V224H79Q71 224 65 230T58 245Q58 254 64 260T79 266H203V378Q203 386 209 392T223 398Q231 398 237 392T244 378V266H368Q376 266 382 260T389 245Q389 237 383 231T368 224H244V102Q244
94 238 88T223 82Q215 82 209 88Z" />
<glyph unicode="," glyph-name="comma" horiz-adv-x="150" d="M45 -101T40 -97T35 -87Q35 -86 37 -78L63 -9Q50 4 50 20Q50 36 60 47T84 59Q95 59 102 51T110 33Q110 21 106 7T91 -30Q88 -38 79 -61T64 -92T52 -101Q45 -101 40 -97Z" />
<glyph unicode="-" glyph-name="hyphen" horiz-adv-x="402" d="M66 223T60 229T53 244Q53 252 59 258T74 265H328Q336 265 342 259T349 244Q349 236 343 230T328 223H74Q66 223 60 229Z" />
<glyph unicode="." glyph-name="period" horiz-adv-x="138" d="M53 -6T46 3T38 26Q38 41 48 53T72 65Q83 65 90 57T98 36Q98 19 88 7T64 -6Q53 -6 46 3Z" />
<glyph unicode="/" glyph-name="slash" horiz-adv-x="422" d="M42 -122T36 -116T29 -101Q29 -97 33 -89L359 680Q363 691 378 691Q387 691 392 686T398 673Q398 666 394 656L67 -113Q63 -122 50 -122Q42 -122 36 -116Z" />
<glyph unicode="0" glyph-name="zero" horiz-adv-x="602" d="M225 -6T174 39T93 160T63 323Q63 419 96 503T187 637T313 688Q377 688 428 643T509 523T538 358Q538 261 505 178T414 44T289 -6Q225 -6 174 39ZM344 36T392 79T469 197T498 356Q498 432 474 499T407
606T313 646Q258 646 210 603T133 485T104 325Q104 250 128 184T194 77T289 36Q344 36 392 79Z" />
<glyph unicode="1" glyph-name="one" horiz-adv-x="384" d="M77 0T71 6T64 22Q64 30 70 37T86 44H185L193 607L99 506Q92 499 83 499Q74 499 68 505T61 521Q61 525 63 528T67 535L199 678Q206 685 215 685Q224 685 230 679T237 664L228 44H308Q319 44 325 38T332
22Q332 12 326 6T310 0H86Q77 0 71 6Z" />
<glyph unicode="2" glyph-name="two" horiz-adv-x="512" d="M63 104T89 161T155 256T259 334Q314 370 341 391T387 443T406 516Q406 569 365 604T263 639Q205 639 164 612T103 562Q101 560 97 555T89 547T79 544Q70 544 64 551T57 567Q57 579 83 603Q116 636 161
659T263 682Q316 682 358 660T425 599T449 516Q449 462 427 423T372 359T281 296Q228 261 194 231T135 154T107 42H437Q446 42 452 36T459 21Q459 12 453 6T437 0H63V21Q63 104 89 161Z" />
<glyph unicode="3" glyph-name="three" horiz-adv-x="492" d="M163 -6T121 17T57 65T30 103Q26 110 26 119Q26 126 32 132T47 138Q58 138 67 126Q86 94 124 66T222 37Q263 37 301 55T363 109T387 199Q387 261 355 297T281 348T205 363Q196 363 190 369T184 385Q184
394 190 400T206 406Q244 406 282 424T346 474T371 540Q371 566 354 590T302 630T223 646Q150 646 97 605Q84 595 79 595Q69 595 63 602T57 617Q57 634 87 651Q112 667 148 678T223 689Q276 689 319 670T388 616T414 540Q414 495 384 455T301 386Q363 360 396 311T430
199Q430 128 397 82T317 15T225 -6Q163 -6 121 17Z" />
<glyph unicode="4" glyph-name="four" horiz-adv-x="479" d="M329 -6T323 0T317 16V166L50 170Q41 170 36 175T30 188Q30 195 36 205L319 672Q326 684 339 684Q349 684 355 679T361 663V208L403 207Q412 207 418 201T424 186Q424 176 418 170T403 164L361 165V16Q361
7 355 1T339 -6Q329 -6 323 0ZM317 585L91 212L317 209V585Z" />
<glyph unicode="5" glyph-name="five" horiz-adv-x="541" d="M203 -6T161 13T93 57T58 102Q56 108 56 114Q56 122 62 128T78 135Q86 135 90 132T98 122Q130 80 167 59T255 37Q303 37 345 66T413 145T439 250Q439 298 421 340T366 409T275 436Q191 436 123 368Q114
359 106 359Q95 359 88 367T83 385L111 656Q112 664 118 669T132 675H432Q441 675 447 669T453 654Q453 644 447 638T432 632H152L132 434Q210 479 275 479Q334 479 381 451T455 370T482 250Q482 182 451 123T367 29T255 -6Q203 -6 161 13Z" />
<glyph unicode="6" glyph-name="six" horiz-adv-x="534" d="M219 -6T171 18T91 98T60 244Q60 410 139 516T331 679Q339 683 347 683Q355 683 361 678T367 664Q367 651 355 645Q270 607 209 541T118 382Q151 407 197 423T288 440Q341 440 384 417T453 349T478 239Q478
164 450 109T376 24T275 -6Q219 -6 171 18ZM318 34T355 57T415 127T438 239Q438 318 396 358T288 399Q222 399 177 374T105 321Q100 290 100 244Q100 130 150 82T275 34Q318 34 355 57Z" />
<glyph unicode="7" glyph-name="seven" horiz-adv-x="459" d="M94 -6T88 0T81 16Q81 21 84 25L386 625H50Q41 625 35 631T28 647Q28 655 34 661T50 668H420Q430 668 436 662T442 646Q442 640 440 636L122 5Q119 0 114 -3T103 -6Q94 -6 88 0Z" />
<glyph unicode="8" glyph-name="eight" horiz-adv-x="514" d="M198 -6T152 17T79 82T52 174Q55 245 97 291T206 368Q86 421 86 515Q86 567 110 606T177 667T268 688Q319 688 359 668T421 612T444 531Q444 478 411 441T323 375Q389 342 425 293T462 185Q462 131
436 88T362 19T257 -6Q198 -6 152 17ZM343 426T372 459T402 537Q402 586 364 615T269 645Q209 645 168 611T127 519Q127 473 159 444T263 395Q343 426 372 459ZM298 36T335 52T397 101T421 181Q421 244 377 286T269 350Q210 325 178 307T120 254T95 168Q95 130
116 100T175 53T257 36Q298 36 335 52Z" />
<glyph unicode="9" glyph-name="nine" horiz-adv-x="530" d="M173 -6T167 0T161 14Q161 20 164 25T173 32Q252 70 316 140T410 296Q378 271 332 255T240 238Q187 238 144 261T76 329T51 438Q51 515 79 570T155 654T257 683Q354 683 411 618T468 433Q468 278 393
169T197 -2Q189 -6 181 -6Q173 -6 167 0ZM306 279T351 304T423 356Q428 387 428 433Q428 539 382 591T256 643Q208 643 171 618T112 546T90 438Q90 365 129 322T240 279Q306 279 351 304Z" />
<glyph unicode=":" glyph-name="colon" horiz-adv-x="195" d="M96 362T89 371T82 394Q82 409 92 421T116 434Q126 434 133 425T141 404Q141 387 132 375T108 362Q96 362 89 371ZM66 -6T59 3T52 26Q52 41 62 53T86 65Q97 65 104 57T112 36Q112 19 102 7T78 -6Q66 -6 59 3Z" />
<glyph unicode=";" glyph-name="semicolon" horiz-adv-x="186" d="M101 362T94 371T87 394Q87 409 97 421T121 434Q131 434 138 425T146 404Q146 387 137 375T113 362Q101 362 94 371ZM44 -101T40 -97T35 -87Q35 -83 39 -74L63 -9Q50 4 50 20Q50 36 60 47T84 59Q95
59 102 51T110 31Q110 18 106 4T89 -38L81 -57Q78 -64 72 -77T62 -96T51 -101Q44 -101 40 -97Z" />
<glyph unicode="&lt;" glyph-name="less" horiz-adv-x="520" d="M415 2T407 7L80 223Q70 230 70 242Q70 253 81 260L429 482Q436 486 441 486Q450 486 456 479T463 463Q463 458 460 453T453 445L133 241L432 43Q443 37 443 24Q443 15 437 9T421 2Q415 2 407 7Z" />
<glyph unicode="=" glyph-name="equal" horiz-adv-x="464" d="M76 302T70 308T63 322Q63 331 69 337T84 344H378Q388 344 394 338T400 322Q400 314 394 308T378 302H84Q76 302 70 308ZM76 143T70 149T63 164Q63 173 69 179T84 186H378Q388 186 394 180T400 164Q400
155 394 149T378 143H84Q76 143 70 149Z" />
<glyph unicode="&gt;" glyph-name="greater" horiz-adv-x="531" d="M98 2T92 8T85 24Q85 35 96 43L395 241L75 445Q65 452 65 463Q65 472 71 479T87 486Q92 486 99 482L447 260Q458 253 458 242Q458 230 448 223L121 7Q113 2 107 2Q98 2 92 8Z" />
<glyph unicode="?" glyph-name="question" horiz-adv-x="500" d="M156 174T150 180T144 195Q144 204 151 210L275 321Q317 358 339 382T378 437T395 507Q395 549 377 586T318 646T215 670Q167 670 132 648T66 590Q59 585 53 585Q44 585 38 590T31 604Q31 616 51
636Q80 667 121 689T215 711Q280 711 330 686T407 614T435 507Q435 456 414 415T369 351T299 287Q263 256 179 180Q171 174 165 174Q156 174 150 180ZM118 -6T111 3T103 26Q103 41 114 53T138 65Q148 65 156 56T164 36Q164 19 154 7T129 -6Q118 -6 111 3Z" />
<glyph unicode="@" glyph-name="at" horiz-adv-x="817" d="M321 -103T239 -58T108 68T59 247Q59 351 106 435T237 567T425 615Q518 615 595 571T717 451T762 281Q762 222 740 179T681 114T601 92Q551 92 514 117T463 186Q403 106 341 106Q291 106 260 139T228
232Q228 281 250 324T311 394T396 421Q445 421 487 394Q507 381 507 370Q507 363 501 357T486 350Q479 350 468 357Q430 381 397 381Q362 381 333 360T287 305T270 232Q270 189 289 168T340 146Q368 146 394 170T440 227T468 282Q474 295 489 295Q497 295 503 289T509
274Q509 269 505 254T500 221Q500 181 528 156T605 131Q655 131 688 170T721 281Q721 356 687 423T585 532T425 574Q341 574 267 536T146 424T100 247Q100 151 149 81T271 -26T416 -63Q519 -63 608 -3Q621 4 626 4Q634 4 640 -2T646 -17Q646 -27 632 -37Q595 -63
538 -83T416 -103Q321 -103 239 -58Z" />
<glyph unicode="A" glyph-name="A" horiz-adv-x="571" d="M504 -7T498 11L412 263L141 203L66 11Q60 -6 44 -6Q34 -6 28 0T22 15Q22 22 26 31L90 194Q63 186 56 186Q48 186 42 192T35 208Q35 216 40 221T53 229L109 242L277 668Q283 682 299 682Q306 682 312 678T320
668L538 35Q543 22 543 14Q543 6 537 0T520 -7Q504 -7 498 11ZM397 304L295 598L160 252L397 304Z" />
<glyph unicode="B" glyph-name="B" horiz-adv-x="632" d="M102 -8T102 21V649Q102 658 108 664T123 671H309Q380 671 429 648T502 588T526 510Q526 461 504 425T447 363Q515 339 550 297T586 195Q586 97 472 45T132 -8Q102 -8 102 21ZM389 374T419 393T466 442T483
507Q483 561 436 594T309 628H146V374H353Q389 374 419 393ZM320 34T431 74T543 195Q543 255 494 293T360 331H146V34Q320 34 431 74Z" />
<glyph unicode="C" glyph-name="C" horiz-adv-x="609" d="M262 -7T197 31T92 137T53 289Q53 388 97 477T212 621T352 676Q398 676 433 664T500 633Q504 641 510 645T523 650Q532 650 538 644T544 629V564Q544 555 538 548T522 541Q514 541 507 548T500 564V572Q445
632 353 632Q293 632 234 583T136 453T98 289Q98 207 135 150T229 65T340 36Q397 36 449 60T542 136Q550 145 559 145Q568 145 575 139T582 124Q582 117 577 110Q535 54 474 24T340 -7Q262 -7 197 31Z" />
<glyph unicode="D" glyph-name="D" horiz-adv-x="648" d="M191 -10T119 8Q112 9 107 15T102 29V650Q102 659 108 665T124 672Q250 672 356 634T527 512T593 297Q593 194 547 125T422 23T243 -10Q191 -10 119 8ZM386 35T467 101T549 297Q549 454 442 537T146 628V47Q196
35 243 35Q386 35 467 101Z" />
<glyph unicode="E" glyph-name="E" horiz-adv-x="611" d="M115 0T109 6T102 23V649Q102 658 108 664T124 670H561Q570 670 576 664T583 649Q583 639 577 633T561 626H146V372H511Q520 372 526 366T533 350Q533 341 527 335T511 328H146V44H559Q568 44 574 38T581
23Q581 13 575 7T559 0H124Q115 0 109 6Z" />
<glyph unicode="F" glyph-name="F" horiz-adv-x="580" d="M115 -7T109 -1T102 16V647Q102 657 108 663T124 670H561Q570 670 576 664T583 647Q583 639 577 633T561 626H146V371H470Q480 371 486 365T492 348Q492 339 486 333T470 327H146V16Q146 6 140 0T124 -7Q115
-7 109 -1Z" />
<glyph unicode="G" glyph-name="G" horiz-adv-x="720" d="M270 -7T201 37T94 158T55 325Q55 410 94 491T206 625T372 677Q457 677 516 642T605 563T634 492Q634 484 628 479T614 473Q596 473 592 489Q569 550 516 591T372 633Q280 633 219 580T129 454T100 325Q100
251 131 185T220 78T356 37Q447 37 512 90T600 236Q584 238 562 238Q526 238 502 234T449 224Q429 220 428 220Q420 220 414 226T407 242Q407 256 422 263Q446 271 485 276T561 282Q621 282 672 265Q685 260 685 245Q685 235 679 229T665 223Q660 223 642 228Q618
125 543 59T356 -7Q270 -7 201 37Z" />
<glyph unicode="H" glyph-name="H" horiz-adv-x="756" d="M114 -6T108 0T102 16V653Q102 663 108 669T124 675Q133 675 139 669T146 653V332L610 396V653Q610 662 617 668T633 675Q642 675 648 669T654 653V16Q654 7 648 1T633 -6Q624 -6 617 0T610 16V351L146
287V16Q146 7 140 1T124 -6Q114 -6 108 0Z" />
<glyph unicode="I" glyph-name="I" horiz-adv-x="366" d="M44 -1T37 5T30 22Q30 30 37 36T53 42H162V627H53Q44 627 37 633T30 649Q30 658 37 664T53 670H314Q323 670 329 664T336 649Q336 640 330 634T314 627H206V42H314Q324 42 330 37T336 22Q336 12 330 6T314
-1H53Q44 -1 37 5Z" />
<glyph unicode="J" glyph-name="J" horiz-adv-x="435" d="M119 -6T80 21T25 86T9 160Q9 170 15 177T32 184Q41 184 47 178T53 162Q53 109 86 74T184 38Q246 38 276 69T307 150V627H175Q166 627 159 633T152 649Q152 658 159 664T175 670H384Q393 670 399 664T406
649Q406 640 399 634T384 627H351V150Q351 82 307 38T184 -6Q119 -6 80 21Z" />
<glyph unicode="K" glyph-name="K" horiz-adv-x="571" d="M523 -7T515 -1L144 289V16Q144 7 138 1T122 -6Q114 -6 108 0T102 16V655Q102 663 108 669T122 675Q132 675 138 669T144 655V368L497 670Q505 676 512 676Q519 676 525 670T532 655Q532 644 524 639L160
328L542 33Q552 25 552 14Q552 6 546 0T530 -7Q523 -7 515 -1Z" />
<glyph unicode="L" glyph-name="L" horiz-adv-x="505" d="M116 -7T109 0T102 16V653Q102 662 108 668T124 675Q133 675 139 669T145 653V38L474 61Q484 62 491 56T498 40Q498 32 492 26T477 19L126 -6Q116 -7 109 0Z" />
<glyph unicode="M" glyph-name="M" horiz-adv-x="841" d="M53 -6T47 -1T41 12Q41 17 45 35L182 659Q187 676 204 676Q211 676 216 672T223 661L406 82L615 662Q619 676 636 676Q643 676 648 672T655 661L795 38Q799 20 799 11Q799 4 794 -1T778 -6Q770 -6 764
-2T757 11L631 577L426 7Q422 -6 405 -6Q391 -6 385 8L207 574L83 11Q82 3 76 -1T62 -6Q53 -6 47 -1Z" />
<glyph unicode="N" glyph-name="N" horiz-adv-x="689" d="M115 -6T109 0T102 16L103 653Q103 662 109 668T123 675Q136 675 144 664L544 84V655Q544 663 550 669T565 676Q574 676 580 670T587 655V16Q587 7 581 1T565 -6Q553 -6 548 3L146 584L145 16Q145 7 139
1T123 -6Q115 -6 109 0Z" />
<glyph unicode="O" glyph-name="O" horiz-adv-x="649" d="M232 -6T176 36T87 150T55 307Q55 406 95 491T202 626T347 676Q418 676 474 635T562 521T594 363Q594 264 554 179T447 44T303 -6Q232 -6 176 36ZM367 36T423 80T513 199T548 359Q548 432 522 495T448
596T341 634Q279 634 224 590T135 471T101 308Q101 232 127 170T200 72T304 36Q367 36 423 80Z" />
<glyph unicode="P" glyph-name="P" horiz-adv-x="569" d="M115 -6T109 0T102 16V641Q102 656 106 663T125 673T176 676Q362 676 455 624T549 474Q549 389 483 336T323 261T145 238V16Q145 6 139 0T123 -6Q115 -6 109 0ZM210 281T293 297T441 356T506 474Q506 550
425 591T193 633Q160 633 145 631V281Q210 281 293 297Z" />
<glyph unicode="Q" glyph-name="Q" horiz-adv-x="721" d="M638 -29T633 -26L513 54Q472 25 427 9T337 -7Q257 -7 193 35T92 150T55 306Q55 404 100 489T221 624T384 675Q464 675 528 633T628 518T665 362Q665 284 634 211T547 82L658 10Q667 3 667 -8Q667 -18
661 -23T645 -29Q638 -29 633 -26ZM403 34T474 79L385 138Q381 140 378 145T375 156Q375 165 381 171T395 177Q403 177 409 174L510 107Q559 154 588 220T617 359Q617 429 586 492T499 595T376 634Q305 634 242 591T141 473T103 310Q103 234 133 171T216 71T337
34Q403 34 474 79Z" />
<glyph unicode="R" glyph-name="R" horiz-adv-x="615" d="M114 -2T108 4T102 20V650Q102 665 107 672T126 681T172 684H202Q370 684 461 630T553 478Q553 403 497 354T352 274Q403 244 467 181T577 30Q579 22 579 20Q579 11 573 5T557 -2Q546 -2 538 11Q450 159
377 206T250 254Q221 254 145 244V20Q145 10 139 4T123 -2Q114 -2 108 4ZM229 289T313 309T453 372T510 478Q510 558 429 599T199 641L145 639V287Q229 289 313 309Z" />
<glyph unicode="S" glyph-name="S" horiz-adv-x="551" d="M184 -6T121 31T32 129Q27 141 27 147Q27 156 34 163T51 170Q69 170 74 152Q93 98 150 66T273 34Q324 34 365 52T429 104T453 179Q453 230 413 267T282 329Q186 356 126 399T66 515Q66 562 93 598T171
655T287 676Q385 676 439 641T496 545V543Q496 535 490 529T476 523Q467 523 462 528T455 541Q450 582 407 610T289 638Q204 638 157 605T110 519Q110 468 152 435T293 372Q398 341 447 296T497 183Q497 129 467 86T384 19T269 -6Q184 -6 121 31Z" />
<glyph unicode="T" glyph-name="T" horiz-adv-x="508" d="M246 -6T240 0T233 16V627H26Q18 627 12 633T5 648Q5 658 11 664T26 670H482Q491 670 497 664T504 648Q504 640 498 634T482 627H276V16Q276 7 270 1T255 -6Q246 -6 240 0Z" />
<glyph unicode="U" glyph-name="U" horiz-adv-x="720" d="M226 -6T160 87T86 361Q84 415 84 493L85 649Q85 661 91 668T108 675Q129 675 129 648L128 567Q126 511 126 484Q126 441 128 375Q140 31 349 31Q457 31 513 95T582 271Q590 344 590 466L589 645Q589 675
611 675Q622 675 627 667T632 647Q632 643 634 587T636 471Q636 357 624 264Q607 137 540 66T348 -6Q226 -6 160 87Z" />
<glyph unicode="V" glyph-name="V" horiz-adv-x="534" d="M246 -6T240 -2T231 8L18 639Q15 648 15 653Q15 662 21 668T37 674Q53 674 58 660L254 79L483 661Q487 674 503 674Q512 674 518 669T525 655Q525 649 523 643L272 8Q268 -6 252 -6Q246 -6 240 -2Z" />
<glyph unicode="W" glyph-name="W" horiz-adv-x="872" d="M224 -6T218 -2T210 8L20 634Q15 650 15 655Q15 664 21 669T36 675Q44 675 49 671T56 660L231 86L417 661Q422 675 437 675Q444 675 449 671T457 660L614 86L821 660Q827 675 843 675Q852 675 858 669T864
656Q864 650 862 644L633 7Q631 2 626 -2T613 -6Q597 -6 592 9L434 581L250 8Q246 -6 230 -6Q224 -6 218 -2Z" />
<glyph unicode="X" glyph-name="X" horiz-adv-x="674" d="M65 -6T58 1T51 16Q51 20 57 30L318 340L78 640Q72 648 72 655Q72 663 79 669T95 675Q105 675 112 668L345 374L592 668Q598 675 608 675Q617 675 623 669T630 655Q630 645 625 639L373 339L620 29Q624
24 624 16Q624 7 618 1T603 -6Q594 -6 587 1L344 305L90 1Q85 -6 74 -6Q65 -6 58 1Z" />
<glyph unicode="Y" glyph-name="Y" horiz-adv-x="573" d="M165 -6T158 0T151 14Q151 20 157 30L261 205L8 639Q7 641 5 645T3 655Q3 664 10 669T26 675Q37 675 43 664L286 247L533 664Q539 675 551 675Q559 675 566 669T573 655Q573 648 566 636L191 5Q186 -6
174 -6Q165 -6 158 0Z" />
<glyph unicode="Z" glyph-name="Z" horiz-adv-x="571" d="M39 0T31 7T23 25Q23 35 30 45L484 627H63Q54 627 47 633T40 648Q40 657 47 663T63 670H518Q529 670 537 663T545 644Q545 635 538 626L83 44H507Q516 44 523 38T530 23Q530 13 523 7T507 0H50Q39 0 31 7Z" />
<glyph unicode="[" glyph-name="bracketleft" horiz-adv-x="308" d="M82 -133T76 -127T69 -112V787Q69 796 75 802T91 809H232Q241 809 247 803T254 787Q254 778 248 772T232 766H112V-90H216Q224 -90 230 -96T237 -112Q237 -121 231 -127T216 -133H91Q82 -133 76 -127Z" />
<glyph unicode="\" glyph-name="backslash" horiz-adv-x="538" d="M443 -8T436 2L74 656Q70 664 70 670Q70 679 76 685T92 691Q105 691 110 682L472 27Q476 20 476 14Q476 5 470 -1T454 -8Q443 -8 436 2Z" />
<glyph unicode="]" glyph-name="bracketright" horiz-adv-x="308" d="M77 -133T71 -127T64 -112Q64 -103 70 -97T86 -90H205V766H102Q93 766 87 772T80 787Q80 796 86 802T102 809H227Q236 809 242 803T249 787V-112Q249 -121 243 -127T227 -133H86Q77 -133 71 -127Z" />
<glyph unicode="^" glyph-name="asciicircum" d="M113 401T107 407T100 421Q100 426 104 433L231 645Q241 662 258 662Q273 662 284 643L390 434Q393 428 393 421Q393 413 387 407T372 401Q358 401 354 411L257 600L140 412Q133 401 122 401Q113 401 107 407Z" />
<glyph unicode="_" glyph-name="underscore" horiz-adv-x="537" d="M7 -63T1 -57T-5 -42Q-5 -33 1 -27T16 -20H520Q529 -20 535 -26T542 -42Q542 -51 536 -57T520 -63H16Q7 -63 1 -57Z" />
<glyph unicode="`" glyph-name="grave" horiz-adv-x="164" d="M135 576T128 583L9 705Q0 714 0 725Q0 737 9 744T30 752Q44 752 52 741L158 610Q164 601 164 595Q164 586 158 581T143 576Q135 576 128 583Z" />
<glyph unicode="a" glyph-name="a" horiz-adv-x="525" d="M406 -12T400 -5T394 14V54Q361 29 319 12T237 -6Q184 -6 142 21T75 96T51 208Q51 279 80 345T164 452T290 493Q332 493 372 480T438 453V12Q438 2 432 -5T416 -12Q406 -12 400 -5ZM277 36T318 56T392
99L396 427Q378 436 348 443T293 451Q232 451 187 417T119 327T95 210Q95 155 114 116T165 57T235 36Q277 36 318 56Z" />
<glyph unicode="b" glyph-name="b" horiz-adv-x="550" d="M104 -6T97 0T90 14V671Q90 679 96 684T112 689Q121 689 127 684T133 671V389Q171 433 222 459T325 485Q410 485 453 422T497 266Q497 148 444 75T281 1Q245 1 205 11T133 34V14Q133 6 127 0T112 -6Q104
-6 97 0ZM457 42T457 266Q457 338 425 389T328 441Q273 441 229 421T159 366T133 289V72Q155 62 194 52T273 42Q457 42 457 266Z" />
<glyph unicode="c" glyph-name="c" horiz-adv-x="494" d="M212 -6T163 21T83 98T53 209Q53 277 84 343T167 451T274 493Q326 493 359 476T423 423Q428 418 428 409Q428 400 422 394T408 388Q401 388 393 394Q369 423 342 438T276 454Q231 454 189 419T121 328T94
211Q94 156 119 116T185 54T266 33Q362 33 418 109Q428 123 439 123Q447 123 453 117T460 103Q460 98 452 86Q425 48 375 21T267 -6Q212 -6 163 21Z" />
<glyph unicode="d" glyph-name="d" horiz-adv-x="546" d="M178 -6T139 19T76 94T52 219Q52 347 108 419T265 492Q305 492 344 481T414 451L419 674Q419 683 426 689T442 696Q451 696 457 689T464 673L448 18Q448 7 442 1T426 -6Q416 -6 410 1T404 20L406 85Q374
45 327 20T227 -6Q178 -6 139 19ZM277 34T317 56T382 108T408 163L413 409Q333 451 267 451Q181 451 138 389T95 222Q95 133 131 84T232 34Q277 34 317 56Z" />
<glyph unicode="e" glyph-name="e" horiz-adv-x="513" d="M227 -6T170 26T82 112T51 232Q51 303 79 362T158 457T276 493Q335 493 377 471T441 418T463 363Q463 352 444 340L111 149Q137 91 185 62T301 33Q336 33 376 50T438 93Q443 99 451 99Q459 99 465 94T471
79Q471 72 465 66Q438 35 393 15T302 -6Q227 -6 170 26ZM404 409T369 431T276 453Q224 453 182 424T117 344T93 231Q93 210 98 188L421 366Q404 409 369 431Z" />
<glyph unicode="f" glyph-name="f" horiz-adv-x="288" d="M111 -6T105 0T98 14V456H14Q6 456 0 462T-6 476Q-6 483 -1 489T12 495H98Q98 568 118 610T182 671T298 690Q314 690 322 686T331 671Q331 662 326 656T310 650Q240 650 206 640T156 597T141 495L290 494Q297
494 303 489T309 476Q309 468 304 462T290 456H141V14Q141 6 135 0T119 -6Q111 -6 105 0Z" />
<glyph unicode="g" glyph-name="g" horiz-adv-x="536" d="M181 -196T115 -181Q98 -176 98 -160Q98 -151 104 -145T119 -139Q126 -139 157 -146T239 -153Q324 -153 361 -110T400 11L402 95Q380 51 338 23T249 -7Q192 -7 147 25T77 112T52 235Q52 301 83 361T169
457T289 494Q322 494 354 483T410 455Q410 482 415 494T435 506Q442 506 448 500T454 483L443 6Q441 -94 386 -145T240 -196Q181 -196 115 -181ZM282 33T319 55T381 128T406 262V414Q388 431 356 441T293 452Q238 452 191 423T117 344T90 231Q90 188 106 142T156
65T241 33Q282 33 319 55Z" />
<glyph unicode="h" glyph-name="h" horiz-adv-x="555" d="M103 -7T97 -1T90 15V667Q90 676 96 682T111 689Q121 689 127 683T133 667V313Q150 355 184 397T262 468T346 496Q417 496 446 413T475 153Q475 48 472 16Q471 6 466 0T451 -6Q443 -6 437 0T431 15Q431
36 432 51L433 145Q433 329 407 391T341 454Q300 454 260 422T191 348T150 280Q133 243 133 186V17Q133 5 127 -1T111 -7Q103 -7 97 -1Z" />
<glyph unicode="i" glyph-name="i" horiz-adv-x="232" d="M110 596T104 602T98 617L99 660Q99 668 105 674T120 680Q129 680 135 674T141 659L140 616Q140 607 134 602T118 596Q110 596 104 602ZM104 -6T97 1T90 17L97 470Q97 479 103 486T118 493Q127 493 133
487T140 470L134 17Q134 8 128 1T112 -6Q104 -6 97 1Z" />
<glyph unicode="j" glyph-name="j" horiz-adv-x="236" d="M114 599T108 605T103 619L109 669Q110 677 116 680T129 684Q140 684 146 677T151 659L146 616Q145 609 139 604T123 599Q114 599 108 605ZM-18 -192T-53 -155T-103 -77Q-105 -71 -105 -68Q-105 -60 -99
-54T-82 -48Q-68 -48 -61 -65Q-26 -154 32 -154Q73 -154 89 -114T105 -18Q105 92 100 389L99 471Q99 481 105 487T121 494Q130 494 137 488T144 472L146 232Q149 96 149 -9Q149 -92 121 -142T32 -192Q-18 -192 -53 -155Z" />
<glyph unicode="k" glyph-name="k" horiz-adv-x="504" d="M105 -6T99 0T92 16L90 669Q90 677 96 683T111 689Q120 689 126 683T133 667L134 235Q187 270 271 350T411 503Q419 513 430 513Q438 513 444 507T451 492Q451 488 446 480Q415 440 362 385T270 294L369
170Q425 101 478 34Q484 24 484 18Q484 10 478 3T463 -4Q452 -4 446 4Q391 77 327 159T238 270Q170 217 135 196V16Q135 7 129 1T113 -6Q105 -6 99 0Z" />
<glyph unicode="l" glyph-name="l" horiz-adv-x="224" d="M104 -6T97 -1T90 13V669Q90 677 96 683T112 689Q120 689 126 683T133 669V13Q133 5 127 0T112 -6Q104 -6 97 -1Z" />
<glyph unicode="m" glyph-name="m" horiz-adv-x="858" d="M103 -6T97 0T90 15V471Q90 480 96 486T111 493Q121 493 127 487T133 471V322Q170 395 228 444T342 493Q387 493 421 464T465 365Q494 426 546 459T643 493Q778 493 778 314V15Q778 6 772 0T757 -6Q748
-6 742 0T735 15V318Q735 389 713 421T641 453Q609 453 568 428T498 357T469 254V15Q469 6 463 0T447 -6Q438 -6 432 0T425 15V318Q425 390 404 421T338 453Q301 453 259 420T188 346Q157 304 145 272T133 188V15Q133 6 127 0T111 -6Q103 -6 97 0Z" />
<glyph unicode="n" glyph-name="n" horiz-adv-x="573" d="M103 -6T97 0T90 14V473Q90 482 96 488T111 494Q121 494 127 488T133 473V270Q147 332 180 383T259 463T353 493Q411 493 441 459T482 355T493 164L492 17Q492 7 487 1T472 -6Q464 -6 458 0T451 16L450
162Q450 276 443 335T415 424T347 453Q305 453 266 423T194 333Q165 281 150 221T133 104L132 18Q132 7 127 1T111 -6Q103 -6 97 0Z" />
<glyph unicode="o" glyph-name="o" horiz-adv-x="539" d="M197 -6T151 24T79 107T53 223Q53 293 84 355T168 455T285 493Q340 493 386 462T459 379T486 265Q486 192 454 130T369 31T253 -6Q197 -6 151 24ZM303 32T346 63T415 148T441 260Q441 311 420 356T361
428T280 455Q232 455 190 423T122 337T97 225Q97 172 117 128T174 58T255 32Q303 32 346 63Z" />
<glyph unicode="p" glyph-name="p" horiz-adv-x="545" d="M103 -206T97 -200T90 -185V471Q90 481 96 487T111 494Q121 494 127 488T133 471V407Q165 445 215 469T323 493Q375 493 414 464T474 383T495 268Q495 202 475 142T406 40T274 -1Q207 -1 133 34V-185Q133
-194 127 -200T111 -206Q103 -206 97 -200ZM453 41T453 268Q453 347 417 401T318 455Q256 455 210 428T133 360V80Q209 41 280 41Q453 41 453 268Z" />
<glyph unicode="q" glyph-name="q" horiz-adv-x="531" d="M394 -199T388 -192T383 -174L391 58Q377 35 345 15T261 -6Q199 -6 152 22T78 100T51 210Q51 294 85 357T181 454T323 489Q356 489 407 480V494Q407 502 413 508T427 515Q435 515 441 509T448 494L424
-176Q424 -186 418 -192T403 -199Q394 -199 388 -192ZM316 31T355 65T396 161L405 445Q358 451 323 451Q254 451 201 423T119 339T89 208Q89 157 111 117T170 54T251 31Q316 31 355 65Z" />
<glyph unicode="r" glyph-name="r" horiz-adv-x="408" d="M103 -6T97 0T90 14V472Q90 481 96 487T111 493Q121 493 127 487T134 472V347Q147 381 175 415T241 473T320 496Q396 496 396 414V388Q396 379 390 373T375 366Q354 366 354 389V410Q354 431 346 442T310
454Q242 454 171 359Q155 338 145 306T134 247L133 14Q133 6 127 0T111 -6Q103 -6 97 0Z" />
<glyph unicode="s" glyph-name="s" horiz-adv-x="419" d="M151 -8T110 14T48 67T27 119Q27 127 33 133T47 139Q61 139 66 125Q80 81 117 56T208 31Q264 31 299 61T335 135Q335 170 309 192T209 237Q130 261 93 293T56 373Q56 428 99 460T220 493Q296 493 336 464T377
385Q377 345 355 345Q346 345 340 351T334 365Q334 369 335 373T336 386Q336 455 222 455Q158 455 127 434T96 373Q96 341 123 320T226 274Q312 246 344 216T376 136Q376 100 355 67T296 13T207 -8Q151 -8 110 14Z" />
<glyph unicode="t" glyph-name="t" horiz-adv-x="280" d="M123 -7T117 -1T110 14V451H-16Q-25 451 -31 457T-38 472Q-38 482 -31 488T-14 494H110V649Q110 658 116 664T131 671Q141 671 147 665T153 649V494H281Q291 494 297 488T303 472Q303 464 297 458T281
451H153V14Q153 5 147 -1T131 -7Q123 -7 117 -1Z" />
<glyph unicode="u" glyph-name="u" horiz-adv-x="537" d="M169 -9T137 15T89 100T74 268Q74 373 86 465Q89 481 94 487T108 494Q117 494 123 489T129 474L127 451Q115 343 115 245Q115 160 128 113T165 46T229 27Q317 27 393 110Q407 127 407 161L410 474Q410
482 416 488T431 494Q439 494 445 488T452 474V16Q452 7 445 1T428 -6Q417 -6 410 2T403 21V77Q379 41 331 16T225 -9Q169 -9 137 15Z" />
<glyph unicode="v" glyph-name="v" horiz-adv-x="405" d="M181 -7T175 9L-10 463Q-12 469 -12 473Q-12 482 -5 487T12 493Q25 493 32 478L196 64L359 481Q364 494 380 494Q389 494 395 488T402 474Q402 471 400 463L215 7Q210 -7 195 -7Q181 -7 175 9Z" />
<glyph unicode="w" glyph-name="w" horiz-adv-x="600" d="M119 -6T114 13L19 460L17 472Q17 481 23 487T37 494Q45 494 51 489T59 475L139 69L281 478Q283 485 290 489T305 494Q313 494 319 489T328 473L426 67L550 475Q553 483 559 488T571 493Q581 493 587 488T593
474Q593 470 591 464L446 12Q444 4 438 -1T425 -6Q418 -6 412 -1T404 11L301 414L156 11Q154 3 149 -1T136 -6Q119 -6 114 13Z" />
<glyph unicode="x" glyph-name="x" horiz-adv-x="466" d="M420 -6T414 1L233 224L20 1Q15 -5 4 -5Q-4 -5 -10 1T-16 17Q-16 25 -10 32L205 252L33 456Q26 465 26 472Q26 481 32 487T47 494Q57 494 62 488L235 277L435 486Q441 492 450 492Q459 492 465 486T472
470Q472 464 466 456L264 249L447 29Q452 23 452 16Q452 7 446 1T431 -6Q420 -6 414 1Z" />
<glyph unicode="y" glyph-name="y" horiz-adv-x="444" d="M110 -208T104 -202T97 -187Q97 -182 101 -174L204 50L-1 459Q-5 467 -5 471Q-5 481 1 487T16 494Q31 494 38 479L228 103L402 481Q404 487 409 491T422 495Q432 495 437 489T442 473Q442 467 440 461L139
-195Q131 -208 118 -208Q110 -208 104 -202Z" />
<glyph unicode="z" glyph-name="z" horiz-adv-x="434" d="M25 -7T19 -1T12 15Q12 23 17 29L352 451H45Q36 451 30 457T24 472Q24 482 30 488T45 494H392Q401 494 407 488T413 472Q413 465 409 460L73 36H397Q406 36 412 30T419 15Q419 6 413 0T397 -7H34Q25 -7 19 -1Z" />
<glyph unicode="{" glyph-name="braceleft" horiz-adv-x="374" d="M267 -129T235 -113T178 -67T154 10V220Q154 259 134 287T81 328Q67 333 67 347Q67 360 80 365Q122 386 138 411T154 473V668Q154 733 200 768T298 811H300Q309 811 315 805T321 791Q321 773 300
770Q260 763 228 739T196 668V474Q196 398 130 347Q160 325 178 292T196 219V10Q196 -38 228 -61T300 -92Q321 -97 321 -113Q321 -123 314 -129T297 -133Q267 -129 235 -113Z" />
<glyph unicode="|" glyph-name="bar" horiz-adv-x="186" d="M85 -179T79 -173T72 -157V822Q72 831 78 837T94 844Q103 844 109 838T116 822V-157Q116 -167 110 -173T94 -179Q85 -179 79 -173Z" />
<glyph unicode="}" glyph-name="braceright" horiz-adv-x="374" d="M73 -133Q65 -133 59 -128T53 -113Q53 -96 75 -92Q115 -84 147 -61T179 10V203Q179 278 244 331Q215 353 197 385T179 458V668Q179 712 149 736T75 770Q53 773 53 791Q53 801 60 806T77 811Q128
802 174 768T221 668V457Q221 417 241 390T294 350Q308 343 308 331Q308 324 305 320T295 312Q253 291 237 266T221 204V10Q221 -35 197 -66T139 -113T76 -133H73Z" />
<glyph unicode="~" glyph-name="asciitilde" horiz-adv-x="633" d="M379 148T353 169T296 234Q271 269 253 285T208 301Q169 301 142 269T103 199Q100 183 83 183Q75 183 69 188T63 202Q63 209 66 215Q87 271 122 306T208 342Q248 342 274 321T330 258Q357 221
375 206T419 190Q458 190 485 224T528 301Q536 322 551 322Q559 322 564 317T570 302Q570 295 568 288Q549 235 513 192T419 148Q379 148 353 169Z" />
<glyph unicode="&#xa0;" glyph-name="uni00A0" horiz-adv-x="323" />
<glyph unicode="&#xa1;" glyph-name="exclamdown" horiz-adv-x="250" d="M110 419T103 427T95 448Q95 465 105 477T129 490Q141 490 148 481T155 459Q155 443 145 431T121 419Q110 419 103 427ZM110 -208T104 -202T97 -185V311Q97 320 104 327T120 334Q129 334
136 327T143 311V-185Q143 -194 136 -201T120 -208Q110 -208 104 -202Z" />
<glyph unicode="&#xa2;" glyph-name="cent" horiz-adv-x="496" d="M238 -6T233 -1T228 14L230 98Q132 123 92 184T51 310Q51 371 74 429T141 532T244 593L246 672Q246 680 252 685T265 690Q273 690 278 685T283 671L281 595Q308 595 342 582T402 549T427 512Q427
504 421 498T406 491Q397 491 391 498Q349 552 279 558L269 134Q315 137 352 156T416 210Q417 211 422 217T435 224Q444 224 450 218T456 203Q456 196 451 189Q421 148 373 122T267 96L265 12Q265 5 260 0T247 -6Q238 -6 233 -1ZM190 534T156 490T107 398T91 312Q91
249 130 202T232 138L242 553Q190 534 156 490Z" />
<glyph unicode="&#xa3;" glyph-name="sterling" horiz-adv-x="670" d="M442 -16T410 -3T340 35Q313 52 297 59T261 67Q226 67 196 52T133 11Q113 -6 105 -6Q97 -6 91 0T85 15Q85 25 93 31Q135 63 157 111T179 204Q179 223 174 248T158 309L152 331H42Q34 331 28
337T21 351Q21 359 27 365T42 372H144Q134 432 134 483Q134 727 387 727Q474 727 521 675T585 548Q586 545 586 539Q586 530 581 524T566 518Q550 518 545 541Q532 609 490 647T387 686Q275 686 225 638T174 483Q174 431 185 372H435Q443 372 449 366T456 351Q456
343 450 337T435 331H194L203 295Q210 267 215 244T220 204Q220 137 193 95Q226 108 261 108Q290 108 310 99T362 70Q395 48 422 37T489 25Q579 25 601 119Q605 141 622 141Q631 141 636 135T642 119Q642 114 641 110Q623 37 580 11T489 -16Q442 -16 410 -3Z" />
<glyph unicode="&#xa4;" glyph-name="currency" horiz-adv-x="519" d="M64 39T58 45T52 59Q52 68 58 72L136 150Q103 196 103 245Q103 297 138 342L58 422Q52 427 52 435Q52 443 57 448T72 454Q78 454 85 449L165 370Q206 401 259 401Q313 401 356 370L435 449Q440
454 448 454Q456 454 461 449T467 435Q467 427 462 422L383 342Q399 321 408 296T417 245Q417 195 385 150L462 72Q467 67 467 59Q467 51 462 45T448 39Q441 39 435 45L358 121Q312 88 259 88Q208 88 162 121L84 45Q80 39 72 39Q64 39 58 45ZM309 126T344 160T379
245Q379 294 344 328T259 363Q211 363 177 329T142 245Q142 213 158 186T201 142T259 126Q309 126 344 160Z" />
<glyph unicode="&#xa5;" glyph-name="yen" horiz-adv-x="541" d="M255 -6T249 0T242 16V132H116Q108 132 102 138T95 152Q95 161 101 167T116 173H242V290H116Q108 290 102 296T95 311Q95 319 101 325T116 332H225L61 660Q59 664 59 670Q59 678 65 684T82 691Q96
691 100 681L265 350L445 682Q452 693 464 693Q473 693 480 688T487 673Q487 667 484 661L304 332H413Q421 332 427 326T434 311Q434 302 428 296T413 290H285V173H413Q421 173 427 167T434 152Q434 144 428 138T413 132H285V16Q285 7 279 1T264 -6Q255 -6 249
0Z" />
<glyph unicode="&#xa6;" glyph-name="brokenbar" horiz-adv-x="197" d="M90 388T84 394T77 410V752Q77 761 83 767T98 774Q107 774 113 768T120 752V410Q120 400 114 394T98 388Q90 388 84 394ZM90 -109T84 -103T77 -88V256Q77 264 83 270T98 277Q107 277 113
271T120 256V-88Q120 -97 114 -103T98 -109Q90 -109 84 -103Z" />
<glyph unicode="&#xa7;" glyph-name="section" horiz-adv-x="438" d="M168 -6T127 17T65 71T43 121Q43 129 49 135T63 141Q70 141 75 137T82 127Q97 83 134 59T223 34Q268 34 297 50T338 91T351 138Q351 163 341 179T304 211T225 242Q145 266 109 297T73 380Q73
420 101 451Q72 486 72 527Q72 589 123 615T241 642Q314 642 353 613T392 534Q392 494 370 494Q360 494 355 500T349 515Q349 517 350 522T351 535Q351 605 243 605Q184 605 148 584T111 526Q111 496 129 477T170 448T226 428Q286 409 318 394T371 352T391 279Q391
246 368 211Q392 177 392 132Q392 99 371 67T312 15T223 -6Q168 -6 127 17ZM350 262T350 286Q350 315 334 333T290 364T211 393Q162 412 133 427Q112 405 112 378Q112 337 144 317T228 281Q300 258 338 237Q350 262 350 286Z" />
<glyph unicode="&#xa8;" glyph-name="dieresis" horiz-adv-x="248" d="M23 625T12 634T0 658Q0 674 13 686T46 698Q62 698 74 688T87 664Q87 648 74 637T40 625Q23 625 12 634ZM185 625T174 634T162 658Q162 674 175 686T208 698Q224 698 236 688T248 664Q248
648 235 637T202 625Q185 625 174 634Z" />
<glyph unicode="&#xa9;" glyph-name="copyright" horiz-adv-x="546" d="M213 237T163 267T82 350T52 463Q52 524 82 576T162 658T273 689Q333 689 383 659T464 576T494 463Q494 402 464 350T384 268T273 237Q213 237 163 267ZM324 270T367 296T435 366T461 463Q461
516 436 560T367 630T273 656Q222 656 179 630T111 560T85 463Q85 410 110 366T179 296T273 270Q324 270 367 296ZM218 352T185 385T151 464Q151 520 185 554T275 588Q309 588 348 562Q357 556 357 546Q357 539 353 535T341 530Q334 530 328 536Q302 555 275 555Q222
555 204 527T185 464Q185 430 209 408T264 385Q291 385 312 394T345 423Q354 436 362 436Q369 436 374 431T379 419Q379 412 374 406Q335 352 264 352Q218 352 185 385Z" />
<glyph unicode="&#xaa;" glyph-name="ordfeminine" horiz-adv-x="258" d="M210 346T210 383Q185 367 165 359T120 351Q71 351 39 389T6 484Q6 528 23 570T72 639T150 667Q179 667 207 659T247 641L248 364Q248 356 243 351T230 346Q210 346 210 383ZM159 387T209
420L212 617Q203 622 186 626T154 630Q117 630 92 608T55 552T43 486Q43 448 63 418T121 387Q159 387 209 420Z" />
<glyph unicode="&#xab;" glyph-name="guillemotleft" horiz-adv-x="562" d="M251 321T242 327L74 477Q67 484 67 493Q67 504 74 510L259 669Q267 675 274 675Q282 675 288 669T295 654Q295 645 287 637L122 493L271 358Q279 351 279 342Q279 334 273 328T257 321Q251
321 242 327ZM462 71T453 77L285 227Q278 234 278 243Q278 254 285 260L470 419Q478 425 485 425Q493 425 499 419T506 404Q506 395 498 387L333 243L482 108Q490 101 490 92Q490 84 484 78T468 71Q462 71 453 77Z" />
<glyph unicode="&#xac;" glyph-name="logicalnot" horiz-adv-x="473" d="M391 122T385 127T379 141L380 280H60Q52 280 47 285T41 298Q41 307 46 312T60 318H399Q406 318 412 313T418 298L417 141Q417 134 412 128T399 122Q391 122 385 127Z" />
<glyph unicode="&#xad;" glyph-name="uni00AD" horiz-adv-x="402" d="M66 223T60 229T53 244Q53 252 59 258T74 265H328Q336 265 342 259T349 244Q349 236 343 230T328 223H74Q66 223 60 229Z" />
<glyph unicode="&#xae;" glyph-name="registered" horiz-adv-x="549" d="M215 237T164 267T83 350T53 463Q53 524 83 576T164 658T275 689Q335 689 385 659T466 576T496 463Q496 402 466 350T386 268T275 237Q215 237 164 267ZM326 270T369 296T437 366T463 463Q463
516 438 560T369 630T275 656Q223 656 180 630T112 560T86 463Q86 410 111 366T180 296T275 270Q326 270 369 296ZM182 367T178 373T174 387L204 569Q205 577 209 580T227 585T276 587Q329 587 358 570T387 521Q387 472 273 451L353 396Q359 392 359 383Q359 376
354 371T342 366Q337 366 332 370L218 449L207 383Q206 376 201 372T189 367Q182 367 178 373ZM272 480T312 494T353 522Q353 538 327 546T267 554Q248 554 234 552L223 477Q272 480 312 494Z" />
<glyph unicode="&#xaf;" glyph-name="overscore" horiz-adv-x="252" d="M12 614T6 620T0 634Q0 642 6 647T19 653H234Q241 653 246 648T252 634Q252 626 247 620T234 614H19Q12 614 6 620Z" />
<glyph unicode="&#xb0;" glyph-name="degree" horiz-adv-x="236" d="M72 471T37 506T2 590Q2 639 37 673T121 708Q169 708 203 674T238 590Q238 541 204 506T121 471Q72 471 37 506ZM156 505T181 529T206 590Q206 625 181 650T121 675Q86 675 60 650T34 590Q34
554 59 530T121 505Q156 505 181 529Z" />
<glyph unicode="&#xb1;" glyph-name="plusminus" horiz-adv-x="434" d="M211 134T205 140T199 153V272H80Q72 272 66 277T60 291Q60 299 66 305T80 312H199V420Q199 428 204 434T220 440Q228 440 233 434T239 420V312H359Q367 312 373 306T379 291Q379 283 373
278T359 272H239V153Q239 146 234 140T220 134Q211 134 205 140ZM88 -7T83 -2T77 14Q77 22 83 27T97 33H342Q350 33 356 28T362 14Q362 5 357 -1T342 -7H97Q88 -7 83 -2Z" />
<glyph unicode="&#xb2;" glyph-name="uni00B2" horiz-adv-x="232" d="M5 513T19 545T63 603T147 663Q191 692 191 735Q191 760 171 778T119 797Q96 797 75 786T41 761Q39 759 34 754T26 747T19 745Q13 745 8 750T2 762Q2 769 7 775Q26 796 54 813T118 830Q162
830 193 805T225 735Q225 694 202 668T137 616Q40 558 40 484H213Q220 484 225 479T230 466Q230 460 225 455T213 450H5V466Q5 513 19 545Z" />
<glyph unicode="&#xb3;" glyph-name="uni00B3" horiz-adv-x="233" d="M74 446T47 464T5 507Q2 513 2 519Q2 526 6 531T19 536Q29 536 33 528Q63 480 114 480Q144 480 170 501T197 563Q197 598 175 620T104 647Q87 649 87 664Q87 673 91 676T104 681Q135 683 162
700T189 748Q189 773 165 786T113 800Q87 800 74 794T48 778Q42 773 35 773Q29 773 24 777T19 789Q19 805 48 819T114 834Q157 834 189 811T222 748Q222 724 207 702T165 666Q231 634 231 563Q231 512 197 479T114 446Q74 446 47 464Z" />
<glyph unicode="&#xb4;" glyph-name="acute" horiz-adv-x="167" d="M15 576T8 581T1 595Q1 602 8 610L113 741Q123 752 136 752Q148 752 157 745T166 725Q166 716 157 705L37 583Q32 576 23 576Q15 576 8 581Z" />
<glyph unicode="&#xb5;" glyph-name="uni00B5" d="M430 494T436 488T443 474V16Q443 7 436 1T419 -6Q409 -6 402 2T395 21V76Q371 41 321 16T218 -9Q190 -9 163 0T118 29Q121 -19 135 -110Q142 -159 142 -169Q142 -179 137 -185T122 -192Q103 -192 100 -173Q66
55 66 256Q66 309 70 369T78 465Q81 483 86 488T101 494Q109 494 115 489T121 475L119 447Q109 362 109 245Q109 156 121 109T158 44T222 27Q272 27 315 52T381 104Q399 125 399 162L402 474Q402 482 408 488T422 494Q430 494 436 488Z" />
<glyph unicode="&#xb6;" glyph-name="paragraph" horiz-adv-x="549" d="M398 788T403 783T409 769Q409 752 392 747L367 741Q369 673 369 628Q369 309 298 -72Q296 -80 290 -84T276 -89Q266 -89 261 -83T255 -69Q255 -69 259 -45Q269 -6 274 30Q308 239 314 353H286Q187
353 131 400T74 528Q74 594 113 645T218 731Q258 752 314 770T390 788Q398 788 403 783ZM382 -88T377 -82T371 -69Q371 -61 379 -18L389 37Q412 178 427 324T442 639L441 719Q441 729 447 735T462 742Q470 742 476 736T484 722Q485 708 485 639Q485 304 413 -70Q412
-79 406 -83T391 -88Q382 -88 377 -82Z" />
<glyph unicode="&#xb7;" glyph-name="middot" horiz-adv-x="165" d="M68 216T61 225T54 248Q54 263 64 275T88 287Q99 287 106 279T114 257Q114 241 104 229T80 216Q68 216 61 225Z" />
<glyph unicode="&#xb8;" glyph-name="cedilla" horiz-adv-x="170" d="M121 -33T145 -57T170 -115Q170 -152 143 -179T77 -206Q46 -206 23 -191T0 -155Q0 -147 5 -142T18 -137Q29 -137 36 -148Q49 -172 78 -172Q101 -172 116 -156T132 -117Q132 -95 117 -81T79
-66Q64 -66 51 -73T31 -81Q25 -81 21 -77T16 -65Q16 -60 22 -39T30 -10L37 14Q41 33 54 33Q61 33 65 28T67 13L60 -38Q72 -33 88 -33Q121 -33 145 -57Z" />
<glyph unicode="&#xb9;" glyph-name="uni00B9" horiz-adv-x="159" d="M13 451T9 455T5 467Q5 475 9 479T21 484H69L74 772L33 728Q30 724 26 723T18 722Q12 722 8 726T3 737Q3 746 7 750L78 827Q84 833 91 833Q98 833 103 828T108 815L102 484H142Q149 484 154
479T159 467Q159 460 154 456T142 451H21Q13 451 9 455Z" />
<glyph unicode="&#xba;" glyph-name="ordmasculine" horiz-adv-x="270" d="M94 351T65 369T19 420T2 492Q2 533 20 572T71 636T147 662Q181 662 209 644T255 592T272 517Q272 482 256 443T206 378T128 351Q94 351 65 369ZM154 383T178 400T218 449T234 517Q234
561 208 595T144 630Q118 630 94 612T55 562T40 495Q40 449 65 416T128 383Q154 383 178 400Z" />
<glyph unicode="&#xbb;" glyph-name="guillemotright" horiz-adv-x="562" d="M86 321T80 327T73 342Q73 351 80 358L230 493L65 637Q57 645 57 654Q57 663 63 669T78 675Q85 675 93 669L277 510Q285 503 285 493Q285 483 277 477L110 327Q101 321 95 321Q86 321
80 327ZM296 71T290 77T283 92Q283 101 290 108L440 243L275 387Q267 395 267 404Q267 413 273 419T288 425Q295 425 303 419L487 260Q495 253 495 243Q495 233 487 227L320 77Q311 71 305 71Q296 71 290 77Z" />
<glyph unicode="&#xbc;" glyph-name="onequarter" horiz-adv-x="665" d="M74 581T70 585T66 597Q66 605 70 609T82 614H130L135 902L94 858Q91 854 87 853T79 852Q73 852 69 856T64 867Q64 876 68 880L139 957Q145 963 152 963Q159 963 164 958T169 945L163 614H203Q210
614 215 609T220 597Q220 590 215 586T203 581H82Q74 581 70 585ZM171 -8T166 -4T161 7Q161 12 165 19L532 682Q537 691 546 691Q553 691 557 687T562 677Q562 673 558 663L191 1Q186 -8 177 -8Q171 -8 166 -4ZM540 -50T535 -45T530 -32V44L377 46Q369 46 364 51T359
62Q359 68 363 74L530 322Q536 331 546 331Q554 331 558 326T563 313V76H585Q592 76 597 72T602 60Q602 54 597 49T585 44H563V-32Q563 -39 558 -44T547 -50Q540 -50 535 -45ZM530 266L402 77L530 76V266Z" />
<glyph unicode="&#xbd;" glyph-name="onehalf" horiz-adv-x="735" d="M447 14T461 46T505 104T589 164Q633 193 633 236Q633 261 613 279T561 298Q538 298 517 287T483 262Q481 260 476 255T468 248T461 246Q455 246 450 251T444 263Q444 270 449 276Q468 297
496 314T560 331Q604 331 635 306T667 236Q667 195 644 169T579 117Q482 59 482 -15H655Q662 -15 667 -20T672 -33Q672 -39 667 -44T655 -49H447V-33Q447 14 461 46ZM74 587T70 591T66 603Q66 611 70 615T82 620H130L135 908L94 864Q91 860 87 859T79 858Q73 858
69 862T64 873Q64 882 68 886L139 963Q145 969 152 969Q159 969 164 964T169 951L163 620H203Q210 620 215 615T220 603Q220 596 215 592T203 587H82Q74 587 70 591ZM167 -14T162 -10T157 1Q157 6 161 13L528 676Q533 685 542 685Q549 685 553 681T558 671Q558
667 554 657L187 -5Q182 -14 173 -14Q167 -14 162 -10Z" />
<glyph unicode="&#xbe;" glyph-name="threequarters" horiz-adv-x="717" d="M135 580T108 598T66 641Q63 647 63 653Q63 660 67 665T80 670Q90 670 94 662Q124 614 175 614Q205 614 231 635T258 697Q258 732 236 754T165 781Q148 783 148 798Q148 807 152 810T165
815Q196 817 223 834T250 882Q250 907 226 920T174 934Q148 934 135 928T109 912Q103 907 96 907Q90 907 85 911T80 923Q80 939 109 953T175 968Q218 968 250 945T283 882Q283 858 268 836T226 800Q292 768 292 697Q292 646 258 613T175 580Q135 580 108 598ZM201
-8T196 -4T191 7Q191 12 195 19L562 682Q567 691 576 691Q583 691 587 687T592 677Q592 673 588 663L221 1Q216 -8 207 -8Q201 -8 196 -4ZM591 -50T586 -45T581 -32V44L428 46Q420 46 415 51T410 62Q410 68 414 74L581 322Q587 331 597 331Q605 331 609 326T614
313V76H636Q643 76 648 72T653 60Q653 54 648 49T636 44H614V-32Q614 -39 609 -44T598 -50Q591 -50 586 -45ZM581 266L453 77L581 76V266Z" />
<glyph unicode="&#xbf;" glyph-name="questiondown" horiz-adv-x="491" d="M341 425T334 433T326 454Q326 470 336 482T360 495Q371 495 378 486T386 463Q386 448 376 437T352 425Q341 425 334 433ZM214 -198T165 -173T89 -101T62 5Q62 54 82 93T126 156T194 220L315
327Q324 334 329 334Q338 334 344 328T350 313Q350 305 343 298L219 186Q180 151 157 127T118 72T102 5Q102 -62 145 -110T277 -158Q326 -158 361 -136T426 -79Q435 -73 440 -73Q449 -73 455 -78T461 -92Q461 -104 441 -124Q413 -155 371 -176T277 -198Q214 -198
165 -173Z" />
<glyph unicode="&#xc0;" glyph-name="Agrave" horiz-adv-x="571" d="M504 -7T498 11L412 263L141 203L66 11Q60 -6 44 -6Q34 -6 28 0T22 15Q22 22 26 31L90 194Q63 186 56 186Q48 186 42 192T35 208Q35 216 40 221T53 229L109 242L277 668Q283 682 299 682Q306
682 312 678T320 668L538 35Q543 22 543 14Q543 6 537 0T520 -7Q504 -7 498 11ZM397 304L295 598L160 252L397 304ZM330 746T320 753L179 850Q170 856 170 868Q170 880 178 889T197 898Q204 898 211 894T224 884L351 780Q357 775 357 766Q357 758 352 752T338 746Q330
746 320 753Z" />
<glyph unicode="&#xc1;" glyph-name="Aacute" horiz-adv-x="571" d="M504 -7T498 11L412 263L141 203L66 11Q60 -6 44 -6Q34 -6 28 0T22 15Q22 22 26 31L90 194Q63 186 56 186Q48 186 42 192T35 208Q35 216 40 221T53 229L109 242L277 668Q283 682 299 682Q306
682 312 678T320 668L538 35Q543 22 543 14Q543 6 537 0T520 -7Q504 -7 498 11ZM397 304L295 598L160 252L397 304ZM246 746T240 752T234 766Q234 774 240 780L368 884Q376 891 382 894T395 898Q405 898 413 889T422 868Q422 856 413 850L272 753Q262 746 254 746Q246
746 240 752Z" />
<glyph unicode="&#xc2;" glyph-name="Acircumflex" horiz-adv-x="571" d="M504 -7T498 11L412 263L141 203L66 11Q60 -6 44 -6Q34 -6 28 0T22 15Q22 22 26 31L90 194Q63 186 56 186Q48 186 42 192T35 208Q35 216 40 221T53 229L109 242L277 668Q283 682 299 682Q306
682 312 678T320 668L538 35Q543 22 543 14Q543 6 537 0T520 -7Q504 -7 498 11ZM397 304L295 598L160 252L397 304ZM162 747T156 753T150 767Q150 777 158 783L282 895Q288 901 297 901Q307 901 313 894L435 782Q441 775 441 767Q441 759 435 753T422 747Q414 747
407 752L297 845L183 751Q179 747 171 747Q162 747 156 753Z" />
<glyph unicode="&#xc3;" glyph-name="Atilde" horiz-adv-x="571" d="M504 -7T498 11L412 263L141 203L66 11Q60 -6 44 -6Q34 -6 28 0T22 15Q22 22 26 31L90 194Q63 186 56 186Q48 186 42 192T35 208Q35 216 40 221T53 229L109 242L277 668Q283 682 299 682Q306
682 312 678T320 668L538 35Q543 22 543 14Q543 6 537 0T520 -7Q504 -7 498 11ZM397 304L295 598L160 252L397 304ZM333 742T317 756T277 801Q260 825 248 835T224 846Q210 846 192 830T163 779Q157 761 142 761Q134 761 128 767T122 781Q122 800 137 824Q153 848
177 863T225 879Q253 879 270 865T309 822Q326 798 338 787T365 776Q387 776 400 797T427 855Q432 871 447 871Q455 871 461 865T467 851Q467 837 455 811Q440 783 415 763T362 742Q333 742 317 756Z" />
<glyph unicode="&#xc4;" glyph-name="Adieresis" horiz-adv-x="571" d="M504 -7T498 11L412 263L141 203L66 11Q60 -6 44 -6Q34 -6 28 0T22 15Q22 22 26 31L90 194Q63 186 56 186Q48 186 42 192T35 208Q35 216 40 221T53 229L109 242L277 668Q283 682 299 682Q306
682 312 678T320 668L538 35Q543 22 543 14Q543 6 537 0T520 -7Q504 -7 498 11ZM397 304L295 598L160 252L397 304ZM193 758T182 767T170 791Q170 807 183 819T216 831Q232 831 244 821T257 797Q257 781 244 770T210 758Q193 758 182 767ZM355 758T344 767T332
791Q332 807 345 819T378 831Q394 831 406 821T418 797Q418 781 405 770T372 758Q355 758 344 767Z" />
<glyph unicode="&#xc5;" glyph-name="Aring" horiz-adv-x="571" d="M504 -7T498 11L412 263L141 203L66 11Q60 -6 44 -6Q34 -6 28 0T22 15Q22 22 26 31L90 194Q63 186 56 186Q48 186 42 192T35 208Q35 216 40 221T53 229L109 242L277 668Q283 682 299 682Q306
682 312 678T320 668L538 35Q543 22 543 14Q543 6 537 0T520 -7Q504 -7 498 11ZM397 304L295 598L160 252L397 304ZM242 736T213 762T183 826Q183 855 200 879T245 916T304 930Q345 930 375 904T406 839Q406 810 389 787T343 750T284 736Q242 736 213 762ZM323
775T345 794T368 839Q368 859 349 874T301 890Q266 890 244 871T221 826Q221 803 239 789T287 775Q323 775 345 794Z" />
<glyph unicode="&#xc6;" glyph-name="AE" horiz-adv-x="1033" d="M62 -9T56 -3T49 10Q49 15 53 23L211 245L174 238H171Q163 238 158 244T153 258Q153 274 172 279L246 294L510 667Q515 675 523 675H964Q973 675 979 670T985 655Q985 647 979 641T964 634H547V351H913Q921
351 927 345T933 331Q933 322 927 316T913 309L547 310V35H964Q973 35 979 30T985 15Q985 6 979 0T964 -6H526Q518 -6 512 0T506 15V306L269 257L87 -1Q79 -9 70 -9Q62 -9 56 -3ZM506 348V590L305 306L506 348Z" />
<glyph unicode="&#xc7;" glyph-name="Ccedilla" horiz-adv-x="609" d="M568 145T575 139T582 124Q582 117 577 110Q536 55 476 25T346 -7L341 -41Q353 -36 369 -36Q402 -36 426 -60T451 -118Q451 -155 424 -182T358 -209Q327 -209 304 -194T281 -158Q281 -150
286 -145T299 -140Q309 -140 317 -152Q331 -175 359 -175Q382 -175 397 -160T413 -120Q413 -98 398 -84T360 -69Q345 -69 332 -76T312 -84Q306 -84 302 -80T297 -68Q297 -59 313 -6Q241 1 182 40T88 145T53 289Q53 388 97 477T212 621T352 676Q398 676 433 664T500
633Q504 641 510 645T523 650Q532 650 538 644T544 629V564Q544 555 538 548T522 541Q514 541 507 548T500 564V572Q445 632 353 632Q293 632 234 583T136 453T98 289Q98 207 135 150T229 65T340 36Q397 36 449 60T542 136Q550 145 559 145Q568 145 575 139Z" />
<glyph unicode="&#xc8;" glyph-name="Egrave" horiz-adv-x="611" d="M115 0T109 6T102 23V649Q102 658 108 664T124 670H561Q570 670 576 664T583 649Q583 639 577 633T561 626H146V372H511Q520 372 526 366T533 350Q533 341 527 335T511 328H146V44H559Q568 44
574 38T581 23Q581 13 575 7T559 0H124Q115 0 109 6ZM378 746T368 753L227 850Q218 856 218 868Q218 880 226 889T245 898Q252 898 259 894T272 884L399 780Q405 775 405 766Q405 758 400 752T386 746Q378 746 368 753Z" />
<glyph unicode="&#xc9;" glyph-name="Eacute" horiz-adv-x="611" d="M115 0T109 6T102 23V649Q102 658 108 664T124 670H561Q570 670 576 664T583 649Q583 639 577 633T561 626H146V372H511Q520 372 526 366T533 350Q533 341 527 335T511 328H146V44H559Q568 44
574 38T581 23Q581 13 575 7T559 0H124Q115 0 109 6ZM294 746T288 752T282 766Q282 774 288 780L416 884Q424 891 430 894T443 898Q453 898 461 889T470 868Q470 856 461 850L320 753Q310 746 302 746Q294 746 288 752Z" />
<glyph unicode="&#xca;" glyph-name="Ecircumflex" horiz-adv-x="611" d="M115 0T109 6T102 23V649Q102 658 108 664T124 670H561Q570 670 576 664T583 649Q583 639 577 633T561 626H146V372H511Q520 372 526 366T533 350Q533 341 527 335T511 328H146V44H559Q568
44 574 38T581 23Q581 13 575 7T559 0H124Q115 0 109 6ZM210 747T204 753T198 767Q198 777 206 783L330 895Q336 901 345 901Q355 901 361 894L483 782Q489 775 489 767Q489 759 483 753T470 747Q462 747 455 752L345 845L231 751Q227 747 219 747Q210 747 204
753Z" />
<glyph unicode="&#xcb;" glyph-name="Edieresis" horiz-adv-x="611" d="M115 0T109 6T102 23V649Q102 658 108 664T124 670H561Q570 670 576 664T583 649Q583 639 577 633T561 626H146V372H511Q520 372 526 366T533 350Q533 341 527 335T511 328H146V44H559Q568
44 574 38T581 23Q581 13 575 7T559 0H124Q115 0 109 6ZM241 758T230 767T218 791Q218 807 231 819T264 831Q280 831 292 821T305 797Q305 781 292 770T258 758Q241 758 230 767ZM403 758T392 767T380 791Q380 807 393 819T426 831Q442 831 454 821T466 797Q466
781 453 770T420 758Q403 758 392 767Z" />
<glyph unicode="&#xcc;" glyph-name="Igrave" horiz-adv-x="366" d="M44 -1T37 5T30 22Q30 30 37 36T53 42H162V627H53Q44 627 37 633T30 649Q30 658 37 664T53 670H314Q323 670 329 664T336 649Q336 640 330 634T314 627H206V42H314Q324 42 330 37T336 22Q336
12 330 6T314 -1H53Q44 -1 37 5ZM216 746T206 753L65 850Q56 856 56 868Q56 880 64 889T83 898Q90 898 97 894T110 884L237 780Q243 775 243 766Q243 758 238 752T224 746Q216 746 206 753Z" />
<glyph unicode="&#xcd;" glyph-name="Iacute" horiz-adv-x="366" d="M44 -1T37 5T30 22Q30 30 37 36T53 42H162V627H53Q44 627 37 633T30 649Q30 658 37 664T53 670H314Q323 670 329 664T336 649Q336 640 330 634T314 627H206V42H314Q324 42 330 37T336 22Q336
12 330 6T314 -1H53Q44 -1 37 5ZM133 746T127 752T121 766Q121 774 127 780L255 884Q263 891 269 894T282 898Q292 898 300 889T309 868Q309 856 300 850L159 753Q149 746 141 746Q133 746 127 752Z" />
<glyph unicode="&#xce;" glyph-name="Icircumflex" horiz-adv-x="366" d="M44 -1T37 5T30 22Q30 30 37 36T53 42H162V627H53Q44 627 37 633T30 649Q30 658 37 664T53 670H314Q323 670 329 664T336 649Q336 640 330 634T314 627H206V42H314Q324 42 330 37T336 22Q336
12 330 6T314 -1H53Q44 -1 37 5ZM48 747T42 753T36 767Q36 777 44 783L168 895Q174 901 183 901Q193 901 199 894L321 782Q327 775 327 767Q327 759 321 753T308 747Q300 747 293 752L183 845L69 751Q65 747 57 747Q48 747 42 753Z" />
<glyph unicode="&#xcf;" glyph-name="Idieresis" horiz-adv-x="366" d="M44 -1T37 5T30 22Q30 30 37 36T53 42H162V627H53Q44 627 37 633T30 649Q30 658 37 664T53 670H314Q323 670 329 664T336 649Q336 640 330 634T314 627H206V42H314Q324 42 330 37T336 22Q336
12 330 6T314 -1H53Q44 -1 37 5ZM80 758T69 767T57 791Q57 807 70 819T103 831Q119 831 131 821T144 797Q144 781 131 770T97 758Q80 758 69 767ZM242 758T231 767T219 791Q219 807 232 819T265 831Q281 831 293 821T305 797Q305 781 292 770T259 758Q242 758 231
767Z" />
<glyph unicode="&#xd0;" glyph-name="Eth" horiz-adv-x="639" d="M200 -27T128 -9Q120 -8 115 -2T110 12V281H39Q31 281 25 287T18 302Q18 311 24 318T39 325H110V653Q110 662 117 668T133 675Q236 675 337 644T511 528T584 293Q584 132 494 53T251 -27Q200 -27
128 -9ZM393 18T467 86T542 293Q542 463 436 543T151 631V325H265Q274 325 280 318T286 302Q286 294 280 288T265 281H151V30Q213 18 251 18Q393 18 467 86Z" />
<glyph unicode="&#xd1;" glyph-name="Ntilde" horiz-adv-x="689" d="M115 -6T109 0T102 16L103 653Q103 662 109 668T123 675Q136 675 144 664L544 84V655Q544 663 550 669T565 676Q574 676 580 670T587 655V16Q587 7 581 1T565 -6Q553 -6 548 3L146 584L145 16Q145
7 139 1T123 -6Q115 -6 109 0ZM383 742T367 756T327 801Q310 825 298 835T274 846Q260 846 242 830T213 779Q207 761 192 761Q184 761 178 767T172 781Q172 800 187 824Q203 848 227 863T275 879Q303 879 320 865T359 822Q376 798 388 787T415 776Q437 776 450
797T477 855Q482 871 497 871Q505 871 511 865T517 851Q517 837 505 811Q490 783 465 763T412 742Q383 742 367 756Z" />
<glyph unicode="&#xd2;" glyph-name="Ograve" horiz-adv-x="649" d="M232 -6T176 36T87 150T55 307Q55 406 95 491T202 626T347 676Q418 676 474 635T562 521T594 363Q594 264 554 179T447 44T303 -6Q232 -6 176 36ZM367 36T423 80T513 199T548 359Q548 432 522
495T448 596T341 634Q279 634 224 590T135 471T101 308Q101 232 127 170T200 72T304 36Q367 36 423 80ZM356 746T346 753L205 850Q196 856 196 868Q196 880 204 889T223 898Q230 898 237 894T250 884L377 780Q383 775 383 766Q383 758 378 752T364 746Q356 746
346 753Z" />
<glyph unicode="&#xd3;" glyph-name="Oacute" horiz-adv-x="649" d="M232 -6T176 36T87 150T55 307Q55 406 95 491T202 626T347 676Q418 676 474 635T562 521T594 363Q594 264 554 179T447 44T303 -6Q232 -6 176 36ZM367 36T423 80T513 199T548 359Q548 432 522
495T448 596T341 634Q279 634 224 590T135 471T101 308Q101 232 127 170T200 72T304 36Q367 36 423 80ZM273 746T267 752T261 766Q261 774 267 780L395 884Q403 891 409 894T422 898Q432 898 440 889T449 868Q449 856 440 850L299 753Q289 746 281 746Q273 746
267 752Z" />
<glyph unicode="&#xd4;" glyph-name="Ocircumflex" horiz-adv-x="649" d="M232 -6T176 36T87 150T55 307Q55 406 95 491T202 626T347 676Q418 676 474 635T562 521T594 363Q594 264 554 179T447 44T303 -6Q232 -6 176 36ZM367 36T423 80T513 199T548 359Q548 432
522 495T448 596T341 634Q279 634 224 590T135 471T101 308Q101 232 127 170T200 72T304 36Q367 36 423 80ZM188 747T182 753T176 767Q176 777 184 783L308 895Q314 901 323 901Q333 901 339 894L461 782Q467 775 467 767Q467 759 461 753T448 747Q440 747 433
752L323 845L209 751Q205 747 197 747Q188 747 182 753Z" />
<glyph unicode="&#xd5;" glyph-name="Otilde" horiz-adv-x="649" d="M232 -6T176 36T87 150T55 307Q55 406 95 491T202 626T347 676Q418 676 474 635T562 521T594 363Q594 264 554 179T447 44T303 -6Q232 -6 176 36ZM367 36T423 80T513 199T548 359Q548 432 522
495T448 596T341 634Q279 634 224 590T135 471T101 308Q101 232 127 170T200 72T304 36Q367 36 423 80ZM360 742T344 756T304 801Q287 825 275 835T251 846Q237 846 219 830T190 779Q184 761 169 761Q161 761 155 767T149 781Q149 800 164 824Q180 848 204 863T252
879Q280 879 297 865T336 822Q353 798 365 787T392 776Q414 776 427 797T454 855Q459 871 474 871Q482 871 488 865T494 851Q494 837 482 811Q467 783 442 763T389 742Q360 742 344 756Z" />
<glyph unicode="&#xd6;" glyph-name="Odieresis" horiz-adv-x="649" d="M232 -6T176 36T87 150T55 307Q55 406 95 491T202 626T347 676Q418 676 474 635T562 521T594 363Q594 264 554 179T447 44T303 -6Q232 -6 176 36ZM367 36T423 80T513 199T548 359Q548 432
522 495T448 596T341 634Q279 634 224 590T135 471T101 308Q101 232 127 170T200 72T304 36Q367 36 423 80ZM220 758T209 767T197 791Q197 807 210 819T243 831Q259 831 271 821T284 797Q284 781 271 770T237 758Q220 758 209 767ZM382 758T371 767T359 791Q359
807 372 819T405 831Q421 831 433 821T445 797Q445 781 432 770T399 758Q382 758 371 767Z" />
<glyph unicode="&#xd7;" glyph-name="multiply" horiz-adv-x="373" d="M79 117T74 123T68 137Q68 145 74 151L160 237L82 313Q76 319 76 327Q76 335 82 341T96 347Q105 347 110 341L188 265L272 349Q275 354 284 354Q305 354 305 333Q305 324 300 321L216 237L299
152Q305 148 305 139Q305 130 300 124T286 118Q277 118 271 124L188 208L102 123Q96 117 88 117Q79 117 74 123Z" />
<glyph unicode="&#xd8;" glyph-name="Oslash" horiz-adv-x="647" d="M95 -39T90 -34T85 -19Q85 -13 88 -8L133 74Q96 119 76 179T55 306Q55 405 95 490T201 625T345 676Q397 676 452 646L497 729Q502 738 515 738Q522 738 528 733T534 719Q534 714 531 709L484
624Q535 578 563 510T592 362Q592 263 552 178T446 43T302 -8Q226 -8 162 45L121 -29Q116 -39 105 -39Q95 -39 90 -34ZM387 637T337 637Q274 637 218 593T129 472T95 306Q95 253 110 203T154 111L431 609Q387 637 337 637ZM366 31T423 75T516 195T552 358Q552 420
529 481T463 585L182 79Q236 31 302 31Q366 31 423 75Z" />
<glyph unicode="&#xd9;" glyph-name="Ugrave" horiz-adv-x="720" d="M226 -6T160 87T86 361Q84 415 84 493L85 649Q85 661 91 668T108 675Q129 675 129 648L128 567Q126 511 126 484Q126 441 128 375Q140 31 349 31Q457 31 513 95T582 271Q590 344 590 466L589
645Q589 675 611 675Q622 675 627 667T632 647Q632 643 634 587T636 471Q636 357 624 264Q607 137 540 66T348 -6Q226 -6 160 87ZM391 746T381 753L240 850Q231 856 231 868Q231 880 239 889T258 898Q265 898 272 894T285 884L412 780Q418 775 418 766Q418 758
413 752T399 746Q391 746 381 753Z" />
<glyph unicode="&#xda;" glyph-name="Uacute" horiz-adv-x="720" d="M226 -6T160 87T86 361Q84 415 84 493L85 649Q85 661 91 668T108 675Q129 675 129 648L128 567Q126 511 126 484Q126 441 128 375Q140 31 349 31Q457 31 513 95T582 271Q590 344 590 466L589
645Q589 675 611 675Q622 675 627 667T632 647Q632 643 634 587T636 471Q636 357 624 264Q607 137 540 66T348 -6Q226 -6 160 87ZM308 746T302 752T296 766Q296 774 302 780L430 884Q438 891 444 894T457 898Q467 898 475 889T484 868Q484 856 475 850L334 753Q324
746 316 746Q308 746 302 752Z" />
<glyph unicode="&#xdb;" glyph-name="Ucircumflex" horiz-adv-x="720" d="M226 -6T160 87T86 361Q84 415 84 493L85 649Q85 661 91 668T108 675Q129 675 129 648L128 567Q126 511 126 484Q126 441 128 375Q140 31 349 31Q457 31 513 95T582 271Q590 344 590 466L589
645Q589 675 611 675Q622 675 627 667T632 647Q632 643 634 587T636 471Q636 357 624 264Q607 137 540 66T348 -6Q226 -6 160 87ZM223 747T217 753T211 767Q211 777 219 783L343 895Q349 901 358 901Q368 901 374 894L496 782Q502 775 502 767Q502 759 496 753T483
747Q475 747 468 752L358 845L244 751Q240 747 232 747Q223 747 217 753Z" />
<glyph unicode="&#xdc;" glyph-name="Udieresis" horiz-adv-x="720" d="M226 -6T160 87T86 361Q84 415 84 493L85 649Q85 661 91 668T108 675Q129 675 129 648L128 567Q126 511 126 484Q126 441 128 375Q140 31 349 31Q457 31 513 95T582 271Q590 344 590 466L589
645Q589 675 611 675Q622 675 627 667T632 647Q632 643 634 587T636 471Q636 357 624 264Q607 137 540 66T348 -6Q226 -6 160 87ZM254 758T243 767T231 791Q231 807 244 819T277 831Q293 831 305 821T318 797Q318 781 305 770T271 758Q254 758 243 767ZM416 758T405
767T393 791Q393 807 406 819T439 831Q455 831 467 821T479 797Q479 781 466 770T433 758Q416 758 405 767Z" />
<glyph unicode="&#xdd;" glyph-name="Yacute" horiz-adv-x="573" d="M165 -6T158 0T151 14Q151 20 157 30L261 205L8 639Q7 641 5 645T3 655Q3 664 10 669T26 675Q37 675 43 664L286 247L533 664Q539 675 551 675Q559 675 566 669T573 655Q573 648 566 636L191
5Q186 -6 174 -6Q165 -6 158 0ZM239 746T233 752T227 766Q227 774 233 780L361 884Q369 891 375 894T388 898Q398 898 406 889T415 868Q415 856 406 850L265 753Q255 746 247 746Q239 746 233 752Z" />
<glyph unicode="&#xde;" glyph-name="Thorn" horiz-adv-x="539" d="M103 -6T98 -1T92 13L94 656Q94 663 100 668T113 674Q121 674 126 669T132 655V564Q284 564 390 525T496 370Q496 289 439 238T298 165T130 140V12Q130 4 125 -1T111 -6Q103 -6 98 -1ZM197 183T272
200T402 260T458 370Q458 443 384 483T177 524Q149 524 132 522L131 182Q197 183 272 200Z" />
<glyph unicode="&#xdf;" glyph-name="germandbls" horiz-adv-x="519" d="M388 341T432 288T477 165Q477 112 451 67T379 -5T281 -32Q237 -32 208 -20T179 10Q179 18 184 23T197 28Q204 28 218 21Q233 14 247 11T282 7Q323 7 359 28T416 86T438 165Q438 205 419
241T363 299T278 321Q267 321 253 319Q237 317 230 317Q222 317 217 322T211 336Q211 357 237 357Q288 359 319 395T351 480Q351 530 316 564T230 598Q198 598 170 582T126 537T109 477V13Q109 5 104 -1T89 -7Q81 -7 76 -1T70 13V477Q70 520 91 557T150 615T230
637Q273 637 310 616T368 559T390 480Q390 440 370 404T316 352Q388 341 432 288Z" />
<glyph unicode="&#xe0;" glyph-name="agrave" horiz-adv-x="525" d="M406 -12T400 -5T394 14V54Q361 29 319 12T237 -6Q184 -6 142 21T75 96T51 208Q51 279 80 345T164 452T290 493Q332 493 372 480T438 453V12Q438 2 432 -5T416 -12Q406 -12 400 -5ZM277 36T318
56T392 99L396 427Q378 436 348 443T293 451Q232 451 187 417T119 327T95 210Q95 155 114 116T165 57T235 36Q277 36 318 56ZM318 576T311 583L192 705Q183 714 183 725Q183 737 192 744T213 752Q227 752 235 741L341 610Q347 601 347 595Q347 586 341 581T326
576Q318 576 311 583Z" />
<glyph unicode="&#xe1;" glyph-name="aacute" horiz-adv-x="525" d="M406 -12T400 -5T394 14V54Q361 29 319 12T237 -6Q184 -6 142 21T75 96T51 208Q51 279 80 345T164 452T290 493Q332 493 372 480T438 453V12Q438 2 432 -5T416 -12Q406 -12 400 -5ZM277 36T318
56T392 99L396 427Q378 436 348 443T293 451Q232 451 187 417T119 327T95 210Q95 155 114 116T165 57T235 36Q277 36 318 56ZM255 576T248 581T241 595Q241 602 248 610L353 741Q363 752 376 752Q388 752 397 745T406 725Q406 716 397 705L277 583Q272 576 263
576Q255 576 248 581Z" />
<glyph unicode="&#xe2;" glyph-name="acircumflex" horiz-adv-x="525" d="M406 -12T400 -5T394 14V54Q361 29 319 12T237 -6Q184 -6 142 21T75 96T51 208Q51 279 80 345T164 452T290 493Q332 493 372 480T438 453V12Q438 2 432 -5T416 -12Q406 -12 400 -5ZM277
36T318 56T392 99L396 427Q378 436 348 443T293 451Q232 451 187 417T119 327T95 210Q95 155 114 116T165 57T235 36Q277 36 318 56ZM162 589T156 595T150 609Q150 619 158 625L282 737Q288 743 297 743Q307 743 313 736L435 624Q441 617 441 609Q441 601 435 595T422
589Q414 589 407 594L297 687L183 593Q179 589 171 589Q162 589 156 595Z" />
<glyph unicode="&#xe3;" glyph-name="atilde" horiz-adv-x="525" d="M406 -12T400 -5T394 14V54Q361 29 319 12T237 -6Q184 -6 142 21T75 96T51 208Q51 279 80 345T164 452T290 493Q332 493 372 480T438 453V12Q438 2 432 -5T416 -12Q406 -12 400 -5ZM277 36T318
56T392 99L396 427Q378 436 348 443T293 451Q232 451 187 417T119 327T95 210Q95 155 114 116T165 57T235 36Q277 36 318 56ZM334 584T318 598T278 643Q261 667 249 677T225 688Q211 688 193 672T164 621Q158 603 143 603Q135 603 129 609T123 623Q123 642 138
666Q154 690 178 705T226 721Q254 721 271 707T310 664Q327 640 339 629T366 618Q388 618 401 639T428 697Q433 713 448 713Q456 713 462 707T468 693Q468 679 456 653Q441 625 416 605T363 584Q334 584 318 598Z" />
<glyph unicode="&#xe4;" glyph-name="adieresis" horiz-adv-x="525" d="M406 -12T400 -5T394 14V54Q361 29 319 12T237 -6Q184 -6 142 21T75 96T51 208Q51 279 80 345T164 452T290 493Q332 493 372 480T438 453V12Q438 2 432 -5T416 -12Q406 -12 400 -5ZM277 36T318
56T392 99L396 427Q378 436 348 443T293 451Q232 451 187 417T119 327T95 210Q95 155 114 116T165 57T235 36Q277 36 318 56ZM194 605T183 614T171 638Q171 654 184 666T217 678Q233 678 245 668T258 644Q258 628 245 617T211 605Q194 605 183 614ZM356 605T345
614T333 638Q333 654 346 666T379 678Q395 678 407 668T419 644Q419 628 406 617T373 605Q356 605 345 614Z" />
<glyph unicode="&#xe5;" glyph-name="aring" horiz-adv-x="525" d="M406 -12T400 -5T394 14V54Q361 29 319 12T237 -6Q184 -6 142 21T75 96T51 208Q51 279 80 345T164 452T290 493Q332 493 372 480T438 453V12Q438 2 432 -5T416 -12Q406 -12 400 -5ZM277 36T318
56T392 99L396 427Q378 436 348 443T293 451Q232 451 187 417T119 327T95 210Q95 155 114 116T165 57T235 36Q277 36 318 56ZM243 568T214 594T184 658Q184 687 201 711T246 748T305 762Q346 762 376 736T407 671Q407 642 390 619T344 582T285 568Q243 568 214
594ZM324 607T346 626T369 671Q369 691 350 706T302 722Q267 722 245 703T222 658Q222 635 240 621T288 607Q324 607 346 626Z" />
<glyph unicode="&#xe6;" glyph-name="ae" horiz-adv-x="825" d="M393 -6T387 0T380 15V56Q346 34 306 18T230 2Q179 2 138 27T73 98T49 207Q49 288 80 353T163 455T274 492Q312 492 354 480T422 455V370Q449 419 501 447T603 476Q658 476 697 455T757 404T777
351Q777 339 759 328L434 141Q459 92 510 62T627 31Q661 31 696 48T755 93Q760 99 767 99Q775 99 780 94T786 81Q786 72 781 66Q755 35 710 15T620 -6Q560 -6 507 21T423 93V15Q423 7 417 1T402 -6Q393 -6 387 0ZM264 43T308 62T378 103L383 428Q363 436 335 444T282
452Q216 452 173 413T110 317T90 210Q90 138 126 91T226 43Q264 43 308 62ZM705 436T603 436Q552 436 510 409T443 334T418 228Q418 198 422 179L739 356Q705 436 603 436Z" />
<glyph unicode="&#xe7;" glyph-name="ccedilla" horiz-adv-x="494" d="M447 123T453 117T460 103Q460 98 452 86Q425 48 376 22T270 -6L266 -38Q278 -33 294 -33Q327 -33 351 -57T376 -115Q376 -152 349 -179T283 -206Q252 -206 229 -191T206 -155Q206 -147 211
-142T224 -137Q235 -137 242 -148Q255 -172 284 -172Q307 -172 322 -156T338 -117Q338 -95 323 -81T285 -66Q270 -66 257 -73T237 -81Q231 -81 227 -77T222 -65Q222 -57 238 -4Q188 3 146 31T78 106T53 209Q53 277 84 343T167 451T274 493Q326 493 359 476T423
423Q428 418 428 409Q428 400 422 394T408 388Q401 388 393 394Q369 423 342 438T276 454Q231 454 189 419T121 328T94 211Q94 156 119 116T185 54T266 33Q362 33 418 109Q428 123 439 123Q447 123 453 117Z" />
<glyph unicode="&#xe8;" glyph-name="egrave" horiz-adv-x="513" d="M227 -6T170 26T82 112T51 232Q51 303 79 362T158 457T276 493Q335 493 377 471T441 418T463 363Q463 352 444 340L111 149Q137 91 185 62T301 33Q336 33 376 50T438 93Q443 99 451 99Q459 99
465 94T471 79Q471 72 465 66Q438 35 393 15T302 -6Q227 -6 170 26ZM404 409T369 431T276 453Q224 453 182 424T117 344T93 231Q93 210 98 188L421 366Q404 409 369 431ZM286 576T279 583L160 705Q151 714 151 725Q151 737 160 744T181 752Q195 752 203 741L309
610Q315 601 315 595Q315 586 309 581T294 576Q286 576 279 583Z" />
<glyph unicode="&#xe9;" glyph-name="eacute" horiz-adv-x="513" d="M227 -6T170 26T82 112T51 232Q51 303 79 362T158 457T276 493Q335 493 377 471T441 418T463 363Q463 352 444 340L111 149Q137 91 185 62T301 33Q336 33 376 50T438 93Q443 99 451 99Q459 99
465 94T471 79Q471 72 465 66Q438 35 393 15T302 -6Q227 -6 170 26ZM404 409T369 431T276 453Q224 453 182 424T117 344T93 231Q93 210 98 188L421 366Q404 409 369 431ZM223 576T216 581T209 595Q209 602 216 610L321 741Q331 752 344 752Q356 752 365 745T374
725Q374 716 365 705L245 583Q240 576 231 576Q223 576 216 581Z" />
<glyph unicode="&#xea;" glyph-name="ecircumflex" horiz-adv-x="513" d="M227 -6T170 26T82 112T51 232Q51 303 79 362T158 457T276 493Q335 493 377 471T441 418T463 363Q463 352 444 340L111 149Q137 91 185 62T301 33Q336 33 376 50T438 93Q443 99 451 99Q459
99 465 94T471 79Q471 72 465 66Q438 35 393 15T302 -6Q227 -6 170 26ZM404 409T369 431T276 453Q224 453 182 424T117 344T93 231Q93 210 98 188L421 366Q404 409 369 431ZM130 589T124 595T118 609Q118 619 126 625L250 737Q256 743 265 743Q275 743 281 736L403
624Q409 617 409 609Q409 601 403 595T390 589Q382 589 375 594L265 687L151 593Q147 589 139 589Q130 589 124 595Z" />
<glyph unicode="&#xeb;" glyph-name="edieresis" horiz-adv-x="513" d="M227 -6T170 26T82 112T51 232Q51 303 79 362T158 457T276 493Q335 493 377 471T441 418T463 363Q463 352 444 340L111 149Q137 91 185 62T301 33Q336 33 376 50T438 93Q443 99 451 99Q459
99 465 94T471 79Q471 72 465 66Q438 35 393 15T302 -6Q227 -6 170 26ZM404 409T369 431T276 453Q224 453 182 424T117 344T93 231Q93 210 98 188L421 366Q404 409 369 431ZM162 605T151 614T139 638Q139 654 152 666T185 678Q201 678 213 668T226 644Q226 628
213 617T179 605Q162 605 151 614ZM324 605T313 614T301 638Q301 654 314 666T347 678Q363 678 375 668T387 644Q387 628 374 617T341 605Q324 605 313 614Z" />
<glyph unicode="&#xec;" glyph-name="igrave" horiz-adv-x="232" d="M104 -6T97 0T90 17L96 467Q96 476 103 483T119 490Q129 490 135 484T142 467L136 17Q136 8 129 1T113 -6Q104 -6 97 0ZM137 578T130 585L11 707Q2 716 2 727Q2 739 11 746T32 754Q46 754 54
743L160 612Q166 603 166 597Q166 588 160 583T145 578Q137 578 130 585Z" />
<glyph unicode="&#xed;" glyph-name="iacute" horiz-adv-x="232" d="M104 -6T97 0T90 17L96 467Q96 476 103 483T119 490Q129 490 135 484T142 467L136 17Q136 8 129 1T113 -6Q104 -6 97 0ZM74 578T67 583T60 597Q60 604 67 612L172 743Q182 754 195 754Q207 754
216 747T225 727Q225 718 216 707L96 585Q91 578 82 578Q74 578 67 583Z" />
<glyph unicode="&#xee;" glyph-name="icircumflex" horiz-adv-x="232" d="M104 -6T97 0T90 17L96 467Q96 476 103 483T119 490Q129 490 135 484T142 467L136 17Q136 8 129 1T113 -6Q104 -6 97 0ZM-19 591T-25 597T-31 611Q-31 621 -23 627L101 739Q107 745 116
745Q126 745 132 738L254 626Q260 619 260 611Q260 603 254 597T241 591Q233 591 226 596L116 689L2 595Q-2 591 -10 591Q-19 591 -25 597Z" />
<glyph unicode="&#xef;" glyph-name="idieresis" horiz-adv-x="232" d="M104 -6T97 0T90 17L96 467Q96 476 103 483T119 490Q129 490 135 484T142 467L136 17Q136 8 129 1T113 -6Q104 -6 97 0ZM13 607T2 616T-10 640Q-10 656 3 668T36 680Q52 680 64 670T77 646Q77
630 64 619T30 607Q13 607 2 616ZM175 607T164 616T152 640Q152 656 165 668T198 680Q214 680 226 670T238 646Q238 630 225 619T192 607Q175 607 164 616Z" />
<glyph unicode="&#xf0;" glyph-name="eth" horiz-adv-x="468" d="M164 -5T127 17T69 79T47 170Q47 247 83 304T183 394T334 429Q294 495 227 570Q187 548 158 529T122 506Q107 496 102 496Q97 496 94 499T90 508Q90 516 99 523Q113 533 187 579L207 591Q191 609
172 624Q164 631 159 636T154 647Q154 655 159 660T173 666Q180 666 187 660Q191 659 202 648T242 609Q276 629 317 649T367 670Q372 670 375 667T379 657Q379 651 373 648Q310 618 260 590Q333 512 379 425T426 250Q426 185 400 127T324 32T210 -5Q164 -5 127
17ZM264 33T304 64T365 145T387 253Q387 316 352 391Q237 391 162 337T86 169Q86 108 121 71T210 33Q264 33 304 64Z" />
<glyph unicode="&#xf1;" glyph-name="ntilde" horiz-adv-x="573" d="M103 -6T97 0T90 14V473Q90 482 96 488T111 494Q121 494 127 488T133 473V270Q147 332 180 383T259 463T353 493Q411 493 441 459T482 355T493 164L492 17Q492 7 487 1T472 -6Q464 -6 458 0T451
16L450 162Q450 276 443 335T415 424T347 453Q305 453 266 423T194 333Q165 281 150 221T133 104L132 18Q132 7 127 1T111 -6Q103 -6 97 0ZM324 584T308 598T268 643Q251 667 239 677T215 688Q201 688 183 672T154 621Q148 603 133 603Q125 603 119 609T113 623Q113
642 128 666Q144 690 168 705T216 721Q244 721 261 707T300 664Q317 640 329 629T356 618Q378 618 391 639T418 697Q423 713 438 713Q446 713 452 707T458 693Q458 679 446 653Q431 625 406 605T353 584Q324 584 308 598Z" />
<glyph unicode="&#xf2;" glyph-name="ograve" horiz-adv-x="539" d="M197 -6T151 24T79 107T53 223Q53 293 84 355T168 455T285 493Q340 493 386 462T459 379T486 265Q486 192 454 130T369 31T253 -6Q197 -6 151 24ZM303 32T346 63T415 148T441 260Q441 311 420
356T361 428T280 455Q232 455 190 423T122 337T97 225Q97 172 117 128T174 58T255 32Q303 32 346 63ZM299 576T292 583L173 705Q164 714 164 725Q164 737 173 744T194 752Q208 752 216 741L322 610Q328 601 328 595Q328 586 322 581T307 576Q299 576 292 583Z"
/>
<glyph unicode="&#xf3;" glyph-name="oacute" horiz-adv-x="539" d="M197 -6T151 24T79 107T53 223Q53 293 84 355T168 455T285 493Q340 493 386 462T459 379T486 265Q486 192 454 130T369 31T253 -6Q197 -6 151 24ZM303 32T346 63T415 148T441 260Q441 311 420
356T361 428T280 455Q232 455 190 423T122 337T97 225Q97 172 117 128T174 58T255 32Q303 32 346 63ZM236 576T229 581T222 595Q222 602 229 610L334 741Q344 752 357 752Q369 752 378 745T387 725Q387 716 378 705L258 583Q253 576 244 576Q236 576 229 581Z"
/>
<glyph unicode="&#xf4;" glyph-name="ocircumflex" horiz-adv-x="539" d="M197 -6T151 24T79 107T53 223Q53 293 84 355T168 455T285 493Q340 493 386 462T459 379T486 265Q486 192 454 130T369 31T253 -6Q197 -6 151 24ZM303 32T346 63T415 148T441 260Q441 311
420 356T361 428T280 455Q232 455 190 423T122 337T97 225Q97 172 117 128T174 58T255 32Q303 32 346 63ZM142 589T136 595T130 609Q130 619 138 625L262 737Q268 743 277 743Q287 743 293 736L415 624Q421 617 421 609Q421 601 415 595T402 589Q394 589 387 594L277
687L163 593Q159 589 151 589Q142 589 136 595Z" />
<glyph unicode="&#xf5;" glyph-name="otilde" horiz-adv-x="539" d="M197 -6T151 24T79 107T53 223Q53 293 84 355T168 455T285 493Q340 493 386 462T459 379T486 265Q486 192 454 130T369 31T253 -6Q197 -6 151 24ZM303 32T346 63T415 148T441 260Q441 311 420
356T361 428T280 455Q232 455 190 423T122 337T97 225Q97 172 117 128T174 58T255 32Q303 32 346 63ZM315 584T299 598T259 643Q242 667 230 677T206 688Q192 688 174 672T145 621Q139 603 124 603Q116 603 110 609T104 623Q104 642 119 666Q135 690 159 705T207
721Q235 721 252 707T291 664Q308 640 320 629T347 618Q369 618 382 639T409 697Q414 713 429 713Q437 713 443 707T449 693Q449 679 437 653Q422 625 397 605T344 584Q315 584 299 598Z" />
<glyph unicode="&#xf6;" glyph-name="odieresis" horiz-adv-x="539" d="M197 -6T151 24T79 107T53 223Q53 293 84 355T168 455T285 493Q340 493 386 462T459 379T486 265Q486 192 454 130T369 31T253 -6Q197 -6 151 24ZM303 32T346 63T415 148T441 260Q441 311
420 356T361 428T280 455Q232 455 190 423T122 337T97 225Q97 172 117 128T174 58T255 32Q303 32 346 63ZM175 605T164 614T152 638Q152 654 165 666T198 678Q214 678 226 668T239 644Q239 628 226 617T192 605Q175 605 164 614ZM337 605T326 614T314 638Q314 654
327 666T360 678Q376 678 388 668T400 644Q400 628 387 617T354 605Q337 605 326 614Z" />
<glyph unicode="&#xf7;" glyph-name="divide" horiz-adv-x="433" d="M212 303T207 310T201 329Q201 341 209 351T228 361Q236 361 242 354T248 338Q248 323 240 313T221 303Q212 303 207 310ZM76 217T70 223T63 237Q63 245 69 250T84 256H349Q357 256 363 251T370
237Q370 229 364 223T349 217H84Q76 217 70 223ZM196 113T190 120T184 139Q184 151 192 161T212 171Q220 171 226 165T232 148Q232 134 224 124T205 113Q196 113 190 120Z" />
<glyph unicode="&#xf8;" glyph-name="oslash" horiz-adv-x="539" d="M99 -42T93 -36T87 -23Q87 -16 90 -12L125 45Q91 80 72 126T53 223Q53 295 84 357T169 457T285 494Q327 494 373 471L408 531Q412 539 423 539Q431 539 437 534T443 521Q443 517 440 511L405
449Q443 415 464 367T486 265Q486 192 454 130T369 31T253 -6Q202 -6 154 22L123 -32Q117 -42 106 -42Q99 -42 93 -36ZM319 459T280 459Q232 459 190 427T122 340T97 225Q97 187 109 150T145 81L353 437Q319 459 280 459ZM301 29T344 61T414 146T441 260Q441 301
426 341T382 413L173 54Q216 29 253 29Q301 29 344 61Z" />
<glyph unicode="&#xf9;" glyph-name="ugrave" horiz-adv-x="537" d="M169 -9T137 15T89 100T74 268Q74 373 86 465Q89 481 94 487T108 494Q117 494 123 489T129 474L127 451Q115 343 115 245Q115 160 128 113T165 46T229 27Q317 27 393 110Q407 127 407 161L410
474Q410 482 416 488T431 494Q439 494 445 488T452 474V16Q452 7 445 1T428 -6Q417 -6 410 2T403 21V77Q379 41 331 16T225 -9Q169 -9 137 15ZM284 576T277 583L158 705Q149 714 149 725Q149 737 158 744T179 752Q193 752 201 741L307 610Q313 601 313 595Q313
586 307 581T292 576Q284 576 277 583Z" />
<glyph unicode="&#xfa;" glyph-name="uacute" horiz-adv-x="537" d="M169 -9T137 15T89 100T74 268Q74 373 86 465Q89 481 94 487T108 494Q117 494 123 489T129 474L127 451Q115 343 115 245Q115 160 128 113T165 46T229 27Q317 27 393 110Q407 127 407 161L410
474Q410 482 416 488T431 494Q439 494 445 488T452 474V16Q452 7 445 1T428 -6Q417 -6 410 2T403 21V77Q379 41 331 16T225 -9Q169 -9 137 15ZM221 576T214 581T207 595Q207 602 214 610L319 741Q329 752 342 752Q354 752 363 745T372 725Q372 716 363 705L243
583Q238 576 229 576Q221 576 214 581Z" />
<glyph unicode="&#xfb;" glyph-name="ucircumflex" horiz-adv-x="537" d="M169 -9T137 15T89 100T74 268Q74 373 86 465Q89 481 94 487T108 494Q117 494 123 489T129 474L127 451Q115 343 115 245Q115 160 128 113T165 46T229 27Q317 27 393 110Q407 127 407 161L410
474Q410 482 416 488T431 494Q439 494 445 488T452 474V16Q452 7 445 1T428 -6Q417 -6 410 2T403 21V77Q379 41 331 16T225 -9Q169 -9 137 15ZM128 589T122 595T116 609Q116 619 124 625L248 737Q254 743 263 743Q273 743 279 736L401 624Q407 617 407 609Q407
601 401 595T388 589Q380 589 373 594L263 687L149 593Q145 589 137 589Q128 589 122 595Z" />
<glyph unicode="&#xfc;" glyph-name="udieresis" horiz-adv-x="537" d="M169 -9T137 15T89 100T74 268Q74 373 86 465Q89 481 94 487T108 494Q117 494 123 489T129 474L127 451Q115 343 115 245Q115 160 128 113T165 46T229 27Q317 27 393 110Q407 127 407 161L410
474Q410 482 416 488T431 494Q439 494 445 488T452 474V16Q452 7 445 1T428 -6Q417 -6 410 2T403 21V77Q379 41 331 16T225 -9Q169 -9 137 15ZM160 605T149 614T137 638Q137 654 150 666T183 678Q199 678 211 668T224 644Q224 628 211 617T177 605Q160 605 149
614ZM322 605T311 614T299 638Q299 654 312 666T345 678Q361 678 373 668T385 644Q385 628 372 617T339 605Q322 605 311 614Z" />
<glyph unicode="&#xfd;" glyph-name="yacute" horiz-adv-x="444" d="M110 -208T104 -202T97 -187Q97 -182 101 -174L204 50L-1 459Q-5 467 -5 471Q-5 481 1 487T16 494Q31 494 38 479L228 103L402 481Q404 487 409 491T422 495Q432 495 437 489T442 473Q442 467
440 461L139 -195Q131 -208 118 -208Q110 -208 104 -202ZM182 576T175 581T168 595Q168 602 175 610L280 741Q290 752 303 752Q315 752 324 745T333 725Q333 716 324 705L204 583Q199 576 190 576Q182 576 175 581Z" />
<glyph unicode="&#xfe;" glyph-name="thorn" horiz-adv-x="545" d="M103 -206T97 -200T90 -185V666Q90 675 96 681T111 688Q121 688 127 682T133 666V401Q163 438 214 460T325 483Q381 483 418 452T474 371T493 266Q493 159 443 81T274 2Q238 2 201 12T133 38V-185Q133
-194 127 -200T111 -206Q103 -206 97 -200ZM452 42T452 266Q452 305 440 346T400 416T324 445Q252 445 204 414T133 350V82Q217 42 280 42Q452 42 452 266Z" />
<glyph unicode="&#xff;" glyph-name="ydieresis" horiz-adv-x="444" d="M110 -208T104 -202T97 -187Q97 -182 101 -174L204 50L-1 459Q-5 467 -5 471Q-5 481 1 487T16 494Q31 494 38 479L228 103L402 481Q404 487 409 491T422 495Q432 495 437 489T442 473Q442
467 440 461L139 -195Q131 -208 118 -208Q110 -208 104 -202ZM121 605T110 614T98 638Q98 654 111 666T144 678Q160 678 172 668T185 644Q185 628 172 617T138 605Q121 605 110 614ZM283 605T272 614T260 638Q260 654 273 666T306 678Q322 678 334 668T346 644Q346
628 333 617T300 605Q283 605 272 614Z" />
<glyph unicode="&#x2013;" glyph-name="endash" horiz-adv-x="589" d="M87 221T81 227T74 243Q74 252 80 258T96 265H504Q513 265 519 259T525 243Q525 234 519 228T504 221H96Q87 221 81 227Z" />
<glyph unicode="&#x2014;" glyph-name="emdash" horiz-adv-x="842" d="M66 221T60 227T53 243Q53 252 59 258T75 265H766Q776 265 782 259T788 243Q788 234 782 228T766 221H75Q66 221 60 227Z" />
<glyph unicode="&#x2018;" glyph-name="quoteleft" horiz-adv-x="176" d="M75 560T68 568T60 585Q60 598 63 608T78 649L86 668Q99 698 105 708T118 719Q125 719 129 715T134 706Q134 700 132 696L106 627Q120 615 120 598Q120 583 110 572T86 560Q75 560 68 568Z" />
<glyph unicode="&#x2019;" glyph-name="quoteright" horiz-adv-x="176" d="M51 572T47 576T42 586Q42 591 44 595L70 664Q57 677 57 693Q57 709 67 720T90 732Q101 732 108 724T116 706Q116 693 113 683T98 643Q92 627 89 621Q77 591 72 582T58 572Q51 572 47 576Z" />
<glyph unicode="&#x201a;" glyph-name="quotesinglbase" horiz-adv-x="254" d="M103 -102T99 -98T94 -88Q94 -83 96 -79L122 -10Q109 3 109 19Q109 35 119 46T143 58Q153 58 160 50T168 32Q168 19 165 9T150 -31Q147 -38 138 -61T123 -93T110 -102Q103 -102 99 -98Z" />
<glyph unicode="&#x201c;" glyph-name="quotedblleft" horiz-adv-x="304" d="M325 810T318 818T310 835Q310 848 313 858T328 899L336 918Q349 948 355 958T368 969Q375 969 379 965T384 956Q384 950 382 946L356 877Q370 865 370 848Q370 833 360 822T336 810Q325
810 318 818ZM203 560T196 568T188 585Q188 598 191 608T206 649L214 668Q227 698 233 708T246 719Q253 719 257 715T262 706Q262 700 260 696L234 627Q248 615 248 598Q248 583 238 572T214 560Q203 560 196 568Z" />
<glyph unicode="&#x201d;" glyph-name="quotedblright" horiz-adv-x="312" d="M51 822T47 826T42 836Q42 841 44 845L70 914Q57 927 57 943Q57 959 67 970T90 982Q101 982 108 974T116 956Q116 943 113 933T98 893Q92 877 89 871Q77 841 72 832T58 822Q51 822
47 826ZM187 572T183 576T178 586Q178 591 180 595L206 664Q193 677 193 693Q193 709 203 720T226 732Q237 732 244 724T252 706Q252 693 249 683T234 643Q228 627 225 621Q213 591 208 582T194 572Q187 572 183 576Z" />
<glyph unicode="&#x201e;" glyph-name="quotedblbase" horiz-adv-x="382" d="M97 -102T93 -98T88 -88Q88 -83 90 -79L116 -10Q102 2 102 19Q102 35 112 46T136 58Q147 58 154 50T162 32Q162 19 159 9T144 -31Q140 -40 131 -62T116 -93T104 -102Q97 -102 93 -98ZM237
-102T233 -98T228 -88Q228 -83 230 -79L256 -10Q243 3 243 19Q243 35 253 46T276 58Q287 58 294 50T302 32Q302 19 299 9T284 -31Q278 -47 275 -53Q263 -83 258 -92T244 -102Q237 -102 233 -98Z" />
<glyph unicode="&#x2022;" glyph-name="bullet" horiz-adv-x="302" d="M119 163T94 187T69 247Q69 282 94 307T154 332Q188 332 213 307T238 247Q238 213 214 188T154 163Q119 163 94 187Z" />
<glyph unicode="&#x2039;" glyph-name="guilsinglleft" horiz-adv-x="352" d="M251 71T242 77L74 227Q67 234 67 243Q67 254 74 260L259 419Q267 425 274 425Q282 425 288 419T295 404Q295 395 287 387L122 243L271 108Q279 101 279 92Q279 84 273 78T257 71Q251
71 242 77Z" />
<glyph unicode="&#x203a;" glyph-name="guilsinglright" horiz-adv-x="352" d="M86 71T80 77T73 92Q73 101 80 108L230 243L65 387Q57 395 57 404Q57 413 63 419T78 425Q85 425 93 419L277 260Q285 253 285 243Q285 233 277 227L110 77Q101 71 95 71Q86 71 80 77Z" />
</font>
</defs>
</svg>
