<?xml version="1.0" encoding="UTF-8"?>
<svg id="Ebene_1" data-name="Ebene 1" xmlns="http://www.w3.org/2000/svg" xmlns:xlink="http://www.w3.org/1999/xlink" viewBox="0 0 588.23 512">
  <defs>
    <style>
      .cls-1 {
        fill: url(#Unbenannter_Verlauf_65-2);
      }

      .cls-1, .cls-2, .cls-3, .cls-4, .cls-5 {
        stroke-width: 0px;
      }

      .cls-2 {
        fill: url(#Unbenannter_Verlauf_65);
      }

      .cls-4 {
        fill: #af235c;
      }

      .cls-5 {
        fill: #e83162;
      }
    </style>
    <linearGradient id="Unbenannter_Verlauf_65" data-name="Unbenannter Verlauf 65" x1="720.85" y1="-427.46" x2="736.52" y2="-443.12" gradientTransform="translate(-315.8 24.95) rotate(45)" gradientUnits="userSpaceOnUse">
      <stop offset="0" stop-color="#000" stop-opacity="0"/>
      <stop offset="1" stop-color="#000" stop-opacity=".2"/>
    </linearGradient>
    <linearGradient id="Unbenannter_Verlauf_65-2" data-name="Unbenannter Verlauf 65" x1="543.2" y1="191.98" x2="558.86" y2="176.31" gradientTransform="translate(70.18 686.27) rotate(-45) scale(1 -1)" xlink:href="#Unbenannter_Verlauf_65"/>
  </defs>
  <g>
    <path class="cls-3" d="m118.69,163.89l35.73,35.73-36.48,36.48-35.73-35.73,36.48-36.48m0-65.15c-10.54,0-21.09,4.02-29.13,12.07L0,200.37l88.81,88.81c8.04,8.04,18.59,12.07,29.13,12.07s21.09-4.02,29.13-12.07l89.56-89.56-88.81-88.81c-8.04-8.04-18.59-12.07-29.13-12.07h0Z"/>
    <path class="cls-4" d="m540.5,250l-145.7,145.7c-3.89,3.89-10.2,3.89-14.09,0l-36.73-36.73c-3.89-3.89-3.89-10.2,0-14.09l145.7-145.7,50.82,50.82Z"/>
    <rect class="cls-2" x="496.18" y="196.48" width="22.15" height="71.87" transform="translate(-15.77 426.76) rotate(-45)"/>
    <path class="cls-5" d="m540.5,250L344.24,53.74c-3.89-3.89-3.89-10.2,0-14.09L380.97,2.92c3.89-3.89,10.2-3.89,14.09,0l189.22,189.22c3.89,3.89,3.89,10.2,0,14.09l-43.78,43.78Z"/>
    <path class="cls-4" d="m362.87,148.86L217.17,3.16c-3.89-3.89-10.2-3.89-14.09,0l-36.73,36.73c-3.89,3.89-3.89,10.2,0,14.09l145.7,145.7,50.82-50.82Z"/>
    <rect class="cls-1" x="318.53" y="130.48" width="22.15" height="71.87" transform="translate(214.21 -184.32) rotate(45)"/>
    <path class="cls-5" d="m362.85,148.86l-196.26,196.26c-3.89,3.89-3.89,10.2,0,14.09l36.73,36.73c3.89,3.89,10.2,3.89,14.09,0l189.22-189.22c3.89-3.89,3.89-10.2,0-14.09l-43.78-43.78Z"/>
  </g>
  <g>
    <path class="cls-3" d="m7.32,511.8c-2.03,0-3.58-.56-4.66-1.67-1.08-1.12-1.62-2.72-1.62-4.81v-38.3c0-2.09.54-3.68,1.62-4.76,1.08-1.08,2.6-1.62,4.56-1.62s3.48.54,4.56,1.62c1.08,1.08,1.62,2.67,1.62,4.76v6.89l-1.12-2.53c1.49-3.58,3.8-6.3,6.94-8.16,3.14-1.86,6.7-2.79,10.69-2.79s7.26.74,9.83,2.23c2.57,1.49,4.49,3.73,5.78,6.74,1.28,3.01,1.92,6.81,1.92,11.4v24.52c0,2.1-.54,3.7-1.62,4.81-1.08,1.11-2.63,1.67-4.66,1.67s-3.6-.56-4.71-1.67-1.67-2.72-1.67-4.81v-23.91c0-3.85-.73-6.65-2.18-8.41-1.45-1.76-3.7-2.63-6.74-2.63-3.72,0-6.67,1.17-8.87,3.5-2.2,2.33-3.29,5.42-3.29,9.27v22.19c0,4.32-2.13,6.49-6.38,6.49Z"/>
    <path class="cls-3" d="m78.25,512c-4.12,0-7.53-.76-10.23-2.28-2.7-1.52-4.71-3.8-6.03-6.84-1.32-3.04-1.98-6.82-1.98-11.35v-24.52c0-2.16.54-3.76,1.62-4.81,1.08-1.05,2.63-1.57,4.66-1.57s3.6.52,4.71,1.57c1.11,1.05,1.67,2.65,1.67,4.81v24.72c0,3.51.71,6.11,2.13,7.8,1.42,1.69,3.68,2.53,6.79,2.53,3.38,0,6.15-1.16,8.31-3.5,2.16-2.33,3.24-5.42,3.24-9.27v-22.29c0-2.16.54-3.76,1.62-4.81,1.08-1.05,2.63-1.57,4.66-1.57s3.6.52,4.71,1.57c1.11,1.05,1.67,2.65,1.67,4.81v38.3c0,4.32-2.06,6.49-6.18,6.49-1.96,0-3.48-.56-4.56-1.67-1.08-1.12-1.62-2.72-1.62-4.81v-7.7l1.42,3.04c-1.42,3.65-3.56,6.45-6.43,8.41-2.87,1.96-6.27,2.94-10.18,2.94Z"/>
    <path class="cls-3" d="m122.42,511.49c-1.49,0-2.72-.42-3.7-1.27-.98-.84-1.49-1.94-1.52-3.29-.04-1.35.52-2.77,1.67-4.26l16.41-20.26v5.98l-15.4-18.95c-1.22-1.49-1.79-2.9-1.72-4.26.07-1.35.59-2.45,1.57-3.29.98-.84,2.21-1.27,3.7-1.27s2.85.27,3.9.81c1.05.54,2.01,1.39,2.89,2.53l12.16,15.6h-4.46l12.26-15.6c.94-1.15,1.92-1.99,2.94-2.53,1.01-.54,2.26-.81,3.75-.81s2.8.44,3.75,1.32c.95.88,1.43,1.99,1.47,3.34.03,1.35-.56,2.77-1.77,4.26l-15.3,18.75v-5.67l16.41,20.06c1.22,1.42,1.79,2.8,1.72,4.15-.07,1.35-.59,2.47-1.57,3.34-.98.88-2.25,1.32-3.8,1.32s-2.74-.27-3.75-.81c-1.01-.54-1.99-1.38-2.94-2.53l-13.17-16.62h4.26l-13.07,16.62c-.88,1.08-1.82,1.91-2.84,2.48-1.01.57-2.3.86-3.85.86Z"/>
    <path class="cls-3" d="m197,512c-4.39,0-8.05-.74-10.99-2.23-2.94-1.49-5.12-3.66-6.54-6.54-1.42-2.87-2.13-6.43-2.13-10.69v-21.58h-5.27c-1.62,0-2.87-.42-3.75-1.27-.88-.84-1.32-2.01-1.32-3.5s.44-2.74,1.32-3.55,2.13-1.22,3.75-1.22h5.27v-9.22c0-2.09.56-3.68,1.67-4.76,1.12-1.08,2.68-1.62,4.71-1.62s3.58.54,4.66,1.62c1.08,1.08,1.62,2.67,1.62,4.76v9.22h10.74c1.62,0,2.87.41,3.75,1.22.88.81,1.32,1.99,1.32,3.55s-.44,2.65-1.32,3.5c-.88.84-2.13,1.27-3.75,1.27h-10.74v20.87c0,3.24.71,5.67,2.13,7.3,1.42,1.62,3.71,2.43,6.89,2.43,1.15,0,2.16-.1,3.04-.3.88-.2,1.65-.34,2.33-.41.81-.07,1.48.19,2.03.76.54.57.81,1.74.81,3.5,0,1.35-.22,2.55-.66,3.6-.44,1.05-1.23,1.77-2.38,2.18-.88.27-2.03.52-3.45.76-1.42.24-2.67.35-3.75.35Z"/>
    <path class="cls-5" d="m269.24,512c-4.19,0-7.85-1.05-10.99-3.14-3.14-2.09-5.22-4.9-6.23-8.41l1.11-2.53v7.4c0,2.1-.54,3.7-1.62,4.81-1.08,1.11-2.6,1.67-4.56,1.67s-3.58-.56-4.66-1.67c-1.08-1.12-1.62-2.72-1.62-4.81v-60.19c0-2.09.54-3.68,1.62-4.76s2.63-1.62,4.66-1.62,3.6.54,4.71,1.62c1.12,1.08,1.67,2.67,1.67,4.76v26.34h-1.22c1.08-3.31,3.17-5.98,6.28-8.01,3.11-2.03,6.72-3.04,10.84-3.04,4.39,0,8.21,1.05,11.45,3.14,3.24,2.09,5.78,5.05,7.6,8.87,1.82,3.82,2.74,8.39,2.74,13.73s-.91,9.85-2.74,13.73c-1.82,3.88-4.37,6.87-7.65,8.97-3.28,2.09-7.08,3.14-11.4,3.14Zm-3.55-9.63c2.5,0,4.69-.61,6.59-1.82,1.89-1.22,3.36-3.02,4.41-5.42,1.05-2.4,1.57-5.39,1.57-8.97,0-5.4-1.15-9.44-3.45-12.11-2.3-2.67-5.34-4-9.12-4-2.5,0-4.7.59-6.59,1.77-1.89,1.18-3.36,2.97-4.41,5.37-1.05,2.4-1.57,5.39-1.57,8.97,0,5.34,1.15,9.37,3.45,12.11,2.3,2.74,5.34,4.1,9.12,4.1Z"/>
    <path class="cls-5" d="m323.04,512c-5.13,0-9.59-1.05-13.38-3.14-3.78-2.09-6.72-5.08-8.82-8.97-2.09-3.88-3.14-8.46-3.14-13.73,0-3.98.59-7.55,1.77-10.69,1.18-3.14,2.89-5.84,5.12-8.11,2.23-2.26,4.9-3.98,8-5.17,3.11-1.18,6.59-1.77,10.44-1.77,5.13,0,9.59,1.05,13.37,3.14,3.78,2.09,6.72,5.07,8.82,8.92,2.09,3.85,3.14,8.41,3.14,13.68,0,3.99-.59,7.57-1.77,10.74-1.18,3.18-2.89,5.89-5.12,8.16-2.23,2.26-4.9,3.99-8,5.17-3.11,1.18-6.59,1.77-10.44,1.77Zm0-9.63c2.5,0,4.69-.61,6.59-1.82,1.89-1.22,3.36-3.02,4.41-5.42,1.05-2.4,1.57-5.39,1.57-8.97,0-5.4-1.15-9.44-3.45-12.11-2.3-2.67-5.34-4-9.12-4-2.5,0-4.7.59-6.59,1.77-1.89,1.18-3.36,2.97-4.41,5.37-1.05,2.4-1.57,5.39-1.57,8.97,0,5.34,1.15,9.37,3.45,12.11,2.3,2.74,5.34,4.1,9.12,4.1Z"/>
    <path class="cls-5" d="m380.39,512c-5.13,0-9.59-1.05-13.38-3.14-3.78-2.09-6.72-5.08-8.82-8.97-2.09-3.88-3.14-8.46-3.14-13.73,0-3.98.59-7.55,1.77-10.69,1.18-3.14,2.89-5.84,5.12-8.11,2.23-2.26,4.9-3.98,8-5.17,3.11-1.18,6.59-1.77,10.44-1.77,5.13,0,9.59,1.05,13.37,3.14,3.78,2.09,6.72,5.07,8.82,8.92,2.09,3.85,3.14,8.41,3.14,13.68,0,3.99-.59,7.57-1.77,10.74-1.18,3.18-2.89,5.89-5.12,8.16-2.23,2.26-4.9,3.99-8,5.17-3.11,1.18-6.59,1.77-10.44,1.77Zm0-9.63c2.5,0,4.69-.61,6.59-1.82,1.89-1.22,3.36-3.02,4.41-5.42,1.05-2.4,1.57-5.39,1.57-8.97,0-5.4-1.15-9.44-3.45-12.11-2.3-2.67-5.34-4-9.12-4-2.5,0-4.7.59-6.59,1.77-1.89,1.18-3.36,2.97-4.41,5.37-1.05,2.4-1.57,5.39-1.57,8.97,0,5.34,1.15,9.37,3.45,12.11,2.3,2.74,5.34,4.1,9.12,4.1Z"/>
    <path class="cls-5" d="m433.28,512c-2.9,0-5.98-.3-9.22-.91-3.24-.61-6.15-1.65-8.71-3.14-1.08-.67-1.84-1.47-2.28-2.38-.44-.91-.61-1.82-.51-2.74.1-.91.44-1.7,1.01-2.38.57-.67,1.32-1.11,2.23-1.32.91-.2,1.91-.03,2.99.51,2.7,1.28,5.23,2.18,7.6,2.69,2.36.51,4.69.76,6.99.76,3.24,0,5.66-.56,7.24-1.67,1.59-1.11,2.38-2.58,2.38-4.41,0-1.55-.52-2.75-1.57-3.6-1.05-.84-2.62-1.47-4.71-1.87l-10.13-1.93c-4.19-.81-7.38-2.35-9.58-4.61-2.2-2.26-3.29-5.18-3.29-8.76,0-3.24.89-6.04,2.68-8.41,1.79-2.36,4.27-4.19,7.45-5.47,3.17-1.28,6.82-1.93,10.94-1.93,2.97,0,5.76.32,8.36.96,2.6.64,5.12,1.64,7.55,2.99,1.01.54,1.7,1.25,2.08,2.13.37.88.46,1.77.25,2.68-.2.91-.61,1.72-1.22,2.43-.61.71-1.37,1.15-2.28,1.32-.91.17-1.94-.02-3.09-.56-2.1-1.08-4.1-1.86-6.03-2.33-1.92-.47-3.77-.71-5.52-.71-3.31,0-5.76.57-7.35,1.72-1.59,1.15-2.38,2.67-2.38,4.56,0,1.42.47,2.6,1.42,3.55.95.95,2.4,1.59,4.36,1.93l10.13,1.92c4.39.81,7.72,2.3,9.98,4.46,2.26,2.16,3.39,5.07,3.39,8.71,0,4.93-1.93,8.8-5.78,11.6-3.85,2.8-8.98,4.21-15.4,4.21Z"/>
    <path class="cls-5" d="m486.28,512c-4.39,0-8.05-.74-10.99-2.23-2.94-1.49-5.12-3.66-6.54-6.54-1.42-2.87-2.13-6.43-2.13-10.69v-21.58h-5.27c-1.62,0-2.87-.42-3.75-1.27-.88-.84-1.32-2.01-1.32-3.5s.44-2.74,1.32-3.55,2.13-1.22,3.75-1.22h5.27v-9.22c0-2.09.56-3.68,1.67-4.76,1.12-1.08,2.68-1.62,4.71-1.62s3.58.54,4.66,1.62c1.08,1.08,1.62,2.67,1.62,4.76v9.22h10.74c1.62,0,2.87.41,3.75,1.22.88.81,1.32,1.99,1.32,3.55s-.44,2.65-1.32,3.5c-.88.84-2.13,1.27-3.75,1.27h-10.74v20.87c0,3.24.71,5.67,2.13,7.3,1.42,1.62,3.71,2.43,6.89,2.43,1.15,0,2.16-.1,3.04-.3.88-.2,1.65-.34,2.33-.41.81-.07,1.48.19,2.03.76.54.57.81,1.74.81,3.5,0,1.35-.22,2.55-.66,3.6-.44,1.05-1.23,1.77-2.38,2.18-.88.27-2.03.52-3.45.76-1.42.24-2.67.35-3.75.35Z"/>
    <path class="cls-5" d="m525.89,512c-5.61,0-10.44-1.05-14.49-3.14-4.05-2.09-7.18-5.07-9.37-8.92-2.2-3.85-3.29-8.41-3.29-13.68s1.06-9.63,3.19-13.48c2.13-3.85,5.07-6.87,8.82-9.07,3.75-2.19,8.02-3.29,12.82-3.29,3.51,0,6.67.58,9.47,1.72,2.8,1.15,5.2,2.8,7.19,4.96,1.99,2.16,3.51,4.78,4.56,7.85,1.05,3.07,1.57,6.54,1.57,10.39,0,1.21-.42,2.14-1.27,2.79-.85.64-2.04.96-3.6.96h-32.53v-7.3h28.47l-1.62,1.52c0-3.11-.46-5.71-1.37-7.8-.91-2.09-2.23-3.7-3.95-4.81-1.72-1.12-3.87-1.67-6.43-1.67-2.84,0-5.25.66-7.25,1.98-1.99,1.32-3.51,3.18-4.56,5.57-1.05,2.4-1.57,5.25-1.57,8.56v.71c0,5.54,1.3,9.68,3.9,12.41,2.6,2.74,6.43,4.1,11.5,4.1,1.76,0,3.73-.22,5.93-.66,2.19-.44,4.27-1.2,6.23-2.28,1.42-.81,2.67-1.16,3.75-1.06,1.08.1,1.94.49,2.58,1.17.64.68,1.03,1.5,1.17,2.48.13.98-.05,1.98-.56,2.99-.51,1.01-1.37,1.89-2.58,2.63-2.37,1.49-5.08,2.58-8.16,3.29-3.08.71-5.93,1.06-8.56,1.06Z"/>
    <path class="cls-5" d="m561.86,511.8c-2.09,0-3.7-.56-4.81-1.67-1.11-1.12-1.67-2.72-1.67-4.81v-38.3c0-2.09.54-3.68,1.62-4.76,1.08-1.08,2.6-1.62,4.56-1.62s3.48.54,4.56,1.62c1.08,1.08,1.62,2.67,1.62,4.76v6.38h-1.01c.94-4.05,2.8-7.13,5.57-9.22,2.77-2.09,6.45-3.34,11.04-3.75,1.42-.13,2.55.22,3.39,1.06.84.84,1.33,2.14,1.47,3.9.13,1.69-.25,3.06-1.17,4.1-.91,1.05-2.28,1.67-4.1,1.87l-2.23.2c-4.12.41-7.23,1.67-9.32,3.8-2.1,2.13-3.14,5.12-3.14,8.97v20.97c0,2.1-.54,3.7-1.62,4.81-1.08,1.11-2.67,1.67-4.76,1.67Z"/>
  </g>
</svg>