<?xml version="1.0" encoding="UTF-8"?>
<svg id="Ebene_1" data-name="Ebene 1" xmlns="http://www.w3.org/2000/svg" xmlns:xlink="http://www.w3.org/1999/xlink" viewBox="0 0 897 113.5">
  <defs>
    <style>
      .cls-1 {
        fill: url(#Unbenannter_Verlauf_65-2);
      }

      .cls-1, .cls-2, .cls-3, .cls-4, .cls-5 {
        stroke-width: 0px;
      }

      .cls-2 {
        fill: url(#Unbenannter_Verlauf_65);
      }

      .cls-4 {
        fill: #af235c;
      }

      .cls-5 {
        fill: #e83162;
      }
    </style>
    <linearGradient id="Unbenannter_Verlauf_65" data-name="Unbenannter Verlauf 65" x1="363.55" y1="-599.34" x2="368.01" y2="-603.79" gradientTransform="translate(-539.66 232.86) rotate(45)" gradientUnits="userSpaceOnUse">
      <stop offset="0" stop-color="#000" stop-opacity="0"/>
      <stop offset="1" stop-color="#000" stop-opacity=".2"/>
    </linearGradient>
    <linearGradient id="Unbenannter_Verlauf_65-2" data-name="Unbenannter Verlauf 65" x1="313" y1="305.43" x2="317.45" y2="300.98" gradientTransform="translate(85.3 484.65) rotate(-45) scale(1 -1)" xlink:href="#Unbenannter_Verlauf_65"/>
  </defs>
  <path class="cls-3" d="m33.78,46.64l10.17,10.17-10.38,10.38-10.17-10.17,10.38-10.38m0-18.54c-3,0-6,1.14-8.29,3.43L0,57.02l25.27,25.27c2.29,2.29,5.29,3.43,8.29,3.43s6-1.14,8.29-3.43l25.49-25.49-25.27-25.27c-2.29-2.29-5.29-3.43-8.29-3.43h0Z"/>
  <path class="cls-4" d="m153.81,71.14l-41.46,41.46c-1.11,1.11-2.9,1.11-4.01,0l-10.45-10.45c-1.11-1.11-1.11-2.9,0-4.01l41.46-41.46,14.46,14.46Z"/>
  <rect class="cls-2" x="141.2" y="55.91" width="6.3" height="20.45" transform="translate(-4.49 121.45) rotate(-45)"/>
  <path class="cls-5" d="m153.81,71.14L97.96,15.29c-1.11-1.11-1.11-2.9,0-4.01L108.42.83c1.11-1.11,2.9-1.11,4.01,0l53.85,53.85c1.11,1.11,1.11,2.9,0,4.01l-12.46,12.46Z"/>
  <path class="cls-4" d="m103.26,42.36L61.8.9c-1.11-1.11-2.9-1.11-4.01,0l-10.45,10.45c-1.11,1.11-1.11,2.9,0,4.01l41.46,41.46,14.46-14.46Z"/>
  <rect class="cls-1" x="90.65" y="37.13" width="6.3" height="20.45" transform="translate(60.96 -52.45) rotate(45)"/>
  <path class="cls-5" d="m103.26,42.36l-55.85,55.85c-1.11,1.11-1.11,2.9,0,4.01l10.45,10.45c1.11,1.11,2.9,1.11,4.01,0l53.85-53.85c1.11-1.11,1.11-2.9,0-4.01l-12.46-12.46Z"/>
  <g>
    <path class="cls-3" d="m215.04,91.51c-2.38,0-4.2-.65-5.47-1.96-1.27-1.31-1.9-3.19-1.9-5.65v-44.96c0-2.46.63-4.32,1.9-5.59,1.27-1.27,3.05-1.9,5.35-1.9s4.08.64,5.35,1.9c1.27,1.27,1.9,3.13,1.9,5.59v8.09l-1.31-2.97c1.74-4.2,4.46-7.39,8.15-9.58,3.69-2.18,7.87-3.27,12.55-3.27s8.52.87,11.54,2.62c3.01,1.75,5.27,4.38,6.78,7.91,1.51,3.53,2.26,7.99,2.26,13.38v28.79c0,2.46-.64,4.34-1.9,5.65-1.27,1.31-3.09,1.96-5.47,1.96s-4.22-.65-5.53-1.96-1.96-3.19-1.96-5.65v-28.07c0-4.52-.85-7.81-2.56-9.87-1.71-2.06-4.34-3.09-7.91-3.09-4.36,0-7.83,1.37-10.41,4.1-2.58,2.74-3.87,6.36-3.87,10.88v26.05c0,5.08-2.5,7.61-7.49,7.61Z"/>
    <path class="cls-3" d="m298.31,91.75c-4.84,0-8.84-.89-12.01-2.68-3.17-1.78-5.53-4.46-7.08-8.03-1.55-3.57-2.32-8.01-2.32-13.32v-28.79c0-2.54.63-4.42,1.9-5.65,1.27-1.23,3.09-1.84,5.47-1.84s4.22.62,5.53,1.84c1.31,1.23,1.96,3.11,1.96,5.65v29.02c0,4.12.83,7.18,2.5,9.16,1.67,1.98,4.32,2.97,7.97,2.97,3.97,0,7.22-1.37,9.75-4.1,2.54-2.74,3.81-6.36,3.81-10.88v-26.17c0-2.54.63-4.42,1.9-5.65,1.27-1.23,3.09-1.84,5.47-1.84s4.22.62,5.53,1.84c1.31,1.23,1.96,3.11,1.96,5.65v44.96c0,5.08-2.42,7.61-7.26,7.61-2.3,0-4.09-.65-5.35-1.96-1.27-1.31-1.9-3.19-1.9-5.65v-9.04l1.67,3.57c-1.67,4.28-4.18,7.57-7.55,9.87-3.37,2.3-7.36,3.45-11.95,3.45Z"/>
    <path class="cls-3" d="m350.17,91.16c-1.74,0-3.19-.5-4.34-1.49-1.15-.99-1.74-2.28-1.78-3.87-.04-1.58.61-3.25,1.96-5l19.27-23.79v7.02l-18.08-22.24c-1.43-1.74-2.1-3.41-2.02-5,.08-1.59.69-2.87,1.84-3.87,1.15-.99,2.6-1.49,4.34-1.49s3.35.32,4.58.95c1.23.64,2.36,1.63,3.39,2.97l14.27,18.32h-5.23l14.39-18.32c1.11-1.35,2.26-2.34,3.45-2.97,1.19-.63,2.66-.95,4.4-.95s3.29.52,4.4,1.55c1.11,1.03,1.68,2.34,1.72,3.92.04,1.59-.65,3.25-2.08,5l-17.96,22.01v-6.66l19.27,23.55c1.43,1.67,2.1,3.29,2.02,4.88-.08,1.59-.69,2.9-1.84,3.92-1.15,1.03-2.64,1.55-4.46,1.55s-3.21-.32-4.4-.95c-1.19-.63-2.34-1.63-3.45-2.97l-15.46-19.51h5l-15.34,19.51c-1.03,1.27-2.14,2.24-3.33,2.91-1.19.67-2.7,1.01-4.52,1.01Z"/>
    <path class="cls-3" d="m437.71,91.75c-5.16,0-9.46-.87-12.91-2.62-3.45-1.74-6.01-4.3-7.67-7.67-1.67-3.37-2.5-7.55-2.5-12.55v-25.34h-6.19c-1.9,0-3.37-.49-4.4-1.49-1.03-.99-1.55-2.36-1.55-4.1s.52-3.21,1.55-4.16,2.5-1.43,4.4-1.43h6.19v-10.82c0-2.46.65-4.32,1.96-5.59,1.31-1.27,3.15-1.9,5.53-1.9s4.2.64,5.47,1.9c1.27,1.27,1.9,3.13,1.9,5.59v10.82h12.61c1.9,0,3.37.48,4.4,1.43,1.03.95,1.55,2.34,1.55,4.16s-.52,3.11-1.55,4.1c-1.03.99-2.5,1.49-4.4,1.49h-12.61v24.5c0,3.81.83,6.66,2.5,8.56,1.66,1.9,4.36,2.85,8.09,2.85,1.35,0,2.54-.12,3.57-.36,1.03-.24,1.94-.4,2.74-.48.95-.08,1.74.22,2.38.89.63.67.95,2.04.95,4.1,0,1.59-.26,2.99-.77,4.22-.52,1.23-1.45,2.08-2.79,2.56-1.03.31-2.38.61-4.04.89-1.67.28-3.13.42-4.4.42Z"/>
    <path class="cls-5" d="m522.52,91.75c-4.92,0-9.22-1.23-12.91-3.69-3.69-2.46-6.13-5.75-7.31-9.87l1.31-2.97v8.68c0,2.46-.64,4.34-1.9,5.65-1.27,1.31-3.05,1.96-5.35,1.96s-4.2-.65-5.47-1.96c-1.27-1.31-1.9-3.19-1.9-5.65V13.25c0-2.46.63-4.32,1.9-5.59s3.09-1.9,5.47-1.9,4.22.64,5.53,1.9c1.31,1.27,1.96,3.13,1.96,5.59v30.93h-1.43c1.27-3.88,3.73-7.02,7.38-9.4,3.65-2.38,7.89-3.57,12.73-3.57,5.15,0,9.63,1.23,13.44,3.69,3.81,2.46,6.78,5.93,8.92,10.41,2.14,4.48,3.21,9.85,3.21,16.12s-1.07,11.56-3.21,16.12c-2.14,4.56-5.13,8.07-8.98,10.53-3.85,2.46-8.31,3.69-13.38,3.69Zm-4.16-11.3c2.93,0,5.51-.71,7.73-2.14,2.22-1.43,3.94-3.55,5.17-6.36,1.23-2.81,1.84-6.32,1.84-10.53,0-6.34-1.35-11.08-4.04-14.21-2.7-3.13-6.26-4.7-10.7-4.7-2.94,0-5.51.69-7.73,2.08-2.22,1.39-3.95,3.49-5.17,6.31-1.23,2.82-1.84,6.32-1.84,10.53,0,6.27,1.35,11,4.04,14.22,2.7,3.21,6.26,4.82,10.71,4.82Z"/>
    <path class="cls-5" d="m585.68,91.75c-6.03,0-11.26-1.23-15.7-3.69-4.44-2.46-7.89-5.97-10.35-10.53-2.46-4.56-3.69-9.93-3.69-16.12,0-4.68.69-8.86,2.08-12.55,1.39-3.69,3.39-6.86,6.01-9.52,2.62-2.65,5.75-4.68,9.4-6.07,3.65-1.39,7.73-2.08,12.25-2.08,6.03,0,11.26,1.23,15.7,3.69,4.44,2.46,7.89,5.95,10.35,10.47,2.46,4.52,3.69,9.87,3.69,16.06,0,4.68-.69,8.88-2.08,12.61-1.39,3.73-3.39,6.92-6.01,9.58-2.62,2.66-5.75,4.68-9.4,6.07-3.65,1.39-7.73,2.08-12.25,2.08Zm0-11.3c2.93,0,5.51-.71,7.73-2.14,2.22-1.43,3.94-3.55,5.17-6.36,1.23-2.81,1.84-6.32,1.84-10.53,0-6.34-1.35-11.08-4.04-14.21-2.7-3.13-6.26-4.7-10.7-4.7-2.94,0-5.51.69-7.73,2.08-2.22,1.39-3.95,3.49-5.17,6.31-1.23,2.82-1.84,6.32-1.84,10.53,0,6.27,1.35,11,4.04,14.22,2.7,3.21,6.26,4.82,10.71,4.82Z"/>
    <path class="cls-5" d="m653.01,91.75c-6.03,0-11.26-1.23-15.7-3.69-4.44-2.46-7.89-5.97-10.35-10.53-2.46-4.56-3.69-9.93-3.69-16.12,0-4.68.69-8.86,2.08-12.55,1.39-3.69,3.39-6.86,6.01-9.52,2.62-2.65,5.75-4.68,9.4-6.07,3.65-1.39,7.73-2.08,12.25-2.08,6.03,0,11.26,1.23,15.7,3.69,4.44,2.46,7.89,5.95,10.35,10.47,2.46,4.52,3.69,9.87,3.69,16.06,0,4.68-.69,8.88-2.08,12.61-1.39,3.73-3.39,6.92-6.01,9.58-2.62,2.66-5.75,4.68-9.4,6.07-3.65,1.39-7.73,2.08-12.25,2.08Zm0-11.3c2.93,0,5.51-.71,7.73-2.14,2.22-1.43,3.94-3.55,5.17-6.36,1.23-2.81,1.84-6.32,1.84-10.53,0-6.34-1.35-11.08-4.04-14.21-2.7-3.13-6.26-4.7-10.7-4.7-2.94,0-5.51.69-7.73,2.08-2.22,1.39-3.95,3.49-5.17,6.31-1.23,2.82-1.84,6.32-1.84,10.53,0,6.27,1.35,11,4.04,14.22,2.7,3.21,6.26,4.82,10.71,4.82Z"/>
    <path class="cls-5" d="m715.1,91.75c-3.41,0-7.02-.36-10.82-1.07-3.81-.71-7.22-1.94-10.23-3.69-1.27-.79-2.16-1.72-2.68-2.8-.52-1.07-.71-2.14-.59-3.21.12-1.07.51-2,1.19-2.8.67-.79,1.55-1.31,2.62-1.55,1.07-.24,2.24-.04,3.51.59,3.17,1.51,6.14,2.56,8.92,3.15,2.78.59,5.51.89,8.21.89,3.81,0,6.64-.65,8.5-1.96,1.86-1.31,2.8-3.03,2.8-5.17,0-1.82-.62-3.23-1.84-4.22-1.23-.99-3.07-1.72-5.53-2.2l-11.9-2.26c-4.92-.95-8.66-2.75-11.24-5.41-2.58-2.66-3.87-6.09-3.87-10.29,0-3.81,1.05-7.1,3.15-9.87,2.1-2.78,5.02-4.92,8.74-6.42,3.73-1.51,8.01-2.26,12.85-2.26,3.49,0,6.76.38,9.81,1.13,3.05.76,6.01,1.92,8.86,3.51,1.19.64,2,1.47,2.44,2.5.43,1.03.54,2.08.3,3.15-.24,1.07-.71,2.02-1.43,2.85-.71.83-1.61,1.35-2.68,1.55-1.07.2-2.28-.02-3.63-.65-2.46-1.27-4.82-2.18-7.08-2.74-2.26-.55-4.42-.83-6.48-.83-3.89,0-6.76.67-8.62,2.02-1.86,1.35-2.8,3.13-2.8,5.35,0,1.67.55,3.05,1.67,4.16,1.11,1.11,2.81,1.86,5.12,2.26l11.89,2.26c5.15.95,9.06,2.7,11.72,5.23,2.66,2.54,3.99,5.95,3.99,10.23,0,5.79-2.26,10.33-6.78,13.62-4.52,3.29-10.55,4.94-18.08,4.94Z"/>
    <path class="cls-5" d="m777.31,91.75c-5.16,0-9.46-.87-12.91-2.62-3.45-1.74-6.01-4.3-7.67-7.67-1.67-3.37-2.5-7.55-2.5-12.55v-25.34h-6.19c-1.9,0-3.37-.49-4.4-1.49-1.03-.99-1.55-2.36-1.55-4.1s.52-3.21,1.55-4.16,2.5-1.43,4.4-1.43h6.19v-10.82c0-2.46.65-4.32,1.96-5.59,1.31-1.27,3.15-1.9,5.53-1.9s4.2.64,5.47,1.9c1.27,1.27,1.9,3.13,1.9,5.59v10.82h12.61c1.9,0,3.37.48,4.4,1.43,1.03.95,1.55,2.34,1.55,4.16s-.52,3.11-1.55,4.1c-1.03.99-2.5,1.49-4.4,1.49h-12.61v24.5c0,3.81.83,6.66,2.5,8.56,1.66,1.9,4.36,2.85,8.09,2.85,1.35,0,2.54-.12,3.57-.36,1.03-.24,1.94-.4,2.74-.48.95-.08,1.74.22,2.38.89.63.67.95,2.04.95,4.1,0,1.59-.26,2.99-.77,4.22-.52,1.23-1.45,2.08-2.79,2.56-1.03.31-2.38.61-4.04.89-1.67.28-3.13.42-4.4.42Z"/>
    <path class="cls-5" d="m823.82,91.75c-6.58,0-12.25-1.23-17.01-3.69-4.76-2.46-8.43-5.95-11-10.47-2.58-4.52-3.87-9.87-3.87-16.06s1.25-11.3,3.75-15.82c2.5-4.52,5.95-8.07,10.35-10.65,4.4-2.58,9.41-3.87,15.05-3.87,4.12,0,7.83.68,11.12,2.02,3.29,1.35,6.11,3.29,8.45,5.83,2.34,2.54,4.12,5.61,5.35,9.22,1.23,3.61,1.84,7.67,1.84,12.19,0,1.43-.5,2.52-1.49,3.27-.99.76-2.4,1.13-4.22,1.13h-38.18v-8.56h33.42l-1.9,1.78c0-3.65-.54-6.7-1.61-9.16-1.07-2.46-2.62-4.34-4.64-5.65-2.02-1.31-4.54-1.96-7.55-1.96-3.33,0-6.17.77-8.51,2.32-2.34,1.55-4.12,3.73-5.35,6.54-1.23,2.82-1.84,6.17-1.84,10.05v.83c0,6.5,1.53,11.36,4.58,14.57,3.05,3.21,7.55,4.82,13.5,4.82,2.06,0,4.38-.26,6.96-.77,2.58-.51,5.01-1.41,7.31-2.68,1.67-.95,3.13-1.37,4.4-1.25,1.27.12,2.28.58,3.03,1.37.75.79,1.21,1.77,1.37,2.91.16,1.15-.06,2.32-.65,3.51-.59,1.19-1.61,2.22-3.03,3.09-2.78,1.74-5.97,3.03-9.58,3.87-3.61.83-6.96,1.25-10.05,1.25Z"/>
    <path class="cls-5" d="m866.04,91.51c-2.46,0-4.34-.65-5.65-1.96-1.31-1.31-1.96-3.19-1.96-5.65v-44.96c0-2.46.63-4.32,1.9-5.59,1.27-1.27,3.05-1.9,5.35-1.9s4.08.64,5.35,1.9c1.27,1.27,1.9,3.13,1.9,5.59v7.49h-1.19c1.11-4.76,3.29-8.37,6.54-10.82,3.25-2.46,7.57-3.93,12.97-4.4,1.67-.16,2.99.26,3.99,1.25.99.99,1.56,2.52,1.72,4.58.16,1.98-.3,3.59-1.37,4.82-1.07,1.23-2.68,1.96-4.82,2.2l-2.62.24c-4.84.48-8.49,1.96-10.94,4.46-2.46,2.5-3.69,6.01-3.69,10.53v24.62c0,2.46-.64,4.34-1.9,5.65-1.27,1.31-3.13,1.96-5.59,1.96Z"/>
  </g>
</svg>