<?xml version="1.0" standalone="no"?>
<!DOCTYPE svg PUBLIC "-//W3C//DTD SVG 1.1//EN" "http://www.w3.org/Graphics/SVG/1.1/DTD/svg11.dtd">
<svg xmlns="http://www.w3.org/2000/svg">
<defs >
<font id="LobsterTwo" horiz-adv-x="545" ><font-face
    font-family="Lobster Two"
    units-per-em="1000"
    panose-1="2 0 5 6 0 0 0 2 0 3"
    ascent="1000"
    descent="-250"
    alphabetic="0" />
<glyph unicode=" " glyph-name="space" horiz-adv-x="215" />
<glyph unicode="!" glyph-name="exclam" horiz-adv-x="270" d="M71 231L142 700H286L156 231H71ZM166 80Q166 47 143 24T87 0Q54 0 31 23T7 80Q7 113 30 136T87 159Q120 159 143 136T166 80Z" />
<glyph unicode="&quot;" glyph-name="quotedbl" horiz-adv-x="353" d="M154 750H259L168 561H93L154 750ZM311 750H416L325 561H250L311 750Z" />
<glyph unicode="#" glyph-name="numbersign" horiz-adv-x="542" d="M286 111H168L138 -27H81L106 111H-1L20 213H124L145 326H43L64 428H163L215 718H303L238 428H343L395 718H483L418 428H522L502 326H396L371 213H478L458 111H348L318 -27H261L286 111ZM191
213H304L325 326H216L191 213Z" />
<glyph unicode="$" glyph-name="dollar" horiz-adv-x="388" d="M133 108Q112 109 92 116T57 136T32 170T23 218Q23 263 44 285T97 308Q116 308 127 301T138 283Q115 279 107 257T98 214Q98 189 108 174T140 148L176 344Q158 359 139 373T105 403T80 438T70 481Q70
509 83 532T119 573T168 600T224 612L243 718H301L276 609Q293 606 309 601T337 586T356 561T363 523Q363 494 351 472T314 450Q303 450 295 455T276 473Q289 481 294 495T300 522Q300 555 268 569L232 408Q258 390 279 373T314 338T337 299T345 252Q345 217 331
190T293 145T235 117T165 107L136 -27H109L133 108ZM240 232Q240 258 232 276T211 310L174 144Q210 149 225 175T240 232ZM165 501Q165 484 171 469T193 439L217 574Q188 568 177 546T165 501Z" />
<glyph unicode="%" glyph-name="percent" horiz-adv-x="623" d="M155 0H83L469 750H541L155 0ZM231 702Q275 702 294 673T313 589Q313 557 304 520T275 450T229 396T165 374Q136 374 117 381T88 404T73 440T69 488Q69 532 80 571T112 639T163 685T231 702ZM143
519Q142 510 142 499T141 476Q141 452 146 432T168 411Q188 411 203 427T230 469T247 531T253 604Q253 630 249 648T228 667Q217 667 204 658T178 630T156 583T143 519ZM479 328Q523 328 547 299T571 215Q571 183 563 146T536 76T487 22T413 0Q384 0 365 7T336
30T321 66T317 114Q317 158 328 197T360 265T411 311T479 328ZM386 145Q385 136 385 125T384 102Q384 78 389 58T411 37Q431 37 446 52T471 92T487 151T493 223Q493 249 487 270T465 291Q454 291 442 282T418 255T398 209T386 145Z" />
<glyph unicode="&amp;" glyph-name="ampersand" horiz-adv-x="673" d="M684 413Q684 392 672 370T638 327T589 293T529 274Q515 213 485 160T411 67T312 5T193 -18Q145 -18 110 -4T53 35T20 91T9 158Q9 197 21 238T58 316T116 379T194 417Q162 440 148 471T133
537Q133 576 149 614T194 683T264 733T352 752Q382 752 408 744T453 720T484 681T495 627Q495 582 473 553T421 523Q394 523 374 550Q383 553 391 562T405 583T414 610T418 637Q418 668 401 680T363 693Q341 693 322 681T290 649T269 604T261 552Q261 530 266 509T284
470T316 439T362 418Q322 409 289 384T233 324T196 252T183 179Q183 137 205 108T278 78Q362 78 412 125T493 272Q473 273 454 275T415 278Q349 278 321 233L314 234Q329 296 379 335T507 375Q528 375 546 373T583 370Q611 370 638 380T678 413H684Z" />
<glyph unicode="&apos;" glyph-name="quotesingle" horiz-adv-x="196" d="M154 750H259L168 561H93L154 750Z" />
<glyph unicode="(" glyph-name="parenleft" horiz-adv-x="281" d="M351 710Q314 691 280 655T216 570T162 462T121 338T95 206T85 73Q85 -13 102 -88T158 -221L125 -250Q66 -185 39 -94T12 100Q12 198 35 298T100 487T203 645T338 750L351 710Z" />
<glyph unicode=")" glyph-name="parenright" horiz-adv-x="281" d="M-99 -210Q-43 -182 5 -116T90 38T146 227T167 427Q167 512 150 588T94 721L127 750Q186 685 213 594T240 400Q240 302 217 202T152 13T49 -145T-86 -250L-99 -210Z" />
<glyph unicode="*" glyph-name="asterisk" horiz-adv-x="412" d="M289 752V617L396 679L426 627L317 564L426 501L396 449L289 511V376H225V511L118 449L88 501L197 564L88 627L118 679L225 617V752H289Z" />
<glyph unicode="+" glyph-name="plus" horiz-adv-x="442" d="M277 317H404L381 205H253L226 82H113L140 205H12L36 317H164L191 439H304L277 317Z" />
<glyph unicode="," glyph-name="comma" horiz-adv-x="232" d="M-9 75Q-9 108 14 131T70 155Q103 155 120 134T138 79Q138 56 129 30T104 -24T63 -78T8 -126Q-1 -120 -1 -109Q-1 -96 6 -84T22 -61T38 -38T45 -12Q45 -3 37 4T18 21T0 42T-9 75Z" />
<glyph unicode="-" glyph-name="hyphen" horiz-adv-x="321" d="M240 222H39L57 301H257L240 222Z" />
<glyph unicode="." glyph-name="period" horiz-adv-x="240" d="M-9 75Q-9 108 14 131T70 155Q103 155 126 132T150 75Q150 42 127 19T70 -4Q37 -4 14 19T-9 75Z" />
<glyph unicode="/" glyph-name="slash" horiz-adv-x="217" d="M24 -250H-48L164 750H236L24 -250Z" />
<glyph unicode="0" glyph-name="zero" horiz-adv-x="598" d="M389 750Q488 750 531 684T574 501Q574 449 566 391T540 277T495 169T431 79T344 17T235 -6Q178 -6 142 14T86 68T57 149T49 249Q49 353 73 444T141 603T249 710T389 750ZM201 220Q201 196 203 173T213
130T234 99T268 87Q307 87 339 128T394 236T430 387T443 556Q443 582 441 604T434 644T419 670T392 680Q353 680 318 640T257 535T216 388T201 220Z" />
<glyph unicode="1" glyph-name="one" horiz-adv-x="335" d="M189 0H45L171 598H76L94 670Q115 670 140 672T196 682T265 705T348 748L189 0Z" />
<glyph unicode="2" glyph-name="two" horiz-adv-x="529" d="M134 122Q173 122 221 113T320 104Q347 104 366 108T401 120T430 142T457 173Q458 161 458 151T458 129Q458 93 453 67T435 23T397 -2T332 -11Q297 -11 269 -6T214 7T157 19T91 25Q82 25 72 22T51 14T30
5T12 -3Q10 5 10 13T10 30Q10 83 34 129T95 219T174 304T253 392T314 489T339 600Q339 647 322 668T267 689Q246 689 233 683T211 667T200 643T197 617Q197 596 205 575T235 546Q218 530 198 521T159 512Q130 512 109 533T87 599Q87 626 98 653T133 701T197 735T293
749Q344 749 380 738T439 705T472 654T483 587Q483 530 462 484T406 397T331 322T249 254T174 189T122 121Q125 121 128 121T134 122Z" />
<glyph unicode="3" glyph-name="three" horiz-adv-x="540" d="M210 257Q183 257 166 248T139 224T126 194T122 162Q122 133 129 116T149 89T177 77T208 74Q238 74 261 89T302 128T328 185T337 250Q337 280 330 308T306 359T264 398T204 418Q246 430 278 451T331
497T364 551T375 606Q375 641 356 665T299 689Q263 689 242 671T220 617Q220 597 228 575T258 546Q239 529 220 521T182 512Q152 512 131 534T110 597Q110 631 126 659T170 707T235 738T317 749Q363 749 398 737T456 705T491 659T503 603Q503 553 469 503T366 417Q432
394 462 346T492 242Q492 198 472 154T415 75T326 17T210 -6Q188 -6 155 -1T89 21T34 73T11 165Q11 228 41 268T132 308Q160 308 182 297T210 257Z" />
<glyph unicode="4" glyph-name="four" horiz-adv-x="507" d="M10 270Q23 311 48 357T99 454T142 558T161 666Q161 681 157 707T149 750Q171 750 191 745T226 727T251 695T260 644Q260 605 246 567T210 493T166 421T123 349H269L351 730L499 750L413 349H477L457
270H396L339 0H195L252 270H10Z" />
<glyph unicode="5" glyph-name="five" horiz-adv-x="527" d="M499 749Q500 741 500 733T501 716Q501 692 495 671T476 634T440 609T386 600Q366 600 343 603T298 610T255 619T219 625L179 444Q214 461 245 468T304 475Q349 475 382 459T437 414T469 348T480 268Q480
216 464 167T412 80T323 18T192 -6Q162 -6 131 -1T73 20T31 64T14 139Q14 178 26 205T56 249T98 273T144 281Q205 281 215 230Q176 225 150 208T124 148Q124 107 147 88T205 68Q238 68 262 84T303 127T328 187T336 252Q336 318 306 354T224 391Q183 391 144 372T75
335L157 734Q210 728 252 723T337 717Q375 717 414 724T499 749Z" />
<glyph unicode="6" glyph-name="six" horiz-adv-x="558" d="M274 302Q258 302 249 306T234 316T226 331T224 346Q224 365 234 385T264 423T311 452T374 463Q413 463 439 449T482 411T506 356T514 292Q514 237 496 184T441 88T351 20T227 -6Q171 -6 135 9T78 52T49
119T41 209Q41 274 51 339T83 465T134 577T205 667T293 728T398 750Q465 750 497 725T530 668Q530 657 526 645T514 621T494 603T465 596Q458 596 453 597T441 600Q449 608 454 619T459 642Q459 664 442 677T400 690Q369 690 341 670T287 614T242 533T208 435T185
330T177 227Q177 149 197 117T260 85Q298 85 324 105T367 157T391 222T399 286Q399 313 393 332T378 363T356 380T331 386Q305 386 288 368T271 323Q271 312 274 302Z" />
<glyph unicode="7" glyph-name="seven" horiz-adv-x="499" d="M578 732Q578 713 556 678T500 596T428 493T355 374T300 247T277 119Q277 105 278 93T281 67T286 40T294 7Q277 -1 261 -5T231 -9Q179 -9 154 26T129 125Q129 172 151 221T206 319T278 413T350 499T405
571T427 626Q414 629 394 632T352 638T308 643T266 645Q243 645 222 642T185 629T158 605T145 568Q118 569 101 594T83 659Q83 687 92 705T118 732T155 745T201 749Q233 749 270 745T347 737T424 728T496 724Q516 724 536 725T578 732Z" />
<glyph unicode="8" glyph-name="eight" horiz-adv-x="555" d="M238 78Q262 78 285 93T326 132T355 185T366 243Q366 268 358 289T338 327T309 357T278 378Q248 366 226 344T188 296T165 241T157 188Q157 166 163 146T179 111T205 87T238 78ZM229 -6Q179 -6 140
10T75 53T34 115T20 189Q20 222 31 257T64 323T120 378T200 417Q155 443 135 478T115 553Q115 589 131 624T176 687T248 732T344 750Q388 750 422 738T479 706T515 660T527 604Q527 553 492 502T387 417Q448 397 478 353T508 255Q508 210 488 164T430 80T342 18T229
-6ZM299 451Q324 467 343 488T376 531T397 577T405 623Q405 653 391 676T344 699Q324 699 306 689T275 661T254 620T246 570Q246 537 259 506T299 451Z" />
<glyph unicode="9" glyph-name="nine" horiz-adv-x="556" d="M324 444Q339 435 343 421T348 396Q348 376 337 360T307 331T264 312T214 305Q175 305 148 320T104 360T78 417T70 484Q70 538 88 586T141 671T224 729T333 750Q390 750 429 735T491 690T525 619T536
522Q536 421 511 326T440 158T331 40T192 -5Q157 -5 133 3T94 26T72 57T65 94Q65 107 68 121T82 146T108 164T151 172Q137 158 137 138Q137 130 139 121T149 103T167 88T197 82Q201 82 215 84T250 97T294 134T337 204T374 318T397 487Q398 501 398 513T399 540Q399
583 393 611T377 657T351 682T319 689Q289 689 264 672T222 625T194 559T184 484Q184 470 186 452T194 416T213 387T245 375Q269 375 290 393T324 444Z" />
<glyph unicode=":" glyph-name="colon" horiz-adv-x="275" d="M20 135Q20 168 43 191T99 215Q132 215 155 192T179 135Q179 102 156 79T99 56Q66 56 43 79T20 135ZM70 375Q70 408 93 431T149 455Q182 455 205 432T229 375Q229 342 206 319T149 296Q116 296 93
319T70 375Z" />
<glyph unicode=";" glyph-name="semicolon" horiz-adv-x="269" d="M59 331Q59 364 82 387T138 411Q171 411 194 388T218 331Q218 298 195 275T138 252Q105 252 82 275T59 331ZM11 91Q11 124 34 147T90 171Q123 171 140 150T158 95Q158 72 149 46T124 -8T83 -62T28
-110Q19 -104 19 -93Q19 -80 26 -68T42 -45T58 -22T65 4Q65 13 57 20T38 37T20 58T11 91Z" />
<glyph unicode="&lt;" glyph-name="less" horiz-adv-x="358" d="M313 374L72 254L266 158L254 101L7 238L16 279L323 429L313 374Z" />
<glyph unicode="=" glyph-name="equal" horiz-adv-x="500" d="M433 316H64L88 428H456L433 316ZM389 101H20L44 213H412L389 101Z" />
<glyph unicode="&gt;" glyph-name="greater" horiz-adv-x="362" d="M80 429L326 279L315 225L11 101L25 158L265 254L71 374L80 429Z" />
<glyph unicode="?" glyph-name="question" horiz-adv-x="420" d="M443 572Q443 529 429 498T392 440T341 392T287 347T238 296T203 232H137Q137 266 151 294T185 348T230 397T275 447T310 502T324 569Q324 614 305 630T265 646Q250 646 236 640T210 624T191 598T184
564Q184 546 192 525T222 497Q209 476 190 466T149 455Q120 455 97 476T73 539Q73 564 84 592T120 645T187 684T288 700Q334 700 364 691T411 664T436 624T443 572ZM225 80Q225 47 202 24T146 0Q113 0 90 23T66 80Q66 113 89 136T146 159Q179 159 202 136T225 80Z"
/>
<glyph unicode="@" glyph-name="at" horiz-adv-x="549" d="M220 -38Q185 -38 149 -28T83 5T35 67T16 164Q16 246 43 317T116 442T225 526T357 557Q380 557 407 552T459 531T499 483T515 400Q515 351 501 304T462 220T408 159T345 136Q327 136 316 143T300 162Q288
144 274 132T237 120Q210 120 194 141T178 208Q178 241 187 280T213 353T254 409T309 432Q323 432 333 427T348 415L352 430L407 424L362 232Q360 226 359 220T358 209Q358 198 361 194T370 190Q380 190 395 209T424 257T447 322T457 391Q457 412 452 432T435 468T404
494T354 504Q301 504 258 474T183 396T134 293T116 184Q116 154 122 128T144 84T185 54T249 43Q302 43 339 62T401 114Q415 108 419 96T424 71Q424 47 410 27T369 -7T304 -30T220 -38ZM340 383Q332 393 319 393Q301 393 286 374T260 328T243 272T236 224Q236 210
240 195T257 179Q264 179 273 184T294 198Q294 207 297 216L340 383Z" />
<glyph unicode="A" glyph-name="A" horiz-adv-x="603" d="M343 0L420 363Q382 380 351 388T286 399Q258 338 234 274T193 149T166 37T156 -54Q156 -83 160 -95T170 -114Q150 -114 127 -112T83 -100T50 -69T36 -8Q36 26 46 72T76 171T123 283T183 399Q136 396 106
385T66 347Q70 347 74 337T79 316Q79 298 63 288T23 277Q-3 277 -21 291T-39 335Q-39 360 -24 382T19 422T83 448T163 458Q185 458 217 455Q255 515 297 568T385 662T476 726T567 750Q582 750 604 747T644 736L487 0H343ZM487 679Q442 655 396 591T307 442Q338
436 369 428T429 407L487 679Z" />
<glyph unicode="B" glyph-name="B" horiz-adv-x="681" d="M429 656L382 434H388Q418 434 444 449T489 487T520 539T532 596Q532 617 525 636T502 671T461 695T400 704Q356 704 312 689T231 644T173 569T150 461Q150 443 152 432T156 413T160 401T164 393Q114 393
86 413T57 485Q57 537 87 584T167 669T283 728T420 750Q475 750 515 737T581 701T620 651T633 591Q633 546 608 503T533 432Q565 426 587 411T624 374T644 326T651 271Q651 235 641 186T605 91T537 15T432 -17Q416 -17 399 -14T367 -3T343 19T333 57Q333 82 346
115Q365 95 380 87T413 79Q440 79 459 96T490 140T507 198T512 259Q512 285 508 308T492 348T463 376T417 386Q411 386 398 386T371 383L289 0H145L281 636L429 656Z" />
<glyph unicode="C" glyph-name="C" horiz-adv-x="507" d="M549 170Q529 125 497 91T426 32T342 -4T251 -16Q153 -16 99 42T45 229Q45 274 52 330T77 444T121 557T187 655T278 724T398 750Q431 750 461 743T513 719T548 677T561 614Q561 576 545 550T491 524Q479
524 464 528T434 550Q452 559 466 586T480 641Q480 666 466 684T423 703Q394 703 367 683T317 628T274 547T240 449T219 343T211 239Q211 203 216 173T234 121T270 87T330 75Q387 75 439 103T526 180L549 170Z" />
<glyph unicode="D" glyph-name="D" horiz-adv-x="708" d="M429 656L309 95Q336 75 366 75Q411 75 446 116T506 220T544 358T558 502Q558 558 549 596T520 659T472 693T404 704Q353 704 307 688T226 640T171 563T150 461Q150 443 152 432T156 413T160 401T164 393Q114
393 86 414T57 486Q57 537 87 585T167 669T284 728T425 750Q499 750 550 728T634 665T681 572T696 456Q696 401 686 345T658 237T613 139T557 60T491 7T419 -13Q390 -13 360 -1T297 40L289 0H145L281 636L429 656Z" />
<glyph unicode="E" glyph-name="E" horiz-adv-x="449" d="M490 170Q470 126 439 91T369 32T286 -5T197 -18Q149 -18 114 -4T57 35T24 91T13 158Q13 197 25 238T62 316T120 379T198 417Q166 440 152 471T137 537Q137 576 153 614T198 683T268 733T356 752Q386 752
412 744T457 720T488 681T499 627Q499 582 477 553T425 523Q398 523 378 550Q387 553 395 562T409 583T418 610T422 637Q422 668 405 680T367 693Q345 693 326 681T294 649T273 604T265 552Q265 530 270 509T288 470T320 439T366 418Q326 409 293 384T237 324T200
252T187 179Q187 137 209 108T282 78Q305 78 331 84T383 104T431 136T467 180L490 170Z" />
<glyph unicode="F" glyph-name="F" horiz-adv-x="559" d="M529 450L513 376H367L286 0H142L286 668Q259 667 235 657T194 625T166 565T156 470Q156 450 157 437T161 416T165 402T170 393Q116 393 90 415T63 494Q63 542 82 588T142 670T244 728T390 750Q416 750
437 748T480 744T522 740T569 738Q594 738 616 740T660 750Q651 710 639 687T613 651T583 634T549 630Q521 630 490 635T425 648L383 450H529Z" />
<glyph unicode="G" glyph-name="G" horiz-adv-x="591" d="M577 418L495 42Q483 -15 464 -61T415 -140T347 -189T255 -207Q210 -207 181 -195T133 -164T108 -121T100 -70Q100 -44 107 -20T130 24T171 56T234 68Q244 68 259 66T287 58T310 38T320 1Q320 -17 314
-39Q303 -23 286 -18T256 -13Q219 -13 202 -37T184 -90Q184 -116 199 -136T252 -157Q266 -157 279 -153T305 -135T327 -97T347 -34L397 187Q366 147 328 128T245 109Q202 109 167 126T105 174T65 252T50 357Q50 433 75 504T146 629T259 717T409 750Q444 750 478
743T538 720T581 678T597 612Q597 577 581 551T527 524Q521 524 512 525T494 529T475 537T458 550Q467 553 475 562T489 584T498 610T502 635Q502 640 501 650T492 670T471 689T432 697Q385 697 344 667T271 589T222 480T204 359Q204 281 232 239T299 196Q320 196
342 209T385 249T426 318T459 419L577 418Z" />
<glyph unicode="H" glyph-name="H" horiz-adv-x="695" d="M383 450H530L594 748H738L579 0H435L515 376H368L288 0H144L289 680Q223 653 186 597T149 462Q149 444 151 432T155 413T159 401T163 393Q113 393 85 413T56 485Q56 538 87 586T169 670T281 728T406 750Q417
750 427 750T447 748L383 450Z" />
<glyph unicode="I" glyph-name="I" horiz-adv-x="404" d="M288 0H144L289 679Q223 652 186 597T149 462Q149 444 151 432T155 413T159 401T163 393Q113 393 85 413T56 485Q56 538 87 586T169 670T281 728T406 750Q417 750 427 750T447 748L288 0Z" />
<glyph unicode="J" glyph-name="J" horiz-adv-x="445" d="M488 750L338 40Q326 -15 307 -60T257 -138T186 -189T88 -207Q45 -207 15 -197T-35 -168T-64 -124T-73 -68Q-73 -42 -66 -18T-43 26T-2 56T61 68Q71 68 86 66T114 58T137 38T147 1Q147 -17 141 -39Q131
-23 114 -18T82 -13Q46 -13 29 -36T11 -88Q11 -121 31 -139T84 -157Q98 -157 110 -153T134 -135T155 -97T174 -34L331 680Q265 653 228 598T190 461Q190 443 192 432T196 413T200 401T204 393Q154 393 126 413T97 485Q97 538 128 586T210 670T322 728T448 750H488Z"
/>
<glyph unicode="K" glyph-name="K" horiz-adv-x="647" d="M379 429L621 745H714L432 425Q442 425 450 425T465 426Q504 426 529 418T568 396T589 363T595 320Q595 289 588 254T571 186T554 121T546 68Q546 43 556 25T585 0Q553 -9 529 -13T486 -17Q462 -17 447
-11T423 4T411 26T408 50Q408 75 416 108T434 178T452 249T461 313Q461 343 448 362T402 381Q394 381 386 380T368 377L288 0H144L289 680Q223 653 186 597T149 462Q149 444 151 432T155 413T159 401T163 393Q113 393 85 413T56 485Q56 538 87 586T169 670T281
728T406 750Q417 750 427 750T447 748L379 429Z" />
<glyph unicode="L" glyph-name="L" horiz-adv-x="455" d="M291 20Q330 11 369 -10T449 -53T535 -92T628 -109Q647 -109 668 -106T711 -93Q703 -165 677 -207T600 -250Q568 -250 535 -233T468 -191T398 -137T324 -82T245 -40T161 -23Q155 -23 150 -23T138 -24L287
669Q221 642 184 587T147 452Q147 417 152 404T161 383Q111 383 83 403T54 475Q54 528 85 576T167 660T279 718T404 740Q415 740 425 740T445 738L291 20Z" />
<glyph unicode="M" glyph-name="M" horiz-adv-x="790" d="M545 0L609 449L421 0H284L304 451L137 0H57L311 687Q236 662 194 605T152 462Q152 444 154 433T158 414T162 401T166 393Q118 393 89 413T59 483Q59 531 87 579T161 665T262 726T375 750Q416 750 453
736L430 209L650 736H794L689 0H545Z" />
<glyph unicode="N" glyph-name="N" horiz-adv-x="723" d="M770 748L600 0H462L346 496L232 0H137L291 681Q226 655 190 602T154 464Q154 445 155 433T159 414T164 402T168 393Q116 393 89 414T61 490Q61 535 81 581T141 665T237 726T367 750Q379 750 397 748T437
736L554 205L673 748H770Z" />
<glyph unicode="O" glyph-name="O" horiz-adv-x="697" d="M469 656Q446 642 425 613T384 545T348 461T319 368T301 275T294 191Q294 140 307 112T354 83Q391 83 428 124T494 230T542 376T561 539Q561 583 555 614T533 665T492 694T428 704Q374 704 323 686T233
635T169 555T145 448Q145 420 148 410T155 393Q107 393 81 412T54 477Q54 529 87 578T176 666T304 727T452 750Q519 750 565 732T640 679T681 599T694 497Q694 448 685 392T657 280T608 172T538 81T445 18T328 -6Q287 -6 254 5T196 40T159 102T146 195Q146 235
153 285T176 388T213 490T266 578T334 640T418 664Q429 664 442 663T469 656Z" />
<glyph unicode="P" glyph-name="P" horiz-adv-x="602" d="M429 656L358 322Q396 325 428 348T483 407T520 486T533 572Q533 598 527 622T505 664T462 693T392 704Q343 704 299 688T222 642T170 566T150 462Q150 443 151 432T155 413T159 401T164 393Q114 393 86
413T57 485Q57 538 88 586T169 670T284 728T415 750Q473 750 516 734T587 690T630 627T644 552Q644 505 624 458T567 372T476 309T355 285H350L289 0H145L281 636L429 656Z" />
<glyph unicode="Q" glyph-name="Q" horiz-adv-x="698" d="M469 656Q446 642 425 613T384 545T348 461T319 368T301 275T294 191Q294 179 294 169T296 148Q332 157 358 157Q384 157 403 150T439 130Q464 162 486 208T525 308T551 422T561 539Q561 583 555 614T533
665T492 694T428 704Q374 704 323 686T233 635T169 555T145 448Q145 419 149 410T155 393Q107 393 81 412T54 477Q54 529 87 578T176 666T304 727T452 750Q519 750 565 732T640 679T681 599T694 497Q694 443 683 381T649 258T589 143T504 52Q515 36 526 22T552
-4T585 -22T626 -29Q634 -29 639 -29T650 -27Q630 -78 605 -95T545 -113Q513 -113 492 -103T456 -75T434 -37T419 8Q375 -6 328 -6Q287 -6 254 5T196 40T159 102T146 195Q146 235 153 285T176 388T213 490T266 578T334 640T418 664Q429 664 442 663T469 656ZM354
75Q373 75 390 85Q381 101 368 110T333 120Q319 120 304 116Q318 75 354 75Z" />
<glyph unicode="R" glyph-name="R" horiz-adv-x="656" d="M429 656L380 425H388Q419 425 445 441T490 483T519 540T530 602Q530 622 525 640T505 673T467 695T404 704Q352 704 306 688T226 640T171 563T150 461Q150 443 152 432T156 413T160 401T164 393Q114 393
86 413T57 485Q57 537 87 584T167 669T283 728T417 750Q471 750 512 737T580 701T621 649T635 589Q635 544 607 497T526 419Q567 408 581 382T596 320Q596 289 589 254T572 186T555 121T547 68Q547 43 557 25T586 0Q554 -9 530 -13T487 -17Q463 -17 448 -11T424
4T412 26T409 50Q409 75 417 108T435 178T453 249T462 313Q462 343 449 362T403 381Q395 381 387 380T369 377L289 0H145L281 636L429 656Z" />
<glyph unicode="S" glyph-name="S" horiz-adv-x="526" d="M516 630Q516 586 494 558T434 529Q406 529 388 550Q408 562 420 586T433 636Q433 662 417 682T359 702Q317 702 292 680T267 612Q267 575 283 548T325 496T379 447T434 392T475 322T492 229Q492 166 469
120T406 43T316 -3T211 -18Q168 -18 130 -9T62 20T16 73T-1 151Q-1 191 12 222T46 273T93 304T146 315Q159 315 173 312T200 302T222 281T234 249Q213 249 192 244T154 227T126 197T115 152Q115 114 140 88T214 62Q265 62 297 95T329 192Q329 235 314 269T276 333T227
390T177 445T139 503T124 571Q124 610 142 643T191 699T264 736T355 750Q373 750 400 747T453 731T497 695T516 630Z" />
<glyph unicode="T" glyph-name="T" horiz-adv-x="674" d="M647 620Q612 620 574 626T495 642L357 0H213L355 662H344Q305 662 271 653T211 622T170 562T155 465Q155 444 156 432T160 413T165 401T169 392Q115 392 89 414T62 495Q62 543 80 588T140 669T247 727T408
749Q448 749 479 746T539 738T595 730T653 726Q695 726 725 732T775 747Q773 681 742 651T647 620Z" />
<glyph unicode="U" glyph-name="U" horiz-adv-x="770" d="M816 748L750 436Q726 322 701 239T637 101T543 20T403 -7Q349 -7 312 3T253 35T220 86T210 155Q210 227 235 329T292 560L325 692Q243 670 196 612T148 462Q148 425 153 413T162 393Q112 393 84 413T55
485Q55 538 87 586T171 670T292 728T433 750Q446 750 455 749T481 745Q446 616 421 524T379 366T354 256T346 179Q346 153 347 135T356 106T380 90T425 84Q444 84 460 87T490 103T518 139T546 201T575 299T608 439L675 748H816Z" />
<glyph unicode="V" glyph-name="V" horiz-adv-x="660" d="M455 133L665 745H735L457 0H313L297 683Q227 657 188 601T148 462Q148 444 150 433T154 414T158 401T162 393Q112 393 84 413T55 485Q55 538 86 586T168 670T280 728T405 750Q416 750 426 750T446 748L455 133Z" />
<glyph unicode="W" glyph-name="W" horiz-adv-x="1006" d="M455 133L665 745H792L801 133L1011 745H1081L803 0H659L647 509L457 0H313L297 683Q227 657 188 601T148 462Q148 444 150 432T154 413T158 401T162 393Q112 393 84 413T55 485Q55 538 86 586T168 670T280
728T405 750Q416 750 426 750T446 748L455 133Z" />
<glyph unicode="X" glyph-name="X" horiz-adv-x="670" d="M469 0L399 276L252 0H185L377 364L297 683Q227 657 188 601T148 462Q148 444 150 432T154 413T158 401T162 393Q112 393 84 413T55 485Q55 538 86 586T168 670T280 728T405 750Q416 750 426 750T446 748L512
477L640 745H705L532 392L628 0H469Z" />
<glyph unicode="Y" glyph-name="Y" horiz-adv-x="661" d="M327 0L393 308L297 683Q227 657 188 601T148 462Q148 444 150 432T154 413T158 401T162 393Q112 393 84 413T55 485Q55 538 86 586T168 670T280 728T405 750Q416 750 426 750T446 748L533 390L681 745H747L553
308L487 0H327Z" />
<glyph unicode="Z" glyph-name="Z" horiz-adv-x="535" d="M404 85Q399 85 393 91T386 116Q386 132 391 143T406 161T425 171T446 174Q474 174 485 156T497 116Q497 97 488 77T463 39T423 11T369 0H8L358 696Q342 696 318 697T268 698Q250 698 234 697T205 694T184
687T176 676Q181 676 187 669T193 644Q193 627 187 617T173 599T154 590T134 587Q105 587 94 606T83 646Q83 665 91 683T114 717T153 741T206 750H549L204 65Q224 65 249 64T300 63Q335 63 364 67T404 85Z" />
<glyph unicode="[" glyph-name="bracketleft" horiz-adv-x="298" d="M155 -250H-48L164 750H367L354 688H243L57 -188H168L155 -250Z" />
<glyph unicode="\" glyph-name="backslash" horiz-adv-x="526" d="M106 750H178L390 -250H318L106 750Z" />
<glyph unicode="]" glyph-name="bracketright" horiz-adv-x="297" d="M113 750H316L104 -250H-99L-86 -188H25L211 688H100L113 750Z" />
<glyph unicode="^" glyph-name="asciicircum" horiz-adv-x="421" d="M311 561L251 641L94 561H50L262 750H283L343 561H311Z" />
<glyph unicode="_" glyph-name="underscore" horiz-adv-x="443" d="M330 0H-21L-3 79H347L330 0Z" />
<glyph unicode="`" glyph-name="grave" horiz-adv-x="201" d="M24 750H129L158 561H83L24 750Z" />
<glyph unicode="a" glyph-name="a" horiz-adv-x="526" d="M498 500L425 160Q421 143 421 128Q421 107 431 99T462 91Q491 91 511 116T543 179H585Q564 118 538 83T484 29T430 5T384 0Q343 0 318 22T286 87Q275 70 260 53T227 23T186 2T137 -6Q111 -6 88 2T45 30T15
79T4 155Q4 189 11 228T32 306T67 381T117 444T181 488T261 505Q273 505 286 504T311 497T331 481T343 453L353 500H498ZM292 443Q260 443 234 414T190 342T162 252T152 169Q152 140 157 125T170 102T186 93T202 91Q213 91 225 96T250 113T271 140T285 179L333
405Q333 409 331 415T324 428T312 438T292 443Z" />
<glyph unicode="b" glyph-name="b" horiz-adv-x="444" d="M124 680L272 700L224 475Q255 494 273 499T306 505Q332 505 354 496T391 467T415 413T424 332Q424 303 419 267T400 193T367 119T316 56T244 11T150 -6Q81 -6 46 28T10 122Q10 150 17 179L124 680ZM323
336Q323 354 320 371T310 402T293 424T270 432Q265 432 257 431T240 428T223 423T211 414L156 160Q153 148 153 137Q153 91 206 91Q230 91 251 114T289 174T314 253T323 336Z" />
<glyph unicode="c" glyph-name="c" horiz-adv-x="384" d="M291 345Q299 362 303 382T308 415Q308 452 280 452Q254 452 230 422T188 348T159 254T148 163Q148 112 168 95T224 78Q254 78 278 86T323 107T363 139T401 179H435Q414 144 387 111T326 52T251 10T160
-6Q89 -6 47 31T4 153Q4 182 10 219T29 295T62 371T113 439T182 487T273 505Q306 505 327 498T361 478T379 449T384 417Q384 380 369 357T331 333Q323 333 312 336T291 345Z" />
<glyph unicode="d" glyph-name="d" horiz-adv-x="526" d="M540 700L425 160Q421 143 421 128Q421 107 431 99T462 91Q491 91 511 116T543 179H585Q564 118 538 83T484 29T430 5T384 0Q343 0 318 22T286 87Q275 70 260 53T227 23T186 2T137 -6Q111 -6 88 2T45 30T15
79T4 155Q4 189 11 228T32 306T67 381T117 444T181 488T261 505Q273 505 286 504T312 497T332 481T343 452L392 680L540 700ZM292 443Q260 443 234 414T190 342T162 252T152 169Q152 140 157 125T170 102T186 93T202 91Q213 91 225 96T250 113T271 140T285 179L333
404Q333 413 325 428T292 443Z" />
<glyph unicode="e" glyph-name="e" horiz-adv-x="384" d="M152 162Q152 111 170 95T224 78Q254 78 278 86T323 107T363 139T401 179H435Q414 144 387 111T326 52T251 10T160 -6Q89 -6 47 31T4 153Q4 182 10 219T28 295T62 371T113 439T183 487T274 505Q307 505
328 497T362 476T379 445T384 409Q384 367 365 330T314 266T241 222T154 202Q153 191 153 181T152 162ZM307 411Q307 430 302 441T282 452Q263 452 245 434T211 388T183 323T162 250Q191 252 217 266T264 302T295 352T307 411Z" />
<glyph unicode="f" glyph-name="f" horiz-adv-x="267" d="M352 600Q353 608 353 614T354 627Q354 644 343 652T316 661Q308 661 298 658T278 645T260 620T246 579L229 500H302L295 460H221L106 -80Q95 -134 75 -167T30 -218T-21 -243T-73 -250Q-96 -250 -117 -243T-154
-221T-181 -186T-191 -142Q-191 -108 -178 -84T-141 -44T-86 -15T-19 8L102 579Q113 633 133 666T179 717T232 742T284 749Q307 749 328 742T365 720T392 685T402 641Q402 618 399 600H352ZM-136 -128Q-136 -139 -125 -150T-96 -161Q-80 -161 -65 -145T-39 -83L-26
-25Q-50 -33 -70 -42T-104 -64T-127 -92T-136 -128Z" />
<glyph unicode="g" glyph-name="g" horiz-adv-x="507" d="M497 500L398 36Q444 52 473 83T524 179H566Q551 129 531 96T486 42T437 10T389 -8L374 -80Q363 -134 343 -167T298 -218T246 -243T194 -250Q148 -250 115 -226T82 -153Q82 -122 97 -98T135 -56T188 -26T245
-4L264 81Q242 54 212 34T137 14Q111 14 88 22T45 50T15 99T4 175Q4 207 11 243T32 317T67 388T117 448T181 489T261 505Q273 505 286 504T311 497T331 481T343 453L353 500H497ZM292 443Q260 443 234 416T190 349T162 266T152 189Q152 160 157 145T170 122T186
113T202 111Q224 111 251 133T289 199L333 406Q332 415 324 429T292 443ZM137 -139Q137 -150 145 -161T171 -172Q187 -172 203 -150T229 -83L235 -54Q216 -61 198 -69T167 -88T145 -111T137 -139Z" />
<glyph unicode="h" glyph-name="h" horiz-adv-x="505" d="M305 362Q305 413 269 413Q242 413 222 386T191 321L123 0H-21L124 680L272 700L218 448Q250 484 281 494T335 504Q383 504 414 478T446 391Q446 361 439 325T422 253T406 186T398 133Q398 114 406 103T438
91Q454 91 466 97T488 115T506 143T522 179H564Q543 117 519 81T470 25T422 0T378 -6Q345 -6 323 3T286 29T266 65T260 107Q260 132 267 166T282 236T298 304T305 362Z" />
<glyph unicode="i" glyph-name="i" horiz-adv-x="267" d="M105 633Q105 666 128 689T184 713Q217 713 240 690T264 633Q264 600 241 577T184 554Q151 554 128 577T105 633ZM229 500L157 160Q153 143 153 128Q153 107 163 99T194 91Q223 91 248 116T284 179H326Q305
118 277 82T220 26T164 0T116 -6Q71 -6 40 22T9 114Q9 141 17 179L85 500H229Z" />
<glyph unicode="j" glyph-name="j" horiz-adv-x="240" d="M230 500L131 36Q177 52 206 83T257 179H299Q284 129 264 96T219 42T170 10T122 -8L107 -80Q96 -134 76 -167T31 -218T-21 -243T-73 -250Q-119 -250 -152 -226T-185 -153Q-185 -122 -170 -98T-132 -56T-79
-26T-21 -4L86 500H230ZM97 634Q97 667 120 690T176 714Q209 714 232 691T256 634Q256 601 233 578T176 555Q143 555 120 578T97 634ZM-130 -139Q-130 -150 -122 -161T-96 -172Q-80 -172 -64 -150T-38 -83L-32 -54Q-51 -61 -69 -69T-100 -88T-122 -111T-130 -139Z"
/>
<glyph unicode="k" glyph-name="k" horiz-adv-x="518" d="M489 500L289 361Q297 363 305 364T322 365Q378 365 405 331T432 248Q432 216 422 187T412 128Q412 113 420 102T451 91Q467 91 479 97T501 115T519 143T535 179H577Q556 116 531 79T481 24T433 0T393
-6Q331 -6 299 23T267 108Q267 143 276 173T285 236Q285 258 277 271T249 284Q232 284 214 274T175 247L123 0H-21L124 680L272 700L197 348L390 500H489Z" />
<glyph unicode="l" glyph-name="l" horiz-adv-x="267" d="M272 700L157 160Q153 143 153 128Q153 107 163 99T194 91Q223 91 248 116T284 179H326Q305 118 277 82T220 26T164 0T116 -6Q71 -6 40 22T9 114Q9 141 17 179L124 680L272 700Z" />
<glyph unicode="m" glyph-name="m" horiz-adv-x="752" d="M552 362Q552 413 516 413Q489 413 469 386T438 321L370 0H226L299 345Q302 357 302 370Q302 387 296 400T272 414Q243 414 223 387T191 321L123 0H-21L85 500H229L218 448Q250 484 282 494T340 505Q377
505 404 487T442 419Q460 447 479 463T516 489T551 501T582 504Q630 504 661 478T693 391Q693 361 686 325T669 253T653 186T645 133Q645 114 653 103T685 91Q701 91 713 97T735 115T753 143T769 179H811Q790 117 766 81T717 25T669 0T625 -6Q592 -6 570 3T533
29T513 65T507 107Q507 132 514 166T529 236T545 304T552 362Z" />
<glyph unicode="n" glyph-name="n" horiz-adv-x="505" d="M305 362Q305 413 269 413Q242 413 222 386T191 321L123 0H-21L85 500H229L218 448Q250 484 281 494T335 504Q383 504 414 478T446 391Q446 361 439 325T422 253T406 186T398 133Q398 114 406 103T438
91Q454 91 466 97T488 115T506 143T522 179H564Q543 117 519 81T470 25T422 0T378 -6Q345 -6 323 3T286 29T266 65T260 107Q260 132 267 166T282 236T298 304T305 362Z" />
<glyph unicode="o" glyph-name="o" horiz-adv-x="439" d="M277 505Q403 505 405 348Q409 347 416 347Q433 347 453 352T494 365T534 385T570 407L579 380Q550 349 504 328T403 297Q397 227 376 171T323 76T250 15T163 -6Q128 -6 99 2T48 30T15 79T3 152Q3 181
9 218T28 294T63 371T114 439T185 487T277 505ZM203 88Q221 88 239 103T273 146T301 212T319 294Q303 298 298 309T292 336Q292 357 300 370T323 389Q321 420 313 432T285 445Q258 445 234 416T192 344T163 254T152 169Q152 144 154 129T163 104T179 92T203 88Z"
/>
<glyph unicode="p" glyph-name="p" horiz-adv-x="468" d="M237 537L221 462Q243 481 271 493T338 505Q363 505 385 497T424 471T450 422T460 347Q460 313 456 274T440 196T410 120T364 56T300 11T214 -6Q176 -6 157 5T129 30L77 -214L-74 -250L93 537H237ZM183
81Q222 81 249 110T292 180T316 268T323 350Q323 379 318 395T305 420T289 431T273 433Q256 433 237 421T204 384L145 104Q148 96 157 89T183 81Z" />
<glyph unicode="q" glyph-name="q" horiz-adv-x="486" d="M496 500L344 -214L193 -250L256 49Q234 26 205 10T137 -6Q111 -6 88 2T45 30T15 79T4 155Q4 189 11 228T32 306T67 381T117 444T181 488T261 505Q273 505 286 504T310 497T330 482T342 456L352 500H496ZM292
443Q260 443 234 414T190 342T162 252T152 169Q152 140 157 125T170 102T186 93T202 91Q222 91 245 109T280 162L332 409Q330 418 322 430T292 443Z" />
<glyph unicode="r" glyph-name="r" horiz-adv-x="376" d="M229 500L215 437Q244 465 275 485T337 505Q371 505 388 482T406 430Q406 417 402 404T388 381T366 364T334 357Q313 357 306 367T295 388T290 410T276 420Q257 420 240 409T203 380L123 0H-21L85 500H229Z" />
<glyph unicode="s" glyph-name="s" horiz-adv-x="382" d="M441 179Q402 134 363 104T288 54Q272 37 253 26T213 8T171 -3T131 -6Q93 -6 66 5T20 35T-6 76T-15 122Q-15 157 1 181T38 215Q80 290 109 363T161 511L309 531Q313 434 317 374T324 277T329 216T331 167Q331
145 327 129Q370 154 399 179H441ZM109 179Q109 161 97 146T65 130Q57 130 50 132T38 143Q38 108 52 91T99 73Q115 73 131 77T159 93T178 122T186 166Q186 185 185 203T181 246T175 308T167 403Q152 354 132 308T86 214Q96 209 102 201T109 179Z" />
<glyph unicode="t" glyph-name="t" horiz-adv-x="267" d="M263 658L229 500H289L281 460H221L157 160Q153 143 153 128Q153 107 163 99T194 91Q223 91 248 116T284 179H326Q305 118 277 82T220 26T164 0T116 -6Q71 -6 40 22T9 114Q9 141 17 179L77 460H44L52 500H85L115
638L263 658Z" />
<glyph unicode="u" glyph-name="u" horiz-adv-x="505" d="M476 500L404 160Q400 143 400 128Q400 107 410 99T441 91Q470 91 490 116T522 179H564Q543 118 517 82T463 26T409 0T363 -6Q320 -6 295 18T264 89Q245 58 226 40T187 11T150 -2T116 -6Q71 -6 40 22T9
114Q9 141 17 179L85 500H229L157 160Q154 145 154 132Q154 115 160 103T184 91Q213 91 233 116T264 179L332 500H476Z" />
<glyph unicode="v" glyph-name="v" horiz-adv-x="414" d="M353 520Q371 520 383 513T402 493T413 465T416 433Q416 393 409 345T388 248T350 154T296 73T223 16T131 -6Q74 -6 41 23T8 112Q8 120 9 133T13 160L85 500H229L157 160Q152 137 152 124Q152 109 160
100T186 91Q210 91 232 108T274 153T309 216T336 289T353 362T359 425Q357 420 345 418T327 415Q309 415 300 432T291 466Q291 489 306 504T353 520Z" />
<glyph unicode="w" glyph-name="w" horiz-adv-x="661" d="M229 500L157 160Q154 148 154 135Q154 118 160 105T184 91Q213 91 233 116T264 179L332 500H476L404 160Q399 137 399 124Q399 109 407 100T433 91Q457 91 479 108T521 153T556 216T583 289T600 362T606
425Q604 420 592 418T574 415Q556 415 547 432T538 466Q538 489 553 504T600 520Q618 520 630 513T649 493T660 465T663 433Q663 393 656 345T635 248T597 154T543 73T470 16T378 -6Q329 -6 298 15T258 78Q240 51 221 35T184 9T148 -3T116 -6Q71 -6 40 22T9 114Q9
141 17 179L85 500H229Z" />
<glyph unicode="x" glyph-name="x" horiz-adv-x="522" d="M387 178Q393 129 408 110T449 91Q478 91 503 116T539 179H581Q561 121 535 85T481 29T426 1T377 -6Q332 -6 301 35T255 168L117 0H45L247 228L231 340Q223 390 215 406T193 423Q178 423 161 408T125 363T89
287T59 179H17Q29 234 48 292T96 397T164 475T253 505Q283 505 303 494T335 465T353 426T361 386L370 310Q412 357 433 391T457 454Q452 453 448 453T440 452Q414 452 404 468T393 508Q393 534 413 545T461 557Q475 557 485 549T503 528T513 499T517 466Q517 442
509 420T483 372T439 316T378 248L387 178Z" />
<glyph unicode="y" glyph-name="y" horiz-adv-x="486" d="M476 500L377 36Q423 52 452 83T503 179H545Q530 129 510 96T465 42T416 10T368 -8L353 -80Q342 -134 322 -167T277 -218T225 -243T173 -250Q127 -250 94 -226T61 -153Q61 -122 76 -98T114 -56T167 -26T224
-4L236 50Q204 15 173 5T116 -6Q71 -6 40 22T9 114Q9 141 17 179L85 500H229L157 160Q154 148 154 135Q154 118 160 105T184 91Q212 91 231 114T262 173L332 500H476ZM116 -139Q116 -150 124 -161T150 -172Q166 -172 182 -150T208 -83L214 -54Q195 -61 177 -69T146
-88T124 -111T116 -139Z" />
<glyph unicode="z" glyph-name="z" horiz-adv-x="428" d="M323 91Q313 92 309 98T304 112Q304 126 318 140T360 155Q383 155 393 141T404 107Q404 90 396 71T372 36T334 10T282 0H17L272 446H216Q193 446 177 444T161 430Q161 428 162 428T166 426T170 421T172
408Q172 380 155 368T118 355Q101 355 87 366T72 399Q72 414 80 432T103 465T139 490T188 500H445L200 77Q213 76 234 74T276 71Q294 71 307 75T323 91Z" />
<glyph unicode="{" glyph-name="braceleft" horiz-adv-x="288" d="M328 700Q297 700 276 696T237 674Q210 644 201 611T191 536Q191 493 194 451T197 365Q197 321 186 295T157 254Q169 240 169 218Q169 185 155 142T124 52T93 -41T79 -124Q79 -143 80 -157T90
-182T116 -198T164 -204L155 -249H126Q60 -249 27 -220T-7 -140Q-7 -98 7 -55T38 32T70 117T84 197Q84 211 76 219T43 228Q30 228 11 225L23 282Q41 279 54 279Q78 279 91 289T111 316T119 352T121 390Q121 432 118 471T114 549Q114 577 123 612T154 678T209 729T294
750H337L328 700Z" />
<glyph unicode="|" glyph-name="bar" horiz-adv-x="314" d="M188 -250H95V751H188V-250Z" />
<glyph unicode="}" glyph-name="braceright" horiz-adv-x="287" d="M-71 -199Q-40 -199 -19 -195T20 -173Q47 -143 56 -110T66 -35Q66 8 63 50T60 136Q60 180 71 206T100 247Q88 261 88 283Q88 316 102 359T133 449T164 541T178 625Q178 644 176 658T166 683T141
699T93 705L102 750H131Q197 750 230 721T264 641Q264 599 250 556T219 469T187 384T173 304Q173 290 181 282T214 273Q226 273 246 276L234 219Q216 222 203 222Q179 222 166 212T146 185T138 149T136 111Q136 69 139 30T143 -48Q143 -77 134 -111T103 -177T48
-228T-37 -249H-80L-71 -199Z" />
<glyph unicode="~" glyph-name="asciitilde" horiz-adv-x="441" d="M487 669Q483 651 468 634T431 602T382 578T326 569Q301 569 280 575T238 587T199 600T158 606Q120 606 92 580L86 582Q110 630 153 655T253 680Q280 680 301 675T341 664T378 652T418 647Q437
647 453 653T481 670L487 669Z" />
<glyph unicode="&#xa1;" glyph-name="exclamdown" horiz-adv-x="259" d="M154 221L83 -248H-61L69 221H154ZM59 372Q59 405 82 428T138 452Q171 452 194 429T218 372Q218 339 195 316T138 293Q105 293 82 316T59 372Z" />
<glyph unicode="&#xa2;" glyph-name="cent" horiz-adv-x="391" d="M161 146Q135 150 112 162T72 196T44 248T34 316Q34 367 47 414T87 499T152 562T242 595L264 718H322L295 596Q313 595 329 591T357 579T377 559T385 528Q385 520 384 513T380 495H323Q328 513
328 523Q328 541 318 549T291 557H286L210 214Q215 213 225 213Q265 213 296 234T357 281Q346 218 308 183T195 145L157 -27H130L161 146ZM139 319Q139 294 147 269T176 229L231 534Q211 518 194 494T165 441T146 381T139 319Z" />
<glyph unicode="&#xa3;" glyph-name="sterling" horiz-adv-x="488" d="M426 422Q422 404 407 387T370 355T321 331T265 322H249L193 91Q219 94 244 94T296 98T354 115T427 158Q419 86 392 43T323 0H28L114 358Q110 358 106 358T97 359Q59 359 31 333L25 335Q42
369 68 391T130 424L202 719L352 750L272 419Q293 412 313 406T357 400Q376 400 392 406T420 423L426 422Z" />
<glyph unicode="&#xa4;" glyph-name="currency" horiz-adv-x="479" d="M97 528L153 472Q194 502 244 502Q269 502 291 495T333 473L389 529L425 493L370 438Q400 397 400 346Q400 296 370 255L425 200L389 164L334 219Q315 205 293 198T244 190Q193 190 152 220L96
164L60 200L116 256Q102 275 95 297T87 345Q87 371 94 393T116 435L59 492L97 528ZM244 446Q202 446 173 417T144 346Q144 304 173 275T244 246Q286 246 315 275T344 346Q344 388 315 417T244 446Z" />
<glyph unicode="&#xa5;" glyph-name="yen" horiz-adv-x="558" d="M510 307L496 257H368L354 192H485L471 142H343L313 0H153L183 142H84L98 192H194L208 257H109L123 307H219L107 750H271L359 389L509 750H575L379 307H510Z" />
<glyph unicode="&#xa6;" glyph-name="brokenbar" horiz-adv-x="318" d="M190 -250H97V222H190V-250ZM97 301V751H190V301H97Z" />
<glyph unicode="&#xa7;" glyph-name="section" horiz-adv-x="521" d="M506 655Q506 620 489 597T440 574Q431 574 422 577T403 590Q420 600 429 619T439 659Q439 680 426 696T383 713Q363 713 346 704T316 681T296 647T289 606Q289 575 303 552T340 509T388 470T436
428T472 374T487 303Q487 274 480 247T457 197T421 158T371 136Q371 48 314 -3T154 -54Q132 -54 104 -50T50 -33T7 7T-11 77Q-11 132 16 166T85 200Q115 200 133 184T164 150Q119 146 101 129T83 74Q83 36 101 16T160 -4Q201 -4 223 18T245 92Q245 133 232 163T198
216T155 258T112 297T79 341T65 398Q65 446 94 482T169 535Q164 557 164 577Q164 622 183 654T232 708T300 739T376 750Q390 750 412 748T455 736T491 707T506 655ZM384 246Q384 289 362 319T309 375T245 426T190 486Q182 481 177 473T171 451Q171 430 183 412T214
376T256 338T300 296T339 246T365 183Q384 207 384 246Z" />
<glyph unicode="&#xa8;" glyph-name="dieresis" horiz-adv-x="392" d="M56 634Q56 659 73 677T117 695Q142 695 160 677T178 634Q178 608 160 591T117 573Q91 573 74 590T56 634ZM236 634Q236 659 253 677T297 695Q322 695 340 677T358 634Q358 608 340 591T297
573Q271 573 254 590T236 634Z" />
<glyph unicode="&#xa9;" glyph-name="copyright" horiz-adv-x="564" d="M143 336Q143 370 156 397T190 443T238 473T292 484Q331 484 365 461T415 389L368 371Q363 401 340 416T289 431Q272 431 256 426T227 409T206 380T198 341Q198 318 205 299T225 265T255
243T293 234Q316 234 336 246T368 279L412 250Q391 218 359 200T289 182Q259 182 232 194T186 228T155 277T143 336ZM284 76Q234 76 190 96T113 150T61 231T42 331Q42 385 61 431T113 512T190 567T284 587Q333 587 377 568T454 514T506 433T526 332Q526 278 507
232T454 151T377 96T284 76ZM88 331Q88 286 103 247T146 180T209 135T286 118Q326 118 362 134T425 179T467 247T483 331Q483 376 468 415T425 482T362 527T286 544Q245 544 209 528T146 483T104 415T88 331Z" />
<glyph unicode="&#xaa;" glyph-name="ordfeminine" horiz-adv-x="356" d="M332 556Q329 542 329 537Q329 529 333 524T350 518Q353 518 357 518T365 520Q359 502 352 492T337 477T322 471T309 470Q279 470 268 484T252 524Q239 504 217 486T163 467Q125 467 110
493T95 557Q95 586 104 619T130 680T174 726T237 745Q257 745 268 740T288 727L291 740H374L332 556ZM253 711Q236 711 222 697T196 661T179 614T173 565Q173 533 183 523T202 512Q216 512 229 527T250 561L282 700Q274 706 267 708T253 711Z" />
<glyph unicode="&#xab;" glyph-name="guillemotleft" horiz-adv-x="516" d="M266 404L91 253L228 113L188 69L8 254L224 449L266 404ZM474 404L299 253L436 113L396 69L216 254L432 449L474 404Z" />
<glyph unicode="&#xac;" glyph-name="logicalnot" horiz-adv-x="467" d="M349 51H236L271 222H20L38 301H400L349 51Z" />
<glyph unicode="&#xad;" glyph-name="uni00AD" horiz-adv-x="321" d="M240 222H39L57 301H257L240 222Z" />
<glyph unicode="&#xae;" glyph-name="registered" horiz-adv-x="564" d="M285 79Q235 79 191 99T114 153T62 234T43 334Q43 388 62 434T114 515T191 570T285 590Q334 590 378 571T455 517T507 436T527 335Q527 281 508 235T455 154T378 99T285 79ZM89 334Q89 289
104 250T147 183T210 138T287 121Q327 121 363 137T426 182T468 250T484 334Q484 379 469 418T426 485T363 530T287 547Q246 547 210 531T147 486T105 418T89 334ZM190 483H287Q340 483 368 462T397 399Q397 371 381 351T338 322L403 197L356 190L294 315H235V192H189L190
483ZM235 353H280Q291 353 303 354T326 361T344 374T351 397Q351 423 333 432T290 442H235V353Z" />
<glyph unicode="&#xb0;" glyph-name="degree" horiz-adv-x="320" d="M246 702Q290 702 309 673T328 589Q328 557 319 520T290 450T244 396T180 374Q151 374 132 381T103 404T88 440T84 488Q84 532 95 571T127 639T178 685T246 702ZM158 519Q157 510 157 499T156
476Q156 452 161 432T183 411Q203 411 218 427T245 469T262 531T268 604Q268 630 264 648T243 667Q232 667 219 658T193 630T171 583T158 519Z" />
<glyph unicode="&#xb1;" glyph-name="plusminus" horiz-adv-x="479" d="M319 421H446L423 309H295L268 186H155L182 309H54L78 421H206L233 543H346L319 421ZM370 68H2L20 147H387L370 68Z" />
<glyph unicode="&#xb2;" glyph-name="twosuperior" horiz-adv-x="349" d="M141 416Q169 416 197 411T254 406Q282 406 295 416T329 444Q329 418 328 399T320 366T299 346T260 339Q236 339 219 342T187 349T156 356T117 359Q106 359 93 353T71 343Q70 348 70 352T69
361Q69 390 83 415T118 463T164 508T210 556T246 611T260 676Q260 696 249 708T225 720Q196 720 187 709T178 677Q178 667 183 655T200 640Q178 621 155 621Q138 621 126 633T114 670Q114 684 120 698T141 723T178 742T234 749Q294 749 319 726T344 663Q344 618
319 584T259 522T190 468T137 416H141V416Z" />
<glyph unicode="&#xb3;" glyph-name="threesuperior" horiz-adv-x="350" d="M183 484Q165 482 155 476T140 461T134 441T132 420Q132 393 146 385T183 376Q199 376 212 384T234 405T249 435T254 470Q254 501 237 529T179 571Q204 577 222 589T253 616T272 647T278
678Q278 696 269 708T241 720Q212 720 201 709T189 677Q189 667 194 655T211 640Q189 621 166 621Q149 621 137 633T125 670Q125 684 132 698T155 723T193 742T250 749Q301 749 326 726T352 670Q352 643 333 616T273 570Q311 559 328 535T345 482Q345 458 334 433T303
388T256 355T196 342Q178 342 156 344T114 356T81 382T67 429Q67 467 84 489T136 511Q176 511 183 484Z" />
<glyph unicode="&#xb4;" glyph-name="acute" horiz-adv-x="316" d="M211 750H316L195 561H120L211 750Z" />
<glyph unicode="&#xb5;" glyph-name="mu" horiz-adv-x="505" d="M229 500L157 160Q154 148 154 135Q154 118 160 105T184 91Q213 91 233 116T264 179L332 500H476L404 160Q400 143 400 128Q400 107 410 99T441 91Q470 91 490 116T522 179H564Q543 118 517 83T463
29T409 5T363 0Q321 0 296 22T265 90Q247 61 228 44T191 17T155 4T122 0L95 -130L-56 -166L85 500H229Z" />
<glyph unicode="&#xb6;" glyph-name="paragraph" horiz-adv-x="519" d="M138 -81L215 288Q177 295 149 314T102 361T74 422T65 491Q65 537 81 583T128 666T206 726T315 749Q352 749 386 740T445 712T485 661T500 584Q500 567 498 550T492 512L365 -81H271L352
299Q341 295 331 293T309 288L232 -81H138ZM326 339Q346 339 361 343L409 570Q415 598 415 619Q415 642 409 657T392 682L320 339H326Z" />
<glyph unicode="&#xb7;" glyph-name="middot" horiz-adv-x="281" d="M33 267Q33 287 40 304T61 335T91 356T129 364Q149 364 166 357T197 336T218 305T226 267Q226 247 219 230T198 199T167 179T129 171Q89 171 61 199T33 267Z" />
<glyph unicode="&#xb8;" glyph-name="cedilla" horiz-adv-x="227" d="M227 -108Q227 -135 217 -155T189 -190T151 -211T107 -218Q69 -218 46 -210T0 -190Q7 -178 16 -168T40 -158Q55 -158 64 -162T81 -171T96 -181T114 -185Q127 -185 135 -172T144 -143Q144 -129
135 -118T105 -107Q85 -107 73 -111T53 -119L106 29L141 6L112 -66Q144 -58 165 -58Q197 -58 212 -71T227 -108Z" />
<glyph unicode="&#xb9;" glyph-name="onesuperior" horiz-adv-x="227" d="M165 345H81L158 682H103L110 707Q134 707 169 713T257 749L165 345Z" />
<glyph unicode="&#xba;" glyph-name="ordmasculine" horiz-adv-x="309" d="M317 671Q328 678 334 685T350 703L356 692Q351 678 343 662T317 635Q315 593 302 562T271 509T230 477T188 466Q141 466 119 486T97 555Q97 604 109 640T143 699T191 734T249 745Q270
745 287 739T304 721Q304 709 296 704T278 695Q270 714 252 714Q231 714 216 696T192 653T178 602T174 560Q174 536 185 528T215 519Q228 519 238 529T256 554T267 589T274 627Q259 631 259 649Q259 663 271 676T298 690Q309 690 313 686T317 671Z" />
<glyph unicode="&#xbb;" glyph-name="guillemotright" horiz-adv-x="519" d="M225 114L400 265L263 405L303 449L483 264L267 69L225 114ZM17 114L192 265L55 405L95 449L275 264L59 69L17 114Z" />
<glyph unicode="&#xbc;" glyph-name="onequarter" horiz-adv-x="676" d="M190 -165H118L382 750H454L190 -165ZM353 150Q360 172 374 198T402 254T426 313T437 373Q437 391 433 406Q459 406 478 394T498 355Q498 329 489 307T467 265T439 227T413 189H503L550
395L636 406L586 189H624L612 150H577L543 1H460L494 150H353ZM133 225H49L126 562H71L78 587Q102 587 137 593T225 629L133 225Z" />
<glyph unicode="&#xbd;" glyph-name="onehalf" horiz-adv-x="684" d="M185 -165H113L377 750H449L185 -165ZM133 225H49L126 562H71L78 587Q102 587 137 593T225 629L133 225ZM417 76Q445 76 473 71T530 66Q558 66 571 76T605 104Q605 78 604 59T596 26T575 6T536
-1Q512 -1 495 2T463 9T432 16T393 19Q382 19 369 13T347 3Q346 8 346 12T345 21Q345 51 359 75T394 123T440 168T486 216T522 271T536 336Q536 356 525 368T501 380Q472 380 463 369T454 337Q454 327 459 315T476 300Q454 281 431 281Q414 281 402 293T390 330Q390
344 396 358T417 383T454 402T510 409Q570 409 595 386T620 323Q620 278 595 244T535 182T466 128T413 76H417Z" />
<glyph unicode="&#xbe;" glyph-name="threequarters" horiz-adv-x="778" d="M291 -165H219L483 750H555L291 -165ZM141 364Q123 362 113 356T98 341T92 321T90 300Q90 273 104 265T141 256Q157 256 170 264T192 285T207 315T212 350Q212 381 195 409T137 451Q162
457 180 469T211 496T230 527T236 558Q236 576 227 588T199 600Q170 600 159 589T147 557Q147 547 152 535T169 520Q147 501 124 501Q107 501 95 513T83 550Q83 564 90 578T113 603T151 622T208 629Q259 629 284 606T310 550Q310 523 291 496T231 450Q269 439 286
415T303 362Q303 338 292 313T261 268T214 235T154 222Q136 222 114 224T72 236T39 262T25 309Q25 347 42 369T94 391Q134 391 141 364ZM457 150Q464 172 478 198T506 254T530 313T541 373Q541 391 537 406Q563 406 582 394T602 355Q602 329 593 307T571 265T543
227T517 189H607L654 395L740 406L690 189H728L716 150H681L647 1H564L598 150H457Z" />
<glyph unicode="&#xbf;" glyph-name="questiondown" horiz-adv-x="417" d="M-64 -119Q-64 -76 -50 -45T-13 13T38 61T92 106T141 157T176 221H242Q242 187 228 159T194 105T149 56T104 6T69 -50T55 -116Q55 -161 74 -177T114 -193Q129 -193 143 -187T169 -171T188
-145T195 -111Q195 -93 187 -72T157 -44Q170 -23 189 -13T230 -2Q259 -2 282 -23T306 -86Q306 -112 295 -140T259 -192T192 -231T91 -247Q45 -247 15 -238T-32 -211T-57 -171T-64 -119ZM154 373Q154 406 177 429T233 453Q266 453 289 430T313 373Q313 340 290 317T233
294Q200 294 177 317T154 373Z" />
<glyph unicode="&#xc0;" glyph-name="Agrave" horiz-adv-x="603" d="M343 0L420 363Q382 380 351 388T286 399Q258 338 234 274T193 149T166 37T156 -54Q156 -83 160 -95T170 -114Q150 -114 127 -112T83 -100T50 -69T36 -8Q36 26 46 72T76 171T123 283T183 399Q136
396 106 385T66 347Q70 347 74 337T79 316Q79 298 63 288T23 277Q-3 277 -21 291T-39 335Q-39 360 -24 382T19 422T83 448T163 458Q185 458 217 455Q255 515 297 568T385 662T476 726T567 750Q582 750 604 747T644 736L487 0H343ZM487 679Q442 655 396 591T307
442Q338 436 369 428T429 407L487 679ZM389 1000H494L523 811H448L389 1000Z" />
<glyph unicode="&#xc1;" glyph-name="Aacute" horiz-adv-x="603" d="M343 0L420 363Q382 380 351 388T286 399Q258 338 234 274T193 149T166 37T156 -54Q156 -83 160 -95T170 -114Q150 -114 127 -112T83 -100T50 -69T36 -8Q36 26 46 72T76 171T123 283T183 399Q136
396 106 385T66 347Q70 347 74 337T79 316Q79 298 63 288T23 277Q-3 277 -21 291T-39 335Q-39 360 -24 382T19 422T83 448T163 458Q185 458 217 455Q255 515 297 568T385 662T476 726T567 750Q582 750 604 747T644 736L487 0H343ZM487 679Q442 655 396 591T307
442Q338 436 369 428T429 407L487 679ZM529 1000H634L513 811H438L529 1000Z" />
<glyph unicode="&#xc2;" glyph-name="Acircumflex" horiz-adv-x="603" d="M343 0L420 363Q382 380 351 388T286 399Q258 338 234 274T193 149T166 37T156 -54Q156 -83 160 -95T170 -114Q150 -114 127 -112T83 -100T50 -69T36 -8Q36 26 46 72T76 171T123 283T183
399Q136 396 106 385T66 347Q70 347 74 337T79 316Q79 298 63 288T23 277Q-3 277 -21 291T-39 335Q-39 360 -24 382T19 422T83 448T163 458Q185 458 217 455Q255 515 297 568T385 662T476 726T567 750Q582 750 604 747T644 736L487 0H343ZM487 679Q442 655 396
591T307 442Q338 436 369 428T429 407L487 679ZM620 811L560 891L403 811H359L571 1000H592L652 811H620Z" />
<glyph unicode="&#xc3;" glyph-name="Atilde" horiz-adv-x="603" d="M343 0L420 363Q382 380 351 388T286 399Q258 338 234 274T193 149T166 37T156 -54Q156 -83 160 -95T170 -114Q150 -114 127 -112T83 -100T50 -69T36 -8Q36 26 46 72T76 171T123 283T183 399Q136
396 106 385T66 347Q70 347 74 337T79 316Q79 298 63 288T23 277Q-3 277 -21 291T-39 335Q-39 360 -24 382T19 422T83 448T163 458Q185 458 217 455Q255 515 297 568T385 662T476 726T567 750Q582 750 604 747T644 736L487 0H343ZM762 919Q758 901 743 884T706
852T657 828T601 819Q576 819 555 825T513 837T474 850T433 856Q395 856 367 830L361 832Q385 880 428 905T528 930Q555 930 576 925T616 914T653 902T693 897Q712 897 728 903T756 920L762 919ZM487 679Q442 655 396 591T307 442Q338 436 369 428T429 407L487
679Z" />
<glyph unicode="&#xc4;" glyph-name="Adieresis" horiz-adv-x="603" d="M343 0L420 363Q382 380 351 388T286 399Q258 338 234 274T193 149T166 37T156 -54Q156 -83 160 -95T170 -114Q150 -114 127 -112T83 -100T50 -69T36 -8Q36 26 46 72T76 171T123 283T183
399Q136 396 106 385T66 347Q70 347 74 337T79 316Q79 298 63 288T23 277Q-3 277 -21 291T-39 335Q-39 360 -24 382T19 422T83 448T163 458Q185 458 217 455Q255 515 297 568T385 662T476 726T567 750Q582 750 604 747T644 736L487 0H343ZM487 679Q442 655 396
591T307 442Q338 436 369 428T429 407L487 679ZM562 884Q562 909 579 927T623 945Q648 945 666 927T684 884Q684 858 666 841T623 823Q597 823 580 840T562 884ZM382 884Q382 909 399 927T443 945Q468 945 486 927T504 884Q504 858 486 841T443 823Q417 823 400
840T382 884Z" />
<glyph unicode="&#xc5;" glyph-name="Aring" horiz-adv-x="603" d="M343 0L420 363Q382 380 351 388T286 399Q258 338 234 274T193 149T166 37T156 -54Q156 -83 160 -95T170 -114Q150 -114 127 -112T83 -100T50 -69T36 -8Q36 26 46 72T76 171T123 283T183 399Q136
396 106 385T66 347Q70 347 74 337T79 316Q79 298 63 288T23 277Q-3 277 -21 291T-39 335Q-39 360 -24 382T19 422T83 448T163 458Q185 458 217 455Q255 515 297 568T385 662T476 726T567 750Q582 750 604 747T644 736L487 0H343ZM487 679Q442 655 396 591T307
442Q338 436 369 428T429 407L487 679ZM522 963Q559 963 576 941T594 886Q594 853 574 828T507 802Q475 802 456 822T437 872Q437 885 442 901T457 931T483 954T522 963ZM557 883Q557 890 557 898T553 914T543 925T524 930Q498 930 488 912T477 874Q477 857 485
847T511 837Q534 837 545 849T557 883Z" />
<glyph unicode="&#xc6;" glyph-name="AE" horiz-adv-x="842" d="M397 0L474 363Q436 380 404 388T339 399Q311 338 288 274T247 150T220 36T210 -57Q210 -76 212 -86T216 -101T221 -108T224 -113Q198 -112 174 -109T131 -96T101 -63T90 -1Q90 31 100 76T130 174T177
284T237 399Q192 396 162 385T120 347Q124 347 128 337T133 316Q133 300 119 289T72 277Q50 277 33 291T15 340Q15 363 31 384T74 420T136 445T210 455Q236 455 269 452Q307 513 349 567T437 662T528 727T618 751Q639 751 659 748T702 741T748 734T798 731Q824
731 853 735T915 750Q910 734 904 715T887 679T858 651T808 640Q770 640 742 650T684 672L630 419H785L765 345H614L563 106H787L766 0H397ZM541 679Q495 654 448 590T359 441Q391 435 422 427T483 407L541 679Z" />
<glyph unicode="&#xc7;" glyph-name="Ccedilla" horiz-adv-x="507" d="M388 -108Q388 -135 378 -155T350 -190T312 -211T268 -218Q230 -218 207 -210T161 -190Q168 -178 177 -168T201 -158Q216 -158 225 -162T242 -171T257 -181T275 -185Q288 -185 296 -172T305
-143Q305 -129 296 -118T266 -107Q246 -107 234 -111T214 -119L251 -16Q153 -16 99 42T45 229Q45 274 52 330T77 444T121 557T187 655T278 724T398 750Q431 750 461 743T513 719T548 677T561 614Q561 576 545 550T491 524Q479 524 464 528T434 550Q452 559 466
586T480 641Q480 666 466 684T423 703Q394 703 367 683T317 628T274 547T240 449T219 343T211 239Q211 203 216 173T234 121T270 87T330 75Q387 75 439 103T526 180L549 170Q531 130 504 99T444 44T372 6T294 -13L273 -66Q305 -58 326 -58Q358 -58 373 -71T388
-108Z" />
<glyph unicode="&#xc8;" glyph-name="Egrave" horiz-adv-x="449" d="M490 170Q470 126 439 91T369 32T286 -5T197 -18Q149 -18 114 -4T57 35T24 91T13 158Q13 197 25 238T62 316T120 379T198 417Q166 440 152 471T137 537Q137 576 153 614T198 683T268 733T356
752Q386 752 412 744T457 720T488 681T499 627Q499 582 477 553T425 523Q398 523 378 550Q387 553 395 562T409 583T418 610T422 637Q422 668 405 680T367 693Q345 693 326 681T294 649T273 604T265 552Q265 530 270 509T288 470T320 439T366 418Q326 409 293 384T237
324T200 252T187 179Q187 137 209 108T282 78Q305 78 331 84T383 104T431 136T467 180L490 170ZM258 1000H363L392 811H317L258 1000Z" />
<glyph unicode="&#xc9;" glyph-name="Eacute" horiz-adv-x="449" d="M490 170Q470 126 439 91T369 32T286 -5T197 -18Q149 -18 114 -4T57 35T24 91T13 158Q13 197 25 238T62 316T120 379T198 417Q166 440 152 471T137 537Q137 576 153 614T198 683T268 733T356
752Q386 752 412 744T457 720T488 681T499 627Q499 582 477 553T425 523Q398 523 378 550Q387 553 395 562T409 583T418 610T422 637Q422 668 405 680T367 693Q345 693 326 681T294 649T273 604T265 552Q265 530 270 509T288 470T320 439T366 418Q326 409 293 384T237
324T200 252T187 179Q187 137 209 108T282 78Q305 78 331 84T383 104T431 136T467 180L490 170ZM446 1000H551L430 811H355L446 1000Z" />
<glyph unicode="&#xca;" glyph-name="Ecircumflex" horiz-adv-x="449" d="M490 170Q470 126 439 91T369 32T286 -5T197 -18Q149 -18 114 -4T57 35T24 91T13 158Q13 197 25 238T62 316T120 379T198 417Q166 440 152 471T137 537Q137 576 153 614T198 683T268 733T356
752Q386 752 412 744T457 720T488 681T499 627Q499 582 477 553T425 523Q398 523 378 550Q387 553 395 562T409 583T418 610T422 637Q422 668 405 680T367 693Q345 693 326 681T294 649T273 604T265 552Q265 530 270 509T288 470T320 439T366 418Q326 409 293 384T237
324T200 252T187 179Q187 137 209 108T282 78Q305 78 331 84T383 104T431 136T467 180L490 170ZM469 811L409 891L252 811H208L420 1000H441L501 811H469Z" />
<glyph unicode="&#xcb;" glyph-name="Edieresis" horiz-adv-x="449" d="M490 170Q470 126 439 91T369 32T286 -5T197 -18Q149 -18 114 -4T57 35T24 91T13 158Q13 197 25 238T62 316T120 379T198 417Q166 440 152 471T137 537Q137 576 153 614T198 683T268 733T356
752Q386 752 412 744T457 720T488 681T499 627Q499 582 477 553T425 523Q398 523 378 550Q387 553 395 562T409 583T418 610T422 637Q422 668 405 680T367 693Q345 693 326 681T294 649T273 604T265 552Q265 530 270 509T288 470T320 439T366 418Q326 409 293 384T237
324T200 252T187 179Q187 137 209 108T282 78Q305 78 331 84T383 104T431 136T467 180L490 170ZM244 884Q244 909 261 927T305 945Q330 945 348 927T366 884Q366 858 348 841T305 823Q279 823 262 840T244 884ZM424 884Q424 909 441 927T485 945Q510 945 528 927T546
884Q546 858 528 841T485 823Q459 823 442 840T424 884Z" />
<glyph unicode="&#xcc;" glyph-name="Igrave" horiz-adv-x="404" d="M288 0H144L289 679Q223 652 186 597T149 462Q149 444 151 432T155 413T159 401T163 393Q113 393 85 413T56 485Q56 538 87 586T169 670T281 728T406 750Q417 750 427 750T447 748L288 0ZM221
1000H326L355 811H280L221 1000Z" />
<glyph unicode="&#xcd;" glyph-name="Iacute" horiz-adv-x="404" d="M288 0H144L289 679Q223 652 186 597T149 462Q149 444 151 432T155 413T159 401T163 393Q113 393 85 413T56 485Q56 538 87 586T169 670T281 728T406 750Q417 750 427 750T447 748L288 0ZM410
1000H515L394 811H319L410 1000Z" />
<glyph unicode="&#xce;" glyph-name="Icircumflex" horiz-adv-x="404" d="M288 0H144L289 679Q223 652 186 597T149 462Q149 444 151 432T155 413T159 401T163 393Q113 393 85 413T56 485Q56 538 87 586T169 670T281 728T406 750Q417 750 427 750T447 748L288
0ZM462 811L402 891L245 811H201L413 1000H434L494 811H462Z" />
<glyph unicode="&#xcf;" glyph-name="Idieresis" horiz-adv-x="404" d="M288 0H144L289 679Q223 652 186 597T149 462Q149 444 151 432T155 413T159 401T163 393Q113 393 85 413T56 485Q56 538 87 586T169 670T281 728T406 750Q417 750 427 750T447 748L288 0ZM397
884Q397 909 414 927T458 945Q483 945 501 927T519 884Q519 858 501 841T458 823Q432 823 415 840T397 884ZM217 884Q217 909 234 927T278 945Q303 945 321 927T339 884Q339 858 321 841T278 823Q252 823 235 840T217 884Z" />
<glyph unicode="&#xd0;" glyph-name="Eth" horiz-adv-x="707" d="M429 656L378 419H457L437 345H362L309 95Q336 75 366 75Q411 75 446 115T506 219T544 359T558 508Q558 555 553 591T532 653T490 691T420 704Q359 704 310 688T225 640T170 563T150 461Q150 442
152 430T156 411T161 400T164 393Q112 393 85 414T57 490Q57 540 88 587T170 670T282 728T408 750Q495 750 550 728T638 668T683 582T696 480Q696 383 674 294T613 137T525 28T419 -13Q390 -13 360 -1T297 40L289 0H145L219 345H180L200 419H235L281 636L429 656Z"
/>
<glyph unicode="&#xd1;" glyph-name="Ntilde" horiz-adv-x="723" d="M770 748L600 0H462L346 496L232 0H137L291 681Q226 655 190 602T154 464Q154 445 155 433T159 414T164 402T168 393Q116 393 89 414T61 490Q61 535 81 581T141 665T237 726T367 750Q379 750
397 748T437 736L554 205L673 748H770ZM764 919Q760 901 745 884T708 852T659 828T603 819Q578 819 557 825T515 837T476 850T435 856Q397 856 369 830L363 832Q387 880 430 905T530 930Q557 930 578 925T618 914T655 902T695 897Q714 897 730 903T758 920L764
919Z" />
<glyph unicode="&#xd2;" glyph-name="Ograve" horiz-adv-x="697" d="M469 656Q446 642 425 613T384 545T348 461T319 368T301 275T294 191Q294 140 307 112T354 83Q391 83 428 124T494 230T542 376T561 539Q561 583 555 614T533 665T492 694T428 704Q374 704 323
686T233 635T169 555T145 448Q145 420 148 410T155 393Q107 393 81 412T54 477Q54 529 87 578T176 666T304 727T452 750Q519 750 565 732T640 679T681 599T694 497Q694 448 685 392T657 280T608 172T538 81T445 18T328 -6Q287 -6 254 5T196 40T159 102T146 195Q146
235 153 285T176 388T213 490T266 578T334 640T418 664Q429 664 442 663T469 656ZM330 1000H435L464 811H389L330 1000Z" />
<glyph unicode="&#xd3;" glyph-name="Oacute" horiz-adv-x="697" d="M469 656Q446 642 425 613T384 545T348 461T319 368T301 275T294 191Q294 140 307 112T354 83Q391 83 428 124T494 230T542 376T561 539Q561 583 555 614T533 665T492 694T428 704Q374 704 323
686T233 635T169 555T145 448Q145 420 148 410T155 393Q107 393 81 412T54 477Q54 529 87 578T176 666T304 727T452 750Q519 750 565 732T640 679T681 599T694 497Q694 448 685 392T657 280T608 172T538 81T445 18T328 -6Q287 -6 254 5T196 40T159 102T146 195Q146
235 153 285T176 388T213 490T266 578T334 640T418 664Q429 664 442 663T469 656ZM526 1000H631L510 811H435L526 1000Z" />
<glyph unicode="&#xd4;" glyph-name="Ocircumflex" horiz-adv-x="697" d="M469 656Q446 642 425 613T384 545T348 461T319 368T301 275T294 191Q294 140 307 112T354 83Q391 83 428 124T494 230T542 376T561 539Q561 583 555 614T533 665T492 694T428 704Q374
704 323 686T233 635T169 555T145 448Q145 420 148 410T155 393Q107 393 81 412T54 477Q54 529 87 578T176 666T304 727T452 750Q519 750 565 732T640 679T681 599T694 497Q694 448 685 392T657 280T608 172T538 81T445 18T328 -6Q287 -6 254 5T196 40T159 102T146
195Q146 235 153 285T176 388T213 490T266 578T334 640T418 664Q429 664 442 663T469 656ZM571 811L511 891L354 811H310L522 1000H543L603 811H571Z" />
<glyph unicode="&#xd5;" glyph-name="Otilde" horiz-adv-x="697" d="M469 656Q446 642 425 613T384 545T348 461T319 368T301 275T294 191Q294 140 307 112T354 83Q391 83 428 124T494 230T542 376T561 539Q561 583 555 614T533 665T492 694T428 704Q374 704 323
686T233 635T169 555T145 448Q145 420 148 410T155 393Q107 393 81 412T54 477Q54 529 87 578T176 666T304 727T452 750Q519 750 565 732T640 679T681 599T694 497Q694 448 685 392T657 280T608 172T538 81T445 18T328 -6Q287 -6 254 5T196 40T159 102T146 195Q146
235 153 285T176 388T213 490T266 578T334 640T418 664Q429 664 442 663T469 656ZM713 919Q709 901 694 884T657 852T608 828T552 819Q527 819 506 825T464 837T425 850T384 856Q346 856 318 830L312 832Q336 880 379 905T479 930Q506 930 527 925T567 914T604
902T644 897Q663 897 679 903T707 920L713 919Z" />
<glyph unicode="&#xd6;" glyph-name="Odieresis" horiz-adv-x="697" d="M469 656Q446 642 425 613T384 545T348 461T319 368T301 275T294 191Q294 140 307 112T354 83Q391 83 428 124T494 230T542 376T561 539Q561 583 555 614T533 665T492 694T428 704Q374 704
323 686T233 635T169 555T145 448Q145 420 148 410T155 393Q107 393 81 412T54 477Q54 529 87 578T176 666T304 727T452 750Q519 750 565 732T640 679T681 599T694 497Q694 448 685 392T657 280T608 172T538 81T445 18T328 -6Q287 -6 254 5T196 40T159 102T146
195Q146 235 153 285T176 388T213 490T266 578T334 640T418 664Q429 664 442 663T469 656ZM326 884Q326 909 343 927T387 945Q412 945 430 927T448 884Q448 858 430 841T387 823Q361 823 344 840T326 884ZM506 884Q506 909 523 927T567 945Q592 945 610 927T628
884Q628 858 610 841T567 823Q541 823 524 840T506 884Z" />
<glyph unicode="&#xd7;" glyph-name="multiply" horiz-adv-x="414" d="M100 419L194 324L290 420L354 355L259 260L354 165L290 100L194 195L100 101L35 165L130 260L35 355L100 419Z" />
<glyph unicode="&#xd8;" glyph-name="Oslash" horiz-adv-x="660" d="M296 -71L310 -6Q271 -6 239 4T184 37T148 96T135 183Q135 221 142 268T164 364T200 459T251 542T316 600T396 622Q420 622 441 615L450 656Q433 659 412 659Q356 659 306 643T218 595T157 519T134
418Q134 391 139 382T144 368Q98 368 72 385T46 446Q46 495 78 541T164 623T288 680T435 702Q441 702 447 702T459 701L470 750H522L510 694Q594 674 628 612T663 462Q663 400 646 325T593 183T499 64T363 -1L348 -71H296ZM278 179Q278 134 289 105T326 70L440
610Q408 589 379 539T328 426T292 298T278 179ZM535 495Q535 545 528 579T497 634L382 88Q412 110 439 154T488 254T522 373T535 495Z" />
<glyph unicode="&#xd9;" glyph-name="Ugrave" horiz-adv-x="770" d="M816 748L750 436Q726 322 701 239T637 101T543 20T403 -7Q349 -7 312 3T253 35T220 86T210 155Q210 227 235 329T292 560L325 692Q243 670 196 612T148 462Q148 425 153 413T162 393Q112 393
84 413T55 485Q55 538 87 586T171 670T292 728T433 750Q446 750 455 749T481 745Q446 616 421 524T379 366T354 256T346 179Q346 153 347 135T356 106T380 90T425 84Q444 84 460 87T490 103T518 139T546 201T575 299T608 439L675 748H816ZM465 1000H570L599 811H524L465
1000Z" />
<glyph unicode="&#xda;" glyph-name="Uacute" horiz-adv-x="770" d="M816 748L750 436Q726 322 701 239T637 101T543 20T403 -7Q349 -7 312 3T253 35T220 86T210 155Q210 227 235 329T292 560L325 692Q243 670 196 612T148 462Q148 425 153 413T162 393Q112 393
84 413T55 485Q55 538 87 586T171 670T292 728T433 750Q446 750 455 749T481 745Q446 616 421 524T379 366T354 256T346 179Q346 153 347 135T356 106T380 90T425 84Q444 84 460 87T490 103T518 139T546 201T575 299T608 439L675 748H816ZM597 1000H702L581 811H506L597
1000Z" />
<glyph unicode="&#xdb;" glyph-name="Ucircumflex" horiz-adv-x="770" d="M816 748L750 436Q726 322 701 239T637 101T543 20T403 -7Q349 -7 312 3T253 35T220 86T210 155Q210 227 235 329T292 560L325 692Q243 670 196 612T148 462Q148 425 153 413T162 393Q112
393 84 413T55 485Q55 538 87 586T171 670T292 728T433 750Q446 750 455 749T481 745Q446 616 421 524T379 366T354 256T346 179Q346 153 347 135T356 106T380 90T425 84Q444 84 460 87T490 103T518 139T546 201T575 299T608 439L675 748H816ZM679 811L619 891L462
811H418L630 1000H651L711 811H679Z" />
<glyph unicode="&#xdc;" glyph-name="Udieresis" horiz-adv-x="770" d="M816 748L750 436Q726 322 701 239T637 101T543 20T403 -7Q349 -7 312 3T253 35T220 86T210 155Q210 227 235 329T292 560L325 692Q243 670 196 612T148 462Q148 425 153 413T162 393Q112
393 84 413T55 485Q55 538 87 586T171 670T292 728T433 750Q446 750 455 749T481 745Q446 616 421 524T379 366T354 256T346 179Q346 153 347 135T356 106T380 90T425 84Q444 84 460 87T490 103T518 139T546 201T575 299T608 439L675 748H816ZM608 884Q608 909
625 927T669 945Q694 945 712 927T730 884Q730 858 712 841T669 823Q643 823 626 840T608 884ZM428 884Q428 909 445 927T489 945Q514 945 532 927T550 884Q550 858 532 841T489 823Q463 823 446 840T428 884Z" />
<glyph unicode="&#xdd;" glyph-name="Yacute" horiz-adv-x="661" d="M327 0L393 308L297 683Q227 657 188 601T148 462Q148 444 150 432T154 413T158 401T162 393Q112 393 84 413T55 485Q55 538 86 586T168 670T280 728T405 750Q416 750 426 750T446 748L533 390L681
745H747L553 308L487 0H327ZM593 1000H698L577 811H502L593 1000Z" />
<glyph unicode="&#xde;" glyph-name="Thorn" horiz-adv-x="603" d="M426 750L402 640Q459 637 500 620T568 576T608 515T621 443Q621 395 601 348T544 262T453 199T332 175H303L266 0H122L242 562Q186 533 157 480T127 351Q127 332 129 320T133 301T138 290T141
283Q89 283 62 304T34 380Q34 417 51 452T99 519T168 575T253 616L278 730L426 750ZM325 212Q365 212 398 235T457 294T496 373T510 458Q510 485 504 509T483 551T446 581T393 594L311 212H325Z" />
<glyph unicode="&#xdf;" glyph-name="germandbls" horiz-adv-x="450" d="M83 -214L-68 -250L98 530Q109 584 129 617T175 668T228 693T280 700Q315 700 340 690T383 662T408 621T417 573Q417 530 394 489T325 427Q378 409 400 370T422 285Q422 208 403 154T354
66T292 16T232 0Q224 0 216 0T199 2L212 61Q243 61 264 86T297 149T315 229T321 306Q321 339 306 360T249 393L267 451Q298 464 324 491T350 562Q350 591 341 601T312 612Q304 612 294 609T274 596T256 571T242 530L83 -214Z" />
<glyph unicode="&#xe0;" glyph-name="agrave" horiz-adv-x="526" d="M498 500L425 160Q421 143 421 128Q421 107 431 99T462 91Q491 91 511 116T543 179H585Q564 118 538 83T484 29T430 5T384 0Q343 0 318 22T286 87Q275 70 260 53T227 23T186 2T137 -6Q111 -6
88 2T45 30T15 79T4 155Q4 189 11 228T32 306T67 381T117 444T181 488T261 505Q273 505 286 504T311 497T331 481T343 453L353 500H498ZM292 443Q260 443 234 414T190 342T162 252T152 169Q152 140 157 125T170 102T186 93T202 91Q213 91 225 96T250 113T271 140T285
179L333 405Q333 409 331 415T324 428T312 438T292 443ZM233 750H338L367 561H292L233 750Z" />
<glyph unicode="&#xe1;" glyph-name="aacute" horiz-adv-x="526" d="M498 500L425 160Q421 143 421 128Q421 107 431 99T462 91Q491 91 511 116T543 179H585Q564 118 538 83T484 29T430 5T384 0Q343 0 318 22T286 87Q275 70 260 53T227 23T186 2T137 -6Q111 -6
88 2T45 30T15 79T4 155Q4 189 11 228T32 306T67 381T117 444T181 488T261 505Q273 505 286 504T311 497T331 481T343 453L353 500H498ZM292 443Q260 443 234 414T190 342T162 252T152 169Q152 140 157 125T170 102T186 93T202 91Q213 91 225 96T250 113T271 140T285
179L333 405Q333 409 331 415T324 428T312 438T292 443ZM353 750H458L337 561H262L353 750Z" />
<glyph unicode="&#xe2;" glyph-name="acircumflex" horiz-adv-x="526" d="M498 500L425 160Q421 143 421 128Q421 107 431 99T462 91Q491 91 511 116T543 179H585Q564 118 538 83T484 29T430 5T384 0Q343 0 318 22T286 87Q275 70 260 53T227 23T186 2T137 -6Q111
-6 88 2T45 30T15 79T4 155Q4 189 11 228T32 306T67 381T117 444T181 488T261 505Q273 505 286 504T311 497T331 481T343 453L353 500H498ZM292 443Q260 443 234 414T190 342T162 252T152 169Q152 140 157 125T170 102T186 93T202 91Q213 91 225 96T250 113T271
140T285 179L333 405Q333 409 331 415T324 428T312 438T292 443ZM424 561L364 641L207 561H163L375 750H396L456 561H424Z" />
<glyph unicode="&#xe3;" glyph-name="atilde" horiz-adv-x="526" d="M498 500L425 160Q421 143 421 128Q421 107 431 99T462 91Q491 91 511 116T543 179H585Q564 118 538 83T484 29T430 5T384 0Q343 0 318 22T286 87Q275 70 260 53T227 23T186 2T137 -6Q111 -6
88 2T45 30T15 79T4 155Q4 189 11 228T32 306T67 381T117 444T181 488T261 505Q273 505 286 504T311 497T331 481T343 453L353 500H498ZM292 443Q260 443 234 414T190 342T162 252T152 169Q152 140 157 125T170 102T186 93T202 91Q213 91 225 96T250 113T271 140T285
179L333 405Q333 409 331 415T324 428T312 438T292 443ZM520 669Q516 651 501 634T464 602T415 578T359 569Q334 569 313 575T271 587T232 600T191 606Q153 606 125 580L119 582Q143 630 186 655T286 680Q313 680 334 675T374 664T411 652T451 647Q470 647 486
653T514 670L520 669Z" />
<glyph unicode="&#xe4;" glyph-name="adieresis" horiz-adv-x="526" d="M498 500L425 160Q421 143 421 128Q421 107 431 99T462 91Q491 91 511 116T543 179H585Q564 118 538 83T484 29T430 5T384 0Q343 0 318 22T286 87Q275 70 260 53T227 23T186 2T137 -6Q111
-6 88 2T45 30T15 79T4 155Q4 189 11 228T32 306T67 381T117 444T181 488T261 505Q273 505 286 504T311 497T331 481T343 453L353 500H498ZM292 443Q260 443 234 414T190 342T162 252T152 169Q152 140 157 125T170 102T186 93T202 91Q213 91 225 96T250 113T271
140T285 179L333 405Q333 409 331 415T324 428T312 438T292 443ZM197 634Q197 659 214 677T258 695Q283 695 301 677T319 634Q319 608 301 591T258 573Q232 573 215 590T197 634ZM377 634Q377 659 394 677T438 695Q463 695 481 677T499 634Q499 608 481 591T438
573Q412 573 395 590T377 634Z" />
<glyph unicode="&#xe5;" glyph-name="aring" horiz-adv-x="526" d="M498 500L425 160Q421 143 421 128Q421 107 431 99T462 91Q491 91 511 116T543 179H585Q564 118 538 83T484 29T430 5T384 0Q343 0 318 22T286 87Q275 70 260 53T227 23T186 2T137 -6Q111 -6
88 2T45 30T15 79T4 155Q4 189 11 228T32 306T67 381T117 444T181 488T261 505Q273 505 286 504T311 497T331 481T343 453L353 500H498ZM292 443Q260 443 234 414T190 342T162 252T152 169Q152 140 157 125T170 102T186 93T202 91Q213 91 225 96T250 113T271 140T285
179L333 405Q333 409 331 415T324 428T312 438T292 443ZM336 713Q373 713 390 691T408 636Q408 603 388 578T321 552Q289 552 270 572T251 622Q251 635 256 651T271 681T297 704T336 713ZM371 633Q371 640 371 648T367 664T357 675T338 680Q312 680 302 662T291
624Q291 607 299 597T325 587Q348 587 359 599T371 633Z" />
<glyph unicode="&#xe6;" glyph-name="ae" horiz-adv-x="649" d="M136 -6Q114 -6 92 -1T51 19T21 59T9 124Q9 170 26 202T73 253T143 281T231 290Q249 290 261 289T283 286Q293 307 298 330T304 374Q304 404 290 424T243 445Q198 445 171 432T122 398L94 427Q122
455 146 471T192 494T234 503T276 505Q314 505 347 496T406 465Q433 485 466 497T541 509Q574 509 595 501T629 480T645 448T650 410Q650 368 631 332T580 267T507 222T420 202Q419 194 419 186T418 170Q418 114 434 96T478 78Q514 78 540 85T588 105T627 137T667
179H701Q680 145 654 113T593 54T518 12T425 -4Q370 -4 331 17T278 90Q268 71 256 54T227 23T188 2T136 -6ZM573 412Q573 433 568 444T549 456Q529 456 511 438T476 389T448 323T427 250Q456 252 482 266T529 303T561 354T573 412ZM259 229Q210 229 180 205T150
141Q150 124 155 114T168 99T183 93T196 91Q208 91 219 97T241 118T259 160T276 228Q271 229 268 229T259 229Z" />
<glyph unicode="&#xe7;" glyph-name="ccedilla" horiz-adv-x="384" d="M291 345Q299 362 303 382T308 415Q308 452 280 452Q254 452 230 422T188 348T159 254T148 163Q148 112 168 95T224 78Q254 78 278 86T323 107T363 139T401 179H435Q414 144 387 111T326 52T251
10T160 -6Q155 -6 152 -6T143 -5L148 6L113 29L103 1Q57 13 31 50T4 153Q4 182 10 219T29 295T62 371T113 439T182 487T273 505Q306 505 327 498T361 478T379 449T384 417Q384 380 369 357T331 333Q323 333 312 336T291 345ZM234 -108Q234 -135 224 -155T196 -190T158
-211T114 -218Q76 -218 53 -210T7 -190Q14 -178 23 -168T47 -158Q62 -158 71 -162T88 -171T103 -181T121 -185Q134 -185 142 -172T151 -143Q151 -129 142 -118T112 -107Q92 -107 80 -111T60 -119L103 1Q121 -3 143 -5L119 -66Q151 -58 172 -58Q204 -58 219 -71T234
-108Z" />
<glyph unicode="&#xe8;" glyph-name="egrave" horiz-adv-x="384" d="M152 162Q152 111 170 95T224 78Q254 78 278 86T323 107T363 139T401 179H435Q414 144 387 111T326 52T251 10T160 -6Q89 -6 47 31T4 153Q4 182 10 219T28 295T62 371T113 439T183 487T274 505Q307
505 328 497T362 476T379 445T384 409Q384 367 365 330T314 266T241 222T154 202Q153 191 153 181T152 162ZM190 750H295L324 561H249L190 750ZM307 411Q307 430 302 441T282 452Q263 452 245 434T211 388T183 323T162 250Q191 252 217 266T264 302T295 352T307
411Z" />
<glyph unicode="&#xe9;" glyph-name="eacute" horiz-adv-x="384" d="M152 162Q152 111 170 95T224 78Q254 78 278 86T323 107T363 139T401 179H435Q414 144 387 111T326 52T251 10T160 -6Q89 -6 47 31T4 153Q4 182 10 219T28 295T62 371T113 439T183 487T274 505Q307
505 328 497T362 476T379 445T384 409Q384 367 365 330T314 266T241 222T154 202Q153 191 153 181T152 162ZM302 750H407L286 561H211L302 750ZM307 411Q307 430 302 441T282 452Q263 452 245 434T211 388T183 323T162 250Q191 252 217 266T264 302T295 352T307
411Z" />
<glyph unicode="&#xea;" glyph-name="ecircumflex" horiz-adv-x="384" d="M152 162Q152 111 170 95T224 78Q254 78 278 86T323 107T363 139T401 179H435Q414 144 387 111T326 52T251 10T160 -6Q89 -6 47 31T4 153Q4 182 10 219T28 295T62 371T113 439T183 487T274
505Q307 505 328 497T362 476T379 445T384 409Q384 367 365 330T314 266T241 222T154 202Q153 191 153 181T152 162ZM383 561L323 641L166 561H122L334 750H355L415 561H383ZM307 411Q307 430 302 441T282 452Q263 452 245 434T211 388T183 323T162 250Q191 252
217 266T264 302T295 352T307 411Z" />
<glyph unicode="&#xeb;" glyph-name="edieresis" horiz-adv-x="384" d="M152 162Q152 111 170 95T224 78Q254 78 278 86T323 107T363 139T401 179H435Q414 144 387 111T326 52T251 10T160 -6Q89 -6 47 31T4 153Q4 182 10 219T28 295T62 371T113 439T183 487T274
505Q307 505 328 497T362 476T379 445T384 409Q384 367 365 330T314 266T241 222T154 202Q153 191 153 181T152 162ZM307 411Q307 430 302 441T282 452Q263 452 245 434T211 388T183 323T162 250Q191 252 217 266T264 302T295 352T307 411ZM136 634Q136 659 153
677T197 695Q222 695 240 677T258 634Q258 608 240 591T197 573Q171 573 154 590T136 634ZM316 634Q316 659 333 677T377 695Q402 695 420 677T438 634Q438 608 420 591T377 573Q351 573 334 590T316 634Z" />
<glyph unicode="&#xec;" glyph-name="igrave" horiz-adv-x="267" d="M229 500L157 160Q153 143 153 128Q153 107 163 99T194 91Q223 91 248 116T284 179H326Q305 118 277 82T220 26T164 0T116 -6Q71 -6 40 22T9 114Q9 141 17 179L85 500H229ZM83 750H188L217 561H142L83
750Z" />
<glyph unicode="&#xed;" glyph-name="iacute" horiz-adv-x="267" d="M229 500L157 160Q153 143 153 128Q153 107 163 99T194 91Q223 91 248 116T284 179H326Q305 118 277 82T220 26T164 0T116 -6Q71 -6 40 22T9 114Q9 141 17 179L85 500H229ZM229 750H334L213
561H138L229 750Z" />
<glyph unicode="&#xee;" glyph-name="icircumflex" horiz-adv-x="267" d="M229 500L157 160Q153 143 153 128Q153 107 163 99T194 91Q223 91 248 116T284 179H326Q305 118 277 82T220 26T164 0T116 -6Q71 -6 40 22T9 114Q9 141 17 179L85 500H229ZM284 561L224
641L67 561H23L235 750H256L316 561H284Z" />
<glyph unicode="&#xef;" glyph-name="idieresis" horiz-adv-x="267" d="M229 500L157 160Q153 143 153 128Q153 107 163 99T194 91Q223 91 248 116T284 179H326Q305 118 277 82T220 26T164 0T116 -6Q71 -6 40 22T9 114Q9 141 17 179L85 500H229ZM34 634Q34 659
51 677T95 695Q120 695 138 677T156 634Q156 608 138 591T95 573Q69 573 52 590T34 634ZM214 634Q214 659 231 677T275 695Q300 695 318 677T336 634Q336 608 318 591T275 573Q249 573 232 590T214 634Z" />
<glyph unicode="&#xf0;" glyph-name="eth" horiz-adv-x="538" d="M437 160Q433 143 433 128Q433 107 443 99T474 91Q503 91 523 116T555 179H597Q576 118 550 83T496 29T442 5T396 0Q355 0 330 22T298 87Q287 70 272 53T239 23T198 2T149 -6Q123 -6 100 2T57 30T27
79T16 155Q16 189 23 228T44 306T79 381T129 444T193 488T273 505Q316 505 335 491T354 454V448L362 485Q372 536 374 575L299 563L301 602L371 613Q366 636 357 657T331 700H376Q401 686 424 669T466 629L540 642V601L487 592Q494 575 498 555T502 508Q502 470
491 415L437 160ZM345 405Q345 409 343 415T337 428T324 438T304 443Q272 443 246 414T202 342T174 252T164 169Q164 140 169 125T182 102T198 93T214 91Q225 91 237 96T262 113T283 140T297 179L345 405Z" />
<glyph unicode="&#xf1;" glyph-name="ntilde" horiz-adv-x="505" d="M305 362Q305 413 269 413Q242 413 222 386T191 321L123 0H-21L85 500H229L218 448Q250 484 281 494T335 504Q383 504 414 478T446 391Q446 361 439 325T422 253T406 186T398 133Q398 114 406
103T438 91Q454 91 466 97T488 115T506 143T522 179H564Q543 117 519 81T470 25T422 0T378 -6Q345 -6 323 3T286 29T266 65T260 107Q260 132 267 166T282 236T298 304T305 362ZM506 669Q502 651 487 634T450 602T401 578T345 569Q320 569 299 575T257 587T218 600T177
606Q139 606 111 580L105 582Q129 630 172 655T272 680Q299 680 320 675T360 664T397 652T437 647Q456 647 472 653T500 670L506 669Z" />
<glyph unicode="&#xf2;" glyph-name="ograve" horiz-adv-x="439" d="M277 505Q403 505 405 348Q409 347 416 347Q433 347 453 352T494 365T534 385T570 407L579 380Q550 349 504 328T403 297Q397 227 376 171T323 76T250 15T163 -6Q128 -6 99 2T48 30T15 79T3
152Q3 181 9 218T28 294T63 371T114 439T185 487T277 505ZM203 88Q221 88 239 103T273 146T301 212T319 294Q303 298 298 309T292 336Q292 357 300 370T323 389Q321 420 313 432T285 445Q258 445 234 416T192 344T163 254T152 169Q152 144 154 129T163 104T179
92T203 88ZM202 750H307L336 561H261L202 750Z" />
<glyph unicode="&#xf3;" glyph-name="oacute" horiz-adv-x="439" d="M277 505Q403 505 405 348Q409 347 416 347Q433 347 453 352T494 365T534 385T570 407L579 380Q550 349 504 328T403 297Q397 227 376 171T323 76T250 15T163 -6Q128 -6 99 2T48 30T15 79T3
152Q3 181 9 218T28 294T63 371T114 439T185 487T277 505ZM203 88Q221 88 239 103T273 146T301 212T319 294Q303 298 298 309T292 336Q292 357 300 370T323 389Q321 420 313 432T285 445Q258 445 234 416T192 344T163 254T152 169Q152 144 154 129T163 104T179
92T203 88ZM333 750H438L317 561H242L333 750Z" />
<glyph unicode="&#xf4;" glyph-name="ocircumflex" horiz-adv-x="439" d="M277 505Q403 505 405 348Q409 347 416 347Q433 347 453 352T494 365T534 385T570 407L579 380Q550 349 504 328T403 297Q397 227 376 171T323 76T250 15T163 -6Q128 -6 99 2T48 30T15
79T3 152Q3 181 9 218T28 294T63 371T114 439T185 487T277 505ZM203 88Q221 88 239 103T273 146T301 212T319 294Q303 298 298 309T292 336Q292 357 300 370T323 389Q321 420 313 432T285 445Q258 445 234 416T192 344T163 254T152 169Q152 144 154 129T163 104T179
92T203 88ZM379 561L319 641L162 561H118L330 750H351L411 561H379Z" />
<glyph unicode="&#xf5;" glyph-name="otilde" horiz-adv-x="439" d="M277 505Q403 505 405 348Q409 347 416 347Q433 347 453 352T494 365T534 385T570 407L579 380Q550 349 504 328T403 297Q397 227 376 171T323 76T250 15T163 -6Q128 -6 99 2T48 30T15 79T3
152Q3 181 9 218T28 294T63 371T114 439T185 487T277 505ZM203 88Q221 88 239 103T273 146T301 212T319 294Q303 298 298 309T292 336Q292 357 300 370T323 389Q321 420 313 432T285 445Q258 445 234 416T192 344T163 254T152 169Q152 144 154 129T163 104T179
92T203 88ZM464 669Q460 651 445 634T408 602T359 578T303 569Q278 569 257 575T215 587T176 600T135 606Q97 606 69 580L63 582Q87 630 130 655T230 680Q257 680 278 675T318 664T355 652T395 647Q414 647 430 653T458 670L464 669Z" />
<glyph unicode="&#xf6;" glyph-name="odieresis" horiz-adv-x="439" d="M277 505Q403 505 405 348Q409 347 416 347Q433 347 453 352T494 365T534 385T570 407L579 380Q550 349 504 328T403 297Q397 227 376 171T323 76T250 15T163 -6Q128 -6 99 2T48 30T15 79T3
152Q3 181 9 218T28 294T63 371T114 439T185 487T277 505ZM203 88Q221 88 239 103T273 146T301 212T319 294Q303 298 298 309T292 336Q292 357 300 370T323 389Q321 420 313 432T285 445Q258 445 234 416T192 344T163 254T152 169Q152 144 154 129T163 104T179
92T203 88ZM128 634Q128 659 145 677T189 695Q214 695 232 677T250 634Q250 608 232 591T189 573Q163 573 146 590T128 634ZM308 634Q308 659 325 677T369 695Q394 695 412 677T430 634Q430 608 412 591T369 573Q343 573 326 590T308 634Z" />
<glyph unicode="&#xf7;" glyph-name="divide" horiz-adv-x="415" d="M102 80Q102 113 125 136T181 160Q214 160 237 137T261 80Q261 47 238 24T181 1Q148 1 125 24T102 80ZM162 415Q162 448 185 471T241 495Q274 495 297 472T321 415Q321 382 298 359T241 336Q208
336 185 359T162 415ZM357 206H6L24 285H374L357 206Z" />
<glyph unicode="&#xf8;" glyph-name="oslash" horiz-adv-x="439" d="M135 -103L156 -6Q88 -5 46 32T3 152Q3 180 8 216T27 291T60 366T109 433T176 482T264 504L285 605H337L315 500Q402 479 405 357Q424 358 444 364T484 380T521 399T550 417H582Q571 402 553
386T511 354T460 327T403 306Q399 243 383 191T341 100T282 36T209 0L187 -103H135ZM203 88Q222 88 240 104T274 148T301 214T319 297Q289 303 289 343Q289 365 298 378T323 397Q320 423 312 434T285 445Q258 445 234 416T192 344T163 254T152 169Q152 144 154
129T163 104T179 92T203 88Z" />
<glyph unicode="&#xf9;" glyph-name="ugrave" horiz-adv-x="505" d="M476 500L404 160Q400 143 400 128Q400 107 410 99T441 91Q470 91 490 116T522 179H564Q543 118 517 82T463 26T409 0T363 -6Q320 -6 295 18T264 89Q245 58 226 40T187 11T150 -2T116 -6Q71
-6 40 22T9 114Q9 141 17 179L85 500H229L157 160Q154 145 154 132Q154 115 160 103T184 91Q213 91 233 116T264 179L332 500H476ZM202 750H307L336 561H261L202 750Z" />
<glyph unicode="&#xfa;" glyph-name="uacute" horiz-adv-x="505" d="M476 500L404 160Q400 143 400 128Q400 107 410 99T441 91Q470 91 490 116T522 179H564Q543 118 517 82T463 26T409 0T363 -6Q320 -6 295 18T264 89Q245 58 226 40T187 11T150 -2T116 -6Q71
-6 40 22T9 114Q9 141 17 179L85 500H229L157 160Q154 145 154 132Q154 115 160 103T184 91Q213 91 233 116T264 179L332 500H476ZM347 750H452L331 561H256L347 750Z" />
<glyph unicode="&#xfb;" glyph-name="ucircumflex" horiz-adv-x="505" d="M476 500L404 160Q400 143 400 128Q400 107 410 99T441 91Q470 91 490 116T522 179H564Q543 118 517 82T463 26T409 0T363 -6Q320 -6 295 18T264 89Q245 58 226 40T187 11T150 -2T116 -6Q71
-6 40 22T9 114Q9 141 17 179L85 500H229L157 160Q154 145 154 132Q154 115 160 103T184 91Q213 91 233 116T264 179L332 500H476ZM404 561L344 641L187 561H143L355 750H376L436 561H404Z" />
<glyph unicode="&#xfc;" glyph-name="udieresis" horiz-adv-x="505" d="M476 500L404 160Q400 143 400 128Q400 107 410 99T441 91Q470 91 490 116T522 179H564Q543 118 517 82T463 26T409 0T363 -6Q320 -6 295 18T264 89Q245 58 226 40T187 11T150 -2T116 -6Q71
-6 40 22T9 114Q9 141 17 179L85 500H229L157 160Q154 145 154 132Q154 115 160 103T184 91Q213 91 233 116T264 179L332 500H476ZM333 634Q333 659 350 677T394 695Q419 695 437 677T455 634Q455 608 437 591T394 573Q368 573 351 590T333 634ZM153 634Q153 659
170 677T214 695Q239 695 257 677T275 634Q275 608 257 591T214 573Q188 573 171 590T153 634Z" />
<glyph unicode="&#xfd;" glyph-name="yacute" horiz-adv-x="486" d="M476 500L377 36Q423 52 452 83T503 179H545Q530 129 510 96T465 42T416 10T368 -8L353 -80Q342 -134 322 -167T277 -218T225 -243T173 -250Q127 -250 94 -226T61 -153Q61 -122 76 -98T114 -56T167
-26T224 -4L236 50Q204 15 173 5T116 -6Q71 -6 40 22T9 114Q9 141 17 179L85 500H229L157 160Q154 148 154 135Q154 118 160 105T184 91Q212 91 231 114T262 173L332 500H476ZM346 750H451L330 561H255L346 750ZM116 -139Q116 -150 124 -161T150 -172Q166 -172
182 -150T208 -83L214 -54Q195 -61 177 -69T146 -88T124 -111T116 -139Z" />
<glyph unicode="&#xfe;" glyph-name="thorn" horiz-adv-x="473" d="M81 485Q93 539 93 578Q93 613 83 641T50 700H95Q119 686 142 671T182 633T210 581T221 508Q221 497 220 485T217 459Q239 479 269 492T338 505Q363 505 385 497T424 471T450 422T460 347Q460
313 456 274T440 196T410 120T364 56T300 11T214 -6Q175 -6 156 5T128 31L76 -214L-75 -250L81 485ZM183 81Q222 81 249 110T292 180T316 268T323 350Q323 379 318 395T305 420T289 431T273 433Q256 433 237 420T203 381L144 106Q147 97 156 89T183 81Z" />
<glyph unicode="&#xff;" glyph-name="ydieresis" horiz-adv-x="486" d="M476 500L377 36Q423 52 452 83T503 179H545Q530 129 510 96T465 42T416 10T368 -8L353 -80Q342 -134 322 -167T277 -218T225 -243T173 -250Q127 -250 94 -226T61 -153Q61 -122 76 -98T114
-56T167 -26T224 -4L236 50Q204 15 173 5T116 -6Q71 -6 40 22T9 114Q9 141 17 179L85 500H229L157 160Q154 148 154 135Q154 118 160 105T184 91Q212 91 231 114T262 173L332 500H476ZM140 634Q140 659 157 677T201 695Q226 695 244 677T262 634Q262 608 244 591T201
573Q175 573 158 590T140 634ZM320 634Q320 659 337 677T381 695Q406 695 424 677T442 634Q442 608 424 591T381 573Q355 573 338 590T320 634ZM116 -139Q116 -150 124 -161T150 -172Q166 -172 182 -150T208 -83L214 -54Q195 -61 177 -69T146 -88T124 -111T116
-139Z" />
<glyph unicode="&#x2013;" glyph-name="endash" horiz-adv-x="381" d="M300 222H39L57 301H317L300 222Z" />
<glyph unicode="&#x2014;" glyph-name="emdash" horiz-adv-x="471" d="M390 222H39L57 301H407L390 222Z" />
<glyph unicode="&#x2018;" glyph-name="quoteleft" horiz-adv-x="209" d="M230 584Q230 555 209 535T157 514Q126 514 110 532T93 580Q93 619 125 665T214 748Q223 743 223 734L174 664Q174 654 186 647Q205 636 217 621T230 584Z" />
<glyph unicode="&#x2019;" glyph-name="quoteright" horiz-adv-x="206" d="M109 678Q109 707 130 727T182 748Q213 748 229 730T246 682Q246 643 214 597T125 514Q116 519 116 528L165 598Q165 607 153 615Q134 626 122 641T109 678Z" />
<glyph unicode="&#x201a;" glyph-name="quotesinglbase" horiz-adv-x="220" d="M-10 76Q-10 105 11 125T63 146Q94 146 110 128T127 80Q127 41 95 -5T6 -88Q-3 -83 -3 -74L46 -4Q46 5 34 13Q15 24 3 39T-10 76Z" />
<glyph unicode="&#x201c;" glyph-name="quotedblleft" horiz-adv-x="429" d="M450 584Q450 555 429 535T377 514Q346 514 330 532T313 580Q313 619 345 665T434 748Q443 743 443 734L394 664Q394 654 406 647Q425 636 437 621T450 584ZM230 584Q230 555 209 535T157
514Q126 514 110 532T93 580Q93 619 125 665T214 748Q223 743 223 734L174 664Q174 654 186 647Q205 636 217 621T230 584Z" />
<glyph unicode="&#x201d;" glyph-name="quotedblright" horiz-adv-x="426" d="M109 678Q109 707 130 727T182 748Q213 748 229 730T246 682Q246 643 214 597T125 514Q116 519 116 528L165 598Q165 607 153 615Q134 626 122 641T109 678ZM329 678Q329 707 350 727T402
748Q433 748 449 730T466 682Q466 643 434 597T345 514Q336 519 336 528L385 598Q385 607 373 615Q354 626 342 641T329 678Z" />
<glyph unicode="&#x201e;" glyph-name="quotedblbase" horiz-adv-x="440" d="M-10 76Q-10 105 11 125T63 146Q94 146 110 128T127 80Q127 41 95 -5T6 -88Q-3 -83 -3 -74L46 -4Q46 5 34 13Q15 24 3 39T-10 76ZM210 76Q210 105 231 125T283 146Q314 146 330 128T347
80Q347 41 315 -5T226 -88Q217 -83 217 -74L266 -4Q266 5 254 13Q235 24 223 39T210 76Z" />
<glyph unicode="&#x2022;" glyph-name="bullet" horiz-adv-x="281" d="M33 267Q33 287 40 304T61 335T91 356T129 364Q149 364 166 357T197 336T218 305T226 267Q226 247 219 230T198 199T167 179T129 171Q89 171 61 199T33 267Z" />
<glyph unicode="&#x2039;" glyph-name="guilsinglleft" horiz-adv-x="308" d="M266 404L91 253L228 113L188 69L8 254L224 449L266 404Z" />
<glyph unicode="&#x203a;" glyph-name="guilsinglright" horiz-adv-x="311" d="M17 114L192 265L55 405L95 449L275 264L59 69L17 114Z" />
</font>
</defs>
</svg>
