<?xml version="1.0" standalone="no"?>
<!DOCTYPE svg PUBLIC "-//W3C//DTD SVG 1.1//EN" "http://www.w3.org/Graphics/SVG/1.1/DTD/svg11.dtd">
<svg xmlns="http://www.w3.org/2000/svg">
<defs >
<font id="LobsterTwo" horiz-adv-x="520" ><font-face
    font-family="Lobster Two"
    units-per-em="1000"
    panose-1="2 0 5 6 0 0 0 2 0 3"
    ascent="1000"
    descent="-250"
    alphabetic="0" />
<glyph unicode=" " glyph-name="space" horiz-adv-x="215" />
<glyph unicode="!" glyph-name="exclam" horiz-adv-x="239" d="M91 231L63 700H175L144 231H91ZM54 61Q54 88 73 108T120 128Q147 128 167 108T187 61Q187 33 167 14T120 -5Q92 -5 73 14T54 61Z" />
<glyph unicode="&quot;" glyph-name="quotedbl" horiz-adv-x="331" d="M62 750H147L96 561H41L62 750ZM221 750H306L255 561H200L221 750Z" />
<glyph unicode="#" glyph-name="numbersign" horiz-adv-x="526" d="M330 141H189V-27H157V141H33V207H156V333H33V399H153V718H189V399H330V718H366V399H493V333H366V207H493V141H366V-27H330V141ZM189 207H330V333H189V207Z" />
<glyph unicode="$" glyph-name="dollar" horiz-adv-x="379" d="M181 107Q148 108 120 117T72 142T40 182T28 237Q28 270 42 288T77 306Q101 306 124 283Q107 281 101 265T94 231Q94 210 101 194T121 166T147 148T176 141V347Q154 362 132 376T91 408T61 448T49
499Q49 523 58 542T84 576T122 600T169 611V718H210V611Q232 609 254 603T293 584T322 553T333 508Q333 490 326 471T303 451Q298 451 288 454T265 469Q273 478 276 490T280 514Q280 540 262 559T206 582V411Q230 397 255 381T300 345T334 297T347 233Q347 203
336 180T304 142T257 117T198 107V-27H184L181 107ZM264 222Q264 257 247 282T201 327V142Q229 146 246 167T264 222ZM122 512Q122 486 136 467T171 432V580Q144 572 133 552T122 512Z" />
<glyph unicode="%" glyph-name="percent" horiz-adv-x="614" d="M214 0H154L401 750H461L214 0ZM147 702Q180 702 202 688T236 652T254 601T259 542Q259 513 253 483T232 429T195 390T139 374Q88 374 57 413T26 539Q26 574 34 604T58 655T96 689T147 702ZM82 535Q82
521 83 501T91 461T111 427T146 413Q161 413 172 423T192 450T204 491T208 542Q208 579 203 604T190 643T172 664T151 670Q135 670 123 660T101 631T87 588T82 535ZM480 328Q513 328 534 314T568 278T586 227T591 168Q591 139 585 109T564 55T527 16T471 0Q420
0 389 39T358 165Q358 200 366 230T390 281T428 315T480 328ZM415 161Q415 147 416 127T424 87T443 53T478 39Q493 39 505 49T525 76T537 117T541 168Q541 205 536 230T523 269T505 290T484 296Q468 296 455 286T433 257T420 214T415 161Z" />
<glyph unicode="&amp;" glyph-name="ampersand" horiz-adv-x="643" d="M637 413Q638 410 638 407T638 400Q638 382 628 364T601 330T559 305T506 292Q504 220 487 163T438 65T360 4T254 -18Q194 -18 152 2T85 55T48 127T36 208Q36 287 73 339T171 417Q123 447
102 486T81 568Q81 601 93 634T130 693T191 735T278 752Q305 752 332 746T382 726T417 687T431 625Q431 587 416 565T376 543Q349 543 323 570Q337 576 350 594T364 642Q364 661 357 674T339 697T313 710T284 714Q257 714 236 702T201 671T180 626T172 574Q172
562 175 540T189 494T222 449T284 418Q218 403 183 351T147 226Q147 154 185 108T305 61Q354 61 386 79T438 128T466 202T477 292Q458 294 439 296T403 298Q337 298 318 253L311 254Q314 308 354 341T467 375Q490 375 508 373T544 370Q573 370 598 380T631 413H637Z"
/>
<glyph unicode="&apos;" glyph-name="quotesingle" horiz-adv-x="172" d="M62 750H147L96 561H41L62 750Z" />
<glyph unicode="(" glyph-name="parenleft" horiz-adv-x="270" d="M257 723Q219 703 190 655T141 541T111 401T101 251Q101 206 107 146T130 21T180 -108T267 -226L245 -250Q140 -156 89 -27T38 250Q38 327 51 404T90 549T155 670T245 750L257 723Z" />
<glyph unicode=")" glyph-name="parenright" horiz-adv-x="270" d="M14 -223Q52 -203 81 -155T129 -41T159 99T169 249Q169 294 163 354T140 479T90 608T3 726L26 750Q130 656 181 527T232 250Q232 173 219 96T180 -49T115 -170T25 -250L14 -223Z" />
<glyph unicode="*" glyph-name="asterisk" horiz-adv-x="396" d="M224 752V606L340 673L364 633L244 564L364 495L340 455L224 522V376H172V522L56 455L32 495L151 564L32 633L56 673L172 606V752H224Z" />
<glyph unicode="+" glyph-name="plus" horiz-adv-x="430" d="M399 247H257V104H174V247H31V317H174V439H257V317H399V247Z" />
<glyph unicode="," glyph-name="comma" horiz-adv-x="216" d="M39 69Q39 82 45 93T60 111T81 123T104 128Q142 128 158 105T175 48Q175 24 168 -2T148 -53T119 -97T83 -126Q74 -121 72 -115T69 -102Q69 -92 72 -82T80 -61T87 -41T91 -22Q91 -7 87 -1T78 9T65 14T53
21T43 37T39 69Z" />
<glyph unicode="-" glyph-name="hyphen" horiz-adv-x="318" d="M259 231H59V301H259V231Z" />
<glyph unicode="." glyph-name="period" horiz-adv-x="209" d="M38 61Q38 88 57 108T104 128Q131 128 151 108T171 61Q171 33 151 14T104 -5Q76 -5 57 14T38 61Z" />
<glyph unicode="/" glyph-name="slash" horiz-adv-x="504" d="M65 -250H15L440 750H490L65 -250Z" />
<glyph unicode="0" glyph-name="zero" horiz-adv-x="588" d="M304 750Q371 750 416 720T489 639T529 524T541 390Q541 318 528 247T486 120T408 29T290 -6Q237 -6 193 16T116 83T65 197T46 360Q46 447 62 519T111 642T192 722T304 750ZM171 363Q171 310 177 258T199
163T240 95T302 69Q339 69 365 96T407 170T430 277T437 404Q437 492 426 549T398 640T358 687T315 700Q280 700 253 672T208 596T181 489T171 363Z" />
<glyph unicode="1" glyph-name="one" horiz-adv-x="308" d="M231 0H123V618H11L14 670Q33 670 56 672T106 683T164 707T231 748V0Z" />
<glyph unicode="2" glyph-name="two" horiz-adv-x="505" d="M147 96Q190 96 239 87T339 78Q366 78 385 82T417 94T441 116T462 147Q469 130 473 112T477 77Q477 52 469 36T446 9T413 -5T371 -9Q342 -9 310 -4T248 7T192 18T148 23Q123 23 99 18T49 -2Q46 3 41
16T36 58Q36 107 57 148T111 227T180 303T249 382T302 471T324 576Q324 631 301 665T227 700Q180 700 156 673T132 611Q132 595 139 573T166 536Q154 522 141 517T115 511Q97 511 84 519T63 542T50 575T45 611Q45 676 95 712T236 749Q298 749 337 732T400 688T432
628T441 561Q441 500 418 452T359 364T283 291T204 226T141 162T111 92Q126 96 147 96Z" />
<glyph unicode="3" glyph-name="three" horiz-adv-x="533" d="M196 257Q153 255 138 231T123 174Q123 141 134 120T163 86T201 69T241 64Q278 64 304 77T346 113T370 162T378 217Q378 252 366 286T330 348T269 394T182 418Q225 428 257 447T312 489T344 539T355
591Q355 612 348 631T327 666T293 690T247 699Q204 699 182 677T160 626Q160 605 172 585T211 546Q184 515 150 515Q118 515 95 541T72 613Q72 647 87 673T127 715T185 740T253 749Q290 749 326 740T391 711T437 662T455 592Q455 566 447 540T425 490T390 448T344
417Q429 383 466 336T504 224Q504 178 484 137T428 64T345 13T244 -6Q218 -6 182 0T112 27T54 85T30 186Q30 243 54 274T121 305Q130 305 140 304T161 297T181 282T196 257Z" />
<glyph unicode="4" glyph-name="four" horiz-adv-x="476" d="M376 750V349H459L457 290H376V0H268V290H10Q14 327 31 364T67 442T101 527T116 625Q116 640 115 658T111 692T105 724T97 748Q145 747 171 711T198 616Q198 572 185 537T153 471T115 410T85 349H268V735L376
750Z" />
<glyph unicode="5" glyph-name="five" horiz-adv-x="505" d="M420 749Q426 734 429 721T433 693Q433 659 412 638T339 616Q319 616 298 619T255 626T215 634T179 641L138 434Q170 451 199 458T260 465Q314 465 354 446T420 395T458 322T471 235Q471 188 457 145T415
68T343 14T239 -6Q204 -6 168 2T101 31T52 84T32 169Q32 226 55 253T112 281Q134 281 154 269T186 230Q119 224 119 162Q119 137 128 118T153 86T189 65T232 58Q266 58 290 73T329 113T351 168T358 228Q358 307 315 349T203 391Q158 391 120 377T59 345L129 732Q176
725 208 721T278 716Q318 716 349 723T420 749Z" />
<glyph unicode="6" glyph-name="six" horiz-adv-x="544" d="M210 330Q196 347 196 366Q196 382 204 397T229 425T268 445T320 453Q362 453 397 437T457 393T497 326T512 241Q512 196 498 152T455 72T382 16T279 -6Q229 -6 186 12T111 69T61 171T43 323Q43 407
60 484T113 620T200 715T324 750Q358 750 385 742T432 721T461 690T471 655Q471 646 468 636T459 616T443 602T419 596Q412 596 407 597T394 600Q404 613 404 635Q404 662 383 683T328 704Q287 704 254 671T198 583T162 458T149 314Q149 264 155 220T177 142T220
90T288 70Q327 70 352 86T393 128T415 184T422 242Q422 305 393 346T306 388Q277 388 254 375T210 330Z" />
<glyph unicode="7" glyph-name="seven" horiz-adv-x="448" d="M444 732Q445 730 445 728T445 724Q445 700 429 667T387 594T333 506T279 404T238 289T221 163Q221 101 233 65T256 7Q225 -9 197 -9Q167 -9 148 7T117 47T100 99T95 151Q95 203 112 253T156 351T212
442T269 524T313 592T331 646Q307 652 271 658T199 665Q184 665 166 663T131 655T105 636T94 605Q94 601 94 597T96 588Q79 588 65 596T39 617T21 648T14 684Q14 704 22 717T43 737T75 746T114 749Q144 749 175 745T239 737T303 728T366 724Q383 724 403 725T444
732Z" />
<glyph unicode="8" glyph-name="eight" horiz-adv-x="529" d="M262 66Q289 66 310 78T347 111T369 158T377 211Q377 315 257 377Q232 368 211 352T174 313T150 265T141 213Q141 189 149 163T172 116T210 80T262 66ZM261 -6Q210 -6 169 10T98 56T54 126T38 215Q38
291 75 342T182 417Q127 448 101 492T75 583Q75 615 87 645T123 698T182 736T263 750Q306 750 341 737T400 702T438 651T451 587Q451 542 427 495T349 417Q388 404 415 384T459 337T484 281T492 220Q492 174 477 133T432 61T359 12T261 -6ZM262 450Q284 463 302
481T332 521T350 564T357 606Q357 625 351 643T334 674T306 696T267 704Q222 704 197 672T171 594Q171 555 192 516T262 450Z" />
<glyph unicode="9" glyph-name="nine" horiz-adv-x="543" d="M333 434Q347 417 347 398Q347 382 339 367T314 339T275 319T223 311Q181 311 146 326T86 368T46 432T31 513Q31 556 45 598T89 675T161 729T263 750Q313 750 356 732T432 675T482 573T500 421Q500
337 483 260T430 124T342 29T218 -6Q184 -6 157 6T112 37T83 77T73 117Q73 126 76 136T85 156T101 170T125 176Q132 176 137 175T150 172Q140 159 140 137Q140 110 161 89T216 68Q256 68 289 97T345 175T381 290T394 430Q394 480 388 527T366 610T323 669T255 691Q218
691 193 673T151 628T128 570T121 512Q121 453 150 415T237 376Q266 376 289 389T333 434Z" />
<glyph unicode=":" glyph-name="colon" horiz-adv-x="251" d="M59 386Q59 413 78 433T125 453Q152 453 172 433T192 386Q192 358 172 339T125 320Q97 320 78 339T59 386ZM59 145Q59 172 78 192T125 212Q152 212 172 192T192 145Q192 117 172 98T125 79Q97 79 78
98T59 145Z" />
<glyph unicode=";" glyph-name="semicolon" horiz-adv-x="247" d="M56 152Q56 165 62 176T77 194T98 206T121 211Q159 211 175 188T192 131Q192 107 185 81T165 30T136 -14T100 -43Q91 -38 89 -32T86 -19Q86 -9 89 1T97 22T104 42T108 61Q108 76 104 82T95 92T82
97T70 104T60 120T56 152ZM55 386Q55 413 74 433T121 453Q148 453 168 433T188 386Q188 358 168 339T121 320Q93 320 74 339T55 386Z" />
<glyph unicode="&lt;" glyph-name="less" horiz-adv-x="359" d="M302 374L83 254L302 158V101L27 225V279L302 429V374Z" />
<glyph unicode="=" glyph-name="equal" horiz-adv-x="466" d="M403 316H63V396H403V316ZM403 133H63V213H403V133Z" />
<glyph unicode="&gt;" glyph-name="greater" horiz-adv-x="359" d="M57 429L332 279V225L57 101V158L276 254L57 374V429Z" />
<glyph unicode="?" glyph-name="question" horiz-adv-x="415" d="M392 546Q392 510 379 482T345 431T301 386T257 342T222 293T205 232H159Q156 247 156 260Q156 301 178 333T227 398T276 465T298 547Q298 577 289 598T264 631T230 650T192 656Q174 656 158 650T129
634T108 609T100 576Q100 554 120 529T184 497Q176 476 159 466T120 455Q103 455 86 461T54 481T32 515T23 561Q23 585 32 609T63 654T118 687T202 700Q250 700 285 688T345 655T380 606T392 546ZM116 61Q116 88 135 108T182 128Q209 128 229 108T249 61Q249 33
229 14T182 -5Q154 -5 135 14T116 61Z" />
<glyph unicode="@" glyph-name="at" horiz-adv-x="565" d="M238 -38Q203 -38 167 -28T101 5T53 67T34 164Q34 246 61 317T134 442T243 526T375 557Q398 557 425 552T477 531T517 483T533 400Q533 351 520 304T483 220T427 159T359 136Q341 136 329 143T310 161Q299
144 283 132T245 120Q218 120 200 141T182 208Q182 241 193 280T222 353T265 409T317 432Q331 432 341 427T356 415L360 430L415 424L370 232Q368 226 366 216T363 196Q363 188 366 182T378 176Q397 176 416 197T451 251T475 320T485 391Q485 414 480 436T461 475T427
503T372 514Q315 514 268 483T186 403T133 296T114 184Q114 152 121 124T146 76T193 45T267 33Q320 33 361 55T419 114Q433 108 437 96T442 71Q442 47 428 27T387 -7T322 -30T238 -38ZM302 197Q302 207 305 216L348 384Q344 390 339 394T327 399Q307 399 290 379T261
331T241 273T234 224Q234 217 235 208T240 191T249 178T264 172Q278 172 286 179T302 197Z" />
<glyph unicode="A" glyph-name="A" horiz-adv-x="603" d="M447 0V360Q409 378 361 390T262 409Q250 365 240 319T223 227T212 138T208 55Q208 11 214 -31T243 -114Q220 -114 195 -109T149 -87T115 -37T101 51Q101 86 106 129T121 219T145 315T178 413Q149 412
124 408T80 397T50 379T39 357Q39 353 40 351Q66 343 66 318Q66 300 53 293T25 286Q0 286 -21 300T-43 351Q-43 375 -29 394T11 426T71 447T147 454Q158 454 170 454T194 452Q219 512 250 566T317 661T393 726T477 750Q492 750 514 747T557 736V0H447ZM272 442Q322
433 368 420T447 390V702Q422 700 398 680T352 624T309 543T272 442Z" />
<glyph unicode="B" glyph-name="B" horiz-adv-x="670" d="M102 508Q102 481 106 461T117 428T128 406T137 393Q81 393 49 421T17 509Q17 559 42 603T111 679T213 731T338 750Q397 750 440 736T512 696T555 639T569 573Q569 535 549 498T491 434Q568 426 614 373T661
225Q661 193 654 152T629 73T577 9T493 -17Q471 -17 451 -12T416 4T391 31T382 69Q382 75 383 85T386 103Q400 81 421 73T460 64Q485 64 501 78T527 114T539 162T543 215Q543 310 507 352T405 394Q393 394 375 393T340 390V0H232V641L340 656V430H354Q382 430 406
443T449 479T477 527T487 580Q487 639 447 676T328 714Q285 714 244 702T172 664T121 599T102 508Z" />
<glyph unicode="C" glyph-name="C" horiz-adv-x="505" d="M580 170Q554 79 484 32T319 -16Q190 -16 119 75T47 350Q47 419 59 490T101 618T181 713T309 750Q347 750 381 740T440 711T481 662T496 594Q496 562 484 543T443 524Q429 524 417 528T396 542Q405 549
412 571T420 621Q420 669 397 691T336 714Q291 714 259 685T205 606T175 495T165 367Q165 285 179 227T220 132T286 78T377 60Q442 60 485 88T555 180L580 170Z" />
<glyph unicode="D" glyph-name="D" horiz-adv-x="705" d="M350 656V78Q369 64 386 58T420 52Q459 52 485 80T529 154T553 256T561 366Q561 459 548 525T506 633T431 694T320 714Q275 714 234 700T162 660T113 595T94 507Q94 478 100 458T115 425T133 405T149 393Q88
393 53 421T18 515Q18 561 42 604T108 679T208 730T334 750Q430 750 496 718T603 632T662 509T680 367Q680 296 666 228T626 107T565 20T488 -13Q458 -13 424 1T350 45V0H242V641L350 656Z" />
<glyph unicode="E" glyph-name="E" horiz-adv-x="447" d="M521 170Q507 125 480 90T417 31T339 -5T254 -18Q197 -18 157 2T91 55T53 127T41 209Q41 283 76 337T176 417Q128 447 107 486T86 568Q86 601 98 634T135 693T196 735T283 752Q310 752 337 746T387 726T422
687T436 625Q436 587 421 565T381 543Q354 543 328 570Q342 576 355 594T369 642Q369 661 362 674T344 697T318 710T289 714Q262 714 241 702T206 671T185 627T177 577Q177 566 179 544T193 497T227 450T289 418Q223 403 188 351T152 226Q152 154 190 108T309 61Q345
61 375 70T429 96T470 134T496 180L521 170Z" />
<glyph unicode="F" glyph-name="F" horiz-adv-x="554" d="M479 646Q447 646 414 651T346 664V435H494V376H346V0H238V682Q233 683 229 683T219 683Q193 683 170 676T131 652T105 607T95 535Q95 481 108 445T140 393Q21 393 21 524Q21 572 37 613T87 684T173 732T299
750Q324 750 346 748T390 744T433 740T480 738Q505 738 527 740T569 750Q567 715 560 695T540 664T513 650T479 646Z" />
<glyph unicode="G" glyph-name="G" horiz-adv-x="593" d="M557 418V42Q557 -16 545 -62T509 -140T446 -190T353 -207Q303 -207 270 -193T216 -157T188 -108T180 -54Q180 -32 185 -11T204 28T240 57T296 68Q336 68 362 51T388 -2Q388 -7 387 -14T383 -30Q366 -11
349 -7T320 -2Q285 -2 269 -21T253 -69Q253 -90 261 -108T282 -140T314 -160T353 -168Q370 -168 387 -162T417 -140T439 -99T448 -34V204Q422 156 379 133T281 109Q226 109 181 131T102 194T51 292T33 421Q33 487 50 547T104 652T198 725T335 752Q371 752 407 746T472
723T520 678T539 607Q539 594 537 580T527 553T508 532T474 524Q456 524 444 530T410 550Q412 550 419 553T433 563T447 585T453 621Q453 670 423 692T349 714Q300 714 264 690T203 625T166 533T154 427Q154 375 165 330T196 251T245 198T312 179Q378 179 415 241T460
419L557 418Z" />
<glyph unicode="H" glyph-name="H" horiz-adv-x="694" d="M648 748V0H539V376H323V0H214V697Q159 675 128 627T96 511Q96 476 100 455T112 421T127 402T142 393Q116 393 94 399T55 421T28 459T18 517Q18 564 40 606T99 681T183 731T282 750Q293 750 303 750T323
748V435H539V717L648 748Z" />
<glyph unicode="I" glyph-name="I" horiz-adv-x="403" d="M357 0H247V691Q180 672 141 626T102 511Q102 484 106 466T116 434T130 411T148 393Q88 393 53 420T18 514Q18 562 43 604T109 679T204 731T315 750Q326 750 336 750T357 748V0Z" />
<glyph unicode="J" glyph-name="J" horiz-adv-x="433" d="M387 750V40Q387 -17 377 -62T343 -140T280 -190T181 -207Q133 -207 99 -196T43 -164T11 -116T1 -56Q1 -35 6 -13T25 27T61 56T117 68Q158 68 180 50T202 -14Q202 -17 202 -20T201 -28Q187 -15 172 -9T143
-3Q117 -3 98 -22T78 -79Q78 -100 86 -116T109 -143T140 -160T175 -166Q194 -166 212 -159T244 -135T266 -94T275 -34V692Q206 675 169 627T131 507Q131 481 135 462T147 429T162 407T177 393Q117 393 82 421T47 509Q47 560 72 604T139 680T235 731T346 750H387Z"
/>
<glyph unicode="K" glyph-name="K" horiz-adv-x="648" d="M356 425L535 745H623L399 424Q413 425 423 425T442 426Q493 426 524 413T572 378T595 325T601 259Q601 241 600 220T599 179T597 139T596 105Q596 60 612 34T653 0Q623 -9 604 -13T567 -17Q522 -17 501
12T479 86Q479 105 480 129T484 177T488 225T490 268Q490 302 483 325T463 362T433 382T395 388Q378 388 356 383V0H246V692Q177 672 137 626T96 509Q96 477 103 447T138 393Q114 393 92 399T54 420T27 458T17 514Q17 562 42 604T108 679T203 731T314 750Q325 750
335 750T356 748V425Z" />
<glyph unicode="L" glyph-name="L" horiz-adv-x="453" d="M356 735V20Q388 13 418 -2T481 -32T548 -58T626 -69Q661 -69 703 -49Q706 -63 706 -76Q706 -97 699 -115T677 -148T642 -170T596 -179Q557 -179 519 -155T442 -101T361 -47T270 -22Q264 -22 259 -22T247
-23V681Q180 662 141 616T102 501Q102 474 106 456T116 424T130 401T148 383Q88 383 53 410T18 504Q18 552 43 594T109 669T204 721T315 740Q326 740 336 740T357 738L356 735Z" />
<glyph unicode="M" glyph-name="M" horiz-adv-x="752" d="M355 0L266 514L185 0H125L235 700Q172 686 138 640T104 509Q104 475 108 454T119 419T131 401T141 393Q87 393 54 420T21 507Q21 556 45 600T106 678T187 730T274 750Q290 750 305 747T335 736L435 155L552
736H666L722 0H608L568 524L462 0H355Z" />
<glyph unicode="N" glyph-name="N" horiz-adv-x="709" d="M663 748V0H529L278 563V0H211V689Q156 670 125 629T94 520Q94 489 99 468T111 432T126 408T142 393Q79 393 50 423T20 522Q20 563 36 603T83 676T155 729T248 750Q265 750 283 747T318 736L596 94V748H663Z" />
<glyph unicode="O" glyph-name="O" horiz-adv-x="702" d="M393 656Q368 641 349 604T316 517T297 413T290 306Q290 273 294 232T310 155T346 95T407 70Q448 70 476 98T521 173T547 279T555 399Q555 496 538 557T491 654T424 701T342 714Q292 714 249 700T173 658T122
588T103 490Q103 461 107 443T116 415T126 399T134 393Q80 393 49 420T18 504Q18 555 44 600T117 678T225 730T358 750Q450 750 511 718T609 634T661 514T676 374Q676 308 664 241T620 118T538 29T410 -6Q360 -6 316 11T239 67T187 169T167 324Q167 381 176 441T205
550T258 632T342 664Q353 664 366 663T393 656Z" />
<glyph unicode="P" glyph-name="P" horiz-adv-x="601" d="M340 656V316Q384 316 415 334T467 382T496 447T506 520Q506 552 500 586T472 648T412 695T308 714Q264 714 225 701T158 662T113 599T96 512Q96 481 101 460T113 425T127 404T138 393Q82 393 50 421T18
514Q18 562 43 604T110 679T207 731T323 750Q389 750 441 734T528 688T581 619T600 535Q600 493 585 449T540 368T466 309T362 285H340V0H232V641L340 656Z" />
<glyph unicode="Q" glyph-name="Q" horiz-adv-x="727" d="M392 656Q367 641 348 604T315 517T296 412T289 303Q289 285 290 264T294 221T302 177T316 136Q340 144 362 147T398 150Q427 150 449 141T492 118Q525 165 539 241T554 404Q554 500 538 560T495 654T430
701T351 714Q301 714 256 700T177 658T122 587T102 488Q102 461 106 443T115 415T126 399T133 393Q79 393 48 421T17 503Q17 554 45 599T120 677T231 730T366 750Q458 750 518 718T613 634T661 516T675 379Q675 332 670 286T651 196T617 115T565 50Q580 35 596
21T630 -5T668 -22T714 -29Q722 -29 727 -29T738 -27Q730 -62 712 -76T661 -91Q633 -91 611 -82T572 -58T540 -24T512 15Q490 5 464 0T408 -6Q358 -6 314 11T237 67T185 169T166 324Q166 381 175 441T204 550T257 632T341 664Q352 664 365 663T392 656ZM389 120Q378
120 363 117T334 106Q347 89 364 80T406 70Q435 70 460 87Q446 102 429 111T389 120Z" />
<glyph unicode="R" glyph-name="R" horiz-adv-x="652" d="M339 656V423H365Q395 423 418 436T458 471T483 520T492 575Q492 599 485 623T458 668T405 701T319 714Q272 714 233 700T164 660T119 595T102 509Q102 474 106 453T115 419T126 402T135 393Q114 393 93
399T55 420T28 457T17 514Q17 561 41 603T107 678T205 730T324 750Q384 750 431 738T512 704T562 652T580 585Q580 564 574 542T557 498T528 457T488 423Q525 417 547 402T582 366T597 317T601 259Q601 241 600 220T599 179T597 139T596 105Q596 60 612 34T653
0Q623 -9 604 -13T567 -17Q522 -17 501 12T479 86Q479 105 480 129T484 177T488 225T490 268Q490 302 483 325T463 362T433 382T395 388Q384 388 368 386T339 381V0H231V641L339 656Z" />
<glyph unicode="S" glyph-name="S" horiz-adv-x="493" d="M440 612Q440 572 424 550T380 528Q366 528 357 533T337 549Q351 559 358 578T366 618Q366 635 361 652T343 682T313 704T270 713Q244 713 224 704T190 678T169 639T162 592Q162 544 185 515T244 466T320
428T397 384T455 317T479 209Q479 149 459 107T407 38T332 0T246 -12Q207 -12 169 -3T101 25T53 75T34 149Q34 174 41 200T61 247T95 281T143 295Q165 295 180 283T208 238Q184 237 169 228T144 206T132 178T128 150Q128 123 140 103T170 70T210 50T252 43Q298
43 328 78T358 179Q358 235 337 267T282 322T212 360T141 398T87 454T65 547Q65 597 82 635T126 698T190 736T266 749Q283 749 312 745T370 727T419 686T440 612Z" />
<glyph unicode="T" glyph-name="T" horiz-adv-x="671" d="M582 630Q546 630 505 637T418 654V0H310V670Q299 672 290 672T270 672Q186 672 142 642T97 531Q97 471 110 440T138 392Q113 392 92 399T54 424T29 468T20 537Q20 578 36 616T87 683T179 731T318 749Q358
749 390 746T451 738T508 730T567 726Q609 726 637 732T685 747Q688 729 688 713Q688 630 582 630Z" />
<glyph unicode="U" glyph-name="U" horiz-adv-x="770" d="M725 748V206Q725 178 717 141T682 71T609 16T484 -7Q407 -7 361 15T289 70T256 139T247 205V707Q172 690 131 639T90 506Q90 477 95 458T106 425T118 405T126 394Q106 394 86 401T51 423T26 460T16 513Q16
561 41 604T108 679T206 731T323 750Q334 750 344 749T370 745V207Q370 162 380 135T408 93T447 75T492 70Q515 70 537 74T576 93T604 135T615 209V748H725Z" />
<glyph unicode="V" glyph-name="V" horiz-adv-x="644" d="M453 80L592 745H649L481 0H370L221 693Q181 693 155 680T113 644T91 593T84 534Q84 491 96 457T131 394Q111 394 91 400T55 421T29 461T19 526Q19 571 36 612T86 683T167 732T277 750Q288 750 298 749T320
746L453 80Z" />
<glyph unicode="W" glyph-name="W" horiz-adv-x="996" d="M463 80L592 745H666L809 80L938 745H995L837 0H726L606 542L491 0H380L221 693Q183 693 157 680T115 644T92 593T84 534Q84 491 96 457T131 394Q111 394 91 400T55 421T29 461T19 526Q19 571 36 612T86
683T167 732T277 750Q288 750 298 749T320 746L463 80Z" />
<glyph unicode="X" glyph-name="X" horiz-adv-x="615" d="M522 0L391 301L269 0H222L365 360L212 714Q184 706 162 688T123 643T99 585T90 519Q90 473 101 445T127 403Q102 403 82 408T49 427T28 464T20 526Q20 576 40 617T95 688T174 734T268 751Q289 751 309
748L438 447L556 745H603L463 388L630 0H522Z" />
<glyph unicode="Y" glyph-name="Y" horiz-adv-x="608" d="M358 0V308L201 714Q166 705 144 686T107 641T88 587T82 530Q82 451 132 393Q79 393 50 423T20 524Q20 570 36 611T84 683T159 732T259 750Q270 750 280 750T300 748L445 364L574 745H626L466 308V0H358Z" />
<glyph unicode="Z" glyph-name="Z" horiz-adv-x="489" d="M399 71Q387 79 381 90T374 113Q374 132 387 142T421 153Q431 153 442 149T464 138T480 119T486 93Q486 76 479 60T457 30T424 8T379 0H18L347 705Q341 705 324 706T284 708T240 709T204 710Q188 710 173
709T146 706T127 700T119 690Q143 674 143 649Q143 633 132 620T100 607Q88 607 76 612T54 626T38 648T31 677Q31 705 60 727T141 750H481L153 53Q176 53 211 52T284 50Q305 50 324 51T360 54T386 60T399 71Z" />
<glyph unicode="[" glyph-name="bracketleft" horiz-adv-x="285" d="M265 -250H71V750H264V688H144V-188H265V-250Z" />
<glyph unicode="\" glyph-name="backslash" horiz-adv-x="504" d="M14 750H64L489 -250H439L14 750Z" />
<glyph unicode="]" glyph-name="bracketright" horiz-adv-x="285" d="M20 -188H141V688H21V750H214V-250H20V-188Z" />
<glyph unicode="^" glyph-name="asciicircum" horiz-adv-x="421" d="M197 561L111 662L-30 561H-64L102 728H123L219 561H197Z" />
<glyph unicode="_" glyph-name="underscore" horiz-adv-x="438" d="M394 0H44V70H394V0Z" />
<glyph unicode="`" glyph-name="grave" horiz-adv-x="201" d="M28 561H-27L-128 750H-43L28 561Z" />
<glyph unicode="a" glyph-name="a" horiz-adv-x="485" d="M415 500V160Q415 150 416 135T421 106T435 81T460 70Q509 70 532 179H569Q558 116 541 80T505 24T466 0T430 -6Q407 -6 391 2T363 23T344 53T333 89Q318 50 285 22T203 -6Q173 -6 143 6T88 45T48 116T32
223Q32 269 42 319T76 410T135 478T222 505Q234 505 247 503T273 494T297 478T315 452V500H415ZM228 70Q243 70 258 78T286 101T307 136T315 179V407Q308 423 294 436T256 450Q224 450 201 429T164 375T144 304T137 230Q137 144 160 107T228 70Z" />
<glyph unicode="b" glyph-name="b" horiz-adv-x="418" d="M47 686L147 700V463Q164 480 187 491T242 502Q269 502 298 493T352 459T393 393T409 286Q409 229 396 176T355 83T286 18T190 -6Q159 -6 133 3T87 34T57 91T46 179L47 686ZM320 263Q320 302 313 336T293
395T260 435T215 450Q195 450 178 441T147 416V153Q147 63 206 63Q234 63 255 79T291 124T313 188T320 263Z" />
<glyph unicode="c" glyph-name="c" horiz-adv-x="364" d="M273 347Q281 354 285 369T290 399Q290 422 276 437T235 452Q208 452 190 432T161 382T146 314T141 240Q141 187 150 154T176 103T213 77T259 70Q312 70 348 96T411 179H445Q433 142 411 109T360 50T297
9T226 -6Q191 -6 157 6T96 45T52 117T35 227Q35 269 42 317T70 407T127 477T220 505Q283 505 316 475T349 385Q349 360 340 343T310 326Q288 326 273 347Z" />
<glyph unicode="d" glyph-name="d" horiz-adv-x="485" d="M415 700V160Q415 150 416 135T421 106T435 81T460 70Q509 70 532 179H569Q558 116 541 80T505 24T466 0T430 -6Q407 -6 391 2T363 23T344 53T333 89Q318 50 285 22T203 -6Q173 -6 143 6T88 45T48 116T32
223Q32 269 42 319T76 410T135 478T222 505Q234 505 247 503T273 494T297 478T315 452V686L415 700ZM228 70Q243 70 258 78T286 101T307 136T315 179V407Q308 423 294 436T256 450Q224 450 201 429T164 375T144 304T137 230Q137 144 160 107T228 70Z" />
<glyph unicode="e" glyph-name="e" horiz-adv-x="368" d="M359 375Q359 305 302 258T142 200Q146 160 156 135T182 96T216 76T257 70Q305 70 347 95T415 179H447Q434 142 411 109T357 50T290 9T216 -6Q181 -6 149 6T91 45T51 117T35 225Q35 267 44 316T76 407T135
477T226 505Q251 505 274 500T317 480T347 440T359 375ZM141 239Q212 250 253 289T295 385Q295 423 282 439T245 456Q219 456 200 436T167 385T148 315T141 239Z" />
<glyph unicode="f" glyph-name="f" horiz-adv-x="239" d="M146 500H227V465H146V-80Q146 -133 136 -166T108 -218T69 -243T21 -250Q-33 -250 -58 -225T-84 -153Q-84 -128 -73 -107T-43 -69T-1 -38T46 -14V576Q46 663 87 706T192 750Q222 750 247 741T291 713T320
666T331 600H292Q286 640 271 663T219 686Q195 686 181 676T159 647T149 604T146 548V500ZM1 -198Q30 -198 38 -167T46 -82V-51Q1 -73 -22 -99T-45 -150Q-45 -170 -32 -184T1 -198Z" />
<glyph unicode="g" glyph-name="g" horiz-adv-x="485" d="M415 500V21Q440 29 459 39T493 66T517 110T532 179H569Q561 126 549 93T518 39T474 7T415 -15V-79Q415 -126 405 -158T378 -211T338 -241T290 -250Q240 -250 212 -222T184 -152Q184 -126 195 -105T225
-67T267 -36T315 -12V74Q296 48 268 31T203 14Q173 14 143 25T88 63T48 131T32 233Q32 278 42 326T76 413T135 479T222 505Q234 505 247 503T273 494T297 478T315 452V500H415ZM228 90Q243 90 258 98T286 120T307 153T315 194V407Q308 423 294 436T256 450Q224
450 201 430T164 378T144 310T137 240Q137 159 160 125T228 90ZM271 -198Q298 -198 306 -178T315 -122V-52Q265 -75 244 -97T223 -148Q223 -171 235 -184T271 -198Z" />
<glyph unicode="h" glyph-name="h" horiz-adv-x="467" d="M146 700V424Q161 451 176 467T208 492T238 502T266 505Q311 505 338 488T380 445T398 387T403 326Q403 308 402 287T400 243T398 198T397 156Q397 148 398 134T403 105T416 81T442 70Q465 70 483 96T514
179H551Q540 116 523 80T487 24T449 0T414 -6Q382 -6 360 6T324 40T304 89T297 147Q297 156 297 180T298 233T299 286T300 321Q300 353 295 374T281 407T261 424T236 429Q205 429 183 404T146 320V0H46V686L146 700Z" />
<glyph unicode="i" glyph-name="i" horiz-adv-x="217" d="M147 500V160Q147 150 148 135T153 106T167 81T192 70Q241 70 264 179H301Q290 116 273 80T237 24T198 0T162 -6Q127 -6 105 7T70 42T52 89T47 139V500H147ZM29 644Q29 671 48 691T95 711Q122 711 142
691T162 644Q162 616 142 597T95 578Q67 578 48 597T29 644Z" />
<glyph unicode="j" glyph-name="j" horiz-adv-x="217" d="M147 500V21Q172 29 191 39T225 66T249 110T264 179H301Q293 126 281 93T250 39T206 7T147 -15V-79Q147 -126 137 -158T110 -211T70 -241T22 -250Q-28 -250 -56 -222T-84 -152Q-84 -126 -73 -105T-43 -67T-1
-36T47 -12V500H147ZM29 644Q29 671 48 691T95 711Q122 711 142 691T162 644Q162 616 142 597T95 578Q67 578 48 597T29 644ZM3 -198Q30 -198 38 -178T47 -122V-52Q-3 -75 -24 -97T-45 -148Q-45 -171 -33 -184T3 -198Z" />
<glyph unicode="k" glyph-name="k" horiz-adv-x="457" d="M146 700V337L318 500H415L248 365H258Q303 365 329 350T370 312T389 261T394 209Q394 199 394 187T393 162T392 139T391 122Q391 115 392 106T397 89T409 76T430 70Q456 70 474 96T505 179H542Q530 114
513 78T477 22T438 -1T403 -6Q373 -6 352 3T317 27T297 64T290 108Q290 112 290 125T290 154T291 182T291 201Q291 253 272 271T228 289Q202 289 182 272T146 212V0H46V686L146 700Z" />
<glyph unicode="l" glyph-name="l" horiz-adv-x="216" d="M147 700V160Q147 150 148 135T153 106T167 81T192 70Q241 70 264 179H301Q290 116 273 80T237 24T198 0T162 -6Q127 -6 105 7T70 42T52 89T47 139V686L147 700Z" />
<glyph unicode="m" glyph-name="m" horiz-adv-x="693" d="M146 500V431Q172 479 201 492T256 505Q282 505 301 498T335 479T358 451T374 416Q388 446 403 463T433 490T462 502T489 505Q534 505 561 488T603 445T621 387T626 326Q626 308 625 287T623 243T621 198T620
156Q620 148 621 134T626 105T639 81T665 70Q688 70 706 96T737 179H774Q763 116 746 80T710 24T672 0T637 -6Q605 -6 583 6T547 40T527 89T520 147Q520 156 520 180T521 233T522 286T523 321Q523 353 518 374T504 407T484 424T459 429Q428 429 409 404T381 320V0H281V334Q281
352 280 369T272 399T255 421T225 429Q193 429 177 403T146 320V0H46V500H146Z" />
<glyph unicode="n" glyph-name="n" horiz-adv-x="467" d="M146 500V424Q161 451 176 467T208 492T238 502T266 505Q311 505 338 488T380 445T398 387T403 326Q403 308 402 287T400 243T398 198T397 156Q397 148 398 134T403 105T416 81T442 70Q465 70 483 96T514
179H551Q540 116 523 80T487 24T449 0T414 -6Q382 -6 360 6T324 40T304 89T297 147Q297 156 297 180T298 233T299 286T300 321Q300 353 295 374T281 407T261 424T236 429Q205 429 183 404T146 320V0H46V500H146Z" />
<glyph unicode="o" glyph-name="o" horiz-adv-x="419" d="M229 505Q268 505 296 493T342 460T370 409T386 347H392Q434 347 469 364T529 407L544 380Q524 348 481 327T391 298Q391 288 391 278T392 257Q392 134 347 64T221 -6Q188 -6 155 6T94 46T51 118T34 227Q34
271 43 320T75 410T135 478T229 505ZM239 70Q292 70 317 122T342 271Q342 277 342 283T341 295Q312 297 300 308T287 345Q287 368 297 377T327 388Q315 423 297 436T255 450Q224 450 203 430T168 377T148 307T142 231Q142 182 151 151T174 102T205 77T239 70Z"
/>
<glyph unicode="p" glyph-name="p" horiz-adv-x="423" d="M147 537V460Q166 480 191 492T251 505Q286 505 316 490T368 445T404 368T417 257Q417 132 370 63T245 -6Q212 -6 189 6T147 42V-225L46 -250V537H147ZM216 440Q194 440 177 428T147 392V92Q161 74 178
66T213 58Q238 58 257 74T289 117T310 182T317 261Q317 313 308 347T283 402T250 431T216 440Z" />
<glyph unicode="q" glyph-name="q" horiz-adv-x="445" d="M415 500V-225L314 -250V53Q295 27 267 11T203 -6Q173 -6 143 6T88 45T48 116T32 223Q32 269 42 319T76 410T135 478T222 505Q246 505 273 495T314 454V500H415ZM228 70Q242 70 256 77T283 97T303 127T314
165V410Q307 425 293 437T256 450Q224 450 201 429T164 375T144 304T137 230Q137 144 160 107T228 70Z" />
<glyph unicode="r" glyph-name="r" horiz-adv-x="336" d="M146 500V416Q158 434 169 450T195 478T226 497T264 505Q298 505 314 488T330 445Q330 430 325 420T313 404T298 396T284 393Q275 393 270 397T259 405T246 414T228 418Q205 418 184 402T146 368V0H46V500H146Z" />
<glyph unicode="s" glyph-name="s" horiz-adv-x="342" d="M431 179Q402 139 372 113T312 66Q301 46 284 33T248 11T209 -2T173 -6Q129 -6 101 8T55 43T31 91T24 142Q24 168 34 187T60 215Q86 290 111 363T144 511L245 531Q269 436 284 376T309 275T323 202T328
132Q345 143 360 155T389 179H431ZM222 139Q222 170 219 194T208 247T191 317T166 424Q160 368 142 317T108 212Q117 206 123 196T130 168Q130 149 120 139T98 129Q82 129 71 143Q79 108 99 89T152 69Q184 69 203 85T222 139Z" />
<glyph unicode="t" glyph-name="t" horiz-adv-x="236" d="M147 652V500H224V465H147V160Q147 148 148 133T153 103T167 80T194 70Q221 70 245 97T284 179H321Q304 116 285 80T244 24T203 0T165 -6Q129 -6 106 7T70 42T52 88T47 139V465H13V500H47V638L147 652Z" />
<glyph unicode="u" glyph-name="u" horiz-adv-x="454" d="M384 500V160Q384 150 385 135T390 106T404 81T429 70Q478 70 501 179H538Q527 116 510 80T474 24T435 0T399 -6Q376 -6 360 2T332 23T313 53T302 88Q283 39 252 17T187 -6Q158 -6 132 2T87 28T57 76T46
149V500H146V160Q146 111 163 91T206 70Q220 70 234 77T259 99T277 133T284 179V500H384Z" />
<glyph unicode="v" glyph-name="v" horiz-adv-x="399" d="M368 337Q368 280 359 220T327 109T270 27T183 -6Q157 -6 133 3T89 29T58 72T46 131V500H146V160Q146 143 148 127T156 99T174 78T204 70Q235 70 256 92T290 151T310 231T316 320Q316 348 314 375T307
425Q302 420 294 419T281 417Q257 417 245 434T233 470Q233 490 246 505T284 521Q301 521 316 511T343 480T361 423T368 337Z" />
<glyph unicode="w" glyph-name="w" horiz-adv-x="623" d="M146 500V160Q146 111 163 91T206 70Q220 70 234 77T259 99T277 133T284 179V500H384V160Q384 143 386 127T394 99T412 78T442 70Q473 70 494 92T528 151T548 231T554 320Q554 348 552 375T545 425Q540
420 532 419T519 417Q495 417 483 434T471 470Q471 490 484 505T522 521Q539 521 554 511T581 480T599 423T606 337Q606 280 597 220T565 109T508 27T421 -6Q382 -6 347 14T295 72Q275 31 247 13T187 -6Q158 -6 132 2T87 28T57 76T46 149V500H146Z" />
<glyph unicode="x" glyph-name="x" horiz-adv-x="498" d="M352 275Q366 294 379 315T404 358T421 401T428 442Q428 447 428 451T427 459Q418 455 406 455Q384 455 368 469T351 508Q351 530 366 545T404 560Q433 560 453 535T473 461Q473 408 446 354T368 231L388
178Q406 129 424 100T468 70Q483 70 496 79T520 104T537 138T546 176H576Q571 117 554 82T514 27T468 1T429 -6Q384 -6 352 34T286 165L181 0H113L268 216L224 340Q206 391 194 410T168 430Q112 430 82 177H45Q51 207 56 243T69 315T86 386T111 446T148 489T199
505Q243 505 268 472T312 386L352 275Z" />
<glyph unicode="y" glyph-name="y" horiz-adv-x="454" d="M384 500V21Q409 29 428 39T462 66T486 110T501 179H538Q530 126 518 93T487 39T443 7T384 -15V-79Q384 -126 374 -158T347 -211T307 -241T259 -250Q209 -250 181 -222T153 -152Q153 -126 164 -105T194
-67T236 -36T284 -12V51Q264 22 239 8T187 -6Q158 -6 132 2T87 28T57 76T46 149V500H146V160Q146 111 163 91T206 70Q220 70 234 77T259 97T277 130T284 174V500H384ZM240 -198Q267 -198 275 -178T284 -122V-52Q234 -75 213 -97T192 -148Q192 -171 204 -184T240
-198Z" />
<glyph unicode="z" glyph-name="z" horiz-adv-x="414" d="M368 85Q360 87 355 95T350 111Q350 127 362 135T391 144Q413 144 431 129T449 85Q449 70 441 55T418 28T382 8T335 0H73L289 446H203Q181 446 164 444T146 432Q146 422 154 416T163 400Q163 389 151 379T118
369Q90 369 76 390T61 441Q61 467 83 483T164 500H412L198 70Q204 70 221 69T259 67T298 65T327 64Q345 64 355 70T368 85Z" />
<glyph unicode="{" glyph-name="braceleft" horiz-adv-x="257" d="M231 -236Q210 -242 187 -242Q152 -242 128 -228T90 -193T70 -147T64 -97Q64 -65 72 -31T91 36T109 101T118 162Q118 174 116 186T108 207T92 223T66 229Q53 229 35 226V282Q53 279 66 279Q82
279 92 285T108 300T116 322T118 346Q118 374 110 406T91 471T73 539T64 605Q64 629 70 654T90 701T128 736T187 750Q210 750 231 744V697Q223 698 216 699T201 701Q178 701 163 694T138 673T125 641T121 602Q121 566 129 530T148 459T166 389T175 324Q175 305
171 288T155 254Q166 238 170 221T175 184Q175 153 167 119T148 50T130 -22T121 -94Q121 -115 125 -133T138 -164T162 -185T201 -193Q208 -193 215 -192T231 -189V-236Z" />
<glyph unicode="|" glyph-name="bar" horiz-adv-x="195" d="M124 -250H71V751H124V-250Z" />
<glyph unicode="}" glyph-name="braceright" horiz-adv-x="257" d="M27 -189Q35 -190 42 -191T56 -193Q102 -193 119 -165T136 -94Q136 -58 128 -22T109 49T91 119T82 184Q82 203 86 220T102 254Q91 270 87 287T82 324Q82 355 90 389T109 458T127 530T136 602Q136
644 119 672T56 701Q49 701 42 700T26 697V744Q47 750 70 750Q105 750 128 736T166 701T187 655T193 605Q193 573 185 539T166 472T148 406T139 346Q139 334 141 322T149 301T165 285T191 279Q204 279 222 282V226Q204 229 191 229Q175 229 165 223T149 208T141
186T139 162Q139 133 147 102T166 37T184 -31T193 -97Q193 -121 187 -146T167 -193T129 -228T70 -242Q48 -242 27 -236V-189Z" />
<glyph unicode="~" glyph-name="asciitilde" horiz-adv-x="401" d="M375 671Q375 655 365 639T337 610T297 589T249 581Q227 581 207 586T167 597T128 609T91 614Q57 614 36 590L31 592Q44 636 77 658T162 680Q187 680 207 676T245 666T280 656T317 651Q334 651
348 656T370 671H375Z" />
<glyph unicode="&#xa1;" glyph-name="exclamdown" horiz-adv-x="226" d="M141 221L169 -248H57L88 221H141ZM178 391Q178 364 159 344T112 324Q85 324 65 344T45 391Q45 419 65 438T112 457Q140 457 159 438T178 391Z" />
<glyph unicode="&#xa2;" glyph-name="cent" horiz-adv-x="373" d="M341 255Q341 226 331 207T305 174T269 154T229 144L225 -27H198L195 143Q164 145 134 157T81 193T43 257T28 352Q28 387 35 427T60 504T108 566T186 600L184 718H242L239 600Q283 595 310 569T338
494Q338 472 330 457T303 441Q292 441 284 446T269 460Q277 466 281 479T285 507Q285 526 272 540T238 558L230 211H236Q268 211 294 223T341 255ZM123 364Q123 303 137 266T193 216L187 546Q170 534 158 514T138 469T127 417T123 364Z" />
<glyph unicode="&#xa3;" glyph-name="sterling" horiz-adv-x="472" d="M96 0L106 362Q94 365 81 365Q47 365 26 341L21 343Q41 411 108 426L117 719L214 741L204 425Q232 418 255 410T307 402Q324 402 338 407T360 422H365Q365 406 355 390T327 361T287 340T239
332Q218 332 202 336L193 58Q225 68 253 68T312 71T375 82T450 118Q451 111 451 105T451 93Q451 49 436 25T391 0H96Z" />
<glyph unicode="&#xa4;" glyph-name="currency" horiz-adv-x="457" d="M83 528L139 472Q180 502 230 502Q255 502 277 495T319 473L375 529L411 493L356 438Q386 397 386 346Q386 296 356 255L411 200L375 164L320 219Q301 205 279 198T230 190Q179 190 138 220L82
164L46 200L102 256Q88 275 81 297T73 345Q73 371 80 393T102 435L45 492L83 528ZM230 462Q206 462 185 453T148 428T123 391T114 346Q114 322 123 301T148 264T185 239T230 230Q254 230 275 239T312 264T337 301T346 346Q346 370 337 391T312 428T275 453T230
462Z" />
<glyph unicode="&#xa5;" glyph-name="yen" horiz-adv-x="501" d="M192 192V272H68V307H192L21 745H133L279 362L413 745H465L300 307H455V272H300V192H454V157H300V0H192V157H68V192H192Z" />
<glyph unicode="&#xa6;" glyph-name="brokenbar" horiz-adv-x="195" d="M124 222V-250H71V222H124ZM71 301V751H124V301H71Z" />
<glyph unicode="&#xa7;" glyph-name="section" horiz-adv-x="519" d="M436 640Q436 612 426 596T393 580Q385 580 375 583T354 596Q365 604 371 619T377 651Q377 679 357 701T295 723Q247 723 221 694T194 623Q194 585 216 559T271 511T344 469T416 421T472 359T494
271Q494 224 473 186T410 137Q412 129 413 120T414 101Q414 28 365 -13T226 -54Q207 -54 175 -50T113 -32T60 10T37 89Q37 116 44 137T64 173T91 194T121 202Q139 202 155 191T178 154Q143 151 133 135T122 93Q122 64 130 44T153 10T186 -9T226 -16Q242 -16 259
-12T290 4T314 33T323 81Q323 124 303 155T251 210T183 256T116 300T64 351T43 419Q43 457 63 487T118 533Q103 564 103 603Q103 641 117 668T158 714T218 741T294 750Q304 750 327 748T375 736T417 703T436 640ZM430 235Q430 267 415 291T374 337T317 376T253
412T191 452T140 500Q122 484 119 468T116 439Q116 421 133 404T176 370T236 333T300 289T358 237T400 172Q414 180 422 196T430 235Z" />
<glyph unicode="&#xa8;" glyph-name="dieresis" horiz-adv-x="392" d="M-65 645Q-65 667 -50 683T-12 699Q10 699 26 683T42 645Q42 622 26 607T-12 592Q-35 592 -50 607T-65 645ZM94 645Q94 667 109 683T147 699Q169 699 185 683T201 645Q201 622 185 607T147
592Q124 592 109 607T94 645Z" />
<glyph unicode="&#xa9;" glyph-name="copyright" horiz-adv-x="554" d="M136 336Q136 370 149 397T183 443T231 473T285 484Q324 484 358 461T408 389L371 375Q364 407 339 423T283 440Q258 440 239 431T206 408T187 375T180 337Q180 316 186 296T206 260T238
234T282 224Q305 224 329 235T371 273L405 250Q384 218 349 200T276 182Q246 182 220 194T176 228T147 277T136 336ZM277 76Q227 76 183 96T106 150T54 231T35 331Q35 385 54 431T106 512T183 567T277 587Q326 587 370 568T447 514T499 433T519 332Q519 278 500
232T447 151T370 96T277 76ZM61 331Q61 281 78 239T125 165T194 115T279 97Q323 97 362 115T431 164T478 238T496 331Q496 380 479 423T432 497T363 547T279 565Q234 565 195 547T126 498T79 423T61 331Z" />
<glyph unicode="&#xaa;" glyph-name="ordfeminine" horiz-adv-x="326" d="M253 740V559Q253 537 258 524T277 510Q280 510 284 510T293 512Q292 486 281 476T254 466Q230 466 219 477T204 512Q194 492 177 479T135 466Q118 466 102 473T71 495T49 534T40 594Q40
618 45 645T64 694T97 730T148 745Q161 745 175 739T198 718V740H253ZM152 509Q169 509 183 526T198 570V693Q193 701 185 707T166 714Q147 714 134 703T114 675T103 638T99 600Q99 548 114 529T152 509Z" />
<glyph unicode="&#xab;" glyph-name="guillemotleft" horiz-adv-x="514" d="M247 404L104 253L271 113L240 69L21 254L196 449L247 404ZM455 404L312 253L479 113L448 69L229 254L404 449L455 404Z" />
<glyph unicode="&#xac;" glyph-name="logicalnot" horiz-adv-x="453" d="M393 51H312V231H41V301H391L393 51Z" />
<glyph unicode="&#xad;" glyph-name="uni00AD" horiz-adv-x="319" d="M260 231H59V301H260V231Z" />
<glyph unicode="&#xae;" glyph-name="registered" horiz-adv-x="554" d="M277 79Q227 79 183 99T106 153T54 234T35 334Q35 388 54 434T106 515T183 570T277 590Q326 590 370 571T447 517T499 436T519 335Q519 281 500 235T447 154T370 99T277 79ZM61 334Q61 284
78 242T125 168T194 118T279 100Q323 100 362 118T431 167T478 241T496 334Q496 383 479 426T432 500T363 550T279 568Q234 568 195 550T126 501T79 426T61 334ZM186 483H284Q331 483 357 464T384 399Q384 368 369 349T327 322L390 197L353 191L291 315H221V192H185L186
483ZM221 350H287Q309 350 328 360T348 399Q348 425 329 435T285 445H221V350Z" />
<glyph unicode="&#xb0;" glyph-name="degree" horiz-adv-x="317" d="M161 702Q194 702 216 688T251 652T269 601T275 542Q275 513 269 483T249 429T213 390T157 374Q106 374 74 413T42 539Q42 574 50 604T73 655T110 689T161 702ZM98 535Q98 521 100 501T109 461T129
427T164 413Q179 413 190 423T208 450T220 491T224 542Q224 579 219 604T206 643T187 664T165 670Q149 670 137 660T116 631T103 588T98 535Z" />
<glyph unicode="&#xb1;" glyph-name="plusminus" horiz-adv-x="477" d="M423 351H279V208H198V351H56V421H198V543H280V421H423V351ZM421 77H53V147H421V77Z" />
<glyph unicode="&#xb2;" glyph-name="twosuperior" horiz-adv-x="344" d="M107 406Q139 406 167 400T222 394Q244 394 263 402T300 434Q302 427 305 419T309 393Q309 369 297 355T250 340Q234 340 216 343T181 349T147 355T117 358Q105 358 91 355T63 343Q60 350
57 357T54 376Q54 401 65 423T95 467T133 509T171 552T200 599T212 653Q212 689 195 706T152 723Q127 723 113 710T98 678Q98 667 104 656T124 635Q104 619 85 619Q66 619 54 635T41 673Q41 686 47 699T66 724T102 742T156 749Q222 749 248 721T274 648Q274 601
253 568T203 509T147 458T107 406Z" />
<glyph unicode="&#xb3;" glyph-name="threesuperior" horiz-adv-x="344" d="M135 488Q114 483 105 468T96 438Q96 406 115 390T161 373Q175 373 189 378T214 395T233 424T240 465Q240 492 231 510T207 540T177 559T148 571Q169 576 183 586T205 610T217 637T221
663Q221 695 202 710T159 725Q137 725 120 713T103 679Q103 668 107 658T128 640Q111 622 92 622Q73 622 62 638T51 675Q51 693 60 707T85 730T121 745T162 750Q183 750 203 745T239 730T264 703T274 664Q274 639 262 615T219 575Q245 568 262 556T290 529T305
499T309 469Q309 436 297 413T265 373T220 350T169 342Q145 342 122 348T81 368T52 400T41 444Q41 479 56 495T94 512Q105 512 115 507T135 488Z" />
<glyph unicode="&#xb4;" glyph-name="acute" horiz-adv-x="287" d="M43 750H128L47 561H-8L43 750Z" />
<glyph unicode="&#xb5;" glyph-name="mu" horiz-adv-x="454" d="M384 500V160Q384 150 385 135T390 106T404 81T429 70Q478 70 501 179H538Q527 116 510 80T474 24T435 0T399 -6Q376 -6 360 2T332 23T313 53T302 88Q283 39 252 17T187 -6Q176 -6 166 -5T146 -1V-142L46
-166V500H146V160Q146 111 163 91T206 70Q220 70 234 77T259 99T277 133T284 179V500H384Z" />
<glyph unicode="&#xb6;" glyph-name="paragraph" horiz-adv-x="517" d="M236 -81V286Q185 292 146 315T79 374T37 452T22 539Q22 578 34 616T70 683T133 731T223 749Q266 749 307 737T380 697T431 624T450 514V-81H377V304Q346 293 309 288V-81H236Z" />
<glyph unicode="&#xb7;" glyph-name="middot" horiz-adv-x="253" d="M44 267Q44 302 67 326T126 350Q161 350 185 326T209 267Q209 232 185 209T126 185Q91 185 68 208T44 267Z" />
<glyph unicode="&#xb8;" glyph-name="cedilla" horiz-adv-x="227" d="M252 -128Q252 -150 244 -166T222 -194T190 -212T153 -218Q115 -218 90 -210T40 -190Q45 -178 52 -168T73 -158Q83 -158 93 -162T113 -173T133 -183T154 -188Q173 -188 184 -176T195 -149Q195
-132 181 -115T135 -97Q112 -97 99 -104T78 -119L99 29L139 6L126 -66Q156 -58 177 -58Q252 -58 252 -128Z" />
<glyph unicode="&#xb9;" glyph-name="onesuperior" horiz-adv-x="195" d="M133 345H80V682H25L27 707Q47 707 78 716T133 749V345Z" />
<glyph unicode="&#xba;" glyph-name="ordmasculine" horiz-adv-x="301" d="M151 746Q184 746 204 727T233 673Q245 673 254 683T266 701L276 689Q272 671 264 657T240 634Q241 626 241 619T241 603Q241 574 235 549T218 505T191 476T152 465Q131 465 111 471T75
493T49 532T39 593Q39 616 44 642T62 692T96 730T151 746ZM165 507Q185 507 198 535T212 611Q212 616 212 620T211 629Q195 629 190 637T184 659Q184 670 189 676T202 685Q194 702 184 709T160 716Q143 716 132 705T113 675T102 636T98 595Q98 549 114 528T165
507Z" />
<glyph unicode="&#xbb;" glyph-name="guillemotright" horiz-adv-x="517" d="M268 114L411 265L244 405L275 449L494 264L319 69L268 114ZM60 114L203 265L36 405L67 449L286 264L111 69L60 114Z" />
<glyph unicode="&#xbc;" glyph-name="onequarter" horiz-adv-x="660" d="M206 0H146L393 750H453L206 0ZM130 303H77V640H22L24 665Q44 665 75 674T130 707V303ZM599 405V180H636L633 149H599V0H540V149H386Q388 167 396 190T412 238T427 289T434 340Q434 372
429 384T419 405Q428 405 439 401T459 387T475 365T482 333Q482 312 475 293T459 254T441 217T426 180H540V397L599 405Z" />
<glyph unicode="&#xbd;" glyph-name="onehalf" horiz-adv-x="670" d="M194 0H134L381 750H441L194 0ZM446 66Q478 66 506 60T561 54Q583 54 602 62T639 94Q641 87 644 79T648 53Q648 29 636 15T589 0Q573 0 555 3T520 9T486 15T456 18Q444 18 430 15T401 3Q397
9 395 16T393 36Q393 61 404 83T434 127T472 169T510 212T539 259T551 313Q551 349 534 366T491 383Q466 383 452 370T437 338Q437 327 443 316T463 295Q443 279 424 279Q405 279 393 295T380 333Q380 346 386 359T405 384T441 402T495 409Q561 409 587 381T613
308Q613 261 592 228T542 169T486 118T446 66ZM130 303H77V640H22L24 665Q44 665 75 674T130 707V303Z" />
<glyph unicode="&#xbe;" glyph-name="threequarters" horiz-adv-x="796" d="M323 0H263L510 750H570L323 0ZM123 445Q102 440 93 425T84 395Q84 363 103 347T149 330Q163 330 177 335T202 352T221 381T228 422Q228 449 219 467T195 497T165 516T136 528Q157 533
171 543T193 567T205 594T209 620Q209 652 190 667T147 682Q125 682 108 670T91 636Q91 625 95 615T116 597Q99 579 80 579Q61 579 50 595T39 632Q39 650 48 664T73 687T109 702T150 707Q171 707 191 702T227 687T252 660T262 621Q262 596 250 572T207 532Q233
525 250 513T278 486T293 456T297 426Q297 393 285 370T253 330T208 307T157 299Q133 299 110 305T69 325T40 357T29 401Q29 436 44 452T82 469Q93 469 103 464T123 445ZM737 405V180H774L771 149H737V0H678V149H524Q526 167 534 190T550 238T565 289T572 340Q572
372 567 384T557 405Q566 405 577 401T597 387T613 365T620 333Q620 312 613 293T597 254T579 217T564 180H678V397L737 405Z" />
<glyph unicode="&#xbf;" glyph-name="questiondown" horiz-adv-x="413" d="M30 -93Q30 -57 43 -29T77 22T121 67T165 111T200 160T217 221H263Q266 206 266 193Q266 152 244 120T195 55T146 -12T124 -94Q124 -124 133 -145T157 -178T191 -197T230 -203Q248 -203
264 -198T293 -182T314 -156T322 -123Q322 -101 302 -76T238 -44Q246 -23 263 -13T302 -2Q319 -2 336 -8T368 -28T390 -62T399 -108Q399 -132 390 -156T359 -201T304 -234T220 -247Q172 -247 137 -235T77 -202T42 -153T30 -93ZM306 392Q306 365 287 345T240 325Q213
325 193 345T173 392Q173 420 193 439T240 458Q268 458 287 439T306 392Z" />
<glyph unicode="&#xc0;" glyph-name="Agrave" horiz-adv-x="603" d="M447 0V360Q409 378 361 390T262 409Q250 365 240 319T223 227T212 138T208 55Q208 11 214 -31T243 -114Q220 -114 195 -109T149 -87T115 -37T101 51Q101 86 106 129T121 219T145 315T178 413Q149
412 124 408T80 397T50 379T39 357Q39 353 40 351Q66 343 66 318Q66 300 53 293T25 286Q0 286 -21 300T-43 351Q-43 375 -29 394T11 426T71 447T147 454Q158 454 170 454T194 452Q219 512 250 566T317 661T393 726T477 750Q492 750 514 747T557 736V0H447ZM272
442Q322 433 368 420T447 390V702Q422 700 398 680T352 624T309 543T272 442ZM459 811H404L303 1000H388L459 811Z" />
<glyph unicode="&#xc1;" glyph-name="Aacute" horiz-adv-x="603" d="M447 0V360Q409 378 361 390T262 409Q250 365 240 319T223 227T212 138T208 55Q208 11 214 -31T243 -114Q220 -114 195 -109T149 -87T115 -37T101 51Q101 86 106 129T121 219T145 315T178 413Q149
412 124 408T80 397T50 379T39 357Q39 353 40 351Q66 343 66 318Q66 300 53 293T25 286Q0 286 -21 300T-43 351Q-43 375 -29 394T11 426T71 447T147 454Q158 454 170 454T194 452Q219 512 250 566T317 661T393 726T477 750Q492 750 514 747T557 736V0H447ZM272
442Q322 433 368 420T447 390V702Q422 700 398 680T352 624T309 543T272 442ZM449 1000H534L453 811H398L449 1000Z" />
<glyph unicode="&#xc2;" glyph-name="Acircumflex" horiz-adv-x="603" d="M447 0V360Q409 378 361 390T262 409Q250 365 240 319T223 227T212 138T208 55Q208 11 214 -31T243 -114Q220 -114 195 -109T149 -87T115 -37T101 51Q101 86 106 129T121 219T145 315T178
413Q149 412 124 408T80 397T50 379T39 357Q39 353 40 351Q66 343 66 318Q66 300 53 293T25 286Q0 286 -21 300T-43 351Q-43 375 -29 394T11 426T71 447T147 454Q158 454 170 454T194 452Q219 512 250 566T317 661T393 726T477 750Q492 750 514 747T557 736V0H447ZM272
442Q322 433 368 420T447 390V702Q422 700 398 680T352 624T309 543T272 442ZM533 811L447 912L306 811H272L438 978H459L555 811H533Z" />
<glyph unicode="&#xc3;" glyph-name="Atilde" horiz-adv-x="603" d="M447 0V360Q409 378 361 390T262 409Q250 365 240 319T223 227T212 138T208 55Q208 11 214 -31T243 -114Q220 -114 195 -109T149 -87T115 -37T101 51Q101 86 106 129T121 219T145 315T178 413Q149
412 124 408T80 397T50 379T39 357Q39 353 40 351Q66 343 66 318Q66 300 53 293T25 286Q0 286 -21 300T-43 351Q-43 375 -29 394T11 426T71 447T147 454Q158 454 170 454T194 452Q219 512 250 566T317 661T393 726T477 750Q492 750 514 747T557 736V0H447ZM272
442Q322 433 368 420T447 390V702Q422 700 398 680T352 624T309 543T272 442ZM602 915Q602 899 592 883T564 854T524 833T476 825Q454 825 434 830T394 841T355 853T318 858Q284 858 263 834L258 836Q271 880 304 902T389 924Q414 924 434 920T472 910T507 900T544
895Q561 895 575 900T597 915H602Z" />
<glyph unicode="&#xc4;" glyph-name="Adieresis" horiz-adv-x="603" d="M447 0V360Q409 378 361 390T262 409Q250 365 240 319T223 227T212 138T208 55Q208 11 214 -31T243 -114Q220 -114 195 -109T149 -87T115 -37T101 51Q101 86 106 129T121 219T145 315T178
413Q149 412 124 408T80 397T50 379T39 357Q39 353 40 351Q66 343 66 318Q66 300 53 293T25 286Q0 286 -21 300T-43 351Q-43 375 -29 394T11 426T71 447T147 454Q158 454 170 454T194 452Q219 512 250 566T317 661T393 726T477 750Q492 750 514 747T557 736V0H447ZM272
442Q322 433 368 420T447 390V702Q422 700 398 680T352 624T309 543T272 442ZM457 895Q457 917 472 933T510 949Q532 949 548 933T564 895Q564 872 548 857T510 842Q487 842 472 857T457 895ZM298 895Q298 917 313 933T351 949Q373 949 389 933T405 895Q405 872
389 857T351 842Q328 842 313 857T298 895Z" />
<glyph unicode="&#xc5;" glyph-name="Aring" horiz-adv-x="603" d="M447 0V360Q409 378 361 390T262 409Q250 365 240 319T223 227T212 138T208 55Q208 11 214 -31T243 -114Q220 -114 195 -109T149 -87T115 -37T101 51Q101 86 106 129T121 219T145 315T178 413Q149
412 124 408T80 397T50 379T39 357Q39 353 40 351Q66 343 66 318Q66 300 53 293T25 286Q0 286 -21 300T-43 351Q-43 375 -29 394T11 426T71 447T147 454Q158 454 170 454T194 452Q219 512 250 566T317 661T393 726T477 750Q492 750 514 747T557 736V0H447ZM272
442Q322 433 368 420T447 390V702Q422 700 398 680T352 624T309 543T272 442ZM421 805Q380 805 359 830T338 886Q338 916 358 939T416 963Q436 963 450 956T475 937T489 910T494 880Q494 850 477 828T421 805ZM420 839Q439 839 448 852T458 882Q458 899 449 914T419
930Q399 930 389 916T378 885Q378 869 388 854T420 839Z" />
<glyph unicode="&#xc6;" glyph-name="AE" horiz-adv-x="833" d="M734 657Q703 657 672 664T610 679V413H757V354H610V70H830V0H500V360Q462 378 413 390T315 409Q289 321 275 229T261 55Q261 11 267 -31T296 -114Q272 -114 247 -109T202 -86T168 -35T154 56Q154
89 159 131T173 219T197 315T230 413Q201 412 176 408T132 397T103 379T92 357Q92 353 93 351Q119 343 119 319Q119 299 106 293T77 286Q65 286 54 289T32 300T16 320T10 349Q10 374 24 393T64 426T124 447T200 454Q211 454 222 454T246 452Q271 512 303 566T372
661T451 726T540 750Q558 750 580 747T625 741T670 734T711 731Q724 731 739 732T770 737T799 743T822 750Q820 720 813 702T793 674T766 661T734 657ZM325 442Q375 433 421 420T500 390V701Q474 697 450 675T403 619T361 539T325 442Z" />
<glyph unicode="&#xc7;" glyph-name="Ccedilla" horiz-adv-x="507" d="M461 -128Q461 -150 453 -166T431 -194T399 -212T362 -218Q324 -218 299 -210T249 -190Q254 -178 261 -168T282 -158Q292 -158 302 -162T322 -173T342 -183T363 -188Q382 -188 393 -176T404
-149Q404 -132 390 -115T344 -97Q321 -97 308 -104T287 -119L301 -15Q181 -9 115 82T48 350Q48 419 60 490T102 618T182 713T310 750Q348 750 382 740T441 711T482 662T497 594Q497 562 485 543T444 524Q430 524 418 528T397 542Q406 549 413 571T421 621Q421 669
398 691T337 714Q292 714 260 685T206 606T176 495T166 367Q166 285 180 227T221 132T287 78T378 60Q443 60 486 88T556 180L581 170Q557 85 494 38T344 -15L335 -66Q365 -58 386 -58Q461 -58 461 -128Z" />
<glyph unicode="&#xc8;" glyph-name="Egrave" horiz-adv-x="447" d="M521 170Q507 125 480 90T417 31T339 -5T254 -18Q197 -18 157 2T91 55T53 127T41 209Q41 283 76 337T176 417Q128 447 107 486T86 568Q86 601 98 634T135 693T196 735T283 752Q310 752 337 746T387
726T422 687T436 625Q436 587 421 565T381 543Q354 543 328 570Q342 576 355 594T369 642Q369 661 362 674T344 697T318 710T289 714Q262 714 241 702T206 671T185 627T177 577Q177 566 179 544T193 497T227 450T289 418Q223 403 188 351T152 226Q152 154 190 108T309
61Q345 61 375 70T429 96T470 134T496 180L521 170ZM308 811H253L152 1000H237L308 811Z" />
<glyph unicode="&#xc9;" glyph-name="Eacute" horiz-adv-x="447" d="M521 170Q507 125 480 90T417 31T339 -5T254 -18Q197 -18 157 2T91 55T53 127T41 209Q41 283 76 337T176 417Q128 447 107 486T86 568Q86 601 98 634T135 693T196 735T283 752Q310 752 337 746T387
726T422 687T436 625Q436 587 421 565T381 543Q354 543 328 570Q342 576 355 594T369 642Q369 661 362 674T344 697T318 710T289 714Q262 714 241 702T206 671T185 627T177 577Q177 566 179 544T193 497T227 450T289 418Q223 403 188 351T152 226Q152 154 190 108T309
61Q345 61 375 70T429 96T470 134T496 180L521 170ZM302 1000H387L306 811H251L302 1000Z" />
<glyph unicode="&#xca;" glyph-name="Ecircumflex" horiz-adv-x="447" d="M521 170Q507 125 480 90T417 31T339 -5T254 -18Q197 -18 157 2T91 55T53 127T41 209Q41 283 76 337T176 417Q128 447 107 486T86 568Q86 601 98 634T135 693T196 735T283 752Q310 752
337 746T387 726T422 687T436 625Q436 587 421 565T381 543Q354 543 328 570Q342 576 355 594T369 642Q369 661 362 674T344 697T318 710T289 714Q262 714 241 702T206 671T185 627T177 577Q177 566 179 544T193 497T227 450T289 418Q223 403 188 351T152 226Q152
154 190 108T309 61Q345 61 375 70T429 96T470 134T496 180L521 170ZM397 811L311 912L170 811H136L302 978H323L419 811H397Z" />
<glyph unicode="&#xcb;" glyph-name="Edieresis" horiz-adv-x="447" d="M521 170Q507 125 480 90T417 31T339 -5T254 -18Q197 -18 157 2T91 55T53 127T41 209Q41 283 76 337T176 417Q128 447 107 486T86 568Q86 601 98 634T135 693T196 735T283 752Q310 752 337
746T387 726T422 687T436 625Q436 587 421 565T381 543Q354 543 328 570Q342 576 355 594T369 642Q369 661 362 674T344 697T318 710T289 714Q262 714 241 702T206 671T185 627T177 577Q177 566 179 544T193 497T227 450T289 418Q223 403 188 351T152 226Q152 154
190 108T309 61Q345 61 375 70T429 96T470 134T496 180L521 170ZM128 895Q128 917 143 933T181 949Q203 949 219 933T235 895Q235 872 219 857T181 842Q158 842 143 857T128 895ZM287 895Q287 917 302 933T340 949Q362 949 378 933T394 895Q394 872 378 857T340
842Q317 842 302 857T287 895Z" />
<glyph unicode="&#xcc;" glyph-name="Igrave" horiz-adv-x="403" d="M357 0H247V691Q180 672 141 626T102 511Q102 484 106 466T116 434T130 411T148 393Q88 393 53 420T18 514Q18 562 43 604T109 679T204 731T315 750Q326 750 336 750T357 748V0ZM326 811H271L170
1000H255L326 811Z" />
<glyph unicode="&#xcd;" glyph-name="Iacute" horiz-adv-x="403" d="M357 0H247V691Q180 672 141 626T102 511Q102 484 106 466T116 434T130 411T148 393Q88 393 53 420T18 514Q18 562 43 604T109 679T204 731T315 750Q326 750 336 750T357 748V0ZM323 1000H408L327
811H272L323 1000Z" />
<glyph unicode="&#xce;" glyph-name="Icircumflex" horiz-adv-x="403" d="M357 0H247V691Q180 672 141 626T102 511Q102 484 106 466T116 434T130 411T148 393Q88 393 53 420T18 514Q18 562 43 604T109 679T204 731T315 750Q326 750 336 750T357 748V0ZM417 811L331
912L190 811H156L322 978H343L439 811H417Z" />
<glyph unicode="&#xcf;" glyph-name="Idieresis" horiz-adv-x="403" d="M357 0H247V691Q180 672 141 626T102 511Q102 484 106 466T116 434T130 411T148 393Q88 393 53 420T18 514Q18 562 43 604T109 679T204 731T315 750Q326 750 336 750T357 748V0ZM327 895Q327
917 342 933T380 949Q402 949 418 933T434 895Q434 872 418 857T380 842Q357 842 342 857T327 895ZM168 895Q168 917 183 933T221 949Q243 949 259 933T275 895Q275 872 259 857T221 842Q198 842 183 857T168 895Z" />
<glyph unicode="&#xd0;" glyph-name="Eth" horiz-adv-x="705" d="M94 507Q94 478 100 458T115 425T133 405T149 393Q88 393 53 421T18 515Q18 561 42 604T108 679T208 730T334 750Q430 750 496 718T603 632T662 509T680 367Q680 296 666 228T626 107T565 20T488
-13Q458 -13 424 1T350 45V0H242V352H178V413H242V641L350 656V413H432V352H350V78Q369 64 386 58T420 52Q459 52 485 80T529 154T553 256T561 366Q561 459 548 525T506 633T431 694T320 714Q275 714 234 700T162 660T113 595T94 507Z" />
<glyph unicode="&#xd1;" glyph-name="Ntilde" horiz-adv-x="709" d="M663 748V0H529L278 563V0H211V689Q156 670 125 629T94 520Q94 489 99 468T111 432T126 408T142 393Q79 393 50 423T20 522Q20 563 36 603T83 676T155 729T248 750Q265 750 283 747T318 736L596
94V748H663ZM603 915Q603 899 593 883T565 854T525 833T477 825Q455 825 435 830T395 841T356 853T319 858Q285 858 264 834L259 836Q272 880 305 902T390 924Q415 924 435 920T473 910T508 900T545 895Q562 895 576 900T598 915H603Z" />
<glyph unicode="&#xd2;" glyph-name="Ograve" horiz-adv-x="702" d="M393 656Q368 641 349 604T316 517T297 413T290 306Q290 273 294 232T310 155T346 95T407 70Q448 70 476 98T521 173T547 279T555 399Q555 496 538 557T491 654T424 701T342 714Q292 714 249
700T173 658T122 588T103 490Q103 461 107 443T116 415T126 399T134 393Q80 393 49 420T18 504Q18 555 44 600T117 678T225 730T358 750Q450 750 511 718T609 634T661 514T676 374Q676 308 664 241T620 118T538 29T410 -6Q360 -6 316 11T239 67T187 169T167 324Q167
381 176 441T205 550T258 632T342 664Q353 664 366 663T393 656ZM451 811H396L295 1000H380L451 811Z" />
<glyph unicode="&#xd3;" glyph-name="Oacute" horiz-adv-x="702" d="M393 656Q368 641 349 604T316 517T297 413T290 306Q290 273 294 232T310 155T346 95T407 70Q448 70 476 98T521 173T547 279T555 399Q555 496 538 557T491 654T424 701T342 714Q292 714 249
700T173 658T122 588T103 490Q103 461 107 443T116 415T126 399T134 393Q80 393 49 420T18 504Q18 555 44 600T117 678T225 730T358 750Q450 750 511 718T609 634T661 514T676 374Q676 308 664 241T620 118T538 29T410 -6Q360 -6 316 11T239 67T187 169T167 324Q167
381 176 441T205 550T258 632T342 664Q353 664 366 663T393 656ZM435 1000H520L439 811H384L435 1000Z" />
<glyph unicode="&#xd4;" glyph-name="Ocircumflex" horiz-adv-x="702" d="M393 656Q368 641 349 604T316 517T297 413T290 306Q290 273 294 232T310 155T346 95T407 70Q448 70 476 98T521 173T547 279T555 399Q555 496 538 557T491 654T424 701T342 714Q292 714
249 700T173 658T122 588T103 490Q103 461 107 443T116 414T126 399T134 393Q80 393 49 420T18 504Q18 555 44 600T117 678T225 730T358 750Q450 750 511 718T609 634T661 514T676 374Q676 308 664 241T620 118T538 29T410 -6Q360 -6 316 11T239 67T187 169T167
324Q167 381 176 441T205 550T258 632T342 664Q353 664 366 663T393 656ZM530 811L444 912L303 811H269L435 978H456L552 811H530Z" />
<glyph unicode="&#xd5;" glyph-name="Otilde" horiz-adv-x="702" d="M393 656Q368 641 349 604T316 517T297 413T290 306Q290 273 294 232T310 155T346 95T407 70Q448 70 476 98T521 173T547 279T555 399Q555 496 538 557T491 654T424 701T342 714Q292 714 249
700T173 658T122 588T103 490Q103 461 107 443T116 415T126 399T134 393Q80 393 49 420T18 504Q18 555 44 600T117 678T225 730T358 750Q450 750 511 718T609 634T661 514T676 374Q676 308 664 241T620 118T538 29T410 -6Q360 -6 316 11T239 67T187 169T167 324Q167
381 176 441T205 550T258 632T342 664Q353 664 366 663T393 656ZM579 915Q579 899 569 883T541 854T501 833T453 825Q431 825 411 830T371 841T332 853T295 858Q261 858 240 834L235 836Q248 880 281 902T366 924Q391 924 411 920T449 910T484 900T521 895Q538
895 552 900T574 915H579Z" />
<glyph unicode="&#xd6;" glyph-name="Odieresis" horiz-adv-x="702" d="M393 656Q368 641 349 604T316 517T297 413T290 306Q290 273 294 232T310 155T346 95T407 70Q448 70 476 98T521 173T547 279T555 399Q555 496 538 557T491 654T424 701T342 714Q292 714
249 700T173 658T122 588T103 490Q103 462 107 444T116 415T126 399T134 393Q80 393 49 420T18 504Q18 555 44 600T117 678T225 730T358 750Q450 750 511 718T609 634T661 514T676 374Q676 308 664 241T620 118T538 29T410 -6Q360 -6 316 11T239 67T187 169T167
324Q167 381 176 441T205 550T258 632T342 664Q353 664 366 663T393 656ZM282 895Q282 917 297 933T335 949Q357 949 373 933T389 895Q389 872 373 857T335 842Q312 842 297 857T282 895ZM441 895Q441 917 456 933T494 949Q516 949 532 933T548 895Q548 872 532
857T494 842Q471 842 456 857T441 895Z" />
<glyph unicode="&#xd7;" glyph-name="multiply" horiz-adv-x="387" d="M294 114L199 208L93 102L45 150L151 256L42 366L93 418L202 307L298 403L346 355L250 259L344 166L294 114Z" />
<glyph unicode="&#xd8;" glyph-name="Oslash" horiz-adv-x="690" d="M391 656Q366 641 347 604T314 517T295 413T288 306Q288 273 291 233T306 158T340 97T399 70V707Q372 714 340 714Q290 714 247 700T171 658T120 588T101 490Q101 462 105 444T114 416T124 400T132
393Q78 393 47 420T16 504Q16 555 42 600T115 678T223 730T356 750Q367 750 377 750T399 748V753H431V743Q500 730 547 695T622 610T662 499T674 374Q674 311 662 246T622 127T547 37T431 -5V-71H399V-6Q350 -5 308 13T234 71T184 172T165 324Q165 381 174 441T203
550T256 632T340 664Q351 664 364 663T391 656ZM553 399Q553 469 544 520T519 606T480 663T431 697V73Q464 83 487 114T525 190T546 289T553 399Z" />
<glyph unicode="&#xd9;" glyph-name="Ugrave" horiz-adv-x="770" d="M725 748V206Q725 178 717 141T682 71T609 16T484 -7Q407 -7 361 15T289 70T256 139T247 205V707Q172 690 131 639T90 506Q90 477 95 458T106 425T118 405T126 394Q106 394 86 401T51 423T26
460T16 513Q16 561 41 604T108 679T206 731T323 750Q334 750 344 749T370 745V207Q370 162 380 135T408 93T447 75T492 70Q515 70 537 74T576 93T604 135T615 209V748H725ZM516 811H461L360 1000H445L516 811Z" />
<glyph unicode="&#xda;" glyph-name="Uacute" horiz-adv-x="770" d="M725 748V206Q725 178 717 141T682 71T609 16T484 -7Q407 -7 361 15T289 70T256 139T247 205V707Q172 690 131 639T90 506Q90 477 95 458T106 425T118 405T126 394Q106 394 86 401T51 423T26
460T16 513Q16 561 41 604T108 679T206 731T323 750Q334 750 344 749T370 745V207Q370 162 380 135T408 93T447 75T492 70Q515 70 537 74T576 93T604 135T615 209V748H725ZM505 1000H590L509 811H454L505 1000Z" />
<glyph unicode="&#xdb;" glyph-name="Ucircumflex" horiz-adv-x="770" d="M725 748V206Q725 178 717 141T682 71T609 16T484 -7Q407 -7 361 15T289 70T256 139T247 205V707Q172 690 131 639T90 506Q90 477 95 458T106 425T118 405T126 394Q106 394 86 401T51 423T26
460T16 513Q16 561 41 604T108 679T206 731T323 750Q334 750 344 749T370 745V207Q370 162 380 135T408 93T447 75T492 70Q515 70 537 74T576 93T604 135T615 209V748H725ZM611 811L525 912L384 811H350L516 978H537L633 811H611Z" />
<glyph unicode="&#xdc;" glyph-name="Udieresis" horiz-adv-x="770" d="M725 748V206Q725 178 717 141T682 71T609 16T484 -7Q407 -7 361 15T289 70T256 139T247 205V707Q172 690 131 639T90 506Q90 477 95 458T106 425T118 405T126 394Q106 394 86 401T51 423T26
460T16 513Q16 561 41 604T108 679T206 731T323 750Q334 750 344 749T370 745V207Q370 162 380 135T408 93T447 75T492 70Q515 70 537 74T576 93T604 135T615 209V748H725ZM517 895Q517 917 532 933T570 949Q592 949 608 933T624 895Q624 872 608 857T570 842Q547
842 532 857T517 895ZM358 895Q358 917 373 933T411 949Q433 949 449 933T465 895Q465 872 449 857T411 842Q388 842 373 857T358 895Z" />
<glyph unicode="&#xdd;" glyph-name="Yacute" horiz-adv-x="608" d="M358 0V308L201 714Q166 705 144 686T107 641T88 587T82 530Q82 451 132 393Q79 393 50 423T20 524Q20 570 36 611T84 683T159 732T259 750Q270 750 280 750T300 748L445 364L574 745H626L466
308V0H358ZM460 1000H545L464 811H409L460 1000Z" />
<glyph unicode="&#xde;" glyph-name="Thorn" horiz-adv-x="600" d="M325 749V640H329Q392 640 442 623T526 575T579 504T598 417Q598 376 583 333T538 255T464 198T360 175Q358 175 347 175T325 176V0H216V590Q157 570 124 522T91 397Q91 367 96 347T107 315T118
297T126 286Q75 286 47 316T18 401Q18 439 32 474T73 538T136 589T216 624V734L325 749ZM513 412Q513 444 505 477T476 537T419 583T325 604V205H347Q386 205 417 222T469 267T502 333T513 412Z" />
<glyph unicode="&#xdf;" glyph-name="germandbls" horiz-adv-x="450" d="M163 -214L53 -250V530Q53 584 66 617T101 668T148 693T199 700Q280 700 323 660T367 546Q367 511 351 478T302 427Q375 404 407 349T440 209Q440 154 427 115T393 50T347 12T300 0Q292
0 284 0T267 2V41Q296 41 315 57T345 98T362 154T367 215Q367 298 334 343T234 403L238 441Q280 451 299 482T318 547Q318 592 296 616T244 640Q214 640 189 612T163 530V-214Z" />
<glyph unicode="&#xe0;" glyph-name="agrave" horiz-adv-x="485" d="M415 500V160Q415 150 416 135T421 106T435 81T460 70Q509 70 532 179H569Q558 116 541 80T505 24T466 0T430 -6Q407 -6 391 2T363 23T344 53T333 89Q318 50 285 22T203 -6Q173 -6 143 6T88
45T48 116T32 223Q32 269 42 319T76 410T135 478T222 505Q234 505 247 503T273 494T297 478T315 452V500H415ZM228 70Q243 70 258 78T286 101T307 136T315 179V407Q308 423 294 436T256 450Q224 450 201 429T164 375T144 304T137 230Q137 144 160 107T228 70ZM277
561H222L121 750H206L277 561Z" />
<glyph unicode="&#xe1;" glyph-name="aacute" horiz-adv-x="485" d="M415 500V160Q415 150 416 135T421 106T435 81T460 70Q509 70 532 179H569Q558 116 541 80T505 24T466 0T430 -6Q407 -6 391 2T363 23T344 53T333 89Q318 50 285 22T203 -6Q173 -6 143 6T88
45T48 116T32 223Q32 269 42 319T76 410T135 478T222 505Q234 505 247 503T273 494T297 478T315 452V500H415ZM228 70Q243 70 258 78T286 101T307 136T315 179V407Q308 423 294 436T256 450Q224 450 201 429T164 375T144 304T137 230Q137 144 160 107T228 70ZM256
750H341L260 561H205L256 750Z" />
<glyph unicode="&#xe2;" glyph-name="acircumflex" horiz-adv-x="485" d="M415 500V160Q415 150 416 135T421 106T435 81T460 70Q509 70 532 179H569Q558 116 541 80T505 24T466 0T430 -6Q407 -6 391 2T363 23T344 53T333 89Q318 50 285 22T203 -6Q173 -6 143
6T88 45T48 116T32 223Q32 269 42 319T76 410T135 478T222 505Q234 505 247 503T273 494T297 478T315 452V500H415ZM228 70Q243 70 258 78T286 101T307 136T315 179V407Q308 423 294 436T256 450Q224 450 201 429T164 375T144 304T137 230Q137 144 160 107T228
70ZM359 561L273 662L132 561H98L264 728H285L381 561H359Z" />
<glyph unicode="&#xe3;" glyph-name="atilde" horiz-adv-x="485" d="M415 500V160Q415 150 416 135T421 106T435 81T460 70Q509 70 532 179H569Q558 116 541 80T505 24T466 0T430 -6Q407 -6 391 2T363 23T344 53T333 89Q318 50 285 22T203 -6Q173 -6 143 6T88
45T48 116T32 223Q32 269 42 319T76 410T135 478T222 505Q234 505 247 503T273 494T297 478T315 452V500H415ZM228 70Q243 70 258 78T286 101T307 136T315 179V407Q308 423 294 436T256 450Q224 450 201 429T164 375T144 304T137 230Q137 144 160 107T228 70ZM411
665Q411 649 401 633T373 604T333 583T285 575Q263 575 243 580T203 591T164 603T127 608Q93 608 72 584L67 586Q80 630 113 652T198 674Q223 674 243 670T281 660T316 650T353 645Q370 645 384 650T406 665H411Z" />
<glyph unicode="&#xe4;" glyph-name="adieresis" horiz-adv-x="485" d="M415 500V160Q415 150 416 135T421 106T435 81T460 70Q509 70 532 179H569Q558 116 541 80T505 24T466 0T430 -6Q407 -6 391 2T363 23T344 53T333 89Q318 50 285 22T203 -6Q173 -6 143 6T88
45T48 116T32 223Q32 269 42 319T76 410T135 478T222 505Q234 505 247 503T273 494T297 478T315 452V500H415ZM228 70Q243 70 258 78T286 101T307 136T315 179V407Q308 423 294 436T256 450Q224 450 201 429T164 375T144 304T137 230Q137 144 160 107T228 70ZM126
645Q126 667 141 683T179 699Q201 699 217 683T233 645Q233 622 217 607T179 592Q156 592 141 607T126 645ZM285 645Q285 667 300 683T338 699Q360 699 376 683T392 645Q392 622 376 607T338 592Q315 592 300 607T285 645Z" />
<glyph unicode="&#xe5;" glyph-name="aring" horiz-adv-x="485" d="M415 500V160Q415 150 416 135T421 106T435 81T460 70Q509 70 532 179H569Q558 116 541 80T505 24T466 0T430 -6Q407 -6 391 2T363 23T344 53T333 89Q318 50 285 22T203 -6Q173 -6 143 6T88 45T48
116T32 223Q32 269 42 319T76 410T135 478T222 505Q234 505 247 503T273 494T297 478T315 452V500H415ZM228 70Q243 70 258 78T286 101T307 136T315 179V407Q308 423 294 436T256 450Q224 450 201 429T164 375T144 304T137 230Q137 144 160 107T228 70ZM265 555Q224
555 203 580T182 636Q182 666 202 689T260 713Q280 713 294 706T319 687T333 660T338 630Q338 600 321 578T265 555ZM264 589Q283 589 292 602T302 632Q302 649 293 664T263 680Q243 680 233 666T222 635Q222 619 232 604T264 589Z" />
<glyph unicode="&#xe6;" glyph-name="ae" horiz-adv-x="617" d="M71 427Q100 465 134 485T223 505Q255 505 289 494T361 459Q381 477 410 491T475 505Q500 505 523 499T566 478T596 437T608 371Q608 302 553 261T396 212Q403 138 428 104T510 70Q558 70 600 95T668
179H700Q688 142 667 109T618 50T554 9T478 -6Q432 -6 393 16T327 89Q321 70 313 53T290 22T256 2T205 -6Q179 -6 151 1T100 26T61 76T46 158Q46 194 60 219T100 260T161 283T237 290Q259 290 273 289T299 286Q302 298 303 315T305 345Q305 367 300 387T283 423T254
448T214 457Q169 457 146 440T105 398L71 427ZM494 456Q466 456 447 439T416 392T399 327T393 251Q464 259 504 294T544 385Q544 423 531 439T494 456ZM303 238Q292 240 283 240T263 240Q211 240 181 220T151 153Q151 114 171 92T224 70Q252 70 268 89T291 134T301
189T303 238Z" />
<glyph unicode="&#xe7;" glyph-name="ccedilla" horiz-adv-x="364" d="M386 -128Q386 -150 378 -166T356 -194T324 -212T287 -218Q249 -218 224 -210T174 -190Q179 -178 186 -168T207 -158Q217 -158 227 -162T247 -173T267 -183T288 -188Q307 -188 318 -176T329
-149Q329 -132 315 -115T269 -97Q246 -97 233 -104T212 -119L228 -6Q193 -6 159 6T97 45T52 117T35 227Q35 269 42 317T70 407T127 477T220 505Q283 505 316 475T349 385Q349 360 340 343T310 326Q288 326 273 347Q281 354 285 369T290 399Q290 422 276 437T235
452Q208 452 190 432T161 382T146 314T141 240Q141 187 150 154T176 103T213 77T259 70Q312 70 348 96T411 179H445Q435 148 418 119T378 66T329 25T272 0L260 -66Q290 -58 311 -58Q386 -58 386 -128Z" />
<glyph unicode="&#xe8;" glyph-name="egrave" horiz-adv-x="368" d="M359 375Q359 305 302 258T142 200Q146 160 156 135T182 96T216 76T257 70Q305 70 347 95T415 179H447Q434 142 411 109T357 50T290 9T216 -6Q181 -6 149 6T91 45T51 117T35 225Q35 267 44 316T76
407T135 477T226 505Q251 505 274 500T317 480T347 440T359 375ZM141 239Q212 250 253 289T295 385Q295 423 282 439T245 456Q219 456 200 436T167 385T148 315T141 239ZM248 561H193L92 750H177L248 561Z" />
<glyph unicode="&#xe9;" glyph-name="eacute" horiz-adv-x="368" d="M359 375Q359 305 302 258T142 200Q146 160 156 135T182 96T216 76T257 70Q305 70 347 95T415 179H447Q434 142 411 109T357 50T290 9T216 -6Q181 -6 149 6T91 45T51 117T35 225Q35 267 44 316T76
407T135 477T226 505Q251 505 274 500T317 480T347 440T359 375ZM141 239Q212 250 253 289T295 385Q295 423 282 439T245 456Q219 456 200 436T167 385T148 315T141 239ZM252 750H337L256 561H201L252 750Z" />
<glyph unicode="&#xea;" glyph-name="ecircumflex" horiz-adv-x="368" d="M359 375Q359 305 302 258T142 200Q146 160 156 135T182 96T216 76T257 70Q305 70 347 95T415 179H447Q434 142 411 109T357 50T290 9T216 -6Q181 -6 149 6T91 45T51 117T35 225Q35 267
44 316T76 407T135 477T226 505Q251 505 274 500T317 480T347 440T359 375ZM141 239Q212 250 253 289T295 385Q295 423 282 439T245 456Q219 456 200 436T167 385T148 315T141 239ZM339 561L253 662L112 561H78L244 728H265L361 561H339Z" />
<glyph unicode="&#xeb;" glyph-name="edieresis" horiz-adv-x="368" d="M359 375Q359 305 302 258T142 200Q146 160 156 135T182 96T216 76T257 70Q305 70 347 95T415 179H447Q434 142 411 109T357 50T290 9T216 -6Q181 -6 149 6T91 45T51 117T35 225Q35 267 44
316T76 407T135 477T226 505Q251 505 274 500T317 480T347 440T359 375ZM141 239Q212 250 253 289T295 385Q295 423 282 439T245 456Q219 456 200 436T167 385T148 315T141 239ZM89 645Q89 667 104 683T142 699Q164 699 180 683T196 645Q196 622 180 607T142 592Q119
592 104 607T89 645ZM248 645Q248 667 263 683T301 699Q323 699 339 683T355 645Q355 622 339 607T301 592Q278 592 263 607T248 645Z" />
<glyph unicode="&#xec;" glyph-name="igrave" horiz-adv-x="217" d="M147 500V160Q147 150 148 135T153 106T167 81T192 70Q241 70 264 179H301Q290 116 273 80T237 24T198 0T162 -6Q127 -6 105 7T70 42T52 89T47 139V500H147ZM121 561H66L-35 750H50L121 561Z" />
<glyph unicode="&#xed;" glyph-name="iacute" horiz-adv-x="217" d="M147 500V160Q147 150 148 135T153 106T167 81T192 70Q241 70 264 179H301Q290 116 273 80T237 24T198 0T162 -6Q127 -6 105 7T70 42T52 89T47 139V500H147ZM120 750H205L124 561H69L120 750Z" />
<glyph unicode="&#xee;" glyph-name="icircumflex" horiz-adv-x="217" d="M147 500V160Q147 150 148 135T153 106T167 81T192 70Q241 70 264 179H301Q290 116 273 80T237 24T198 0T162 -6Q127 -6 105 7T70 42T52 89T47 139V500H147ZM223 561L137 662L-4 561H-38L128
728H149L245 561H223Z" />
<glyph unicode="&#xef;" glyph-name="idieresis" horiz-adv-x="217" d="M147 500V160Q147 150 148 135T153 106T167 81T192 70Q241 70 264 179H301Q290 116 273 80T237 24T198 0T162 -6Q127 -6 105 7T70 42T52 89T47 139V500H147ZM-36 645Q-36 667 -21 683T17
699Q39 699 55 683T71 645Q71 622 55 607T17 592Q-6 592 -21 607T-36 645ZM123 645Q123 667 138 683T176 699Q198 699 214 683T230 645Q230 622 214 607T176 592Q153 592 138 607T123 645Z" />
<glyph unicode="&#xf0;" glyph-name="eth" horiz-adv-x="485" d="M299 613Q290 636 276 656T238 700H273Q305 682 328 666T368 632L440 652L446 622L388 606Q402 582 408 552T415 477V160Q415 150 416 135T421 106T435 81T460 70Q509 70 532 179H569Q558 116 541
80T505 24T466 0T430 -6Q407 -6 391 2T363 23T344 53T333 89Q318 50 285 22T203 -6Q173 -6 143 6T88 45T48 116T32 223Q32 269 42 319T76 410T135 478T222 505Q234 505 247 503T273 494T297 478T315 452V507Q315 553 308 584L238 565L232 595L299 613ZM315 407Q308
423 294 436T256 450Q224 450 201 429T164 375T144 304T137 230Q137 144 160 107T228 70Q243 70 258 78T286 101T307 136T315 179V407Z" />
<glyph unicode="&#xf1;" glyph-name="ntilde" horiz-adv-x="467" d="M146 500V424Q161 451 176 467T208 492T238 502T266 505Q311 505 338 488T380 445T398 387T403 326Q403 308 402 287T400 243T398 198T397 156Q397 148 398 134T403 105T416 81T442 70Q465 70
483 96T514 179H551Q540 116 523 80T487 24T449 0T414 -6Q382 -6 360 6T324 40T304 89T297 147Q297 156 297 180T298 233T299 286T300 321Q300 353 295 374T281 407T261 424T236 429Q205 429 183 404T146 320V0H46V500H146ZM408 665Q408 649 398 633T370 604T330
583T282 575Q260 575 240 580T200 591T161 603T124 608Q90 608 69 584L64 586Q77 630 110 652T195 674Q220 674 240 670T278 660T313 650T350 645Q367 645 381 650T403 665H408Z" />
<glyph unicode="&#xf2;" glyph-name="ograve" horiz-adv-x="419" d="M229 505Q268 505 296 493T342 460T370 409T386 347H392Q434 347 469 364T529 407L544 380Q524 348 481 327T391 298Q391 288 391 278T392 257Q392 134 347 64T221 -6Q188 -6 155 6T94 46T51
118T34 227Q34 271 43 320T75 410T135 478T229 505ZM239 70Q292 70 317 122T342 271Q342 277 342 283T341 295Q312 297 300 308T287 345Q287 368 297 377T327 388Q315 423 297 436T255 450Q224 450 203 430T168 377T148 307T142 231Q142 182 151 151T174 102T205
77T239 70ZM270 561H215L114 750H199L270 561Z" />
<glyph unicode="&#xf3;" glyph-name="oacute" horiz-adv-x="419" d="M229 505Q268 505 296 493T342 460T370 409T386 347H392Q434 347 469 364T529 407L544 380Q524 348 481 327T391 298Q391 288 391 278T392 257Q392 134 347 64T221 -6Q188 -6 155 6T94 46T51
118T34 227Q34 271 43 320T75 410T135 478T229 505ZM239 70Q292 70 317 122T342 271Q342 277 342 283T341 295Q312 297 300 308T287 345Q287 368 297 377T327 388Q315 423 297 436T255 450Q224 450 203 430T168 377T148 307T142 231Q142 182 151 151T174 102T205
77T239 70ZM260 750H345L264 561H209L260 750Z" />
<glyph unicode="&#xf4;" glyph-name="ocircumflex" horiz-adv-x="419" d="M229 505Q268 505 296 493T342 460T370 409T386 347H392Q434 347 469 364T529 407L544 380Q524 348 481 327T391 298Q391 288 391 278T392 257Q392 134 347 64T221 -6Q188 -6 155 6T94
46T51 118T34 227Q34 271 43 320T75 410T135 478T229 505ZM239 70Q292 70 317 122T342 271Q342 277 342 283T341 295Q312 297 300 308T287 345Q287 368 297 377T327 388Q315 423 297 436T255 450Q224 450 203 430T168 377T148 307T142 231Q142 182 151 151T174
102T205 77T239 70ZM357 561L271 662L130 561H96L262 728H283L379 561H357Z" />
<glyph unicode="&#xf5;" glyph-name="otilde" horiz-adv-x="419" d="M229 505Q268 505 296 493T342 460T370 409T386 347H392Q434 347 469 364T529 407L544 380Q524 348 481 327T391 298Q391 288 391 278T392 257Q392 134 347 64T221 -6Q188 -6 155 6T94 46T51
118T34 227Q34 271 43 320T75 410T135 478T229 505ZM239 70Q292 70 317 122T342 271Q342 277 342 283T341 295Q312 297 300 308T287 345Q287 368 297 377T327 388Q315 423 297 436T255 450Q224 450 203 430T168 377T148 307T142 231Q142 182 151 151T174 102T205
77T239 70ZM413 665Q413 649 403 633T375 604T335 583T287 575Q265 575 245 580T205 591T166 603T129 608Q95 608 74 584L69 586Q82 630 115 652T200 674Q225 674 245 670T283 660T318 650T355 645Q372 645 386 650T408 665H413Z" />
<glyph unicode="&#xf6;" glyph-name="odieresis" horiz-adv-x="419" d="M229 505Q268 505 296 493T342 460T370 409T386 347H392Q434 347 469 364T529 407L544 380Q524 348 481 327T391 298Q391 288 391 278T392 257Q392 134 347 64T221 -6Q188 -6 155 6T94 46T51
118T34 227Q34 271 43 320T75 410T135 478T229 505ZM239 70Q292 70 317 122T342 271Q342 277 342 283T341 295Q312 297 300 308T287 345Q287 368 297 377T327 388Q315 423 297 436T255 450Q224 450 203 430T168 377T148 307T142 231Q142 182 151 151T174 102T205
77T239 70ZM108 645Q108 667 123 683T161 699Q183 699 199 683T215 645Q215 622 199 607T161 592Q138 592 123 607T108 645ZM267 645Q267 667 282 683T320 699Q342 699 358 683T374 645Q374 622 358 607T320 592Q297 592 282 607T267 645Z" />
<glyph unicode="&#xf7;" glyph-name="divide" horiz-adv-x="418" d="M143 431Q143 458 162 478T209 498Q236 498 256 478T276 431Q276 403 256 384T209 365Q181 365 162 384T143 431ZM144 66Q144 93 163 113T210 133Q237 133 257 113T277 66Q277 38 257 19T210
0Q182 0 163 19T144 66ZM384 215H34V285H384V215Z" />
<glyph unicode="&#xf8;" glyph-name="oslash" horiz-adv-x="419" d="M200 -103V-5Q169 -2 139 12T86 54T49 124T34 227Q34 269 42 316T72 403T127 472T213 504V605H265V502Q294 496 315 482T350 448T373 402T386 347H392Q434 347 469 364T529 407L544 380Q524
348 481 327T391 298Q391 288 391 278T392 257Q392 145 356 78T252 -3V-103H200ZM239 70Q292 70 317 122T342 271Q342 277 342 283T341 295Q312 297 300 308T287 345Q287 368 297 377T327 388Q315 423 297 436T255 450Q224 450 203 430T168 377T148 307T142 231Q142
182 151 151T174 102T205 77T239 70Z" />
<glyph unicode="&#xf9;" glyph-name="ugrave" horiz-adv-x="454" d="M384 500V160Q384 150 385 135T390 106T404 81T429 70Q478 70 501 179H538Q527 116 510 80T474 24T435 0T399 -6Q376 -6 360 2T332 23T313 53T302 88Q283 39 252 17T187 -6Q158 -6 132 2T87
28T57 76T46 149V500H146V160Q146 111 163 91T206 70Q220 70 234 77T259 99T277 133T284 179V500H384ZM229 561H174L73 750H158L229 561Z" />
<glyph unicode="&#xfa;" glyph-name="uacute" horiz-adv-x="454" d="M384 500V160Q384 150 385 135T390 106T404 81T429 70Q478 70 501 179H538Q527 116 510 80T474 24T435 0T399 -6Q376 -6 360 2T332 23T313 53T302 88Q283 39 252 17T187 -6Q158 -6 132 2T87
28T57 76T46 149V500H146V160Q146 111 163 91T206 70Q220 70 234 77T259 99T277 133T284 179V500H384ZM230 750H315L234 561H179L230 750Z" />
<glyph unicode="&#xfb;" glyph-name="ucircumflex" horiz-adv-x="454" d="M384 500V160Q384 150 385 135T390 106T404 81T429 70Q478 70 501 179H538Q527 116 510 80T474 24T435 0T399 -6Q376 -6 360 2T332 23T313 53T302 88Q283 39 252 17T187 -6Q158 -6 132
2T87 28T57 76T46 149V500H146V160Q146 111 163 91T206 70Q220 70 234 77T259 99T277 133T284 179V500H384ZM340 561L254 662L113 561H79L245 728H266L362 561H340Z" />
<glyph unicode="&#xfc;" glyph-name="udieresis" horiz-adv-x="454" d="M384 500V160Q384 150 385 135T390 106T404 81T429 70Q478 70 501 179H538Q527 116 510 80T474 24T435 0T399 -6Q376 -6 360 2T332 23T313 53T302 88Q283 39 252 17T187 -6Q158 -6 132 2T87
28T57 76T46 149V500H146V160Q146 111 163 91T206 70Q220 70 234 77T259 99T277 133T284 179V500H384ZM237 645Q237 667 252 683T290 699Q312 699 328 683T344 645Q344 622 328 607T290 592Q267 592 252 607T237 645ZM78 645Q78 667 93 683T131 699Q153 699 169
683T185 645Q185 622 169 607T131 592Q108 592 93 607T78 645Z" />
<glyph unicode="&#xfd;" glyph-name="yacute" horiz-adv-x="454" d="M384 500V21Q409 29 428 39T462 66T486 110T501 179H538Q530 126 518 93T487 39T443 7T384 -15V-79Q384 -126 374 -158T347 -211T307 -241T259 -250Q209 -250 181 -222T153 -152Q153 -126 164
-105T194 -67T236 -36T284 -12V51Q264 22 239 8T187 -6Q158 -6 132 2T87 28T57 76T46 149V500H146V160Q146 111 163 91T206 70Q220 70 234 77T259 97T277 130T284 174V500H384ZM233 750H318L237 561H182L233 750ZM240 -198Q267 -198 275 -178T284 -122V-52Q234
-75 213 -97T192 -148Q192 -171 204 -184T240 -198Z" />
<glyph unicode="&#xfe;" glyph-name="thorn" horiz-adv-x="473" d="M46 485Q46 522 43 551T31 605T7 653T-31 700H-8Q17 685 42 666T89 620T125 553T145 458Q164 479 189 492T249 505Q284 505 314 491T367 446T403 366T416 248Q416 206 408 162T379 80T324 18T237
-6Q211 -6 188 7T147 42V-224L46 -250V485ZM215 440Q193 440 176 428T147 392V92Q161 74 178 66T207 58Q239 58 260 77T293 126T311 190T316 256Q316 311 307 346T283 403T250 432T215 440Z" />
<glyph unicode="&#xff;" glyph-name="ydieresis" horiz-adv-x="454" d="M384 500V21Q409 29 428 39T462 66T486 110T501 179H538Q530 126 518 93T487 39T443 7T384 -15V-79Q384 -126 374 -158T347 -211T307 -241T259 -250Q209 -250 181 -222T153 -152Q153 -126
164 -105T194 -67T236 -36T284 -12V51Q264 22 239 8T187 -6Q158 -6 132 2T87 28T57 76T46 149V500H146V160Q146 111 163 91T206 70Q220 70 234 77T259 99T277 133T284 179V500H384ZM240 -198Q267 -198 275 -178T284 -122V-52Q234 -75 213 -97T192 -148Q192 -171
204 -184T240 -198ZM82 645Q82 667 97 683T135 699Q157 699 173 683T189 645Q189 622 173 607T135 592Q112 592 97 607T82 645ZM241 645Q241 667 256 683T294 699Q316 699 332 683T348 645Q348 622 332 607T294 592Q271 592 256 607T241 645Z" />
<glyph unicode="&#x2013;" glyph-name="endash" horiz-adv-x="379" d="M320 231H59V301H320V231Z" />
<glyph unicode="&#x2014;" glyph-name="emdash" horiz-adv-x="469" d="M410 231H59V301H410V231Z" />
<glyph unicode="&#x2018;" glyph-name="quoteleft" horiz-adv-x="208" d="M173 553Q173 540 167 529T152 511T131 499T108 494Q70 494 54 517T37 574Q37 598 44 624T64 675T93 719T129 748Q138 743 140 737T143 724Q143 714 140 704T132 683T125 663T121 644Q121
629 125 623T134 613T147 608T159 601T169 585T173 553Z" />
<glyph unicode="&#x2019;" glyph-name="quoteright" horiz-adv-x="205" d="M35 689Q35 702 41 713T56 731T77 743T100 748Q138 748 154 725T171 668Q171 644 164 618T144 567T115 523T79 494Q70 499 68 505T65 518Q65 528 68 538T76 559T83 579T87 598Q87 613
83 619T74 629T61 634T49 641T39 657T35 689Z" />
<glyph unicode="&#x201a;" glyph-name="quotesinglbase" horiz-adv-x="216" d="M39 69Q39 82 45 93T60 111T81 123T104 128Q142 128 158 105T175 48Q175 24 168 -2T148 -53T119 -97T83 -126Q74 -121 72 -115T69 -102Q69 -92 72 -82T80 -61T87 -41T91 -22Q91 -7
87 -1T78 9T65 14T53 21T43 37T39 69Z" />
<glyph unicode="&#x201c;" glyph-name="quotedblleft" horiz-adv-x="425" d="M173 553Q173 540 167 529T152 511T131 499T108 494Q70 494 54 517T37 574Q37 598 44 624T64 675T93 719T129 748Q138 743 140 737T143 724Q143 714 140 704T132 683T125 663T121 644Q121
629 125 623T134 613T147 608T159 601T169 585T173 553ZM390 553Q390 540 384 529T369 511T348 499T325 494Q287 494 271 517T254 574Q254 598 261 624T281 675T310 719T346 748Q355 743 357 737T360 724Q360 714 357 704T349 683T342 663T338 644Q338 629 342
623T351 613T364 608T376 601T386 585T390 553Z" />
<glyph unicode="&#x201d;" glyph-name="quotedblright" horiz-adv-x="422" d="M252 689Q252 702 258 713T273 731T294 743T317 748Q355 748 371 725T388 668Q388 644 381 618T361 567T332 523T296 494Q287 499 285 505T282 518Q282 528 285 538T293 559T300 579T304
598Q304 613 300 619T291 629T278 634T266 641T256 657T252 689ZM35 689Q35 702 41 713T56 731T77 743T100 748Q138 748 154 725T171 668Q171 644 164 618T144 567T115 523T79 494Q70 499 68 505T65 518Q65 528 68 538T76 559T83 579T87 598Q87 613 83 619T74 629T61
634T49 641T39 657T35 689Z" />
<glyph unicode="&#x201e;" glyph-name="quotedblbase" horiz-adv-x="435" d="M39 69Q39 82 45 93T60 111T81 123T104 128Q142 128 158 105T175 48Q175 24 168 -2T148 -53T119 -97T83 -126Q74 -121 72 -115T69 -102Q69 -92 72 -82T80 -61T87 -41T91 -22Q91 -7 87
-1T78 9T65 14T53 21T43 37T39 69ZM258 69Q258 82 264 93T279 111T300 123T323 128Q361 128 377 105T394 48Q394 24 387 -2T367 -53T338 -97T302 -126Q293 -121 291 -115T288 -102Q288 -92 291 -82T299 -61T306 -41T310 -22Q310 -7 306 -1T297 9T284 14T272 21T262
37T258 69Z" />
<glyph unicode="&#x2022;" glyph-name="bullet" horiz-adv-x="253" d="M44 267Q44 302 67 326T126 350Q161 350 185 326T209 267Q209 232 185 209T126 185Q91 185 68 208T44 267Z" />
<glyph unicode="&#x2039;" glyph-name="guilsinglleft" horiz-adv-x="306" d="M247 404L104 253L271 113L240 69L21 254L196 449L247 404Z" />
<glyph unicode="&#x203a;" glyph-name="guilsinglright" horiz-adv-x="309" d="M60 114L203 265L36 405L67 449L286 264L111 69L60 114Z" />
</font>
</defs>
</svg>
