<?xml version="1.0" encoding="utf-8"?>
<!-- Generator: Adobe Illustrator 24.3.0, SVG Export Plug-In . SVG Version: 6.00 Build 0)  -->
<svg version="1.1" id="Ebene_1" xmlns="http://www.w3.org/2000/svg" xmlns:xlink="http://www.w3.org/1999/xlink" x="0px" y="0px"
	 viewBox="0 0 949 114" style="enable-background:new 0 0 949 114;" xml:space="preserve">
<style type="text/css">
	.st0{fill:#2F495E;}
	.st1{fill:#E83162;}
	.st2{fill:#AF235C;}
	.st3{fill:url(#SVGID_1_);}
	.st4{fill:url(#SVGID_2_);}
</style>
<path class="st0" d="M256.9,37.6c3.4,4,5.1,10,5.1,18v29.4c0,2.2-0.7,4-2,5.3c-1.3,1.3-3.1,1.9-5.4,1.9s-4.1-0.6-5.5-1.9
	c-1.4-1.3-2-3-2-5.3V56.5c0-4.5-0.9-7.8-2.6-9.9c-1.7-2.1-4.4-3.1-8.1-3.1c-4.3,0-7.8,1.3-10.3,4.1c-2.6,2.7-3.9,6.3-3.9,10.9V85
	c0,2.2-0.7,4-2,5.3c-1.4,1.3-3.2,1.9-5.5,1.9s-4.1-0.6-5.4-1.9c-1.3-1.3-2-3-2-5.3V38.8c0-2.1,0.7-3.7,2-5c1.4-1.3,3.2-1.9,5.5-1.9
	c2.1,0,3.8,0.6,5.1,1.8c1.3,1.2,2,2.8,2,4.8v3.2c2-3.3,4.7-5.8,8-7.5c3.4-1.8,7.1-2.6,11.4-2.6C248.2,31.6,253.4,33.6,256.9,37.6z"
	/>
<path class="st0" d="M328.8,33.8c1.4,1.3,2,3,2,5.1v46.4c0,2.1-0.7,3.8-2.1,5s-3.2,1.9-5.4,1.9c-2.1,0-3.9-0.6-5.1-1.8
	c-1.3-1.2-1.9-2.8-1.9-4.9v-3c-1.8,3.2-4.3,5.6-7.4,7.3s-6.6,2.6-10.5,2.6c-14.3,0-21.5-8-21.5-24.1V38.9c0-2.2,0.7-3.9,2-5.1
	c1.4-1.3,3.1-1.9,5.4-1.9c2.3,0,4.1,0.6,5.5,1.9c1.4,1.3,2,3,2,5.1v29.5c0,4.1,0.8,7.2,2.5,9.2s4.3,3,7.9,3c4.1,0,7.5-1.4,10-4.1
	s3.8-6.4,3.8-10.9V38.9c0-2.2,0.7-3.9,2-5.1c1.4-1.3,3.1-1.9,5.4-1.9C325.6,31.9,327.4,32.5,328.8,33.8z"/>
<path class="st0" d="M399.1,85.4c0,1.8-0.7,3.3-2,4.7c-1.4,1.4-3,2.1-4.8,2.1c-2,0-3.7-0.8-5.1-2.5l-16.9-18.6l-16.9,18.6
	c-1.5,1.6-3.2,2.4-5.1,2.4c-1.8,0-3.3-0.7-4.7-2c-1.4-1.3-2-2.9-2-4.7c0-1.8,0.7-3.5,2.1-4.9l17.4-19l-16.5-17.9
	c-1.4-1.4-2.1-3.1-2.1-4.9s0.7-3.4,2-4.7s2.9-2,4.7-2c1.9,0,3.6,0.8,5.1,2.4l15.9,17.4l15.9-17.4c1.5-1.6,3.2-2.4,5.1-2.4
	c1.8,0,3.4,0.7,4.7,2s2,2.9,2,4.7s-0.7,3.5-2.1,4.9l-16.5,17.9l17.6,19C398.4,81.9,399.2,83.6,399.1,85.4L399.1,85.4z"/>
<path class="st0" d="M446.2,86.5c0,1.9-0.8,3.4-2.3,4.4s-3.8,1.4-6.6,1.2l-3.2-0.2c-13.4-1-20.1-8.1-20.1-21.5v-26h-6
	c-2.1,0-3.8-0.5-5-1.4s-1.7-2.3-1.7-4.2s0.6-3.2,1.7-4.2c1.1-1,2.8-1.4,5-1.4h6v-11c0-2.1,0.7-3.9,2-5.1c1.4-1.3,3.2-1.9,5.5-1.9
	c2.2,0,4,0.6,5.4,1.9c1.4,1.3,2,3,2,5.1v11h10.2c2.1,0,3.8,0.5,5,1.4c1.1,1,1.7,2.3,1.7,4.2s-0.6,3.2-1.7,4.2c-1.2,1-2.8,1.4-5,1.4
	h-10.2v27.1c0,5.9,2.7,9,8.1,9.4l3.2,0.2C444.2,81.3,446.2,83.1,446.2,86.5z"/>
<g>
	<path class="st1" d="M486.5,87.3c-2.5-1.5-3.8-3.7-3.8-6.4c0-1.6,0.4-2.9,1.3-3.9c0.9-1,2-1.5,3.2-1.5c1.4,0,3.2,0.6,5.6,1.9
		c2.5,1.2,4.9,2.1,7,2.8s4.8,1,8.1,1c3.4,0,6-0.6,7.8-1.7c1.9-1.1,2.8-2.7,2.8-4.7c0-1.3-0.4-2.4-1.1-3.2c-0.8-0.8-2.1-1.5-4.1-2.2
		s-4.9-1.4-8.9-2.3c-7.1-1.4-12.2-3.5-15.2-6.1c-3.1-2.6-4.6-6.2-4.6-10.9c0-3.5,1-6.7,3.1-9.5c2.1-2.8,4.9-5,8.5-6.6
		s7.8-2.3,12.4-2.3c3.4,0,6.6,0.4,9.7,1.2c3.1,0.8,5.9,2,8.4,3.6c2.5,1.6,3.8,3.7,3.8,6.3c0,1.6-0.4,2.9-1.3,4
		c-0.9,1.1-2,1.6-3.2,1.6c-0.9,0-1.7-0.2-2.6-0.5s-1.9-0.9-3.2-1.6c-2.3-1.2-4.3-2.1-6-2.7s-3.8-0.9-6.2-0.9c-3,0-5.3,0.6-7,1.8
		s-2.6,2.8-2.6,4.9c0,2,0.9,3.5,2.6,4.5c1.8,1,5.1,2.1,10.2,3.1c5.3,1.1,9.5,2.4,12.5,3.8c3,1.4,5.2,3.2,6.5,5.4s2,4.9,2,8.2
		c0,5.4-2.2,9.8-6.8,13c-4.5,3.3-10.5,4.9-18,4.9C498.8,92.5,491.8,90.7,486.5,87.3L486.5,87.3z"/>
	<path class="st1" d="M591.3,35.5c3.9,2.5,7,6.2,9.2,10.8s3.3,10,3.3,16.1s-1.1,11.4-3.3,15.9s-5.2,8.1-9.1,10.5
		c-3.9,2.5-8.4,3.7-13.5,3.7c-4.1,0-7.8-0.9-11.1-2.6c-3.3-1.8-5.8-4.2-7.5-7.3v24.4c0,2.1-0.7,3.7-2,4.9s-3.2,1.8-5.4,1.8
		s-4-0.6-5.4-1.9c-1.4-1.3-2.1-2.9-2.1-5V38.9c0-2.2,0.7-3.9,2-5.1c1.3-1.3,3.1-1.9,5.3-1.9s4,0.6,5.4,1.9c1.3,1.3,2,3,2,5.1v3
		c1.8-3.3,4.3-5.8,7.6-7.6c3.3-1.8,7.1-2.7,11.3-2.7C582.9,31.6,587.4,32.9,591.3,35.5L591.3,35.5z M584.9,76
		c2.6-3.2,3.9-7.8,3.9-13.7c0-6-1.3-10.8-3.9-14.1c-2.6-3.3-6.3-5-11-5c-4.8,0-8.5,1.6-11,4.9s-3.9,7.9-3.9,14
		c0,6,1.3,10.6,3.9,13.9s6.3,4.9,11,4.9C578.6,80.9,582.3,79.2,584.9,76z"/>
	<path class="st1" d="M665.6,77c0.8,1,1.2,2.4,1.2,4.2c0,2.5-1.5,4.5-4.4,6.2c-2.7,1.5-5.8,2.7-9.2,3.6c-3.4,0.9-6.7,1.4-9.8,1.4
		c-9.4,0-16.8-2.7-22.3-8.1c-5.5-5.4-8.2-12.8-8.2-22.2c0-6,1.2-11.3,3.6-15.9c2.4-4.6,5.8-8.2,10.1-10.8c4.3-2.5,9.3-3.8,14.8-3.8
		c5.3,0,9.8,1.2,13.7,3.5c3.9,2.3,6.9,5.6,9.1,9.8s3.2,9.2,3.2,14.9c0,3.4-1.5,5.1-4.5,5.1h-35.2c0.5,5.5,2,9.5,4.7,12.1
		s6.5,3.9,11.5,3.9c2.5,0,4.8-0.3,6.8-1s4.2-1.5,6.6-2.6c2.4-1.3,4.1-1.9,5.3-1.9C663.7,75.5,664.8,76,665.6,77z M632,46
		c-2.4,2.5-3.9,6.2-4.4,11h27c-0.2-4.9-1.4-8.5-3.6-11c-2.2-2.5-5.3-3.8-9.3-3.8C637.6,42.2,634.4,43.4,632,46z"/>
	<path class="st1" d="M729.1,77c0.8,1,1.2,2.4,1.2,4.2c0,2.5-1.5,4.5-4.4,6.2c-2.7,1.5-5.8,2.7-9.2,3.6c-3.4,0.9-6.7,1.4-9.8,1.4
		c-9.4,0-16.8-2.7-22.3-8.1c-5.5-5.4-8.2-12.8-8.2-22.2c0-6,1.2-11.3,3.6-15.9c2.4-4.6,5.8-8.2,10.1-10.8c4.3-2.5,9.3-3.8,14.8-3.8
		c5.3,0,9.8,1.2,13.7,3.5c3.9,2.3,6.9,5.6,9.1,9.8s3.2,9.2,3.2,14.9c0,3.4-1.5,5.1-4.5,5.1H691c0.5,5.5,2,9.5,4.7,12.1
		s6.5,3.9,11.5,3.9c2.5,0,4.8-0.3,6.8-1s4.2-1.5,6.6-2.6c2.4-1.3,4.1-1.9,5.3-1.9C727.1,75.5,728.2,76,729.1,77z M695.4,46
		c-2.4,2.5-3.9,6.2-4.4,11h27c-0.2-4.9-1.4-8.5-3.6-11c-2.2-2.5-5.3-3.8-9.3-3.8C701.1,42.2,697.8,43.4,695.4,46z"/>
	<path class="st1" d="M797.2,8.6c1.4,1.3,2.2,2.9,2.2,5V85c0,2.2-0.7,3.9-2,5.1c-1.4,1.3-3.2,1.9-5.4,1.9s-4-0.6-5.4-1.9s-2-3-2-5.1
		v-3c-1.8,3.3-4.3,5.8-7.6,7.7c-3.3,1.8-7.1,2.8-11.3,2.8c-5,0-9.5-1.3-13.4-3.8s-7-6.2-9.2-10.8s-3.3-10-3.3-16.1
		c0-6,1.1-11.3,3.3-15.9c2.2-4.5,5.2-8,9.1-10.5s8.4-3.7,13.5-3.7c4.2,0,8,0.9,11.2,2.6c3.3,1.8,5.8,4.2,7.5,7.4V13.4
		c0-2,0.7-3.6,2-4.8c1.3-1.2,3.1-1.8,5.3-1.8S795.8,7.3,797.2,8.6L797.2,8.6z M780.7,76c2.6-3.3,3.9-7.9,3.9-14
		c0-6-1.3-10.7-3.9-13.9c-2.6-3.2-6.2-4.8-10.9-4.8c-4.8,0-8.5,1.6-11.1,4.8s-3.9,7.8-3.9,13.7c0,6.1,1.3,10.8,3.9,14.1
		c2.6,3.3,6.3,5,11,5C774.4,80.9,778.1,79.2,780.7,76z"/>
	<path class="st1" d="M869.2,85.1c0,1.8-0.7,3.5-2,4.9s-2.8,2.2-4.6,2.2s-3.4-0.7-4.9-2.2l-28-25.3v20.4c0,2.3-0.7,4.1-2.2,5.3
		s-3.2,1.8-5.4,1.8s-3.9-0.6-5.3-1.8c-1.4-1.2-2.1-2.9-2.1-5.3V13.7c0-2.3,0.7-4.1,2.1-5.3s3.2-1.8,5.3-1.8s3.9,0.6,5.4,1.8
		c1.4,1.2,2.2,2.9,2.2,5.3v44.9l25.6-24.5c1.4-1.4,3.1-2.2,4.9-2.2s3.4,0.7,4.8,2c1.3,1.4,2,3,2,4.8s-0.8,3.5-2.3,5L846,61.3
		l20.8,18.6C868.4,81.4,869.2,83.1,869.2,85.1L869.2,85.1z"/>
	<path class="st1" d="M879.8,19c-1.6-1.5-2.4-3.4-2.4-5.8c0-2.4,0.8-4.3,2.4-5.7c1.6-1.4,3.7-2.2,6.5-2.2c2.6,0,4.8,0.7,6.4,2.2
		s2.5,3.3,2.5,5.7s-0.8,4.3-2.4,5.8s-3.7,2.2-6.5,2.2S881.4,20.5,879.8,19z M880.9,90.4c-1.4-1.2-2.1-3-2.1-5.3V38.9
		c0-2.3,0.7-4.1,2.1-5.3c1.4-1.2,3.2-1.8,5.3-1.8s3.9,0.6,5.4,1.8c1.4,1.2,2.2,3,2.2,5.3v46.1c0,2.3-0.7,4.1-2.2,5.3
		c-1.4,1.2-3.2,1.8-5.4,1.8S882.3,91.6,880.9,90.4z"/>
	<path class="st1" d="M948,86.5c0,1.9-0.8,3.4-2.3,4.4c-1.5,1-3.8,1.4-6.6,1.2l-3.2-0.2c-13.4-1-20.1-8.1-20.1-21.5v-26h-6
		c-2.2,0-3.8-0.5-5-1.4c-1.2-1-1.7-2.3-1.7-4.2s0.6-3.2,1.7-4.2c1.2-1,2.8-1.4,5-1.4h6v-11c0-2.1,0.7-3.9,2-5.1
		c1.3-1.3,3.2-1.9,5.5-1.9c2.2,0,4,0.6,5.4,1.9c1.3,1.3,2,3,2,5.1v11h10.2c2.2,0,3.8,0.5,5,1.4c1.2,1,1.7,2.3,1.7,4.2
		s-0.6,3.2-1.7,4.2c-1.2,1-2.8,1.4-5,1.4h-10.2v27.1c0,5.9,2.7,9,8.1,9.4l3.2,0.2C946,81.3,948,83.1,948,86.5z"/>
</g>
<path class="st0" d="M33.8,46.9l10.2,10.2L33.6,67.4L23.4,57.3L33.8,46.9z M33.8,28.3c-3,0-6,1.1-8.3,3.4L0,57.3l25.3,25.3
	c2.3,2.3,5.3,3.4,8.3,3.4s6-1.1,8.3-3.4L67.3,57L42.1,31.8C39.8,29.5,36.8,28.3,33.8,28.3z"/>
<path class="st2" d="M153.8,71.4l-41.5,41.5c-1.1,1.1-2.9,1.1-4,0l-10.4-10.4c-1.1-1.1-1.1-2.9,0-4l41.5-41.5L153.8,71.4z"/>
<linearGradient id="SVGID_1_" gradientUnits="userSpaceOnUse" x1="142.1249" y1="47.3849" x2="146.58" y2="51.8401" gradientTransform="matrix(1 0 0 -1 0 116)">
	<stop  offset="0" style="stop-color:#000000;stop-opacity:0"/>
	<stop  offset="1" style="stop-color:#000000;stop-opacity:0.2"/>
</linearGradient>
<path class="st3" d="M153.8,71.4l-4.4,4.5l-14.5-14.5l4.5-4.5L153.8,71.4z"/>
<path class="st1" d="M153.8,71.4L98,15.5c-1.1-1.1-1.1-2.9,0-4l10.4-10.4c1.1-1.1,2.9-1.1,4,0l53.8,53.8c1.1,1.1,1.1,2.9,0,4
	L153.8,71.4z"/>
<path class="st2" d="M103.3,42.6L61.8,1.2c-1.1-1.1-2.9-1.1-4,0L47.3,11.6c-1.1,1.1-1.1,2.9,0,4l41.5,41.5L103.3,42.6z"/>
<linearGradient id="SVGID_2_" gradientUnits="userSpaceOnUse" x1="312.9968" y1="462.3203" x2="317.4518" y2="466.7753" gradientTransform="matrix(1 0 0 1 -221.4268 -416.9403)">
	<stop  offset="0" style="stop-color:#000000;stop-opacity:0"/>
	<stop  offset="1" style="stop-color:#000000;stop-opacity:0.2"/>
</linearGradient>
<path class="st4" d="M103.3,42.6l-4.5-4.5L84.3,52.6l4.4,4.5L103.3,42.6z"/>
<path class="st1" d="M103.3,42.6L47.4,98.5c-1.1,1.1-1.1,2.9,0,4l10.5,10.4c1.1,1.1,2.9,1.1,4,0l53.8-53.8c1.1-1.1,1.1-2.9,0-4
	L103.3,42.6z"/>
</svg>
