<svg id="Ebene_1" data-name="Ebene 1" xmlns="http://www.w3.org/2000/svg" viewBox="0 0 220 40"><title>logo-dark</title><rect x="15.95" y="5.76" width="3.41" height="1.7" transform="translate(0.49 14.42) rotate(-45)" style="fill:#e6faf2"/><rect x="13.55" y="3.36" width="3.41" height="1.7" transform="translate(1.49 12.02) rotate(-45)" style="fill:#e6faf2"/><rect x="11.14" y="0.95" width="3.41" height="1.7" transform="translate(2.49 9.61) rotate(-45)" style="fill:#e6faf2"/><rect x="11.99" y="36.49" width="1.7" height="3.41" transform="translate(-23.24 20.27) rotate(-45)" style="fill:#e6faf2"/><polygon points="20.62 7.18 18.22 9.58 28.64 20 18.22 30.42 20.62 32.82 33.44 20 20.62 7.18" style="fill:#e6faf2"/><rect x="14.4" y="34.09" width="1.7" height="3.41" transform="translate(-20.84 21.27) rotate(-45)" style="fill:#e6faf2"/><rect x="16.8" y="31.68" width="1.7" height="3.41" transform="translate(-18.44 22.26) rotate(-45)" style="fill:#e6faf2"/><polygon points="11.41 13.99 9 16.39 12.61 20 9 23.61 11.41 26.01 17.42 20 11.41 13.99" style="fill:#00cd81"/><rect x="6.74" y="12.57" width="3.41" height="1.7" transform="translate(-7.02 9.9) rotate(-45)" style="fill:#00cd81"/><rect x="7.59" y="24.87" width="1.7" height="3.41" transform="translate(-16.32 13.75) rotate(-45)" style="fill:#00cd81"/><rect x="10.74" y="8.57" width="3.41" height="1.7" transform="translate(-3.01 11.56) rotate(-45)" style="fill:#99ebcd"/><rect x="13.15" y="10.97" width="3.41" height="1.7" transform="translate(-4.01 13.96) rotate(-45)" style="fill:#99ebcd"/><rect x="8.34" y="6.16" width="3.41" height="1.7" transform="translate(-2.02 9.15) rotate(-45)" style="fill:#99ebcd"/><rect x="9.19" y="31.28" width="1.7" height="3.41" transform="translate(-20.38 16.76) rotate(-45)" style="fill:#99ebcd"/><polygon points="17.82 12.39 15.41 14.79 20.62 20 15.41 25.21 17.82 27.61 25.43 20 17.82 12.39" style="fill:#99ebcd"/><rect x="11.59" y="28.88" width="1.7" height="3.41" transform="translate(-17.98 17.76) rotate(-45)" style="fill:#99ebcd"/><rect x="14" y="26.48" width="1.7" height="3.41" transform="translate(-15.58 18.75) rotate(-45)" style="fill:#99ebcd"/><path d="M49.21,14.1a4.86,4.86,0,0,1,3,.8A4.16,4.16,0,0,1,53.65,17a9.93,9.93,0,0,1,.42,3v7.24a1.32,1.32,0,0,1-.39,1,1.29,1.29,0,0,1-1,.4,1.25,1.25,0,0,1-1-.4,1.31,1.31,0,0,1-.38-1V20a5.21,5.21,0,0,0-.27-1.74,2.5,2.5,0,0,0-.93-1.24,3.13,3.13,0,0,0-1.85-.48,3.86,3.86,0,0,0-2,.48,3.55,3.55,0,0,0-1.31,1.24A3.29,3.29,0,0,0,44.59,20v7.21a1.32,1.32,0,0,1-.39,1,1.28,1.28,0,0,1-1,.4,1.25,1.25,0,0,1-1-.4,1.35,1.35,0,0,1-.38-1V15.8a1.37,1.37,0,0,1,.38-1,1.25,1.25,0,0,1,1-.4,1.28,1.28,0,0,1,1,.4,1.33,1.33,0,0,1,.39,1v1.51l-.49.27a4,4,0,0,1,.67-1.2,6.43,6.43,0,0,1,1.14-1.13,5.85,5.85,0,0,1,1.51-.84A5.07,5.07,0,0,1,49.21,14.1Z" style="fill:#e6faf2"/><path d="M68.4,14.42a1.28,1.28,0,0,1,1,.4,1.33,1.33,0,0,1,.39,1v7.1a6,6,0,0,1-1.56,4.39,6,6,0,0,1-4.43,1.58,5.9,5.9,0,0,1-4.39-1.58,6,6,0,0,1-1.55-4.39V15.8a1.37,1.37,0,0,1,.38-1,1.25,1.25,0,0,1,1-.4,1.28,1.28,0,0,1,1,.4,1.33,1.33,0,0,1,.39,1v7.1a3.66,3.66,0,0,0,.82,2.62,3.18,3.18,0,0,0,2.42.86,3.26,3.26,0,0,0,2.46-.86,3.66,3.66,0,0,0,.83-2.62V15.8a1.37,1.37,0,0,1,.38-1A1.27,1.27,0,0,1,68.4,14.42Z" style="fill:#e6faf2"/><path d="M73.56,14.34a1.34,1.34,0,0,1,1.11.57l9.2,11.61a1.2,1.2,0,0,1,.3.81,1.27,1.27,0,0,1-.43,1,1.4,1.4,0,0,1-.95.4,1.36,1.36,0,0,1-1.1-.57L72.48,16.5a1.2,1.2,0,0,1-.3-.81,1.29,1.29,0,0,1,.42-1A1.37,1.37,0,0,1,73.56,14.34Zm0,14.34a1.39,1.39,0,0,1-.89-.35,1.07,1.07,0,0,1-.44-.87,1.23,1.23,0,0,1,.33-.83l4.29-5.32,1.38,2.21-3.59,4.59A1.31,1.31,0,0,1,73.59,28.68Zm9.18-14.34a1.23,1.23,0,0,1,.93.37,1.16,1.16,0,0,1,.36.85A1.72,1.72,0,0,1,84,16a.93.93,0,0,1-.26.42L79.5,21.74l-1.4-2L81.69,15A1.32,1.32,0,0,1,82.77,14.34Z" style="fill:#e6faf2"/><path d="M87.79,14.59h6.34a1.23,1.23,0,0,1,1.27,1.26,1.15,1.15,0,0,1-.36.87,1.28,1.28,0,0,1-.91.35H87.79a1.26,1.26,0,0,1-.91-.36,1.22,1.22,0,0,1-.36-.88,1.18,1.18,0,0,1,.36-.89A1.25,1.25,0,0,1,87.79,14.59Zm2.83-3.51a1.32,1.32,0,0,1,1,.39,1.36,1.36,0,0,1,.37,1V25a1.58,1.58,0,0,0,.17.78.8.8,0,0,0,.44.41,1.66,1.66,0,0,0,.58.11,1.25,1.25,0,0,0,.53-.11,1.31,1.31,0,0,1,.55-.11.8.8,0,0,1,.6.3,1.17,1.17,0,0,1,.27.81,1.2,1.2,0,0,1-.71,1,3,3,0,0,1-1.51.41,7.81,7.81,0,0,1-1.08-.09,3.21,3.21,0,0,1-1.2-.4,2.44,2.44,0,0,1-1-1,4.41,4.41,0,0,1-.38-2V12.45a1.35,1.35,0,0,1,1.35-1.37Z" style="fill:#e6faf2"/><path d="M99.29,22.09a1.3,1.3,0,0,1-1-.38,1.28,1.28,0,0,1-.39-1,1.24,1.24,0,0,1,.39-.94,1.3,1.3,0,0,1,1-.38h5.08a1.36,1.36,0,0,1,1,.39,1.31,1.31,0,0,1,.4,1,1.21,1.21,0,0,1-.4.93,1.42,1.42,0,0,1-1,.36Z" style="fill:#e6faf2"/><path d="M108.2,26.41a1.5,1.5,0,0,1-.22-.88,1.11,1.11,0,0,1,.57-.85,1.22,1.22,0,0,1,.8-.2,1.37,1.37,0,0,1,.8.42,5.84,5.84,0,0,0,1.68,1.32,4.78,4.78,0,0,0,2.26.49,5.37,5.37,0,0,0,1.1-.18,2.2,2.2,0,0,0,1-.54,1.51,1.51,0,0,0,.4-1.14,1.4,1.4,0,0,0-.43-1.08A3.47,3.47,0,0,0,115,23.1c-.46-.17-1-.32-1.51-.47s-1.15-.34-1.74-.54a6.63,6.63,0,0,1-1.58-.77,3.5,3.5,0,0,1-1.59-3.09,3.51,3.51,0,0,1,.71-2.19,4.9,4.9,0,0,1,1.87-1.43,6,6,0,0,1,2.5-.51,7.41,7.41,0,0,1,1.64.2,7,7,0,0,1,1.68.64,4.78,4.78,0,0,1,1.4,1.13,1.56,1.56,0,0,1,.31.84,1,1,0,0,1-.44.86,1.08,1.08,0,0,1-.79.24,1.12,1.12,0,0,1-.75-.29,3.54,3.54,0,0,0-1.33-1,4.31,4.31,0,0,0-1.83-.37,4.12,4.12,0,0,0-1.07.15,2,2,0,0,0-.93.53,1.5,1.5,0,0,0-.38,1.1,1.38,1.38,0,0,0,.45,1.08,3.54,3.54,0,0,0,1.17.68,15,15,0,0,0,1.59.48c.56.15,1.12.32,1.66.52a6,6,0,0,1,1.49.77,3.71,3.71,0,0,1,1.08,1.21,3.79,3.79,0,0,1,.42,1.88,3.43,3.43,0,0,1-.77,2.25,4.84,4.84,0,0,1-2,1.42,6.44,6.44,0,0,1-2.47.49,8.93,8.93,0,0,1-3.06-.56A5.59,5.59,0,0,1,108.2,26.41Z" style="fill:#00dc81"/><path d="M129.1,14.18a6.08,6.08,0,0,1,3.36,1,6.84,6.84,0,0,1,2.34,2.57,8.1,8.1,0,0,1,.86,3.8,8.24,8.24,0,0,1-.86,3.82,6.69,6.69,0,0,1-2.33,2.6,5.92,5.92,0,0,1-3.29.95,5.69,5.69,0,0,1-1.94-.33,5.42,5.42,0,0,1-1.62-.85,5.58,5.58,0,0,1-1.15-1.12,2.76,2.76,0,0,1-.55-1.1l.72-.35v7.53a1.33,1.33,0,0,1-.39,1,1.36,1.36,0,0,1-1.93,0,1.37,1.37,0,0,1-.38-1V15.75a1.36,1.36,0,0,1,.38-1,1.34,1.34,0,0,1,1.93,0,1.33,1.33,0,0,1,.39,1v1.86l-.43-.24a2.54,2.54,0,0,1,.51-1.07,5.5,5.5,0,0,1,1.1-1,5.82,5.82,0,0,1,1.51-.78A5.31,5.31,0,0,1,129.1,14.18Zm-.3,2.49a4,4,0,0,0-2.25.63,4.3,4.3,0,0,0-1.5,1.71,5.5,5.5,0,0,0-.54,2.49,5.69,5.69,0,0,0,.54,2.5,4.29,4.29,0,0,0,1.5,1.75,4,4,0,0,0,2.25.63,3.91,3.91,0,0,0,2.22-.63A4.34,4.34,0,0,0,132.51,24a5.57,5.57,0,0,0,.56-2.5,5.38,5.38,0,0,0-.56-2.47A4.35,4.35,0,0,0,131,17.3,3.91,3.91,0,0,0,128.8,16.67Z" style="fill:#00dc81"/><path d="M145.06,28.9a7.72,7.72,0,0,1-3.88-.94,6.43,6.43,0,0,1-2.56-2.56,7.53,7.53,0,0,1-.91-3.74,8.08,8.08,0,0,1,1-4.06,6.9,6.9,0,0,1,2.51-2.6,6.46,6.46,0,0,1,3.28-.9,6.17,6.17,0,0,1,2.5.53,6.72,6.72,0,0,1,2.12,1.45,7.18,7.18,0,0,1,1.46,2.19A7.06,7.06,0,0,1,151.1,21a1.17,1.17,0,0,1-.43.89,1.36,1.36,0,0,1-.94.35H139.25L138.6,20h10.15l-.51.49v-.68a3,3,0,0,0-.65-1.66A3.76,3.76,0,0,0,146.2,17a4,4,0,0,0-1.74-.39,4.82,4.82,0,0,0-1.56.26,3.34,3.34,0,0,0-1.33.82,4.1,4.1,0,0,0-.91,1.5,6.44,6.44,0,0,0-.36,2.31,5.25,5.25,0,0,0,.62,2.59,4.45,4.45,0,0,0,1.68,1.71,4.55,4.55,0,0,0,2.35.61,5.67,5.67,0,0,0,1.62-.2,4.17,4.17,0,0,0,1.08-.5,9.08,9.08,0,0,0,.75-.57,1.69,1.69,0,0,1,.81-.24,1,1,0,0,1,.81.34,1.09,1.09,0,0,1,.33.79,1.38,1.38,0,0,1-.6,1.08,6.36,6.36,0,0,1-2,1.25A6.83,6.83,0,0,1,145.06,28.9Z" style="fill:#00dc81"/><path d="M160.5,28.9a7.72,7.72,0,0,1-3.88-.94,6.5,6.5,0,0,1-2.56-2.56,7.64,7.64,0,0,1-.9-3.74,8.07,8.07,0,0,1,1-4.06,6.9,6.9,0,0,1,2.51-2.6,6.47,6.47,0,0,1,3.29-.9,6.15,6.15,0,0,1,2.49.53,6.72,6.72,0,0,1,2.12,1.45A7.18,7.18,0,0,1,166,18.27a7.25,7.25,0,0,1,.57,2.74,1.21,1.21,0,0,1-.43.89,1.38,1.38,0,0,1-1,.35H154.69L154.05,20H164.2l-.51.49v-.68a3.07,3.07,0,0,0-.65-1.66A3.85,3.85,0,0,0,161.65,17a4,4,0,0,0-1.74-.39,4.88,4.88,0,0,0-1.57.26,3.31,3.31,0,0,0-1.32.82,4.11,4.11,0,0,0-.92,1.5,6.46,6.46,0,0,0-.35,2.31,5.15,5.15,0,0,0,.62,2.59A4.36,4.36,0,0,0,158,25.8a4.6,4.6,0,0,0,2.35.61,5.67,5.67,0,0,0,1.62-.2,4.17,4.17,0,0,0,1.08-.5c.29-.2.54-.39.76-.57a1.69,1.69,0,0,1,.81-.24,1.07,1.07,0,0,1,.81.34,1.12,1.12,0,0,1,.32.79,1.39,1.39,0,0,1-.59,1.08,6.6,6.6,0,0,1-2,1.25A6.87,6.87,0,0,1,160.5,28.9Z" style="fill:#00dc81"/><path d="M181,8.65A1.33,1.33,0,0,1,182,9a1.35,1.35,0,0,1,.39,1V27.25a1.32,1.32,0,0,1-.39,1,1.36,1.36,0,0,1-1.93,0,1.35,1.35,0,0,1-.38-1V25.3l.54,0a2.1,2.1,0,0,1-.39,1.1,5.46,5.46,0,0,1-1.07,1.17,5.64,5.64,0,0,1-1.59.93,5.35,5.35,0,0,1-2,.37,6,6,0,0,1-3.33-1,6.75,6.75,0,0,1-2.37-2.62,8.24,8.24,0,0,1-.86-3.82,8.21,8.21,0,0,1,.86-3.82,6.84,6.84,0,0,1,2.34-2.62,6.1,6.1,0,0,1,7.11.39,5.16,5.16,0,0,1,1.15,1.26,2.36,2.36,0,0,1,.42,1.25l-.84.08V10A1.37,1.37,0,0,1,180,9,1.3,1.3,0,0,1,181,8.65Zm-5.51,17.76a3.83,3.83,0,0,0,2.23-.65,4.35,4.35,0,0,0,1.5-1.75,6.1,6.1,0,0,0,0-5,4.38,4.38,0,0,0-1.5-1.76,4.12,4.12,0,0,0-4.44,0A4.33,4.33,0,0,0,171.76,19a6.1,6.1,0,0,0,0,5,4.3,4.3,0,0,0,1.51,1.75A3.85,3.85,0,0,0,175.48,26.41Z" style="fill:#00dc81"/><path d="M187.66,28.63a1.28,1.28,0,0,1-1-.4,1.32,1.32,0,0,1-.39-1V10a1.33,1.33,0,0,1,.39-1,1.3,1.3,0,0,1,1-.39,1.28,1.28,0,0,1,1,.39,1.37,1.37,0,0,1,.38,1V27.25a1.35,1.35,0,0,1-.38,1A1.25,1.25,0,0,1,187.66,28.63Zm8.8-14.26a1.14,1.14,0,0,1,.89.43,1.3,1.3,0,0,1,.38.87,1.34,1.34,0,0,1-.51,1l-8.45,7.55-.11-3.1,6.8-6.32A1.36,1.36,0,0,1,196.46,14.37Zm.33,14.23a1.22,1.22,0,0,1-1-.46l-5.4-5.7,2.05-1.89,5.26,5.7a1.46,1.46,0,0,1,.43,1,1.13,1.13,0,0,1-.47.95A1.44,1.44,0,0,1,196.79,28.6Z" style="fill:#00dc81"/><path d="M202.32,12.53a1.79,1.79,0,0,1-1.13-.28,1.15,1.15,0,0,1-.35-1v-.43a1.06,1.06,0,0,1,.37-.94,2,2,0,0,1,1.14-.28,1.84,1.84,0,0,1,1.16.29,1.14,1.14,0,0,1,.35.93v.43a1.14,1.14,0,0,1-.36,1A2,2,0,0,1,202.32,12.53Zm1.38,14.72a1.35,1.35,0,0,1-.38,1,1.25,1.25,0,0,1-1,.4,1.28,1.28,0,0,1-1-.4,1.32,1.32,0,0,1-.39-1V15.69a1.33,1.33,0,0,1,.39-1,1.3,1.3,0,0,1,1-.39,1.28,1.28,0,0,1,1,.39,1.37,1.37,0,0,1,.38,1Z" style="fill:#00dc81"/><path d="M207.16,14.59h6.34a1.22,1.22,0,0,1,.9.36,1.21,1.21,0,0,1,.37.9,1.13,1.13,0,0,1-.37.87,1.25,1.25,0,0,1-.9.35h-6.34a1.23,1.23,0,0,1-1.27-1.24,1.18,1.18,0,0,1,.36-.89A1.22,1.22,0,0,1,207.16,14.59ZM210,11.08a1.28,1.28,0,0,1,1,.39,1.37,1.37,0,0,1,.38,1V25a1.59,1.59,0,0,0,.16.78.85.85,0,0,0,.45.41,1.66,1.66,0,0,0,.58.11,1.21,1.21,0,0,0,.52-.11,1.36,1.36,0,0,1,.56-.11.79.79,0,0,1,.59.3,1.17,1.17,0,0,1,.27.81,1.19,1.19,0,0,1-.7,1,3,3,0,0,1-1.51.41,7.57,7.57,0,0,1-1.08-.09,3.1,3.1,0,0,1-1.2-.4,2.44,2.44,0,0,1-1-1,4.41,4.41,0,0,1-.38-2V12.45a1.33,1.33,0,0,1,.39-1A1.3,1.3,0,0,1,210,11.08Z" style="fill:#00dc81"/></svg>